<?xml version="1.0" standalone="no"?>
 <!DOCTYPE svg PUBLIC "-//W3C//DTD SVG 1.1//EN" 
 "http://www.w3.org/Graphics/SVG/1.1/DTD/svg11.dtd"> 
<svg
  xmlns:svg="http://www.w3.org/2000/svg"
  xmlns="http://www.w3.org/2000/svg"
  xmlns:xlink="http://www.w3.org/1999/xlink"
  version="1.1"
  width="200.8632mm" height="138.8110mm" viewBox="0.0000 0.0000 200.8632 138.8110">
<title>SVG Image created as base_esp32-F_Mask.svg date 2024/12/29 13:30:45 </title>
  <desc>Image generated by PCBNEW </desc>
<g style="fill:#000000; fill-opacity:1.0000;stroke:#000000; stroke-opacity:1.0000;
stroke-linecap:round; stroke-linejoin:round;"
 transform="translate(0 0) scale(1 1)">
<path style="fill:#D864FF; fill-opacity:0.4000; stroke:none;fill-rule:evenodd;"
d="M 89.7142,10.8350
88.0142,10.8350
88.0142,9.1350
89.7142,9.1350
Z" /> 
</g>
<g style="fill:#D864FF; fill-opacity:0.4000; stroke:none;">
<circle cx="91.4042" cy="9.9850" r="0.8500" /> 
<circle cx="93.9442" cy="9.9850" r="0.8500" /> 
<path style="fill:#D864FF; fill-opacity:0.4000; stroke:none;fill-rule:evenodd;"
d="M 104.1632,36.1800
104.1822,36.0843
104.2364,36.0032
104.3175,35.9490
104.4132,35.9300
104.9132,35.9300
105.0089,35.9490
105.0900,36.0032
105.1442,36.0843
105.1632,36.1800
105.1632,37.1300
105.1442,37.2257
105.0900,37.3068
105.0089,37.3610
104.9132,37.3800
104.4132,37.3800
104.3175,37.3610
104.2364,37.3068
104.1822,37.2257
104.1632,37.1300
Z" /> 
<path style="fill:#D864FF; fill-opacity:0.4000; stroke:none;fill-rule:evenodd;"
d="M 106.0632,36.1800
106.0822,36.0843
106.1364,36.0032
106.2175,35.9490
106.3132,35.9300
106.8132,35.9300
106.9089,35.9490
106.9900,36.0032
107.0442,36.0843
107.0632,36.1800
107.0632,37.1300
107.0442,37.2257
106.9900,37.3068
106.9089,37.3610
106.8132,37.3800
106.3132,37.3800
106.2175,37.3610
106.1364,37.3068
106.0822,37.2257
106.0632,37.1300
Z" /> 
<path style="fill:#D864FF; fill-opacity:0.4000; stroke:none;fill-rule:evenodd;"
d="M 115.5932,32.3700
115.6122,32.2743
115.6664,32.1932
115.7475,32.1390
115.8432,32.1200
116.3432,32.1200
116.4389,32.1390
116.5200,32.1932
116.5742,32.2743
116.5932,32.3700
116.5932,33.3200
116.5742,33.4157
116.5200,33.4968
116.4389,33.5510
116.3432,33.5700
115.8432,33.5700
115.7475,33.5510
115.6664,33.4968
115.6122,33.4157
115.5932,33.3200
Z" /> 
<path style="fill:#D864FF; fill-opacity:0.4000; stroke:none;fill-rule:evenodd;"
d="M 117.4932,32.3700
117.5122,32.2743
117.5664,32.1932
117.6475,32.1390
117.7432,32.1200
118.2432,32.1200
118.3389,32.1390
118.4200,32.1932
118.4742,32.2743
118.4932,32.3700
118.4932,33.3200
118.4742,33.4157
118.4200,33.4968
118.3389,33.5510
118.2432,33.5700
117.7432,33.5700
117.6475,33.5510
117.5664,33.4968
117.5122,33.4157
117.4932,33.3200
Z" /> 
<path style="fill:#D864FF; fill-opacity:0.4000; stroke:none;fill-rule:evenodd;"
d="M 163.8182,21.8350
165.5182,21.8350
165.5182,23.5350
163.8182,23.5350
Z" /> 
<circle cx="162.1282" cy="22.6850" r="0.8500" /> 
<path style="fill:#D864FF; fill-opacity:0.4000; stroke:none;fill-rule:evenodd;"
d="M 180.7346,62.8300
180.7346,61.1300
182.4346,61.1300
182.4346,62.8300
Z" /> 
<circle cx="181.5846" cy="64.5200" r="0.8500" /> 
<circle cx="181.5846" cy="67.0600" r="0.8500" /> 
<circle cx="181.5846" cy="69.6000" r="0.8500" /> 
<path style="fill:#D864FF; fill-opacity:0.4000; stroke:none;fill-rule:evenodd;"
d="M 185.5072,21.7120
185.5072,23.5120
183.7072,23.5120
183.7072,21.7120
Z" /> 
<circle cx="182.0672" cy="22.6120" r="0.9000" /> 
<path style="fill:#D864FF; fill-opacity:0.4000; stroke:none;fill-rule:evenodd;"
d="M 185.5072,16.0335
185.5072,17.8335
183.7072,17.8335
183.7072,16.0335
Z" /> 
</g>
<g style="fill:#D864FF; fill-opacity:0.4000; stroke:none;">
<circle cx="182.0672" cy="16.9335" r="0.9000" /> 
<path style="fill:#D864FF; fill-opacity:0.4000; stroke:none;fill-rule:evenodd;"
d="M 166.7950,69.4854
168.4950,69.4854
168.4950,71.1854
166.7950,71.1854
Z" /> 
</g>
<g style="fill:#D864FF; fill-opacity:0.4000; stroke:none;">
<circle cx="165.1050" cy="70.3354" r="0.8500" /> 
<path style="fill:#D864FF; fill-opacity:0.4000; stroke:none;fill-rule:evenodd;"
d="M 88.2532,61.2032
88.2532,59.5032
89.9532,59.5032
89.9532,61.2032
Z" /> 
<circle cx="89.1032" cy="62.8932" r="0.8500" /> 
<circle cx="89.1032" cy="65.4332" r="0.8500" /> 
<circle cx="89.1032" cy="67.9732" r="0.8500" /> 
<circle cx="113.1208" cy="18.8242" r="0.8000" /> 
</g>
<g style="fill:#D864FF; fill-opacity:0.4000; stroke:none;">
<circle cx="118.1208" cy="18.8242" r="0.8000" /> 
<path style="fill:#D864FF; fill-opacity:0.4000; stroke:none;fill-rule:evenodd;"
d="M 106.2912,89.9318
104.6912,89.9318
104.6912,88.3318
106.2912,88.3318
Z" /> 
</g>
<g style="fill:#D864FF; fill-opacity:0.4000; stroke:none;">
<circle cx="108.0312" cy="89.1318" r="0.8000" /> 
<circle cx="110.5712" cy="89.1318" r="0.8000" /> 
<circle cx="113.1112" cy="89.1318" r="0.8000" /> 
<circle cx="113.1112" cy="81.5118" r="0.8000" /> 
<circle cx="110.5712" cy="81.5118" r="0.8000" /> 
<circle cx="108.0312" cy="81.5118" r="0.8000" /> 
<circle cx="105.4912" cy="81.5118" r="0.8000" /> 
<path style="fill:#D864FF; fill-opacity:0.4000; stroke:none;fill-rule:evenodd;"
d="M 176.4420,40.8678
176.4420,39.1678
178.1420,39.1678
178.1420,40.8678
Z" /> 
<circle cx="177.2920" cy="42.5578" r="0.8500" /> 
<circle cx="177.2920" cy="45.0978" r="0.8500" /> 
<circle cx="177.2920" cy="47.6378" r="0.8500" /> 
<circle cx="88.9532" cy="84.5700" r="1.0000" /> 
</g>
<g style="fill:#D864FF; fill-opacity:0.4000; stroke:none;">
<circle cx="95.4532" cy="84.5700" r="1.0000" /> 
</g>
<g style="fill:#D864FF; fill-opacity:0.4000; stroke:none;">
<circle cx="88.9532" cy="89.0700" r="1.0000" /> 
</g>
<g style="fill:#D864FF; fill-opacity:0.4000; stroke:none;">
<circle cx="95.4532" cy="89.0700" r="1.0000" /> 
<path style="fill:#D864FF; fill-opacity:0.4000; stroke:none;fill-rule:evenodd;"
d="M 116.9160,7.1838
116.8970,7.2795
116.8428,7.3606
116.7617,7.4148
116.6660,7.4338
115.9660,7.4338
115.8703,7.4148
115.7892,7.3606
115.7350,7.2795
115.7160,7.1838
115.7160,6.2838
115.7350,6.1881
115.7892,6.1070
115.8703,6.0528
115.9660,6.0338
116.6660,6.0338
116.7617,6.0528
116.8428,6.1070
116.8970,6.1881
116.9160,6.2838
Z" /> 
<path style="fill:#D864FF; fill-opacity:0.4000; stroke:none;fill-rule:evenodd;"
d="M 114.9160,7.1838
114.8970,7.2795
114.8428,7.3606
114.7617,7.4148
114.6660,7.4338
113.9660,7.4338
113.8703,7.4148
113.7892,7.3606
113.7350,7.2795
113.7160,7.1838
113.7160,6.2838
113.7350,6.1881
113.7892,6.1070
113.8703,6.0528
113.9660,6.0338
114.6660,6.0338
114.7617,6.0528
114.8428,6.1070
114.8970,6.1881
114.9160,6.2838
Z" /> 
<path style="fill:#D864FF; fill-opacity:0.4000; stroke:none;fill-rule:evenodd;"
d="M 166.7950,61.8654
168.4950,61.8654
168.4950,63.5654
166.7950,63.5654
Z" /> 
</g>
<g style="fill:#D864FF; fill-opacity:0.4000; stroke:none;">
<circle cx="165.1050" cy="62.7154" r="0.8500" /> 
<circle cx="168.2332" cy="28.2905" r="0.8000" /> 
</g>
<g style="fill:#D864FF; fill-opacity:0.4000; stroke:none;">
<circle cx="178.3932" cy="28.2905" r="0.8000" /> 
<path style="fill:#D864FF; fill-opacity:0.4000; stroke:none;fill-rule:evenodd;"
d="M 156.8332,2.7850
158.5332,2.7850
158.5332,4.4850
156.8332,4.4850
Z" /> 
<circle cx="155.1432" cy="3.6350" r="0.8500" /> 
<path style="fill:#D864FF; fill-opacity:0.4000; stroke:none;fill-rule:evenodd;"
d="M 154.9028,34.7110
154.9028,33.0110
156.6028,33.0110
156.6028,34.7110
Z" /> 
<circle cx="155.7528" cy="36.4010" r="0.8500" /> 
<path style="fill:#D864FF; fill-opacity:0.4000; stroke:none;fill-rule:evenodd;"
d="M 147.9126,96.4854
147.9126,94.9854
148.9626,94.9854
148.9626,96.4854
Z" /> 
</g>
<g style="fill:none; 
stroke:#D864FF; stroke-width:1.0500; stroke-opacity:1; 
stroke-linecap:round; stroke-linejoin:round;">
<path d="M149.7076 95.5104
L149.7076 95.9604
" />
<path d="M150.9776 95.5104
L150.9776 95.9604
" />
<path style="fill:#D864FF; fill-opacity:0.4000; stroke:none;fill-rule:evenodd;"
d="M 108.0784,97.3478
106.3784,97.3478
106.3784,95.6478
108.0784,95.6478
Z" /> 
</g>
<g style="fill:#D864FF; fill-opacity:0.4000; stroke:none;">
<circle cx="109.7684" cy="96.4978" r="0.8500" /> 
<circle cx="112.3084" cy="96.4978" r="0.8500" /> 
<circle cx="114.8484" cy="96.4978" r="0.8500" /> 
<circle cx="117.3884" cy="96.4978" r="0.8500" /> 
<circle cx="119.9284" cy="96.4978" r="0.8500" /> 
<circle cx="122.4684" cy="96.4978" r="0.8500" /> 
<circle cx="125.0084" cy="96.4978" r="0.8500" /> 
<path style="fill:#D864FF; fill-opacity:0.4000; stroke:none;fill-rule:evenodd;"
d="M 134.5828,94.2436
134.5828,92.5436
136.2828,92.5436
136.2828,94.2436
Z" /> 
<circle cx="135.4328" cy="95.9336" r="0.8500" /> 
<path style="fill:#D864FF; fill-opacity:0.4000; stroke:none;fill-rule:evenodd;"
d="M 154.9028,15.9608
154.9028,14.2608
156.6028,14.2608
156.6028,15.9608
Z" /> 
<circle cx="155.7528" cy="17.6508" r="0.8500" /> 
<circle cx="182.6932" cy="96.0250" r="1.7000" /> 
</g>
<g style="fill:#D864FF; fill-opacity:0.4000; stroke:none;">
<circle cx="182.6932" cy="96.0250" r="3.0000" /> 
<path style="fill:#D864FF; fill-opacity:0.4000; stroke:none;fill-rule:evenodd;"
d="M 92.8242,21.3180
90.2242,21.3180
90.2242,18.7180
92.8242,18.7180
Z" /> 
</g>
<g style="fill:#D864FF; fill-opacity:0.4000; stroke:none;">
<circle cx="91.5242" cy="15.0180" r="1.3000" /> 
<path style="fill:#D864FF; fill-opacity:0.4000; stroke:none;fill-rule:evenodd;"
d="M 154.9028,28.4626
154.9028,26.7626
156.6028,26.7626
156.6028,28.4626
Z" /> 
</g>
<g style="fill:#D864FF; fill-opacity:0.4000; stroke:none;">
<circle cx="155.7528" cy="30.1526" r="0.8500" /> 
<circle cx="88.9532" cy="72.7950" r="1.0000" /> 
</g>
<g style="fill:#D864FF; fill-opacity:0.4000; stroke:none;">
<circle cx="95.4532" cy="72.7950" r="1.0000" /> 
</g>
<g style="fill:#D864FF; fill-opacity:0.4000; stroke:none;">
<circle cx="88.9532" cy="77.2950" r="1.0000" /> 
</g>
<g style="fill:#D864FF; fill-opacity:0.4000; stroke:none;">
<circle cx="95.4532" cy="77.2950" r="1.0000" /> 
<path style="fill:#D864FF; fill-opacity:0.4000; stroke:none;fill-rule:evenodd;"
d="M 163.8182,33.2650
165.5182,33.2650
165.5182,34.9650
163.8182,34.9650
Z" /> 
</g>
<g style="fill:#D864FF; fill-opacity:0.4000; stroke:none;">
<circle cx="162.1282" cy="34.1150" r="0.8500" /> 
<path style="fill:#D864FF; fill-opacity:0.4000; stroke:none;fill-rule:evenodd;"
d="M 154.9282,9.6158
154.9282,7.9158
156.6282,7.9158
156.6282,9.6158
Z" /> 
<circle cx="155.7782" cy="11.3058" r="0.8500" /> 
<path style="fill:#D864FF; fill-opacity:0.4000; stroke:none;fill-rule:evenodd;"
d="M 171.4044,61.2700
171.4158,61.2126
171.4483,61.1639
171.4970,61.1314
171.5544,61.1200
173.2544,61.1200
173.3118,61.1314
173.3605,61.1639
173.3930,61.2126
173.4044,61.2700
173.4044,61.5700
173.3930,61.6274
173.3605,61.6761
173.3118,61.7086
173.2544,61.7200
171.5544,61.7200
171.4970,61.7086
171.4483,61.6761
171.4158,61.6274
171.4044,61.5700
Z" /> 
<path style="fill:#D864FF; fill-opacity:0.4000; stroke:none;fill-rule:evenodd;"
d="M 171.4044,62.5400
171.4158,62.4826
171.4483,62.4339
171.4970,62.4014
171.5544,62.3900
173.2544,62.3900
173.3118,62.4014
173.3605,62.4339
173.3930,62.4826
173.4044,62.5400
173.4044,62.8400
173.3930,62.8974
173.3605,62.9461
173.3118,62.9786
173.2544,62.9900
171.5544,62.9900
171.4970,62.9786
171.4483,62.9461
171.4158,62.8974
171.4044,62.8400
Z" /> 
<path style="fill:#D864FF; fill-opacity:0.4000; stroke:none;fill-rule:evenodd;"
d="M 171.4044,63.8100
171.4158,63.7526
171.4483,63.7039
171.4970,63.6714
171.5544,63.6600
173.2544,63.6600
173.3118,63.6714
173.3605,63.7039
173.3930,63.7526
173.4044,63.8100
173.4044,64.1100
173.3930,64.1674
173.3605,64.2161
173.3118,64.2486
173.2544,64.2600
171.5544,64.2600
171.4970,64.2486
171.4483,64.2161
171.4158,64.1674
171.4044,64.1100
Z" /> 
<path style="fill:#D864FF; fill-opacity:0.4000; stroke:none;fill-rule:evenodd;"
d="M 171.4044,65.0800
171.4158,65.0226
171.4483,64.9739
171.4970,64.9414
171.5544,64.9300
173.2544,64.9300
173.3118,64.9414
173.3605,64.9739
173.3930,65.0226
173.4044,65.0800
173.4044,65.3800
173.3930,65.4374
173.3605,65.4861
173.3118,65.5186
173.2544,65.5300
171.5544,65.5300
171.4970,65.5186
171.4483,65.4861
171.4158,65.4374
171.4044,65.3800
Z" /> 
<path style="fill:#D864FF; fill-opacity:0.4000; stroke:none;fill-rule:evenodd;"
d="M 171.4044,66.3500
171.4158,66.2926
171.4483,66.2439
171.4970,66.2114
171.5544,66.2000
173.2544,66.2000
173.3118,66.2114
173.3605,66.2439
173.3930,66.2926
173.4044,66.3500
173.4044,66.6500
173.3930,66.7074
173.3605,66.7561
173.3118,66.7886
173.2544,66.8000
171.5544,66.8000
171.4970,66.7886
171.4483,66.7561
171.4158,66.7074
171.4044,66.6500
Z" /> 
<path style="fill:#D864FF; fill-opacity:0.4000; stroke:none;fill-rule:evenodd;"
d="M 171.4044,67.6200
171.4158,67.5626
171.4483,67.5139
171.4970,67.4814
171.5544,67.4700
173.2544,67.4700
173.3118,67.4814
173.3605,67.5139
173.3930,67.5626
173.4044,67.6200
173.4044,67.9200
173.3930,67.9774
173.3605,68.0261
173.3118,68.0586
173.2544,68.0700
171.5544,68.0700
171.4970,68.0586
171.4483,68.0261
171.4158,67.9774
171.4044,67.9200
Z" /> 
<path style="fill:#D864FF; fill-opacity:0.4000; stroke:none;fill-rule:evenodd;"
d="M 171.4044,68.8900
171.4158,68.8326
171.4483,68.7839
171.4970,68.7514
171.5544,68.7400
173.2544,68.7400
173.3118,68.7514
173.3605,68.7839
173.3930,68.8326
173.4044,68.8900
173.4044,69.1900
173.3930,69.2474
173.3605,69.2961
173.3118,69.3286
173.2544,69.3400
171.5544,69.3400
171.4970,69.3286
171.4483,69.2961
171.4158,69.2474
171.4044,69.1900
Z" /> 
<path style="fill:#D864FF; fill-opacity:0.4000; stroke:none;fill-rule:evenodd;"
d="M 171.4044,70.1600
171.4158,70.1026
171.4483,70.0539
171.4970,70.0214
171.5544,70.0100
173.2544,70.0100
173.3118,70.0214
173.3605,70.0539
173.3930,70.1026
173.4044,70.1600
173.4044,70.4600
173.3930,70.5174
173.3605,70.5661
173.3118,70.5986
173.2544,70.6100
171.5544,70.6100
171.4970,70.5986
171.4483,70.5661
171.4158,70.5174
171.4044,70.4600
Z" /> 
<path style="fill:#D864FF; fill-opacity:0.4000; stroke:none;fill-rule:evenodd;"
d="M 176.4044,70.1600
176.4158,70.1026
176.4483,70.0539
176.4970,70.0214
176.5544,70.0100
178.2544,70.0100
178.3118,70.0214
178.3605,70.0539
178.3930,70.1026
178.4044,70.1600
178.4044,70.4600
178.3930,70.5174
178.3605,70.5661
178.3118,70.5986
178.2544,70.6100
176.5544,70.6100
176.4970,70.5986
176.4483,70.5661
176.4158,70.5174
176.4044,70.4600
Z" /> 
<path style="fill:#D864FF; fill-opacity:0.4000; stroke:none;fill-rule:evenodd;"
d="M 176.4044,68.8900
176.4158,68.8326
176.4483,68.7839
176.4970,68.7514
176.5544,68.7400
178.2544,68.7400
178.3118,68.7514
178.3605,68.7839
178.3930,68.8326
178.4044,68.8900
178.4044,69.1900
178.3930,69.2474
178.3605,69.2961
178.3118,69.3286
178.2544,69.3400
176.5544,69.3400
176.4970,69.3286
176.4483,69.2961
176.4158,69.2474
176.4044,69.1900
Z" /> 
<path style="fill:#D864FF; fill-opacity:0.4000; stroke:none;fill-rule:evenodd;"
d="M 176.4044,67.6200
176.4158,67.5626
176.4483,67.5139
176.4970,67.4814
176.5544,67.4700
178.2544,67.4700
178.3118,67.4814
178.3605,67.5139
178.3930,67.5626
178.4044,67.6200
178.4044,67.9200
178.3930,67.9774
178.3605,68.0261
178.3118,68.0586
178.2544,68.0700
176.5544,68.0700
176.4970,68.0586
176.4483,68.0261
176.4158,67.9774
176.4044,67.9200
Z" /> 
<path style="fill:#D864FF; fill-opacity:0.4000; stroke:none;fill-rule:evenodd;"
d="M 176.4044,66.3500
176.4158,66.2926
176.4483,66.2439
176.4970,66.2114
176.5544,66.2000
178.2544,66.2000
178.3118,66.2114
178.3605,66.2439
178.3930,66.2926
178.4044,66.3500
178.4044,66.6500
178.3930,66.7074
178.3605,66.7561
178.3118,66.7886
178.2544,66.8000
176.5544,66.8000
176.4970,66.7886
176.4483,66.7561
176.4158,66.7074
176.4044,66.6500
Z" /> 
<path style="fill:#D864FF; fill-opacity:0.4000; stroke:none;fill-rule:evenodd;"
d="M 176.4044,65.0800
176.4158,65.0226
176.4483,64.9739
176.4970,64.9414
176.5544,64.9300
178.2544,64.9300
178.3118,64.9414
178.3605,64.9739
178.3930,65.0226
178.4044,65.0800
178.4044,65.3800
178.3930,65.4374
178.3605,65.4861
178.3118,65.5186
178.2544,65.5300
176.5544,65.5300
176.4970,65.5186
176.4483,65.4861
176.4158,65.4374
176.4044,65.3800
Z" /> 
<path style="fill:#D864FF; fill-opacity:0.4000; stroke:none;fill-rule:evenodd;"
d="M 176.4044,63.8100
176.4158,63.7526
176.4483,63.7039
176.4970,63.6714
176.5544,63.6600
178.2544,63.6600
178.3118,63.6714
178.3605,63.7039
178.3930,63.7526
178.4044,63.8100
178.4044,64.1100
178.3930,64.1674
178.3605,64.2161
178.3118,64.2486
178.2544,64.2600
176.5544,64.2600
176.4970,64.2486
176.4483,64.2161
176.4158,64.1674
176.4044,64.1100
Z" /> 
<path style="fill:#D864FF; fill-opacity:0.4000; stroke:none;fill-rule:evenodd;"
d="M 176.4044,62.5400
176.4158,62.4826
176.4483,62.4339
176.4970,62.4014
176.5544,62.3900
178.2544,62.3900
178.3118,62.4014
178.3605,62.4339
178.3930,62.4826
178.4044,62.5400
178.4044,62.8400
178.3930,62.8974
178.3605,62.9461
178.3118,62.9786
178.2544,62.9900
176.5544,62.9900
176.4970,62.9786
176.4483,62.9461
176.4158,62.8974
176.4044,62.8400
Z" /> 
<path style="fill:#D864FF; fill-opacity:0.4000; stroke:none;fill-rule:evenodd;"
d="M 176.4044,61.2700
176.4158,61.2126
176.4483,61.1639
176.4970,61.1314
176.5544,61.1200
178.2544,61.1200
178.3118,61.1314
178.3605,61.1639
178.3930,61.2126
178.4044,61.2700
178.4044,61.5700
178.3930,61.6274
178.3605,61.6761
178.3118,61.7086
178.2544,61.7200
176.5544,61.7200
176.4970,61.7086
176.4483,61.6761
176.4158,61.6274
176.4044,61.5700
Z" /> 
<circle cx="131.5974" cy="71.8086" r="0.8000" /> 
</g>
<g style="fill:#D864FF; fill-opacity:0.4000; stroke:none;">
<circle cx="141.7574" cy="71.8086" r="0.8000" /> 
<path style="fill:#D864FF; fill-opacity:0.4000; stroke:none;fill-rule:evenodd;"
d="M 108.0530,74.2592
106.3530,74.2592
106.3530,72.5592
108.0530,72.5592
Z" /> 
<circle cx="109.7430" cy="73.4092" r="0.8500" /> 
<circle cx="112.2830" cy="73.4092" r="0.8500" /> 
<circle cx="114.8230" cy="73.4092" r="0.8500" /> 
<circle cx="117.3630" cy="73.4092" r="0.8500" /> 
<circle cx="119.9030" cy="73.4092" r="0.8500" /> 
<circle cx="122.4430" cy="73.4092" r="0.8500" /> 
<circle cx="124.9830" cy="73.4092" r="0.8500" /> 
<circle cx="168.2332" cy="11.2550" r="0.8000" /> 
</g>
<g style="fill:#D864FF; fill-opacity:0.4000; stroke:none;">
<circle cx="178.3932" cy="11.2550" r="0.8000" /> 
<circle cx="168.6825" cy="2.0962" r="1.0000" /> 
</g>
<g style="fill:#D864FF; fill-opacity:0.4000; stroke:none;">
<circle cx="175.1825" cy="2.0962" r="1.0000" /> 
</g>
<g style="fill:#D864FF; fill-opacity:0.4000; stroke:none;">
<circle cx="168.6825" cy="6.5962" r="1.0000" /> 
</g>
<g style="fill:#D864FF; fill-opacity:0.4000; stroke:none;">
<circle cx="175.1825" cy="6.5962" r="1.0000" /> 
<path style="fill:#D864FF; fill-opacity:0.4000; stroke:none;fill-rule:evenodd;"
d="M 119.4330,89.9318
117.8330,89.9318
117.8330,88.3318
119.4330,88.3318
Z" /> 
</g>
<g style="fill:#D864FF; fill-opacity:0.4000; stroke:none;">
<circle cx="121.1730" cy="89.1318" r="0.8000" /> 
<circle cx="123.7130" cy="89.1318" r="0.8000" /> 
<circle cx="126.2530" cy="89.1318" r="0.8000" /> 
<circle cx="126.2530" cy="81.5118" r="0.8000" /> 
<circle cx="123.7130" cy="81.5118" r="0.8000" /> 
<circle cx="121.1730" cy="81.5118" r="0.8000" /> 
<circle cx="118.6330" cy="81.5118" r="0.8000" /> 
<path style="fill:#D864FF; fill-opacity:0.4000; stroke:none;fill-rule:evenodd;"
d="M 164.1430,42.5492
164.1430,40.8492
165.8430,40.8492
165.8430,42.5492
Z" /> 
<circle cx="164.9930" cy="44.2392" r="0.8500" /> 
<circle cx="164.9930" cy="46.7792" r="0.8500" /> 
<path style="fill:#D864FF; fill-opacity:0.4000; stroke:none;fill-rule:evenodd;"
d="M 104.8348,45.2284
106.5348,45.2284
106.5348,46.9284
104.8348,46.9284
Z" /> 
<circle cx="103.1448" cy="46.0784" r="0.8500" /> 
<circle cx="100.6048" cy="46.0784" r="0.8500" /> 
<path style="fill:#D864FF; fill-opacity:0.4000; stroke:none;fill-rule:evenodd;"
d="M 92.0632,48.9350
92.0632,47.2350
93.7632,47.2350
93.7632,48.9350
Z" /> 
<circle cx="92.9132" cy="50.6250" r="0.8500" /> 
<circle cx="92.9132" cy="53.1650" r="0.8500" /> 
<circle cx="92.9132" cy="55.7050" r="0.8500" /> 
<path style="fill:#D864FF; fill-opacity:0.4000; stroke:none;fill-rule:evenodd;"
d="M 163.8182,16.1200
165.5182,16.1200
165.5182,17.8200
163.8182,17.8200
Z" /> 
<circle cx="162.1282" cy="16.9700" r="0.8500" /> 
<path style="fill:#D864FF; fill-opacity:0.4000; stroke:none;fill-rule:evenodd;"
d="M 116.6486,61.5080
114.9486,61.5080
114.9486,59.8080
116.6486,59.8080
Z" /> 
<circle cx="118.3386" cy="60.6580" r="0.8500" /> 
<path style="fill:#D864FF; fill-opacity:0.4000; stroke:none;fill-rule:evenodd;"
d="M 111.6582,7.2600
111.6392,7.3557
111.5850,7.4368
111.5039,7.4910
111.4082,7.5100
110.7082,7.5100
110.6125,7.4910
110.5314,7.4368
110.4772,7.3557
110.4582,7.2600
110.4582,6.3600
110.4772,6.2643
110.5314,6.1832
110.6125,6.1290
110.7082,6.1100
111.4082,6.1100
111.5039,6.1290
111.5850,6.1832
111.6392,6.2643
111.6582,6.3600
Z" /> 
<path style="fill:#D864FF; fill-opacity:0.4000; stroke:none;fill-rule:evenodd;"
d="M 109.6582,7.2600
109.6392,7.3557
109.5850,7.4368
109.5039,7.4910
109.4082,7.5100
108.7082,7.5100
108.6125,7.4910
108.5314,7.4368
108.4772,7.3557
108.4582,7.2600
108.4582,6.3600
108.4772,6.2643
108.5314,6.1832
108.6125,6.1290
108.7082,6.1100
109.4082,6.1100
109.5039,6.1290
109.5850,6.1832
109.6392,6.2643
109.6582,6.3600
Z" /> 
<circle cx="168.1732" cy="33.9690" r="0.8000" /> 
</g>
<g style="fill:#D864FF; fill-opacity:0.4000; stroke:none;">
<circle cx="178.3332" cy="33.9690" r="0.8000" /> 
<path style="fill:#D864FF; fill-opacity:0.4000; stroke:none;fill-rule:evenodd;"
d="M 168.6390,96.4600
168.6390,94.9600
169.6890,94.9600
169.6890,96.4600
Z" /> 
</g>
<g style="fill:none; 
stroke:#D864FF; stroke-width:1.0500; stroke-opacity:1; 
stroke-linecap:round; stroke-linejoin:round;">
<path d="M170.4340 95.4850
L170.4340 95.9350
" />
<path d="M171.7040 95.4850
L171.7040 95.9350
" />
<path style="fill:#D864FF; fill-opacity:0.4000; stroke:none;fill-rule:evenodd;"
d="M 176.4420,52.8466
176.4420,51.1466
178.1420,51.1466
178.1420,52.8466
Z" /> 
</g>
<g style="fill:#D864FF; fill-opacity:0.4000; stroke:none;">
<circle cx="177.2920" cy="54.5366" r="0.8500" /> 
<path style="fill:#D864FF; fill-opacity:0.4000; stroke:none;fill-rule:evenodd;"
d="M 185.5072,10.3550
185.5072,12.1550
183.7072,12.1550
183.7072,10.3550
Z" /> 
<circle cx="182.0672" cy="11.2550" r="0.9000" /> 
</g>
<g style="fill:#D864FF; fill-opacity:0.4000; stroke:none;">
<circle cx="158.1804" cy="94.8210" r="1.1700" /> 
</g>
<g style="fill:#D864FF; fill-opacity:0.4000; stroke:none;">
<circle cx="163.1804" cy="92.3210" r="1.1700" /> 
</g>
<g style="fill:#D864FF; fill-opacity:0.4000; stroke:none;">
<circle cx="158.1804" cy="89.8210" r="1.1700" /> 
<path style="fill:#D864FF; fill-opacity:0.4000; stroke:none;fill-rule:evenodd;"
d="M 163.8182,10.4050
165.5182,10.4050
165.5182,12.1050
163.8182,12.1050
Z" /> 
</g>
<g style="fill:#D864FF; fill-opacity:0.4000; stroke:none;">
<circle cx="162.1282" cy="11.2550" r="0.8500" /> 
<path style="fill:#D864FF; fill-opacity:0.4000; stroke:none;fill-rule:evenodd;"
d="M 149.0286,63.2860
147.3286,63.2860
147.3286,61.5860
149.0286,61.5860
Z" /> 
<circle cx="150.7186" cy="62.4360" r="0.8500" /> 
<circle cx="99.2632" cy="93.8050" r="0.8000" /> 
</g>
<g style="fill:#D864FF; fill-opacity:0.4000; stroke:none;">
<circle cx="99.2632" cy="83.6450" r="0.8000" /> 
<circle cx="151.3332" cy="71.8340" r="0.8000" /> 
</g>
<g style="fill:#D864FF; fill-opacity:0.4000; stroke:none;">
<circle cx="148.3332" cy="71.8340" r="0.8000" /> 
<path style="fill:#D864FF; fill-opacity:0.4000; stroke:none;fill-rule:evenodd;"
d="M 180.3132,88.9550
180.3132,85.9550
183.3132,85.9550
183.3132,88.9550
Z" /> 
</g>
<g style="fill:#D864FF; fill-opacity:0.4000; stroke:none;">
<circle cx="181.8132" cy="82.4550" r="1.5000" /> 
</g>
<g style="fill:#D864FF; fill-opacity:0.4000; stroke:none;">
<circle cx="181.8132" cy="77.4550" r="1.5000" /> 
<path style="fill:#D864FF; fill-opacity:0.4000; stroke:none;fill-rule:evenodd;"
d="M 110.5132,32.3700
110.5322,32.2743
110.5864,32.1932
110.6675,32.1390
110.7632,32.1200
111.2632,32.1200
111.3589,32.1390
111.4400,32.1932
111.4942,32.2743
111.5132,32.3700
111.5132,33.3200
111.4942,33.4157
111.4400,33.4968
111.3589,33.5510
111.2632,33.5700
110.7632,33.5700
110.6675,33.5510
110.5864,33.4968
110.5322,33.4157
110.5132,33.3200
Z" /> 
<path style="fill:#D864FF; fill-opacity:0.4000; stroke:none;fill-rule:evenodd;"
d="M 112.4132,32.3700
112.4322,32.2743
112.4864,32.1932
112.5675,32.1390
112.6632,32.1200
113.1632,32.1200
113.2589,32.1390
113.3400,32.1932
113.3942,32.2743
113.4132,32.3700
113.4132,33.3200
113.3942,33.4157
113.3400,33.4968
113.2589,33.5510
113.1632,33.5700
112.6632,33.5700
112.5675,33.5510
112.4864,33.4968
112.4322,33.4157
112.4132,33.3200
Z" /> 
<path style="fill:#D864FF; fill-opacity:0.4000; stroke:none;fill-rule:evenodd;"
d="M 166.7950,58.1062
168.4950,58.1062
168.4950,59.8062
166.7950,59.8062
Z" /> 
</g>
<g style="fill:#D864FF; fill-opacity:0.4000; stroke:none;">
<circle cx="165.1050" cy="58.9562" r="0.8500" /> 
<path style="fill:#D864FF; fill-opacity:0.4000; stroke:none;fill-rule:evenodd;"
d="M 185.5072,33.0690
185.5072,34.8690
183.7072,34.8690
183.7072,33.0690
Z" /> 
<circle cx="182.0672" cy="33.9690" r="0.9000" /> 
<path style="fill:#D864FF; fill-opacity:0.4000; stroke:none;fill-rule:evenodd;"
d="M 108.3954,58.9934
108.3954,57.2934
110.0954,57.2934
110.0954,58.9934
Z" /> 
</g>
<g style="fill:#D864FF; fill-opacity:0.4000; stroke:none;">
<circle cx="109.2454" cy="60.6834" r="0.8500" /> 
<circle cx="109.2454" cy="63.2234" r="0.8500" /> 
<path style="fill:#D864FF; fill-opacity:0.4000; stroke:none;fill-rule:evenodd;"
d="M 96.9028,67.2230
95.2028,67.2230
95.2028,65.5230
96.9028,65.5230
Z" /> 
<circle cx="98.5928" cy="66.3730" r="0.8500" /> 
<path style="fill:#D864FF; fill-opacity:0.4000; stroke:none;fill-rule:evenodd;"
d="M 163.3102,52.7722
165.0102,52.7722
165.0102,54.4722
163.3102,54.4722
Z" /> 
<circle cx="161.6202" cy="53.6222" r="0.8500" /> 
<path style="fill:#D864FF; fill-opacity:0.4000; stroke:none;fill-rule:evenodd;"
d="M 160.3330,42.5492
160.3330,40.8492
162.0330,40.8492
162.0330,42.5492
Z" /> 
<circle cx="161.1830" cy="44.2392" r="0.8500" /> 
<circle cx="161.1830" cy="46.7792" r="0.8500" /> 
<path style="fill:#D864FF; fill-opacity:0.4000; stroke:none;fill-rule:evenodd;"
d="M 149.1582,48.2684
147.1582,48.2684
147.1582,47.0684
149.1582,47.0684
Z" /> 
</g>
<g style="fill:none; 
stroke:#D864FF; stroke-width:1.2000; stroke-opacity:1; 
stroke-linecap:round; stroke-linejoin:round;">
<path d="M147.7582 45.1284
L148.5582 45.1284
" />
<path d="M147.7582 42.5884
L148.5582 42.5884
" />
<path d="M147.7582 40.0484
L148.5582 40.0484
" />
<path d="M147.7582 37.5084
L148.5582 37.5084
" />
<path d="M147.7582 34.9684
L148.5582 34.9684
" />
<path d="M147.7582 32.4284
L148.5582 32.4284
" />
<path d="M147.7582 29.8884
L148.5582 29.8884
" />
<path d="M147.7582 27.3484
L148.5582 27.3484
" />
<path d="M147.7582 24.8084
L148.5582 24.8084
" />
<path d="M147.7582 22.2684
L148.5582 22.2684
" />
<path d="M147.7582 19.7284
L148.5582 19.7284
" />
<path d="M147.7582 17.1884
L148.5582 17.1884
" />
<path d="M147.7582 14.6484
L148.5582 14.6484
" />
<path d="M147.7582 12.1084
L148.5582 12.1084
" />
<path d="M147.7582 9.5684
L148.5582 9.5684
" />
<path d="M147.7582 7.0284
L148.5582 7.0284
" />
<path d="M147.7582 4.4884
L148.5582 4.4884
" />
<path d="M147.7582 1.9484
L148.5582 1.9484
" />
<path d="M122.3619 1.9512
L123.1619 1.9512
" />
<path d="M122.3619 4.4912
L123.1619 4.4912
" />
<path d="M122.3582 7.0284
L123.1582 7.0284
" />
<path d="M122.3582 9.5684
L123.1582 9.5684
" />
<path d="M122.3582 12.1084
L123.1582 12.1084
" />
<path d="M122.3582 14.6484
L123.1582 14.6484
" />
<path d="M122.3582 17.1884
L123.1582 17.1884
" />
<path d="M122.3582 19.7284
L123.1582 19.7284
" />
<path d="M122.3582 22.2684
L123.1582 22.2684
" />
<path d="M122.3582 24.8084
L123.1582 24.8084
" />
<path d="M122.3582 27.3484
L123.1582 27.3484
" />
<path d="M122.3582 29.8884
L123.1582 29.8884
" />
<path d="M122.3582 32.4284
L123.1582 32.4284
" />
<path d="M122.3582 34.9684
L123.1582 34.9684
" />
<path d="M122.3582 37.5084
L123.1582 37.5084
" />
<path d="M122.3582 40.0484
L123.1582 40.0484
" />
<path d="M122.3582 42.5884
L123.1582 42.5884
" />
<path d="M122.3582 45.1284
L123.1582 45.1284
" />
<path d="M122.3582 47.6684
L123.1582 47.6684
" />
<path style="fill:#D864FF; fill-opacity:0.4000; stroke:none;fill-rule:evenodd;"
d="M 162.3554,76.5070
164.0554,76.5070
164.0554,78.2070
162.3554,78.2070
Z" /> 
</g>
<g style="fill:#D864FF; fill-opacity:0.4000; stroke:none;">
<circle cx="160.6654" cy="77.3570" r="0.8500" /> 
<circle cx="158.1254" cy="77.3570" r="0.8500" /> 
<path style="fill:#D864FF; fill-opacity:0.4000; stroke:none;fill-rule:evenodd;"
d="M 110.5132,36.1800
110.5322,36.0843
110.5864,36.0032
110.6675,35.9490
110.7632,35.9300
111.2632,35.9300
111.3589,35.9490
111.4400,36.0032
111.4942,36.0843
111.5132,36.1800
111.5132,37.1300
111.4942,37.2257
111.4400,37.3068
111.3589,37.3610
111.2632,37.3800
110.7632,37.3800
110.6675,37.3610
110.5864,37.3068
110.5322,37.2257
110.5132,37.1300
Z" /> 
<path style="fill:#D864FF; fill-opacity:0.4000; stroke:none;fill-rule:evenodd;"
d="M 112.4132,36.1800
112.4322,36.0843
112.4864,36.0032
112.5675,35.9490
112.6632,35.9300
113.1632,35.9300
113.2589,35.9490
113.3400,36.0032
113.3942,36.0843
113.4132,36.1800
113.4132,37.1300
113.3942,37.2257
113.3400,37.3068
113.2589,37.3610
113.1632,37.3800
112.6632,37.3800
112.5675,37.3610
112.4864,37.3068
112.4322,37.2257
112.4132,37.1300
Z" /> 
<path style="fill:#D864FF; fill-opacity:0.4000; stroke:none;fill-rule:evenodd;"
d="M 162.2434,83.1110
163.9434,83.1110
163.9434,84.8110
162.2434,84.8110
Z" /> 
<circle cx="160.5534" cy="83.9610" r="0.8500" /> 
<circle cx="158.0134" cy="83.9610" r="0.8500" /> 
<path style="fill:#D864FF; fill-opacity:0.4000; stroke:none;fill-rule:evenodd;"
d="M 108.0530,78.0692
106.3530,78.0692
106.3530,76.3692
108.0530,76.3692
Z" /> 
<circle cx="109.7430" cy="77.2192" r="0.8500" /> 
<circle cx="112.2830" cy="77.2192" r="0.8500" /> 
<circle cx="114.8230" cy="77.2192" r="0.8500" /> 
<circle cx="117.3630" cy="77.2192" r="0.8500" /> 
<circle cx="119.9030" cy="77.2192" r="0.8500" /> 
<circle cx="122.4430" cy="77.2192" r="0.8500" /> 
<circle cx="124.9830" cy="77.2192" r="0.8500" /> 
<path style="fill:#D864FF; fill-opacity:0.4000; stroke:none;fill-rule:evenodd;"
d="M 88.2282,37.5150
88.2282,35.8150
89.9282,35.8150
89.9282,37.5150
Z" /> 
<circle cx="89.0782" cy="39.2050" r="0.8500" /> 
<circle cx="89.0782" cy="41.7450" r="0.8500" /> 
<circle cx="89.0782" cy="44.2850" r="0.8500" /> 
<circle cx="168.2332" cy="22.6120" r="0.8000" /> 
</g>
<g style="fill:#D864FF; fill-opacity:0.4000; stroke:none;">
<circle cx="178.3932" cy="22.6120" r="0.8000" /> 
<path style="fill:#D864FF; fill-opacity:0.4000; stroke:none;fill-rule:evenodd;"
d="M 146.2922,84.3884
146.2922,82.6884
147.9922,82.6884
147.9922,84.3884
Z" /> 
<circle cx="147.1422" cy="86.0784" r="0.8500" /> 
<path style="fill:#D864FF; fill-opacity:0.4000; stroke:none;fill-rule:evenodd;"
d="M 130.7728,94.2436
130.7728,92.5436
132.4728,92.5436
132.4728,94.2436
Z" /> 
<circle cx="131.6228" cy="95.9336" r="0.8500" /> 
<circle cx="168.2332" cy="16.9335" r="0.8000" /> 
</g>
<g style="fill:#D864FF; fill-opacity:0.4000; stroke:none;">
<circle cx="178.3932" cy="16.9335" r="0.8000" /> 
<circle cx="151.0030" cy="89.8934" r="0.8000" /> 
</g>
<g style="fill:#D864FF; fill-opacity:0.4000; stroke:none;">
<circle cx="151.0030" cy="79.7334" r="0.8000" /> 
<path style="fill:#D864FF; fill-opacity:0.4000; stroke:none;fill-rule:evenodd;"
d="M 113.9418,2.5183
113.9604,2.4251
114.0132,2.3460
114.0923,2.2932
114.1855,2.2746
114.6730,2.2746
114.7663,2.2932
114.8454,2.3460
114.8982,2.4251
114.9168,2.5183
114.9168,3.4308
114.8982,3.5241
114.8454,3.6032
114.7663,3.6560
114.6730,3.6746
114.1855,3.6746
114.0923,3.6560
114.0132,3.6032
113.9604,3.5241
113.9418,3.4308
Z" /> 
<path style="fill:#D864FF; fill-opacity:0.4000; stroke:none;fill-rule:evenodd;"
d="M 115.8168,2.5183
115.8354,2.4251
115.8882,2.3460
115.9673,2.2932
116.0605,2.2746
116.5480,2.2746
116.6413,2.2932
116.7204,2.3460
116.7732,2.4251
116.7918,2.5183
116.7918,3.4308
116.7732,3.5241
116.7204,3.6032
116.6413,3.6560
116.5480,3.6746
116.0605,3.6746
115.9673,3.6560
115.8882,3.6032
115.8354,3.5241
115.8168,3.4308
Z" /> 
<circle cx="182.6932" cy="4.0250" r="1.7000" /> 
</g>
<g style="fill:#D864FF; fill-opacity:0.4000; stroke:none;">
<circle cx="182.6932" cy="4.0250" r="3.0000" /> 
<path style="fill:#D864FF; fill-opacity:0.4000; stroke:none;fill-rule:evenodd;"
d="M 88.2282,26.0750
88.2282,24.3750
89.9282,24.3750
89.9282,26.0750
Z" /> 
</g>
<g style="fill:#D864FF; fill-opacity:0.4000; stroke:none;">
<circle cx="89.0782" cy="27.7650" r="0.8500" /> 
<circle cx="89.0782" cy="30.3050" r="0.8500" /> 
<circle cx="89.0782" cy="32.8450" r="0.8500" /> 
<path style="fill:#D864FF; fill-opacity:0.4000; stroke:none;fill-rule:evenodd;"
d="M 115.5932,36.1800
115.6122,36.0843
115.6664,36.0032
115.7475,35.9490
115.8432,35.9300
116.3432,35.9300
116.4389,35.9490
116.5200,36.0032
116.5742,36.0843
116.5932,36.1800
116.5932,37.1300
116.5742,37.2257
116.5200,37.3068
116.4389,37.3610
116.3432,37.3800
115.8432,37.3800
115.7475,37.3610
115.6664,37.3068
115.6122,37.2257
115.5932,37.1300
Z" /> 
<path style="fill:#D864FF; fill-opacity:0.4000; stroke:none;fill-rule:evenodd;"
d="M 117.4932,36.1800
117.5122,36.0843
117.5664,36.0032
117.6475,35.9490
117.7432,35.9300
118.2432,35.9300
118.3389,35.9490
118.4200,36.0032
118.4742,36.0843
118.4932,36.1800
118.4932,37.1300
118.4742,37.2257
118.4200,37.3068
118.3389,37.3610
118.2432,37.3800
117.7432,37.3800
117.6475,37.3610
117.5664,37.3068
117.5122,37.2257
117.4932,37.1300
Z" /> 
<path style="fill:#D864FF; fill-opacity:0.4000; stroke:none;fill-rule:evenodd;"
d="M 180.2520,40.8678
180.2520,39.1678
181.9520,39.1678
181.9520,40.8678
Z" /> 
<circle cx="181.1020" cy="42.5578" r="0.8500" /> 
<circle cx="181.1020" cy="45.0978" r="0.8500" /> 
<circle cx="181.1020" cy="47.6378" r="0.8500" /> 
<path style="fill:#D864FF; fill-opacity:0.4000; stroke:none;fill-rule:evenodd;"
d="M 88.2282,48.9350
88.2282,47.2350
89.9282,47.2350
89.9282,48.9350
Z" /> 
<circle cx="89.0782" cy="50.6250" r="0.8500" /> 
<circle cx="89.0782" cy="53.1650" r="0.8500" /> 
<circle cx="89.0782" cy="55.7050" r="0.8500" /> 
<path style="fill:#D864FF; fill-opacity:0.4000; stroke:none;fill-rule:evenodd;"
d="M 108.0784,93.5378
106.3784,93.5378
106.3784,91.8378
108.0784,91.8378
Z" /> 
<circle cx="109.7684" cy="92.6878" r="0.8500" /> 
<circle cx="112.3084" cy="92.6878" r="0.8500" /> 
<circle cx="114.8484" cy="92.6878" r="0.8500" /> 
<circle cx="117.3884" cy="92.6878" r="0.8500" /> 
<circle cx="119.9284" cy="92.6878" r="0.8500" /> 
<circle cx="122.4684" cy="92.6878" r="0.8500" /> 
<circle cx="125.0084" cy="92.6878" r="0.8500" /> 
<circle cx="90.6932" cy="3.9500" r="1.7000" /> 
</g>
<g style="fill:#D864FF; fill-opacity:0.4000; stroke:none;">
<circle cx="90.6932" cy="3.9500" r="3.0000" /> 
<path style="fill:#D864FF; fill-opacity:0.4000; stroke:none;fill-rule:evenodd;"
d="M 108.8282,18.8623
106.8282,18.8623
106.8282,16.9573
108.8282,16.9573
Z" /> 
</g>
<g style="fill:none; 
stroke:#D864FF; stroke-width:1.9050; stroke-opacity:1; 
stroke-linecap:round; stroke-linejoin:round;">
<path d="M107.7807 15.3698
L107.8757 15.3698
" />
<path d="M107.7807 12.8298
L107.8757 12.8298
" />
<path style="fill:#D864FF; fill-opacity:0.4000; stroke:none;fill-rule:evenodd;"
d="M 110.3532,23.8200
110.3688,23.7130
110.4230,23.6021
110.5103,23.5148
110.6212,23.4606
110.7282,23.4450
111.9782,23.4450
112.0852,23.4606
112.1961,23.5148
112.2834,23.6021
112.3376,23.7130
112.3532,23.8200
112.3532,24.5700
112.3376,24.6770
112.2834,24.7879
112.1961,24.8752
112.0852,24.9294
111.9782,24.9450
110.7282,24.9450
110.6212,24.9294
110.5103,24.8752
110.4230,24.7879
110.3688,24.6770
110.3532,24.5700
Z" /> 
<path style="fill:#D864FF; fill-opacity:0.4000; stroke:none;fill-rule:evenodd;"
d="M 110.3532,26.1200
110.3688,26.0130
110.4230,25.9021
110.5103,25.8148
110.6212,25.7606
110.7282,25.7450
111.9782,25.7450
112.0852,25.7606
112.1961,25.8148
112.2834,25.9021
112.3376,26.0130
112.3532,26.1200
112.3532,26.8700
112.3376,26.9770
112.2834,27.0879
112.1961,27.1752
112.0852,27.2294
111.9782,27.2450
110.7282,27.2450
110.6212,27.2294
110.5103,27.1752
110.4230,27.0879
110.3688,26.9770
110.3532,26.8700
Z" /> 
<path style="fill:#D864FF; fill-opacity:0.4000; stroke:none;fill-rule:evenodd;"
d="M 116.6532,25.0950
116.6646,24.9887
116.7144,24.8554
116.7996,24.7414
116.9136,24.6562
117.0469,24.6064
117.1532,24.5950
118.1532,24.5950
118.2595,24.6064
118.3928,24.6562
118.5068,24.7414
118.5920,24.8554
118.6418,24.9887
118.6532,25.0950
118.6532,27.8950
118.6418,28.0013
118.5920,28.1346
118.5068,28.2486
118.3928,28.3338
118.2595,28.3836
118.1532,28.3950
117.1532,28.3950
117.0469,28.3836
116.9136,28.3338
116.7996,28.2486
116.7144,28.1346
116.6646,28.0013
116.6532,27.8950
Z" /> 
<path style="fill:#D864FF; fill-opacity:0.4000; stroke:none;fill-rule:evenodd;"
d="M 110.3532,28.4200
110.3688,28.3130
110.4230,28.2021
110.5103,28.1148
110.6212,28.0606
110.7282,28.0450
111.9782,28.0450
112.0852,28.0606
112.1961,28.1148
112.2834,28.2021
112.3376,28.3130
112.3532,28.4200
112.3532,29.1700
112.3376,29.2770
112.2834,29.3879
112.1961,29.4752
112.0852,29.5294
111.9782,29.5450
110.7282,29.5450
110.6212,29.5294
110.5103,29.4752
110.4230,29.3879
110.3688,29.2770
110.3532,29.1700
Z" /> 
<path style="fill:#D864FF; fill-opacity:0.4000; stroke:none;fill-rule:evenodd;"
d="M 104.1632,32.3700
104.1822,32.2743
104.2364,32.1932
104.3175,32.1390
104.4132,32.1200
104.9132,32.1200
105.0089,32.1390
105.0900,32.1932
105.1442,32.2743
105.1632,32.3700
105.1632,33.3200
105.1442,33.4157
105.0900,33.4968
105.0089,33.5510
104.9132,33.5700
104.4132,33.5700
104.3175,33.5510
104.2364,33.4968
104.1822,33.4157
104.1632,33.3200
Z" /> 
<path style="fill:#D864FF; fill-opacity:0.4000; stroke:none;fill-rule:evenodd;"
d="M 106.0632,32.3700
106.0822,32.2743
106.1364,32.1932
106.2175,32.1390
106.3132,32.1200
106.8132,32.1200
106.9089,32.1390
106.9900,32.1932
107.0442,32.2743
107.0632,32.3700
107.0632,33.3200
107.0442,33.4157
106.9900,33.4968
106.9089,33.5510
106.8132,33.5700
106.3132,33.5700
106.2175,33.5510
106.1364,33.4968
106.0822,33.4157
106.0632,33.3200
Z" /> 
<path style="fill:#D864FF; fill-opacity:0.4000; stroke:none;fill-rule:evenodd;"
d="M 96.8316,63.3114
95.1316,63.3114
95.1316,61.6114
96.8316,61.6114
Z" /> 
</g>
<g style="fill:#D864FF; fill-opacity:0.4000; stroke:none;">
<circle cx="98.5216" cy="62.4614" r="0.8500" /> 
<circle cx="99.2632" cy="79.8350" r="0.8000" /> 
</g>
<g style="fill:#D864FF; fill-opacity:0.4000; stroke:none;">
<circle cx="99.2632" cy="69.6750" r="0.8000" /> 
<path style="fill:#D864FF; fill-opacity:0.4000; stroke:none;fill-rule:evenodd;"
d="M 154.9028,22.2142
154.9028,20.5142
156.6028,20.5142
156.6028,22.2142
Z" /> 
<circle cx="155.7528" cy="23.9042" r="0.8500" /> 
<path style="fill:#D864FF; fill-opacity:0.4000; stroke:none;fill-rule:evenodd;"
d="M 92.0632,37.5050
92.0632,35.8050
93.7632,35.8050
93.7632,37.5050
Z" /> 
<circle cx="92.9132" cy="39.1950" r="0.8500" /> 
<circle cx="92.9132" cy="41.7350" r="0.8500" /> 
<circle cx="92.9132" cy="44.2750" r="0.8500" /> 
<path style="fill:#D864FF; fill-opacity:0.4000; stroke:none;fill-rule:evenodd;"
d="M 138.3928,94.2436
138.3928,92.5436
140.0928,92.5436
140.0928,94.2436
Z" /> 
<circle cx="139.2428" cy="95.9336" r="0.8500" /> 
<path style="fill:#D864FF; fill-opacity:0.4000; stroke:none;fill-rule:evenodd;"
d="M 108.6332,2.4812
108.6518,2.3880
108.7046,2.3089
108.7837,2.2561
108.8769,2.2375
109.3644,2.2375
109.4577,2.2561
109.5368,2.3089
109.5896,2.3880
109.6082,2.4812
109.6082,3.3937
109.5896,3.4870
109.5368,3.5661
109.4577,3.6189
109.3644,3.6375
108.8769,3.6375
108.7837,3.6189
108.7046,3.5661
108.6518,3.4870
108.6332,3.3937
Z" /> 
<path style="fill:#D864FF; fill-opacity:0.4000; stroke:none;fill-rule:evenodd;"
d="M 110.5082,2.4812
110.5268,2.3880
110.5796,2.3089
110.6587,2.2561
110.7519,2.2375
111.2394,2.2375
111.3327,2.2561
111.4118,2.3089
111.4646,2.3880
111.4832,2.4812
111.4832,3.3937
111.4646,3.4870
111.4118,3.5661
111.3327,3.6189
111.2394,3.6375
110.7519,3.6375
110.6587,3.6189
110.5796,3.5661
110.5268,3.4870
110.5082,3.3937
Z" /> 
<circle cx="103.7832" cy="6.5200" r="1.0000" /> 
</g>
<g style="fill:#D864FF; fill-opacity:0.4000; stroke:none;">
<circle cx="97.2832" cy="6.5200" r="1.0000" /> 
</g>
<g style="fill:#D864FF; fill-opacity:0.4000; stroke:none;">
<circle cx="103.7832" cy="2.0200" r="1.0000" /> 
</g>
<g style="fill:#D864FF; fill-opacity:0.4000; stroke:none;">
<circle cx="97.2832" cy="2.0200" r="1.0000" /> 
<path style="fill:#D864FF; fill-opacity:0.4000; stroke:none;fill-rule:evenodd;"
d="M 142.2028,94.2436
142.2028,92.5436
143.9028,92.5436
143.9028,94.2436
Z" /> 
</g>
<g style="fill:#D864FF; fill-opacity:0.4000; stroke:none;">
<circle cx="143.0528" cy="95.9336" r="0.8500" /> 
<path style="fill:#D864FF; fill-opacity:0.4000; stroke:none;fill-rule:evenodd;"
d="M 101.4848,41.8484
99.7848,41.8484
99.7848,40.1484
101.4848,40.1484
Z" /> 
<circle cx="103.1748" cy="40.9984" r="0.8500" /> 
<circle cx="105.7148" cy="40.9984" r="0.8500" /> 
<circle cx="108.2548" cy="40.9984" r="0.8500" /> 
<circle cx="90.6932" cy="96.0250" r="1.7000" /> 
</g>
<g style="fill:#D864FF; fill-opacity:0.4000; stroke:none;">
<circle cx="90.6932" cy="96.0250" r="3.0000" /> 
<path style="fill:#D864FF; fill-opacity:0.4000; stroke:none;fill-rule:evenodd;"
d="M 99.0832,32.3700
99.1022,32.2743
99.1564,32.1932
99.2375,32.1390
99.3332,32.1200
99.8332,32.1200
99.9289,32.1390
100.0100,32.1932
100.0642,32.2743
100.0832,32.3700
100.0832,33.3200
100.0642,33.4157
100.0100,33.4968
99.9289,33.5510
99.8332,33.5700
99.3332,33.5700
99.2375,33.5510
99.1564,33.4968
99.1022,33.4157
99.0832,33.3200
Z" /> 
<path style="fill:#D864FF; fill-opacity:0.4000; stroke:none;fill-rule:evenodd;"
d="M 100.9832,32.3700
101.0022,32.2743
101.0564,32.1932
101.1375,32.1390
101.2332,32.1200
101.7332,32.1200
101.8289,32.1390
101.9100,32.1932
101.9642,32.2743
101.9832,32.3700
101.9832,33.3200
101.9642,33.4157
101.9100,33.4968
101.8289,33.5510
101.7332,33.5700
101.2332,33.5700
101.1375,33.5510
101.0564,33.4968
101.0022,33.4157
100.9832,33.3200
Z" /> 
<path style="fill:#D864FF; fill-opacity:0.4000; stroke:none;fill-rule:evenodd;"
d="M 163.8182,27.5500
165.5182,27.5500
165.5182,29.2500
163.8182,29.2500
Z" /> 
</g>
<g style="fill:#D864FF; fill-opacity:0.4000; stroke:none;">
<circle cx="162.1282" cy="28.4000" r="0.8500" /> 
<path style="fill:#D864FF; fill-opacity:0.4000; stroke:none;fill-rule:evenodd;"
d="M 180.2520,52.8466
180.2520,51.1466
181.9520,51.1466
181.9520,52.8466
Z" /> 
<circle cx="181.1020" cy="54.5366" r="0.8500" /> 
<path style="fill:#D864FF; fill-opacity:0.4000; stroke:none;fill-rule:evenodd;"
d="M 185.5072,27.3905
185.5072,29.1905
183.7072,29.1905
183.7072,27.3905
Z" /> 
<circle cx="182.0672" cy="28.2905" r="0.9000" /> 
<path style="fill:#D864FF; fill-opacity:0.4000; stroke:none;fill-rule:evenodd;"
d="M 99.0832,36.1800
99.1022,36.0843
99.1564,36.0032
99.2375,35.9490
99.3332,35.9300
99.8332,35.9300
99.9289,35.9490
100.0100,36.0032
100.0642,36.0843
100.0832,36.1800
100.0832,37.1300
100.0642,37.2257
100.0100,37.3068
99.9289,37.3610
99.8332,37.3800
99.3332,37.3800
99.2375,37.3610
99.1564,37.3068
99.1022,37.2257
99.0832,37.1300
Z" /> 
<path style="fill:#D864FF; fill-opacity:0.4000; stroke:none;fill-rule:evenodd;"
d="M 100.9832,36.1800
101.0022,36.0843
101.0564,36.0032
101.1375,35.9490
101.2332,35.9300
101.7332,35.9300
101.8289,35.9490
101.9100,36.0032
101.9642,36.0843
101.9832,36.1800
101.9832,37.1300
101.9642,37.2257
101.9100,37.3068
101.8289,37.3610
101.7332,37.3800
101.2332,37.3800
101.1375,37.3610
101.0564,37.3068
101.0022,37.2257
100.9832,37.1300
Z" /> 
<path style="fill:#D864FF; fill-opacity:0.4000; stroke:none;fill-rule:evenodd;"
d="M 166.7950,65.7516
168.4950,65.7516
168.4950,67.4516
166.7950,67.4516
Z" /> 
</g>
<g style="fill:#D864FF; fill-opacity:0.4000; stroke:none;">
<circle cx="165.1050" cy="66.6016" r="0.8500" /> 
<path style="fill:#D864FF; fill-opacity:0.4000; stroke:none;fill-rule:evenodd;"
d="M 92.0632,26.0750
92.0632,24.3750
93.7632,24.3750
93.7632,26.0750
Z" /> 
<circle cx="92.9132" cy="27.7650" r="0.8500" /> 
<circle cx="92.9132" cy="30.3050" r="0.8500" /> 
<circle cx="92.9132" cy="32.8450" r="0.8500" /> 
<path style="fill:#D864FF; fill-opacity:0.4000; stroke:none;fill-rule:evenodd;"
d="M 114.8208,10.8247
116.4208,10.8247
116.4208,12.4247
114.8208,12.4247
Z" /> 
<circle cx="115.6208" cy="14.1247" r="0.8000" /> 
<path style="fill:#D864FF; fill-opacity:0.4000; stroke:none;fill-rule:evenodd;"
d="M 98.9232,23.8200
98.9388,23.7130
98.9930,23.6021
99.0803,23.5148
99.1912,23.4606
99.2982,23.4450
100.5482,23.4450
100.6552,23.4606
100.7661,23.5148
100.8534,23.6021
100.9076,23.7130
100.9232,23.8200
100.9232,24.5700
100.9076,24.6770
100.8534,24.7879
100.7661,24.8752
100.6552,24.9294
100.5482,24.9450
99.2982,24.9450
99.1912,24.9294
99.0803,24.8752
98.9930,24.7879
98.9388,24.6770
98.9232,24.5700
Z" /> 
<path style="fill:#D864FF; fill-opacity:0.4000; stroke:none;fill-rule:evenodd;"
d="M 98.9232,26.1200
98.9388,26.0130
98.9930,25.9021
99.0803,25.8148
99.1912,25.7606
99.2982,25.7450
100.5482,25.7450
100.6552,25.7606
100.7661,25.8148
100.8534,25.9021
100.9076,26.0130
100.9232,26.1200
100.9232,26.8700
100.9076,26.9770
100.8534,27.0879
100.7661,27.1752
100.6552,27.2294
100.5482,27.2450
99.2982,27.2450
99.1912,27.2294
99.0803,27.1752
98.9930,27.0879
98.9388,26.9770
98.9232,26.8700
Z" /> 
<path style="fill:#D864FF; fill-opacity:0.4000; stroke:none;fill-rule:evenodd;"
d="M 105.2232,25.0950
105.2346,24.9887
105.2844,24.8554
105.3696,24.7414
105.4836,24.6562
105.6169,24.6064
105.7232,24.5950
106.7232,24.5950
106.8295,24.6064
106.9628,24.6562
107.0768,24.7414
107.1620,24.8554
107.2118,24.9887
107.2232,25.0950
107.2232,27.8950
107.2118,28.0013
107.1620,28.1346
107.0768,28.2486
106.9628,28.3338
106.8295,28.3836
106.7232,28.3950
105.7232,28.3950
105.6169,28.3836
105.4836,28.3338
105.3696,28.2486
105.2844,28.1346
105.2346,28.0013
105.2232,27.8950
Z" /> 
<path style="fill:#D864FF; fill-opacity:0.4000; stroke:none;fill-rule:evenodd;"
d="M 98.9232,28.4200
98.9388,28.3130
98.9930,28.2021
99.0803,28.1148
99.1912,28.0606
99.2982,28.0450
100.5482,28.0450
100.6552,28.0606
100.7661,28.1148
100.8534,28.2021
100.9076,28.3130
100.9232,28.4200
100.9232,29.1700
100.9076,29.2770
100.8534,29.3879
100.7661,29.4752
100.6552,29.5294
100.5482,29.5450
99.2982,29.5450
99.1912,29.5294
99.0803,29.4752
98.9930,29.3879
98.9388,29.2770
98.9232,29.1700
Z" /> 
<path style="fill:#D864FF; fill-opacity:0.4000; stroke:none;fill-rule:evenodd;"
d="M 134.0230,89.9314
132.4230,89.9314
132.4230,88.3314
134.0230,88.3314
Z" /> 
</g>
<g style="fill:#D864FF; fill-opacity:0.4000; stroke:none;">
<circle cx="135.7630" cy="89.1314" r="0.8000" /> 
<circle cx="138.3030" cy="89.1314" r="0.8000" /> 
<circle cx="140.8430" cy="89.1314" r="0.8000" /> 
<circle cx="140.8430" cy="81.5114" r="0.8000" /> 
<circle cx="138.3030" cy="81.5114" r="0.8000" /> 
<circle cx="135.7630" cy="81.5114" r="0.8000" /> 
<circle cx="133.2230" cy="81.5114" r="0.8000" /> 
<path style="fill:#D864FF; fill-opacity:0.4000; stroke:none;fill-rule:evenodd;"
d="M 141.4298,61.6106
141.4298,63.2106
139.8298,63.2106
139.8298,61.6106
Z" /> 
<circle cx="133.0298" cy="62.4106" r="0.8000" /> 
<path style="fill:none; 
stroke:#D0D2CD; stroke-width:0.0500; stroke-opacity:1; 
stroke-linecap:round; stroke-linejoin:round;fill:none"
d="M 86.6932,0.0250
186.6932,0.0250
186.6932,100.0250
86.6932,100.0250
Z" /> 
</g> 
</svg>
