<?xml version="1.0" standalone="no"?>
 <!DOCTYPE svg PUBLIC "-//W3C//DTD SVG 1.1//EN" 
 "http://www.w3.org/Graphics/SVG/1.1/DTD/svg11.dtd"> 
<svg
  xmlns:svg="http://www.w3.org/2000/svg"
  xmlns="http://www.w3.org/2000/svg"
  xmlns:xlink="http://www.w3.org/1999/xlink"
  version="1.1"
  width="114.1984mm" height="100.0252mm" viewBox="0.0000 0.0000 114.1984 100.0252">
<title>SVG Image created as base_esp32-F_Paste.svg date 2024/12/19 11:25:53 </title>
  <desc>Image generated by PCBNEW </desc>
<g style="fill:#000000; fill-opacity:1.0000;stroke:#000000; stroke-opacity:1.0000;
stroke-linecap:round; stroke-linejoin:round;"
 transform="translate(0 0) scale(1 1)">
<path style="fill:#B4A09A; fill-opacity:0.9020; stroke:none;fill-rule:evenodd;"
d="M 17.4950,36.1800
17.5140,36.0843
17.5682,36.0032
17.6493,35.9490
17.7450,35.9300
18.2450,35.9300
18.3407,35.9490
18.4218,36.0032
18.4760,36.0843
18.4950,36.1800
18.4950,37.1300
18.4760,37.2257
18.4218,37.3068
18.3407,37.3610
18.2450,37.3800
17.7450,37.3800
17.6493,37.3610
17.5682,37.3068
17.5140,37.2257
17.4950,37.1300
Z" /> 
<path style="fill:#B4A09A; fill-opacity:0.9020; stroke:none;fill-rule:evenodd;"
d="M 19.3950,36.1800
19.4140,36.0843
19.4682,36.0032
19.5493,35.9490
19.6450,35.9300
20.1450,35.9300
20.2407,35.9490
20.3218,36.0032
20.3760,36.0843
20.3950,36.1800
20.3950,37.1300
20.3760,37.2257
20.3218,37.3068
20.2407,37.3610
20.1450,37.3800
19.6450,37.3800
19.5493,37.3610
19.4682,37.3068
19.4140,37.2257
19.3950,37.1300
Z" /> 
<path style="fill:#B4A09A; fill-opacity:0.9020; stroke:none;fill-rule:evenodd;"
d="M 28.9250,32.3700
28.9440,32.2743
28.9982,32.1932
29.0793,32.1390
29.1750,32.1200
29.6750,32.1200
29.7707,32.1390
29.8518,32.1932
29.9060,32.2743
29.9250,32.3700
29.9250,33.3200
29.9060,33.4157
29.8518,33.4968
29.7707,33.5510
29.6750,33.5700
29.1750,33.5700
29.0793,33.5510
28.9982,33.4968
28.9440,33.4157
28.9250,33.3200
Z" /> 
<path style="fill:#B4A09A; fill-opacity:0.9020; stroke:none;fill-rule:evenodd;"
d="M 30.8250,32.3700
30.8440,32.2743
30.8982,32.1932
30.9793,32.1390
31.0750,32.1200
31.5750,32.1200
31.6707,32.1390
31.7518,32.1932
31.8060,32.2743
31.8250,32.3700
31.8250,33.3200
31.8060,33.4157
31.7518,33.4968
31.6707,33.5510
31.5750,33.5700
31.0750,33.5700
30.9793,33.5510
30.8982,33.4968
30.8440,33.4157
30.8250,33.3200
Z" /> 
<path style="fill:#B4A09A; fill-opacity:0.9020; stroke:none;fill-rule:evenodd;"
d="M 30.2478,7.1838
30.2288,7.2795
30.1746,7.3606
30.0935,7.4148
29.9978,7.4338
29.2978,7.4338
29.2021,7.4148
29.1210,7.3606
29.0668,7.2795
29.0478,7.1838
29.0478,6.2838
29.0668,6.1881
29.1210,6.1070
29.2021,6.0528
29.2978,6.0338
29.9978,6.0338
30.0935,6.0528
30.1746,6.1070
30.2288,6.1881
30.2478,6.2838
Z" /> 
<path style="fill:#B4A09A; fill-opacity:0.9020; stroke:none;fill-rule:evenodd;"
d="M 28.2478,7.1838
28.2288,7.2795
28.1746,7.3606
28.0935,7.4148
27.9978,7.4338
27.2978,7.4338
27.2021,7.4148
27.1210,7.3606
27.0668,7.2795
27.0478,7.1838
27.0478,6.2838
27.0668,6.1881
27.1210,6.1070
27.2021,6.0528
27.2978,6.0338
27.9978,6.0338
28.0935,6.0528
28.1746,6.1070
28.2288,6.1881
28.2478,6.2838
Z" /> 
<path style="fill:#B4A09A; fill-opacity:0.9020; stroke:none;fill-rule:evenodd;"
d="M 84.7362,61.2700
84.7476,61.2126
84.7801,61.1639
84.8288,61.1314
84.8862,61.1200
86.5862,61.1200
86.6436,61.1314
86.6923,61.1639
86.7248,61.2126
86.7362,61.2700
86.7362,61.5700
86.7248,61.6274
86.6923,61.6761
86.6436,61.7086
86.5862,61.7200
84.8862,61.7200
84.8288,61.7086
84.7801,61.6761
84.7476,61.6274
84.7362,61.5700
Z" /> 
<path style="fill:#B4A09A; fill-opacity:0.9020; stroke:none;fill-rule:evenodd;"
d="M 84.7362,62.5400
84.7476,62.4826
84.7801,62.4339
84.8288,62.4014
84.8862,62.3900
86.5862,62.3900
86.6436,62.4014
86.6923,62.4339
86.7248,62.4826
86.7362,62.5400
86.7362,62.8400
86.7248,62.8974
86.6923,62.9461
86.6436,62.9786
86.5862,62.9900
84.8862,62.9900
84.8288,62.9786
84.7801,62.9461
84.7476,62.8974
84.7362,62.8400
Z" /> 
<path style="fill:#B4A09A; fill-opacity:0.9020; stroke:none;fill-rule:evenodd;"
d="M 84.7362,63.8100
84.7476,63.7526
84.7801,63.7039
84.8288,63.6714
84.8862,63.6600
86.5862,63.6600
86.6436,63.6714
86.6923,63.7039
86.7248,63.7526
86.7362,63.8100
86.7362,64.1100
86.7248,64.1674
86.6923,64.2161
86.6436,64.2486
86.5862,64.2600
84.8862,64.2600
84.8288,64.2486
84.7801,64.2161
84.7476,64.1674
84.7362,64.1100
Z" /> 
<path style="fill:#B4A09A; fill-opacity:0.9020; stroke:none;fill-rule:evenodd;"
d="M 84.7362,65.0800
84.7476,65.0226
84.7801,64.9739
84.8288,64.9414
84.8862,64.9300
86.5862,64.9300
86.6436,64.9414
86.6923,64.9739
86.7248,65.0226
86.7362,65.0800
86.7362,65.3800
86.7248,65.4374
86.6923,65.4861
86.6436,65.5186
86.5862,65.5300
84.8862,65.5300
84.8288,65.5186
84.7801,65.4861
84.7476,65.4374
84.7362,65.3800
Z" /> 
<path style="fill:#B4A09A; fill-opacity:0.9020; stroke:none;fill-rule:evenodd;"
d="M 84.7362,66.3500
84.7476,66.2926
84.7801,66.2439
84.8288,66.2114
84.8862,66.2000
86.5862,66.2000
86.6436,66.2114
86.6923,66.2439
86.7248,66.2926
86.7362,66.3500
86.7362,66.6500
86.7248,66.7074
86.6923,66.7561
86.6436,66.7886
86.5862,66.8000
84.8862,66.8000
84.8288,66.7886
84.7801,66.7561
84.7476,66.7074
84.7362,66.6500
Z" /> 
<path style="fill:#B4A09A; fill-opacity:0.9020; stroke:none;fill-rule:evenodd;"
d="M 84.7362,67.6200
84.7476,67.5626
84.7801,67.5139
84.8288,67.4814
84.8862,67.4700
86.5862,67.4700
86.6436,67.4814
86.6923,67.5139
86.7248,67.5626
86.7362,67.6200
86.7362,67.9200
86.7248,67.9774
86.6923,68.0261
86.6436,68.0586
86.5862,68.0700
84.8862,68.0700
84.8288,68.0586
84.7801,68.0261
84.7476,67.9774
84.7362,67.9200
Z" /> 
<path style="fill:#B4A09A; fill-opacity:0.9020; stroke:none;fill-rule:evenodd;"
d="M 84.7362,68.8900
84.7476,68.8326
84.7801,68.7839
84.8288,68.7514
84.8862,68.7400
86.5862,68.7400
86.6436,68.7514
86.6923,68.7839
86.7248,68.8326
86.7362,68.8900
86.7362,69.1900
86.7248,69.2474
86.6923,69.2961
86.6436,69.3286
86.5862,69.3400
84.8862,69.3400
84.8288,69.3286
84.7801,69.2961
84.7476,69.2474
84.7362,69.1900
Z" /> 
<path style="fill:#B4A09A; fill-opacity:0.9020; stroke:none;fill-rule:evenodd;"
d="M 84.7362,70.1600
84.7476,70.1026
84.7801,70.0539
84.8288,70.0214
84.8862,70.0100
86.5862,70.0100
86.6436,70.0214
86.6923,70.0539
86.7248,70.1026
86.7362,70.1600
86.7362,70.4600
86.7248,70.5174
86.6923,70.5661
86.6436,70.5986
86.5862,70.6100
84.8862,70.6100
84.8288,70.5986
84.7801,70.5661
84.7476,70.5174
84.7362,70.4600
Z" /> 
<path style="fill:#B4A09A; fill-opacity:0.9020; stroke:none;fill-rule:evenodd;"
d="M 89.7362,70.1600
89.7476,70.1026
89.7801,70.0539
89.8288,70.0214
89.8862,70.0100
91.5862,70.0100
91.6436,70.0214
91.6923,70.0539
91.7248,70.1026
91.7362,70.1600
91.7362,70.4600
91.7248,70.5174
91.6923,70.5661
91.6436,70.5986
91.5862,70.6100
89.8862,70.6100
89.8288,70.5986
89.7801,70.5661
89.7476,70.5174
89.7362,70.4600
Z" /> 
<path style="fill:#B4A09A; fill-opacity:0.9020; stroke:none;fill-rule:evenodd;"
d="M 89.7362,68.8900
89.7476,68.8326
89.7801,68.7839
89.8288,68.7514
89.8862,68.7400
91.5862,68.7400
91.6436,68.7514
91.6923,68.7839
91.7248,68.8326
91.7362,68.8900
91.7362,69.1900
91.7248,69.2474
91.6923,69.2961
91.6436,69.3286
91.5862,69.3400
89.8862,69.3400
89.8288,69.3286
89.7801,69.2961
89.7476,69.2474
89.7362,69.1900
Z" /> 
<path style="fill:#B4A09A; fill-opacity:0.9020; stroke:none;fill-rule:evenodd;"
d="M 89.7362,67.6200
89.7476,67.5626
89.7801,67.5139
89.8288,67.4814
89.8862,67.4700
91.5862,67.4700
91.6436,67.4814
91.6923,67.5139
91.7248,67.5626
91.7362,67.6200
91.7362,67.9200
91.7248,67.9774
91.6923,68.0261
91.6436,68.0586
91.5862,68.0700
89.8862,68.0700
89.8288,68.0586
89.7801,68.0261
89.7476,67.9774
89.7362,67.9200
Z" /> 
<path style="fill:#B4A09A; fill-opacity:0.9020; stroke:none;fill-rule:evenodd;"
d="M 89.7362,66.3500
89.7476,66.2926
89.7801,66.2439
89.8288,66.2114
89.8862,66.2000
91.5862,66.2000
91.6436,66.2114
91.6923,66.2439
91.7248,66.2926
91.7362,66.3500
91.7362,66.6500
91.7248,66.7074
91.6923,66.7561
91.6436,66.7886
91.5862,66.8000
89.8862,66.8000
89.8288,66.7886
89.7801,66.7561
89.7476,66.7074
89.7362,66.6500
Z" /> 
<path style="fill:#B4A09A; fill-opacity:0.9020; stroke:none;fill-rule:evenodd;"
d="M 89.7362,65.0800
89.7476,65.0226
89.7801,64.9739
89.8288,64.9414
89.8862,64.9300
91.5862,64.9300
91.6436,64.9414
91.6923,64.9739
91.7248,65.0226
91.7362,65.0800
91.7362,65.3800
91.7248,65.4374
91.6923,65.4861
91.6436,65.5186
91.5862,65.5300
89.8862,65.5300
89.8288,65.5186
89.7801,65.4861
89.7476,65.4374
89.7362,65.3800
Z" /> 
<path style="fill:#B4A09A; fill-opacity:0.9020; stroke:none;fill-rule:evenodd;"
d="M 89.7362,63.8100
89.7476,63.7526
89.7801,63.7039
89.8288,63.6714
89.8862,63.6600
91.5862,63.6600
91.6436,63.6714
91.6923,63.7039
91.7248,63.7526
91.7362,63.8100
91.7362,64.1100
91.7248,64.1674
91.6923,64.2161
91.6436,64.2486
91.5862,64.2600
89.8862,64.2600
89.8288,64.2486
89.7801,64.2161
89.7476,64.1674
89.7362,64.1100
Z" /> 
<path style="fill:#B4A09A; fill-opacity:0.9020; stroke:none;fill-rule:evenodd;"
d="M 89.7362,62.5400
89.7476,62.4826
89.7801,62.4339
89.8288,62.4014
89.8862,62.3900
91.5862,62.3900
91.6436,62.4014
91.6923,62.4339
91.7248,62.4826
91.7362,62.5400
91.7362,62.8400
91.7248,62.8974
91.6923,62.9461
91.6436,62.9786
91.5862,62.9900
89.8862,62.9900
89.8288,62.9786
89.7801,62.9461
89.7476,62.8974
89.7362,62.8400
Z" /> 
<path style="fill:#B4A09A; fill-opacity:0.9020; stroke:none;fill-rule:evenodd;"
d="M 89.7362,61.2700
89.7476,61.2126
89.7801,61.1639
89.8288,61.1314
89.8862,61.1200
91.5862,61.1200
91.6436,61.1314
91.6923,61.1639
91.7248,61.2126
91.7362,61.2700
91.7362,61.5700
91.7248,61.6274
91.6923,61.6761
91.6436,61.7086
91.5862,61.7200
89.8862,61.7200
89.8288,61.7086
89.7801,61.6761
89.7476,61.6274
89.7362,61.5700
Z" /> 
<path style="fill:#B4A09A; fill-opacity:0.9020; stroke:none;fill-rule:evenodd;"
d="M 24.9900,7.2600
24.9710,7.3557
24.9168,7.4368
24.8357,7.4910
24.7400,7.5100
24.0400,7.5100
23.9443,7.4910
23.8632,7.4368
23.8090,7.3557
23.7900,7.2600
23.7900,6.3600
23.8090,6.2643
23.8632,6.1832
23.9443,6.1290
24.0400,6.1100
24.7400,6.1100
24.8357,6.1290
24.9168,6.1832
24.9710,6.2643
24.9900,6.3600
Z" /> 
<path style="fill:#B4A09A; fill-opacity:0.9020; stroke:none;fill-rule:evenodd;"
d="M 22.9900,7.2600
22.9710,7.3557
22.9168,7.4368
22.8357,7.4910
22.7400,7.5100
22.0400,7.5100
21.9443,7.4910
21.8632,7.4368
21.8090,7.3557
21.7900,7.2600
21.7900,6.3600
21.8090,6.2643
21.8632,6.1832
21.9443,6.1290
22.0400,6.1100
22.7400,6.1100
22.8357,6.1290
22.9168,6.1832
22.9710,6.2643
22.9900,6.3600
Z" /> 
<path style="fill:#B4A09A; fill-opacity:0.9020; stroke:none;fill-rule:evenodd;"
d="M 23.8450,32.3700
23.8640,32.2743
23.9182,32.1932
23.9993,32.1390
24.0950,32.1200
24.5950,32.1200
24.6907,32.1390
24.7718,32.1932
24.8260,32.2743
24.8450,32.3700
24.8450,33.3200
24.8260,33.4157
24.7718,33.4968
24.6907,33.5510
24.5950,33.5700
24.0950,33.5700
23.9993,33.5510
23.9182,33.4968
23.8640,33.4157
23.8450,33.3200
Z" /> 
<path style="fill:#B4A09A; fill-opacity:0.9020; stroke:none;fill-rule:evenodd;"
d="M 25.7450,32.3700
25.7640,32.2743
25.8182,32.1932
25.8993,32.1390
25.9950,32.1200
26.4950,32.1200
26.5907,32.1390
26.6718,32.1932
26.7260,32.2743
26.7450,32.3700
26.7450,33.3200
26.7260,33.4157
26.6718,33.4968
26.5907,33.5510
26.4950,33.5700
25.9950,33.5700
25.8993,33.5510
25.8182,33.4968
25.7640,33.4157
25.7450,33.3200
Z" /> 
<path style="fill:#B4A09A; fill-opacity:0.9020; stroke:none;fill-rule:evenodd;"
d="M 23.8450,36.1800
23.8640,36.0843
23.9182,36.0032
23.9993,35.9490
24.0950,35.9300
24.5950,35.9300
24.6907,35.9490
24.7718,36.0032
24.8260,36.0843
24.8450,36.1800
24.8450,37.1300
24.8260,37.2257
24.7718,37.3068
24.6907,37.3610
24.5950,37.3800
24.0950,37.3800
23.9993,37.3610
23.9182,37.3068
23.8640,37.2257
23.8450,37.1300
Z" /> 
<path style="fill:#B4A09A; fill-opacity:0.9020; stroke:none;fill-rule:evenodd;"
d="M 25.7450,36.1800
25.7640,36.0843
25.8182,36.0032
25.8993,35.9490
25.9950,35.9300
26.4950,35.9300
26.5907,35.9490
26.6718,36.0032
26.7260,36.0843
26.7450,36.1800
26.7450,37.1300
26.7260,37.2257
26.6718,37.3068
26.5907,37.3610
26.4950,37.3800
25.9950,37.3800
25.8993,37.3610
25.8182,37.3068
25.7640,37.2257
25.7450,37.1300
Z" /> 
<path style="fill:#B4A09A; fill-opacity:0.9020; stroke:none;fill-rule:evenodd;"
d="M 27.2736,2.5183
27.2922,2.4251
27.3450,2.3460
27.4241,2.2932
27.5174,2.2746
28.0048,2.2746
28.0981,2.2932
28.1772,2.3460
28.2300,2.4251
28.2486,2.5183
28.2486,3.4308
28.2300,3.5241
28.1772,3.6032
28.0981,3.6560
28.0048,3.6746
27.5174,3.6746
27.4241,3.6560
27.3450,3.6032
27.2922,3.5241
27.2736,3.4308
Z" /> 
<path style="fill:#B4A09A; fill-opacity:0.9020; stroke:none;fill-rule:evenodd;"
d="M 29.1486,2.5183
29.1672,2.4251
29.2200,2.3460
29.2991,2.2932
29.3924,2.2746
29.8798,2.2746
29.9731,2.2932
30.0522,2.3460
30.1050,2.4251
30.1236,2.5183
30.1236,3.4308
30.1050,3.5241
30.0522,3.6032
29.9731,3.6560
29.8798,3.6746
29.3924,3.6746
29.2991,3.6560
29.2200,3.6032
29.1672,3.5241
29.1486,3.4308
Z" /> 
<path style="fill:#B4A09A; fill-opacity:0.9020; stroke:none;fill-rule:evenodd;"
d="M 28.9250,36.1800
28.9440,36.0843
28.9982,36.0032
29.0793,35.9490
29.1750,35.9300
29.6750,35.9300
29.7707,35.9490
29.8518,36.0032
29.9060,36.0843
29.9250,36.1800
29.9250,37.1300
29.9060,37.2257
29.8518,37.3068
29.7707,37.3610
29.6750,37.3800
29.1750,37.3800
29.0793,37.3610
28.9982,37.3068
28.9440,37.2257
28.9250,37.1300
Z" /> 
<path style="fill:#B4A09A; fill-opacity:0.9020; stroke:none;fill-rule:evenodd;"
d="M 30.8250,36.1800
30.8440,36.0843
30.8982,36.0032
30.9793,35.9490
31.0750,35.9300
31.5750,35.9300
31.6707,35.9490
31.7518,36.0032
31.8060,36.0843
31.8250,36.1800
31.8250,37.1300
31.8060,37.2257
31.7518,37.3068
31.6707,37.3610
31.5750,37.3800
31.0750,37.3800
30.9793,37.3610
30.8982,37.3068
30.8440,37.2257
30.8250,37.1300
Z" /> 
<path style="fill:#B4A09A; fill-opacity:0.9020; stroke:none;fill-rule:evenodd;"
d="M 23.6850,23.8200
23.7006,23.7130
23.7548,23.6021
23.8421,23.5148
23.9530,23.4606
24.0600,23.4450
25.3100,23.4450
25.4170,23.4606
25.5279,23.5148
25.6152,23.6021
25.6694,23.7130
25.6850,23.8200
25.6850,24.5700
25.6694,24.6770
25.6152,24.7879
25.5279,24.8752
25.4170,24.9294
25.3100,24.9450
24.0600,24.9450
23.9530,24.9294
23.8421,24.8752
23.7548,24.7879
23.7006,24.6770
23.6850,24.5700
Z" /> 
<path style="fill:#B4A09A; fill-opacity:0.9020; stroke:none;fill-rule:evenodd;"
d="M 23.6850,26.1200
23.7006,26.0130
23.7548,25.9021
23.8421,25.8148
23.9530,25.7606
24.0600,25.7450
25.3100,25.7450
25.4170,25.7606
25.5279,25.8148
25.6152,25.9021
25.6694,26.0130
25.6850,26.1200
25.6850,26.8700
25.6694,26.9770
25.6152,27.0879
25.5279,27.1752
25.4170,27.2294
25.3100,27.2450
24.0600,27.2450
23.9530,27.2294
23.8421,27.1752
23.7548,27.0879
23.7006,26.9770
23.6850,26.8700
Z" /> 
<path style="fill:#B4A09A; fill-opacity:0.9020; stroke:none;fill-rule:evenodd;"
d="M 29.9850,25.0950
29.9964,24.9887
30.0462,24.8554
30.1314,24.7414
30.2454,24.6562
30.3787,24.6064
30.4850,24.5950
31.4850,24.5950
31.5913,24.6064
31.7246,24.6562
31.8386,24.7414
31.9238,24.8554
31.9736,24.9887
31.9850,25.0950
31.9850,27.8950
31.9736,28.0013
31.9238,28.1346
31.8386,28.2486
31.7246,28.3338
31.5913,28.3836
31.4850,28.3950
30.4850,28.3950
30.3787,28.3836
30.2454,28.3338
30.1314,28.2486
30.0462,28.1346
29.9964,28.0013
29.9850,27.8950
Z" /> 
<path style="fill:#B4A09A; fill-opacity:0.9020; stroke:none;fill-rule:evenodd;"
d="M 23.6850,28.4200
23.7006,28.3130
23.7548,28.2021
23.8421,28.1148
23.9530,28.0606
24.0600,28.0450
25.3100,28.0450
25.4170,28.0606
25.5279,28.1148
25.6152,28.2021
25.6694,28.3130
25.6850,28.4200
25.6850,29.1700
25.6694,29.2770
25.6152,29.3879
25.5279,29.4752
25.4170,29.5294
25.3100,29.5450
24.0600,29.5450
23.9530,29.5294
23.8421,29.4752
23.7548,29.3879
23.7006,29.2770
23.6850,29.1700
Z" /> 
<path style="fill:#B4A09A; fill-opacity:0.9020; stroke:none;fill-rule:evenodd;"
d="M 17.4950,32.3700
17.5140,32.2743
17.5682,32.1932
17.6493,32.1390
17.7450,32.1200
18.2450,32.1200
18.3407,32.1390
18.4218,32.1932
18.4760,32.2743
18.4950,32.3700
18.4950,33.3200
18.4760,33.4157
18.4218,33.4968
18.3407,33.5510
18.2450,33.5700
17.7450,33.5700
17.6493,33.5510
17.5682,33.4968
17.5140,33.4157
17.4950,33.3200
Z" /> 
<path style="fill:#B4A09A; fill-opacity:0.9020; stroke:none;fill-rule:evenodd;"
d="M 19.3950,32.3700
19.4140,32.2743
19.4682,32.1932
19.5493,32.1390
19.6450,32.1200
20.1450,32.1200
20.2407,32.1390
20.3218,32.1932
20.3760,32.2743
20.3950,32.3700
20.3950,33.3200
20.3760,33.4157
20.3218,33.4968
20.2407,33.5510
20.1450,33.5700
19.6450,33.5700
19.5493,33.5510
19.4682,33.4968
19.4140,33.4157
19.3950,33.3200
Z" /> 
<path style="fill:#B4A09A; fill-opacity:0.9020; stroke:none;fill-rule:evenodd;"
d="M 21.9650,2.4812
21.9836,2.3880
22.0364,2.3089
22.1155,2.2561
22.2087,2.2375
22.6962,2.2375
22.7895,2.2561
22.8686,2.3089
22.9214,2.3880
22.9400,2.4812
22.9400,3.3937
22.9214,3.4870
22.8686,3.5661
22.7895,3.6189
22.6962,3.6375
22.2087,3.6375
22.1155,3.6189
22.0364,3.5661
21.9836,3.4870
21.9650,3.3937
Z" /> 
<path style="fill:#B4A09A; fill-opacity:0.9020; stroke:none;fill-rule:evenodd;"
d="M 23.8400,2.4812
23.8586,2.3880
23.9114,2.3089
23.9905,2.2561
24.0837,2.2375
24.5712,2.2375
24.6645,2.2561
24.7436,2.3089
24.7964,2.3880
24.8150,2.4812
24.8150,3.3937
24.7964,3.4870
24.7436,3.5661
24.6645,3.6189
24.5712,3.6375
24.0837,3.6375
23.9905,3.6189
23.9114,3.5661
23.8586,3.4870
23.8400,3.3937
Z" /> 
<path style="fill:#B4A09A; fill-opacity:0.9020; stroke:none;fill-rule:evenodd;"
d="M 12.4150,32.3700
12.4340,32.2743
12.4882,32.1932
12.5693,32.1390
12.6650,32.1200
13.1650,32.1200
13.2607,32.1390
13.3418,32.1932
13.3960,32.2743
13.4150,32.3700
13.4150,33.3200
13.3960,33.4157
13.3418,33.4968
13.2607,33.5510
13.1650,33.5700
12.6650,33.5700
12.5693,33.5510
12.4882,33.4968
12.4340,33.4157
12.4150,33.3200
Z" /> 
<path style="fill:#B4A09A; fill-opacity:0.9020; stroke:none;fill-rule:evenodd;"
d="M 14.3150,32.3700
14.3340,32.2743
14.3882,32.1932
14.4693,32.1390
14.5650,32.1200
15.0650,32.1200
15.1607,32.1390
15.2418,32.1932
15.2960,32.2743
15.3150,32.3700
15.3150,33.3200
15.2960,33.4157
15.2418,33.4968
15.1607,33.5510
15.0650,33.5700
14.5650,33.5700
14.4693,33.5510
14.3882,33.4968
14.3340,33.4157
14.3150,33.3200
Z" /> 
<path style="fill:#B4A09A; fill-opacity:0.9020; stroke:none;fill-rule:evenodd;"
d="M 12.4150,36.1800
12.4340,36.0843
12.4882,36.0032
12.5693,35.9490
12.6650,35.9300
13.1650,35.9300
13.2607,35.9490
13.3418,36.0032
13.3960,36.0843
13.4150,36.1800
13.4150,37.1300
13.3960,37.2257
13.3418,37.3068
13.2607,37.3610
13.1650,37.3800
12.6650,37.3800
12.5693,37.3610
12.4882,37.3068
12.4340,37.2257
12.4150,37.1300
Z" /> 
<path style="fill:#B4A09A; fill-opacity:0.9020; stroke:none;fill-rule:evenodd;"
d="M 14.3150,36.1800
14.3340,36.0843
14.3882,36.0032
14.4693,35.9490
14.5650,35.9300
15.0650,35.9300
15.1607,35.9490
15.2418,36.0032
15.2960,36.0843
15.3150,36.1800
15.3150,37.1300
15.2960,37.2257
15.2418,37.3068
15.1607,37.3610
15.0650,37.3800
14.5650,37.3800
14.4693,37.3610
14.3882,37.3068
14.3340,37.2257
14.3150,37.1300
Z" /> 
<path style="fill:#B4A09A; fill-opacity:0.9020; stroke:none;fill-rule:evenodd;"
d="M 12.2550,23.8200
12.2706,23.7130
12.3248,23.6021
12.4121,23.5148
12.5230,23.4606
12.6300,23.4450
13.8800,23.4450
13.9870,23.4606
14.0979,23.5148
14.1852,23.6021
14.2394,23.7130
14.2550,23.8200
14.2550,24.5700
14.2394,24.6770
14.1852,24.7879
14.0979,24.8752
13.9870,24.9294
13.8800,24.9450
12.6300,24.9450
12.5230,24.9294
12.4121,24.8752
12.3248,24.7879
12.2706,24.6770
12.2550,24.5700
Z" /> 
<path style="fill:#B4A09A; fill-opacity:0.9020; stroke:none;fill-rule:evenodd;"
d="M 12.2550,26.1200
12.2706,26.0130
12.3248,25.9021
12.4121,25.8148
12.5230,25.7606
12.6300,25.7450
13.8800,25.7450
13.9870,25.7606
14.0979,25.8148
14.1852,25.9021
14.2394,26.0130
14.2550,26.1200
14.2550,26.8700
14.2394,26.9770
14.1852,27.0879
14.0979,27.1752
13.9870,27.2294
13.8800,27.2450
12.6300,27.2450
12.5230,27.2294
12.4121,27.1752
12.3248,27.0879
12.2706,26.9770
12.2550,26.8700
Z" /> 
<path style="fill:#B4A09A; fill-opacity:0.9020; stroke:none;fill-rule:evenodd;"
d="M 18.5550,25.0950
18.5664,24.9887
18.6162,24.8554
18.7014,24.7414
18.8154,24.6562
18.9487,24.6064
19.0550,24.5950
20.0550,24.5950
20.1613,24.6064
20.2946,24.6562
20.4086,24.7414
20.4938,24.8554
20.5436,24.9887
20.5550,25.0950
20.5550,27.8950
20.5436,28.0013
20.4938,28.1346
20.4086,28.2486
20.2946,28.3338
20.1613,28.3836
20.0550,28.3950
19.0550,28.3950
18.9487,28.3836
18.8154,28.3338
18.7014,28.2486
18.6162,28.1346
18.5664,28.0013
18.5550,27.8950
Z" /> 
<path style="fill:#B4A09A; fill-opacity:0.9020; stroke:none;fill-rule:evenodd;"
d="M 12.2550,28.4200
12.2706,28.3130
12.3248,28.2021
12.4121,28.1148
12.5230,28.0606
12.6300,28.0450
13.8800,28.0450
13.9870,28.0606
14.0979,28.1148
14.1852,28.2021
14.2394,28.3130
14.2550,28.4200
14.2550,29.1700
14.2394,29.2770
14.1852,29.3879
14.0979,29.4752
13.9870,29.5294
13.8800,29.5450
12.6300,29.5450
12.5230,29.5294
12.4121,29.4752
12.3248,29.3879
12.2706,29.2770
12.2550,29.1700
Z" /> 
<path style="fill:none; 
stroke:#D0D2CD; stroke-width:0.0500; stroke-opacity:1; 
stroke-linecap:round; stroke-linejoin:round;fill:none"
d="M 0.0250,0.0250
100.0250,0.0250
100.0250,100.0250
0.0250,100.0250
Z" /> 
</g> 
</svg>
