<?xml version="1.0" standalone="no"?>
 <!DOCTYPE svg PUBLIC "-//W3C//DTD SVG 1.1//EN" 
 "http://www.w3.org/Graphics/SVG/1.1/DTD/svg11.dtd"> 
<svg
  xmlns:svg="http://www.w3.org/2000/svg"
  xmlns="http://www.w3.org/2000/svg"
  xmlns:xlink="http://www.w3.org/1999/xlink"
  version="1.1"
  width="297.0022mm" height="210.0072mm" viewBox="0.0000 0.0000 297.0022 210.0072">
<title>SVG Image created as base_esp32-B_Mask.svg date 2025/01/05 11:03:25 </title>
  <desc>Image generated by PCBNEW </desc>
<g style="fill:#000000; fill-opacity:1.0000;stroke:#000000; stroke-opacity:1.0000;
stroke-linecap:round; stroke-linejoin:round;"
 transform="translate(0 0) scale(1 1)">
<path style="fill:#000000; fill-opacity:1.0000; stroke:none;fill-rule:evenodd;"
d="M 106.0210,61.8100
104.3210,61.8100
104.3210,60.1100
106.0210,60.1100
Z" /> 
</g>
<g style="fill:#000000; fill-opacity:1.0000; stroke:none;">
<circle cx="107.7110" cy="60.9600" r="0.8500" /> 
<circle cx="110.2510" cy="60.9600" r="0.8500" /> 
<path style="fill:#000000; fill-opacity:1.0000; stroke:none;fill-rule:evenodd;"
d="M 180.1250,72.8100
181.8250,72.8100
181.8250,74.5100
180.1250,74.5100
Z" /> 
<circle cx="178.4350" cy="73.6600" r="0.8500" /> 
<path style="fill:#000000; fill-opacity:1.0000; stroke:none;fill-rule:evenodd;"
d="M 197.0414,113.8050
197.0414,112.1050
198.7414,112.1050
198.7414,113.8050
Z" /> 
<circle cx="197.8914" cy="115.4950" r="0.8500" /> 
<circle cx="197.8914" cy="118.0350" r="0.8500" /> 
<circle cx="197.8914" cy="120.5750" r="0.8500" /> 
<path style="fill:#000000; fill-opacity:1.0000; stroke:none;fill-rule:evenodd;"
d="M 201.8140,72.6870
201.8140,74.4870
200.0140,74.4870
200.0140,72.6870
Z" /> 
<circle cx="198.3740" cy="73.5870" r="0.9000" /> 
<path style="fill:#000000; fill-opacity:1.0000; stroke:none;fill-rule:evenodd;"
d="M 201.8140,67.0085
201.8140,68.8085
200.0140,68.8085
200.0140,67.0085
Z" /> 
</g>
<g style="fill:#000000; fill-opacity:1.0000; stroke:none;">
<circle cx="198.3740" cy="67.9085" r="0.9000" /> 
<path style="fill:#000000; fill-opacity:1.0000; stroke:none;fill-rule:evenodd;"
d="M 183.1018,120.4604
184.8018,120.4604
184.8018,122.1604
183.1018,122.1604
Z" /> 
</g>
<g style="fill:#000000; fill-opacity:1.0000; stroke:none;">
<circle cx="181.4118" cy="121.3104" r="0.8500" /> 
<path style="fill:#000000; fill-opacity:1.0000; stroke:none;fill-rule:evenodd;"
d="M 104.5600,112.1782
104.5600,110.4782
106.2600,110.4782
106.2600,112.1782
Z" /> 
<circle cx="105.4100" cy="113.8682" r="0.8500" /> 
<circle cx="105.4100" cy="116.4082" r="0.8500" /> 
<circle cx="105.4100" cy="118.9482" r="0.8500" /> 
<circle cx="129.4276" cy="69.7992" r="0.8000" /> 
</g>
<g style="fill:#000000; fill-opacity:1.0000; stroke:none;">
<circle cx="134.4276" cy="69.7992" r="0.8000" /> 
<path style="fill:#000000; fill-opacity:1.0000; stroke:none;fill-rule:evenodd;"
d="M 122.5980,140.9068
120.9980,140.9068
120.9980,139.3068
122.5980,139.3068
Z" /> 
</g>
<g style="fill:#000000; fill-opacity:1.0000; stroke:none;">
<circle cx="124.3380" cy="140.1068" r="0.8000" /> 
<circle cx="126.8780" cy="140.1068" r="0.8000" /> 
<circle cx="129.4180" cy="140.1068" r="0.8000" /> 
<circle cx="129.4180" cy="132.4868" r="0.8000" /> 
<circle cx="126.8780" cy="132.4868" r="0.8000" /> 
<circle cx="124.3380" cy="132.4868" r="0.8000" /> 
<circle cx="121.7980" cy="132.4868" r="0.8000" /> 
<path style="fill:#000000; fill-opacity:1.0000; stroke:none;fill-rule:evenodd;"
d="M 192.7488,91.8428
192.7488,90.1428
194.4488,90.1428
194.4488,91.8428
Z" /> 
<circle cx="193.5988" cy="93.5328" r="0.8500" /> 
<circle cx="193.5988" cy="96.0728" r="0.8500" /> 
<circle cx="193.5988" cy="98.6128" r="0.8500" /> 
<circle cx="105.2600" cy="135.5450" r="1.0000" /> 
</g>
<g style="fill:#000000; fill-opacity:1.0000; stroke:none;">
<circle cx="111.7600" cy="135.5450" r="1.0000" /> 
</g>
<g style="fill:#000000; fill-opacity:1.0000; stroke:none;">
<circle cx="105.2600" cy="140.0450" r="1.0000" /> 
</g>
<g style="fill:#000000; fill-opacity:1.0000; stroke:none;">
<circle cx="111.7600" cy="140.0450" r="1.0000" /> 
<path style="fill:#000000; fill-opacity:1.0000; stroke:none;fill-rule:evenodd;"
d="M 183.1018,112.8404
184.8018,112.8404
184.8018,114.5404
183.1018,114.5404
Z" /> 
</g>
<g style="fill:#000000; fill-opacity:1.0000; stroke:none;">
<circle cx="181.4118" cy="113.6904" r="0.8500" /> 
<circle cx="184.5400" cy="79.2655" r="0.8000" /> 
</g>
<g style="fill:#000000; fill-opacity:1.0000; stroke:none;">
<circle cx="194.7000" cy="79.2655" r="0.8000" /> 
<path style="fill:#000000; fill-opacity:1.0000; stroke:none;fill-rule:evenodd;"
d="M 173.1400,53.7600
174.8400,53.7600
174.8400,55.4600
173.1400,55.4600
Z" /> 
<circle cx="171.4500" cy="54.6100" r="0.8500" /> 
<path style="fill:#000000; fill-opacity:1.0000; stroke:none;fill-rule:evenodd;"
d="M 171.2096,85.6860
171.2096,83.9860
172.9096,83.9860
172.9096,85.6860
Z" /> 
<circle cx="172.0596" cy="87.3760" r="0.8500" /> 
<path style="fill:#000000; fill-opacity:1.0000; stroke:none;fill-rule:evenodd;"
d="M 164.2194,147.4604
164.2194,145.9604
165.2694,145.9604
165.2694,147.4604
Z" /> 
</g>
<g style="fill:none; 
stroke:#000000; stroke-width:1.0500; stroke-opacity:1; 
stroke-linecap:round; stroke-linejoin:round;">
<path d="M166.0144 146.4854
L166.0144 146.9354
" />
<path d="M167.2844 146.4854
L167.2844 146.9354
" />
<path style="fill:#000000; fill-opacity:1.0000; stroke:none;fill-rule:evenodd;"
d="M 124.3852,148.3228
122.6852,148.3228
122.6852,146.6228
124.3852,146.6228
Z" /> 
</g>
<g style="fill:#000000; fill-opacity:1.0000; stroke:none;">
<circle cx="126.0752" cy="147.4728" r="0.8500" /> 
<circle cx="128.6152" cy="147.4728" r="0.8500" /> 
<circle cx="131.1552" cy="147.4728" r="0.8500" /> 
<circle cx="133.6952" cy="147.4728" r="0.8500" /> 
<circle cx="136.2352" cy="147.4728" r="0.8500" /> 
<circle cx="138.7752" cy="147.4728" r="0.8500" /> 
<circle cx="141.3152" cy="147.4728" r="0.8500" /> 
<path style="fill:#000000; fill-opacity:1.0000; stroke:none;fill-rule:evenodd;"
d="M 150.8896,145.2186
150.8896,143.5186
152.5896,143.5186
152.5896,145.2186
Z" /> 
<circle cx="151.7396" cy="146.9086" r="0.8500" /> 
<path style="fill:#000000; fill-opacity:1.0000; stroke:none;fill-rule:evenodd;"
d="M 171.2096,66.9358
171.2096,65.2358
172.9096,65.2358
172.9096,66.9358
Z" /> 
<circle cx="172.0596" cy="68.6258" r="0.8500" /> 
<circle cx="199.0000" cy="147.0000" r="1.7000" /> 
</g>
<g style="fill:#000000; fill-opacity:1.0000; stroke:none;">
<circle cx="199.0000" cy="147.0000" r="3.0000" /> 
<path style="fill:#000000; fill-opacity:1.0000; stroke:none;fill-rule:evenodd;"
d="M 109.1310,72.2930
106.5310,72.2930
106.5310,69.6930
109.1310,69.6930
Z" /> 
</g>
<g style="fill:#000000; fill-opacity:1.0000; stroke:none;">
<circle cx="107.8310" cy="65.9930" r="1.3000" /> 
<path style="fill:#000000; fill-opacity:1.0000; stroke:none;fill-rule:evenodd;"
d="M 171.2096,79.4376
171.2096,77.7376
172.9096,77.7376
172.9096,79.4376
Z" /> 
</g>
<g style="fill:#000000; fill-opacity:1.0000; stroke:none;">
<circle cx="172.0596" cy="81.1276" r="0.8500" /> 
<circle cx="105.2600" cy="123.7700" r="1.0000" /> 
</g>
<g style="fill:#000000; fill-opacity:1.0000; stroke:none;">
<circle cx="111.7600" cy="123.7700" r="1.0000" /> 
</g>
<g style="fill:#000000; fill-opacity:1.0000; stroke:none;">
<circle cx="105.2600" cy="128.2700" r="1.0000" /> 
</g>
<g style="fill:#000000; fill-opacity:1.0000; stroke:none;">
<circle cx="111.7600" cy="128.2700" r="1.0000" /> 
<path style="fill:#000000; fill-opacity:1.0000; stroke:none;fill-rule:evenodd;"
d="M 180.1250,84.2400
181.8250,84.2400
181.8250,85.9400
180.1250,85.9400
Z" /> 
</g>
<g style="fill:#000000; fill-opacity:1.0000; stroke:none;">
<circle cx="178.4350" cy="85.0900" r="0.8500" /> 
<path style="fill:#000000; fill-opacity:1.0000; stroke:none;fill-rule:evenodd;"
d="M 171.2350,60.5908
171.2350,58.8908
172.9350,58.8908
172.9350,60.5908
Z" /> 
<circle cx="172.0850" cy="62.2808" r="0.8500" /> 
<circle cx="147.9042" cy="122.7836" r="0.8000" /> 
</g>
<g style="fill:#000000; fill-opacity:1.0000; stroke:none;">
<circle cx="158.0642" cy="122.7836" r="0.8000" /> 
<path style="fill:#000000; fill-opacity:1.0000; stroke:none;fill-rule:evenodd;"
d="M 124.3598,125.2342
122.6598,125.2342
122.6598,123.5342
124.3598,123.5342
Z" /> 
<circle cx="126.0498" cy="124.3842" r="0.8500" /> 
<circle cx="128.5898" cy="124.3842" r="0.8500" /> 
<circle cx="131.1298" cy="124.3842" r="0.8500" /> 
<circle cx="133.6698" cy="124.3842" r="0.8500" /> 
<circle cx="136.2098" cy="124.3842" r="0.8500" /> 
<circle cx="138.7498" cy="124.3842" r="0.8500" /> 
<circle cx="141.2898" cy="124.3842" r="0.8500" /> 
<circle cx="184.5400" cy="62.2300" r="0.8000" /> 
</g>
<g style="fill:#000000; fill-opacity:1.0000; stroke:none;">
<circle cx="194.7000" cy="62.2300" r="0.8000" /> 
<circle cx="184.9893" cy="53.0712" r="1.0000" /> 
</g>
<g style="fill:#000000; fill-opacity:1.0000; stroke:none;">
<circle cx="191.4893" cy="53.0712" r="1.0000" /> 
</g>
<g style="fill:#000000; fill-opacity:1.0000; stroke:none;">
<circle cx="184.9893" cy="57.5712" r="1.0000" /> 
</g>
<g style="fill:#000000; fill-opacity:1.0000; stroke:none;">
<circle cx="191.4893" cy="57.5712" r="1.0000" /> 
<path style="fill:#000000; fill-opacity:1.0000; stroke:none;fill-rule:evenodd;"
d="M 135.7398,140.9068
134.1398,140.9068
134.1398,139.3068
135.7398,139.3068
Z" /> 
</g>
<g style="fill:#000000; fill-opacity:1.0000; stroke:none;">
<circle cx="137.4798" cy="140.1068" r="0.8000" /> 
<circle cx="140.0198" cy="140.1068" r="0.8000" /> 
<circle cx="142.5598" cy="140.1068" r="0.8000" /> 
<circle cx="142.5598" cy="132.4868" r="0.8000" /> 
<circle cx="140.0198" cy="132.4868" r="0.8000" /> 
<circle cx="137.4798" cy="132.4868" r="0.8000" /> 
<circle cx="134.9398" cy="132.4868" r="0.8000" /> 
<path style="fill:#000000; fill-opacity:1.0000; stroke:none;fill-rule:evenodd;"
d="M 180.4498,93.5242
180.4498,91.8242
182.1498,91.8242
182.1498,93.5242
Z" /> 
<circle cx="181.2998" cy="95.2142" r="0.8500" /> 
<circle cx="181.2998" cy="97.7542" r="0.8500" /> 
<path style="fill:#000000; fill-opacity:1.0000; stroke:none;fill-rule:evenodd;"
d="M 121.1416,96.2034
122.8416,96.2034
122.8416,97.9034
121.1416,97.9034
Z" /> 
<circle cx="119.4516" cy="97.0534" r="0.8500" /> 
<circle cx="116.9116" cy="97.0534" r="0.8500" /> 
<path style="fill:#000000; fill-opacity:1.0000; stroke:none;fill-rule:evenodd;"
d="M 108.3700,99.9100
108.3700,98.2100
110.0700,98.2100
110.0700,99.9100
Z" /> 
<circle cx="109.2200" cy="101.6000" r="0.8500" /> 
<circle cx="109.2200" cy="104.1400" r="0.8500" /> 
<circle cx="109.2200" cy="106.6800" r="0.8500" /> 
<path style="fill:#000000; fill-opacity:1.0000; stroke:none;fill-rule:evenodd;"
d="M 180.1250,67.0950
181.8250,67.0950
181.8250,68.7950
180.1250,68.7950
Z" /> 
<circle cx="178.4350" cy="67.9450" r="0.8500" /> 
<path style="fill:#000000; fill-opacity:1.0000; stroke:none;fill-rule:evenodd;"
d="M 132.9554,112.4830
131.2554,112.4830
131.2554,110.7830
132.9554,110.7830
Z" /> 
<circle cx="134.6454" cy="111.6330" r="0.8500" /> 
<circle cx="184.4800" cy="84.9440" r="0.8000" /> 
</g>
<g style="fill:#000000; fill-opacity:1.0000; stroke:none;">
<circle cx="194.6400" cy="84.9440" r="0.8000" /> 
<path style="fill:#000000; fill-opacity:1.0000; stroke:none;fill-rule:evenodd;"
d="M 184.9458,147.4350
184.9458,145.9350
185.9958,145.9350
185.9958,147.4350
Z" /> 
</g>
<g style="fill:none; 
stroke:#000000; stroke-width:1.0500; stroke-opacity:1; 
stroke-linecap:round; stroke-linejoin:round;">
<path d="M186.7408 146.4600
L186.7408 146.9100
" />
<path d="M188.0108 146.4600
L188.0108 146.9100
" />
<path style="fill:#000000; fill-opacity:1.0000; stroke:none;fill-rule:evenodd;"
d="M 192.7488,103.8216
192.7488,102.1216
194.4488,102.1216
194.4488,103.8216
Z" /> 
</g>
<g style="fill:#000000; fill-opacity:1.0000; stroke:none;">
<circle cx="193.5988" cy="105.5116" r="0.8500" /> 
<path style="fill:#000000; fill-opacity:1.0000; stroke:none;fill-rule:evenodd;"
d="M 201.8140,61.3300
201.8140,63.1300
200.0140,63.1300
200.0140,61.3300
Z" /> 
<circle cx="198.3740" cy="62.2300" r="0.9000" /> 
</g>
<g style="fill:#000000; fill-opacity:1.0000; stroke:none;">
<circle cx="174.4872" cy="145.7960" r="1.1700" /> 
</g>
<g style="fill:#000000; fill-opacity:1.0000; stroke:none;">
<circle cx="179.4872" cy="143.2960" r="1.1700" /> 
</g>
<g style="fill:#000000; fill-opacity:1.0000; stroke:none;">
<circle cx="174.4872" cy="140.7960" r="1.1700" /> 
<path style="fill:#000000; fill-opacity:1.0000; stroke:none;fill-rule:evenodd;"
d="M 180.1250,61.3800
181.8250,61.3800
181.8250,63.0800
180.1250,63.0800
Z" /> 
</g>
<g style="fill:#000000; fill-opacity:1.0000; stroke:none;">
<circle cx="178.4350" cy="62.2300" r="0.8500" /> 
<path style="fill:#000000; fill-opacity:1.0000; stroke:none;fill-rule:evenodd;"
d="M 165.3354,114.2610
163.6354,114.2610
163.6354,112.5610
165.3354,112.5610
Z" /> 
<circle cx="167.0254" cy="113.4110" r="0.8500" /> 
<circle cx="115.5700" cy="144.7800" r="0.8000" /> 
</g>
<g style="fill:#000000; fill-opacity:1.0000; stroke:none;">
<circle cx="115.5700" cy="134.6200" r="0.8000" /> 
<circle cx="167.6400" cy="122.8090" r="0.8000" /> 
</g>
<g style="fill:#000000; fill-opacity:1.0000; stroke:none;">
<circle cx="164.6400" cy="122.8090" r="0.8000" /> 
<path style="fill:#000000; fill-opacity:1.0000; stroke:none;fill-rule:evenodd;"
d="M 196.6200,139.9300
196.6200,136.9300
199.6200,136.9300
199.6200,139.9300
Z" /> 
</g>
<g style="fill:#000000; fill-opacity:1.0000; stroke:none;">
<circle cx="198.1200" cy="133.4300" r="1.5000" /> 
</g>
<g style="fill:#000000; fill-opacity:1.0000; stroke:none;">
<circle cx="198.1200" cy="128.4300" r="1.5000" /> 
<path style="fill:#000000; fill-opacity:1.0000; stroke:none;fill-rule:evenodd;"
d="M 183.1018,109.0812
184.8018,109.0812
184.8018,110.7812
183.1018,110.7812
Z" /> 
</g>
<g style="fill:#000000; fill-opacity:1.0000; stroke:none;">
<circle cx="181.4118" cy="109.9312" r="0.8500" /> 
<path style="fill:#000000; fill-opacity:1.0000; stroke:none;fill-rule:evenodd;"
d="M 201.8140,84.0440
201.8140,85.8440
200.0140,85.8440
200.0140,84.0440
Z" /> 
<circle cx="198.3740" cy="84.9440" r="0.9000" /> 
<path style="fill:#000000; fill-opacity:1.0000; stroke:none;fill-rule:evenodd;"
d="M 124.7022,109.9684
124.7022,108.2684
126.4022,108.2684
126.4022,109.9684
Z" /> 
</g>
<g style="fill:#000000; fill-opacity:1.0000; stroke:none;">
<circle cx="125.5522" cy="111.6584" r="0.8500" /> 
<circle cx="125.5522" cy="114.1984" r="0.8500" /> 
<path style="fill:#000000; fill-opacity:1.0000; stroke:none;fill-rule:evenodd;"
d="M 113.2096,118.1980
111.5096,118.1980
111.5096,116.4980
113.2096,116.4980
Z" /> 
<circle cx="114.8996" cy="117.3480" r="0.8500" /> 
<path style="fill:#000000; fill-opacity:1.0000; stroke:none;fill-rule:evenodd;"
d="M 179.6170,103.7472
181.3170,103.7472
181.3170,105.4472
179.6170,105.4472
Z" /> 
<circle cx="177.9270" cy="104.5972" r="0.8500" /> 
<path style="fill:#000000; fill-opacity:1.0000; stroke:none;fill-rule:evenodd;"
d="M 176.6398,93.5242
176.6398,91.8242
178.3398,91.8242
178.3398,93.5242
Z" /> 
<circle cx="177.4898" cy="95.2142" r="0.8500" /> 
<circle cx="177.4898" cy="97.7542" r="0.8500" /> 
<path style="fill:#000000; fill-opacity:1.0000; stroke:none;fill-rule:evenodd;"
d="M 178.6622,127.4820
180.3622,127.4820
180.3622,129.1820
178.6622,129.1820
Z" /> 
<circle cx="176.9722" cy="128.3320" r="0.8500" /> 
<circle cx="174.4322" cy="128.3320" r="0.8500" /> 
<path style="fill:#000000; fill-opacity:1.0000; stroke:none;fill-rule:evenodd;"
d="M 178.5502,134.0860
180.2502,134.0860
180.2502,135.7860
178.5502,135.7860
Z" /> 
<circle cx="176.8602" cy="134.9360" r="0.8500" /> 
<circle cx="174.3202" cy="134.9360" r="0.8500" /> 
<path style="fill:#000000; fill-opacity:1.0000; stroke:none;fill-rule:evenodd;"
d="M 124.3598,129.0442
122.6598,129.0442
122.6598,127.3442
124.3598,127.3442
Z" /> 
<circle cx="126.0498" cy="128.1942" r="0.8500" /> 
<circle cx="128.5898" cy="128.1942" r="0.8500" /> 
<circle cx="131.1298" cy="128.1942" r="0.8500" /> 
<circle cx="133.6698" cy="128.1942" r="0.8500" /> 
<circle cx="136.2098" cy="128.1942" r="0.8500" /> 
<circle cx="138.7498" cy="128.1942" r="0.8500" /> 
<circle cx="141.2898" cy="128.1942" r="0.8500" /> 
<path style="fill:#000000; fill-opacity:1.0000; stroke:none;fill-rule:evenodd;"
d="M 104.5350,88.4900
104.5350,86.7900
106.2350,86.7900
106.2350,88.4900
Z" /> 
<circle cx="105.3850" cy="90.1800" r="0.8500" /> 
<circle cx="105.3850" cy="92.7200" r="0.8500" /> 
<circle cx="105.3850" cy="95.2600" r="0.8500" /> 
<circle cx="184.5400" cy="73.5870" r="0.8000" /> 
</g>
<g style="fill:#000000; fill-opacity:1.0000; stroke:none;">
<circle cx="194.7000" cy="73.5870" r="0.8000" /> 
<path style="fill:#000000; fill-opacity:1.0000; stroke:none;fill-rule:evenodd;"
d="M 162.5990,135.3634
162.5990,133.6634
164.2990,133.6634
164.2990,135.3634
Z" /> 
<circle cx="163.4490" cy="137.0534" r="0.8500" /> 
<path style="fill:#000000; fill-opacity:1.0000; stroke:none;fill-rule:evenodd;"
d="M 147.0796,145.2186
147.0796,143.5186
148.7796,143.5186
148.7796,145.2186
Z" /> 
<circle cx="147.9296" cy="146.9086" r="0.8500" /> 
<circle cx="184.5400" cy="67.9085" r="0.8000" /> 
</g>
<g style="fill:#000000; fill-opacity:1.0000; stroke:none;">
<circle cx="194.7000" cy="67.9085" r="0.8000" /> 
<circle cx="167.3098" cy="140.8684" r="0.8000" /> 
</g>
<g style="fill:#000000; fill-opacity:1.0000; stroke:none;">
<circle cx="167.3098" cy="130.7084" r="0.8000" /> 
<circle cx="199.0000" cy="55.0000" r="1.7000" /> 
</g>
<g style="fill:#000000; fill-opacity:1.0000; stroke:none;">
<circle cx="199.0000" cy="55.0000" r="3.0000" /> 
<path style="fill:#000000; fill-opacity:1.0000; stroke:none;fill-rule:evenodd;"
d="M 104.5350,77.0500
104.5350,75.3500
106.2350,75.3500
106.2350,77.0500
Z" /> 
</g>
<g style="fill:#000000; fill-opacity:1.0000; stroke:none;">
<circle cx="105.3850" cy="78.7400" r="0.8500" /> 
<circle cx="105.3850" cy="81.2800" r="0.8500" /> 
<circle cx="105.3850" cy="83.8200" r="0.8500" /> 
<path style="fill:#000000; fill-opacity:1.0000; stroke:none;fill-rule:evenodd;"
d="M 196.5588,91.8428
196.5588,90.1428
198.2588,90.1428
198.2588,91.8428
Z" /> 
<circle cx="197.4088" cy="93.5328" r="0.8500" /> 
<circle cx="197.4088" cy="96.0728" r="0.8500" /> 
<circle cx="197.4088" cy="98.6128" r="0.8500" /> 
<path style="fill:#000000; fill-opacity:1.0000; stroke:none;fill-rule:evenodd;"
d="M 104.5350,99.9100
104.5350,98.2100
106.2350,98.2100
106.2350,99.9100
Z" /> 
<circle cx="105.3850" cy="101.6000" r="0.8500" /> 
<circle cx="105.3850" cy="104.1400" r="0.8500" /> 
<circle cx="105.3850" cy="106.6800" r="0.8500" /> 
<path style="fill:#000000; fill-opacity:1.0000; stroke:none;fill-rule:evenodd;"
d="M 124.3852,144.5128
122.6852,144.5128
122.6852,142.8128
124.3852,142.8128
Z" /> 
<circle cx="126.0752" cy="143.6628" r="0.8500" /> 
<circle cx="128.6152" cy="143.6628" r="0.8500" /> 
<circle cx="131.1552" cy="143.6628" r="0.8500" /> 
<circle cx="133.6952" cy="143.6628" r="0.8500" /> 
<circle cx="136.2352" cy="143.6628" r="0.8500" /> 
<circle cx="138.7752" cy="143.6628" r="0.8500" /> 
<circle cx="141.3152" cy="143.6628" r="0.8500" /> 
<circle cx="107.0000" cy="54.9250" r="1.7000" /> 
</g>
<g style="fill:#000000; fill-opacity:1.0000; stroke:none;">
<circle cx="107.0000" cy="54.9250" r="3.0000" /> 
<path style="fill:#000000; fill-opacity:1.0000; stroke:none;fill-rule:evenodd;"
d="M 125.1350,69.8373
123.1350,69.8373
123.1350,67.9323
125.1350,67.9323
Z" /> 
</g>
<g style="fill:none; 
stroke:#000000; stroke-width:1.9050; stroke-opacity:1; 
stroke-linecap:round; stroke-linejoin:round;">
<path d="M124.0875 66.3448
L124.1825 66.3448
" />
<path d="M124.0875 63.8048
L124.1825 63.8048
" />
<path style="fill:#000000; fill-opacity:1.0000; stroke:none;fill-rule:evenodd;"
d="M 138.6620,63.0004
138.6620,61.0004
140.6620,61.0004
140.6620,63.0004
Z" /> 
</g>
<g style="fill:#000000; fill-opacity:1.0000; stroke:none;">
<circle cx="139.6620" cy="64.5404" r="1.0000" /> 
</g>
<g style="fill:#000000; fill-opacity:1.0000; stroke:none;">
<circle cx="139.6620" cy="67.0804" r="1.0000" /> 
</g>
<g style="fill:#000000; fill-opacity:1.0000; stroke:none;">
<circle cx="139.6620" cy="69.6204" r="1.0000" /> 
</g>
<g style="fill:#000000; fill-opacity:1.0000; stroke:none;">
<circle cx="139.6620" cy="72.1604" r="1.0000" /> 
</g>
<g style="fill:#000000; fill-opacity:1.0000; stroke:none;">
<circle cx="139.6620" cy="74.7004" r="1.0000" /> 
</g>
<g style="fill:#000000; fill-opacity:1.0000; stroke:none;">
<circle cx="139.6620" cy="77.2404" r="1.0000" /> 
</g>
<g style="fill:#000000; fill-opacity:1.0000; stroke:none;">
<circle cx="139.6620" cy="79.7804" r="1.0000" /> 
</g>
<g style="fill:#000000; fill-opacity:1.0000; stroke:none;">
<circle cx="139.6620" cy="82.3204" r="1.0000" /> 
</g>
<g style="fill:#000000; fill-opacity:1.0000; stroke:none;">
<circle cx="139.6620" cy="84.8604" r="1.0000" /> 
</g>
<g style="fill:#000000; fill-opacity:1.0000; stroke:none;">
<circle cx="139.6620" cy="87.4004" r="1.0000" /> 
</g>
<g style="fill:#000000; fill-opacity:1.0000; stroke:none;">
<circle cx="139.6620" cy="89.9404" r="1.0000" /> 
</g>
<g style="fill:#000000; fill-opacity:1.0000; stroke:none;">
<circle cx="139.6620" cy="92.4804" r="1.0000" /> 
</g>
<g style="fill:#000000; fill-opacity:1.0000; stroke:none;">
<circle cx="139.6620" cy="95.0204" r="1.0000" /> 
</g>
<g style="fill:#000000; fill-opacity:1.0000; stroke:none;">
<circle cx="139.6620" cy="97.5604" r="1.0000" /> 
</g>
<g style="fill:#000000; fill-opacity:1.0000; stroke:none;">
<circle cx="165.0620" cy="97.5604" r="1.0000" /> 
</g>
<g style="fill:#000000; fill-opacity:1.0000; stroke:none;">
<circle cx="165.0620" cy="95.0204" r="1.0000" /> 
</g>
<g style="fill:#000000; fill-opacity:1.0000; stroke:none;">
<circle cx="165.0620" cy="92.4804" r="1.0000" /> 
</g>
<g style="fill:#000000; fill-opacity:1.0000; stroke:none;">
<circle cx="165.0620" cy="89.9404" r="1.0000" /> 
</g>
<g style="fill:#000000; fill-opacity:1.0000; stroke:none;">
<circle cx="165.0620" cy="87.4004" r="1.0000" /> 
</g>
<g style="fill:#000000; fill-opacity:1.0000; stroke:none;">
<circle cx="165.0620" cy="84.8604" r="1.0000" /> 
</g>
<g style="fill:#000000; fill-opacity:1.0000; stroke:none;">
<circle cx="165.0620" cy="82.3204" r="1.0000" /> 
</g>
<g style="fill:#000000; fill-opacity:1.0000; stroke:none;">
<circle cx="165.0620" cy="79.7804" r="1.0000" /> 
</g>
<g style="fill:#000000; fill-opacity:1.0000; stroke:none;">
<circle cx="165.0620" cy="77.2404" r="1.0000" /> 
</g>
<g style="fill:#000000; fill-opacity:1.0000; stroke:none;">
<circle cx="165.0620" cy="74.7004" r="1.0000" /> 
</g>
<g style="fill:#000000; fill-opacity:1.0000; stroke:none;">
<circle cx="165.0620" cy="72.1604" r="1.0000" /> 
</g>
<g style="fill:#000000; fill-opacity:1.0000; stroke:none;">
<circle cx="165.0620" cy="69.6204" r="1.0000" /> 
</g>
<g style="fill:#000000; fill-opacity:1.0000; stroke:none;">
<circle cx="165.0620" cy="67.0804" r="1.0000" /> 
</g>
<g style="fill:#000000; fill-opacity:1.0000; stroke:none;">
<circle cx="165.0620" cy="64.5404" r="1.0000" /> 
</g>
<g style="fill:#000000; fill-opacity:1.0000; stroke:none;">
<circle cx="165.0620" cy="62.0004" r="1.0000" /> 
<path style="fill:#000000; fill-opacity:1.0000; stroke:none;fill-rule:evenodd;"
d="M 113.1384,114.2864
111.4384,114.2864
111.4384,112.5864
113.1384,112.5864
Z" /> 
</g>
<g style="fill:#000000; fill-opacity:1.0000; stroke:none;">
<circle cx="114.8284" cy="113.4364" r="0.8500" /> 
<circle cx="115.5700" cy="130.8100" r="0.8000" /> 
</g>
<g style="fill:#000000; fill-opacity:1.0000; stroke:none;">
<circle cx="115.5700" cy="120.6500" r="0.8000" /> 
<path style="fill:#000000; fill-opacity:1.0000; stroke:none;fill-rule:evenodd;"
d="M 171.2096,73.1892
171.2096,71.4892
172.9096,71.4892
172.9096,73.1892
Z" /> 
<circle cx="172.0596" cy="74.8792" r="0.8500" /> 
<path style="fill:#000000; fill-opacity:1.0000; stroke:none;fill-rule:evenodd;"
d="M 108.3700,88.4800
108.3700,86.7800
110.0700,86.7800
110.0700,88.4800
Z" /> 
<circle cx="109.2200" cy="90.1700" r="0.8500" /> 
<circle cx="109.2200" cy="92.7100" r="0.8500" /> 
<circle cx="109.2200" cy="95.2500" r="0.8500" /> 
<path style="fill:#000000; fill-opacity:1.0000; stroke:none;fill-rule:evenodd;"
d="M 154.6996,145.2186
154.6996,143.5186
156.3996,143.5186
156.3996,145.2186
Z" /> 
<circle cx="155.5496" cy="146.9086" r="0.8500" /> 
<path style="fill:#000000; fill-opacity:1.0000; stroke:none;fill-rule:evenodd;"
d="M 158.5096,145.2186
158.5096,143.5186
160.2096,143.5186
160.2096,145.2186
Z" /> 
<circle cx="159.3596" cy="146.9086" r="0.8500" /> 
<path style="fill:#000000; fill-opacity:1.0000; stroke:none;fill-rule:evenodd;"
d="M 117.7916,92.8234
116.0916,92.8234
116.0916,91.1234
117.7916,91.1234
Z" /> 
<circle cx="119.4816" cy="91.9734" r="0.8500" /> 
<circle cx="122.0216" cy="91.9734" r="0.8500" /> 
<circle cx="124.5616" cy="91.9734" r="0.8500" /> 
<circle cx="107.0000" cy="147.0000" r="1.7000" /> 
</g>
<g style="fill:#000000; fill-opacity:1.0000; stroke:none;">
<circle cx="107.0000" cy="147.0000" r="3.0000" /> 
<path style="fill:#000000; fill-opacity:1.0000; stroke:none;fill-rule:evenodd;"
d="M 180.1250,78.5250
181.8250,78.5250
181.8250,80.2250
180.1250,80.2250
Z" /> 
</g>
<g style="fill:#000000; fill-opacity:1.0000; stroke:none;">
<circle cx="178.4350" cy="79.3750" r="0.8500" /> 
<path style="fill:#000000; fill-opacity:1.0000; stroke:none;fill-rule:evenodd;"
d="M 196.5588,103.8216
196.5588,102.1216
198.2588,102.1216
198.2588,103.8216
Z" /> 
<circle cx="197.4088" cy="105.5116" r="0.8500" /> 
<path style="fill:#000000; fill-opacity:1.0000; stroke:none;fill-rule:evenodd;"
d="M 201.8140,78.3655
201.8140,80.1655
200.0140,80.1655
200.0140,78.3655
Z" /> 
<circle cx="198.3740" cy="79.2655" r="0.9000" /> 
<path style="fill:#000000; fill-opacity:1.0000; stroke:none;fill-rule:evenodd;"
d="M 183.1018,116.7266
184.8018,116.7266
184.8018,118.4266
183.1018,118.4266
Z" /> 
</g>
<g style="fill:#000000; fill-opacity:1.0000; stroke:none;">
<circle cx="181.4118" cy="117.5766" r="0.8500" /> 
<path style="fill:#000000; fill-opacity:1.0000; stroke:none;fill-rule:evenodd;"
d="M 108.3700,77.0500
108.3700,75.3500
110.0700,75.3500
110.0700,77.0500
Z" /> 
<circle cx="109.2200" cy="78.7400" r="0.8500" /> 
<circle cx="109.2200" cy="81.2800" r="0.8500" /> 
<circle cx="109.2200" cy="83.8200" r="0.8500" /> 
<path style="fill:#000000; fill-opacity:1.0000; stroke:none;fill-rule:evenodd;"
d="M 131.1276,61.7997
132.7276,61.7997
132.7276,63.3997
131.1276,63.3997
Z" /> 
<circle cx="131.9276" cy="65.0997" r="0.8000" /> 
<path style="fill:#000000; fill-opacity:1.0000; stroke:none;fill-rule:evenodd;"
d="M 150.3298,140.9064
148.7298,140.9064
148.7298,139.3064
150.3298,139.3064
Z" /> 
</g>
<g style="fill:#000000; fill-opacity:1.0000; stroke:none;">
<circle cx="152.0698" cy="140.1064" r="0.8000" /> 
<circle cx="154.6098" cy="140.1064" r="0.8000" /> 
<circle cx="157.1498" cy="140.1064" r="0.8000" /> 
<circle cx="157.1498" cy="132.4864" r="0.8000" /> 
<circle cx="154.6098" cy="132.4864" r="0.8000" /> 
<circle cx="152.0698" cy="132.4864" r="0.8000" /> 
<circle cx="149.5298" cy="132.4864" r="0.8000" /> 
<path style="fill:#000000; fill-opacity:1.0000; stroke:none;fill-rule:evenodd;"
d="M 157.7366,112.5856
157.7366,114.1856
156.1366,114.1856
156.1366,112.5856
Z" /> 
<circle cx="149.3366" cy="113.3856" r="0.8000" /> 
</g> 
</svg>
