<?xml version="1.0" standalone="no"?>
 <!DOCTYPE svg PUBLIC "-//W3C//DTD SVG 1.1//EN" 
 "http://www.w3.org/Graphics/SVG/1.1/DTD/svg11.dtd"> 
<svg
  xmlns:svg="http://www.w3.org/2000/svg"
  xmlns="http://www.w3.org/2000/svg"
  xmlns:xlink="http://www.w3.org/1999/xlink"
  version="1.1"
  width="200.8632mm" height="138.8110mm" viewBox="0.0000 0.0000 200.8632 138.8110">
<title>SVG Image created as base_esp32-B_Mask.svg date 2024/12/29 13:30:45 </title>
  <desc>Image generated by PCBNEW </desc>
<g style="fill:#000000; fill-opacity:1.0000;stroke:#000000; stroke-opacity:1.0000;
stroke-linecap:round; stroke-linejoin:round;"
 transform="translate(0 0) scale(1 1)">
<path style="fill:#02FFEE; fill-opacity:0.4000; stroke:none;fill-rule:evenodd;"
d="M 89.7142,10.8350
88.0142,10.8350
88.0142,9.1350
89.7142,9.1350
Z" /> 
</g>
<g style="fill:#02FFEE; fill-opacity:0.4000; stroke:none;">
<circle cx="91.4042" cy="9.9850" r="0.8500" /> 
<circle cx="93.9442" cy="9.9850" r="0.8500" /> 
<path style="fill:#02FFEE; fill-opacity:0.4000; stroke:none;fill-rule:evenodd;"
d="M 163.8182,21.8350
165.5182,21.8350
165.5182,23.5350
163.8182,23.5350
Z" /> 
<circle cx="162.1282" cy="22.6850" r="0.8500" /> 
<path style="fill:#02FFEE; fill-opacity:0.4000; stroke:none;fill-rule:evenodd;"
d="M 180.7346,62.8300
180.7346,61.1300
182.4346,61.1300
182.4346,62.8300
Z" /> 
<circle cx="181.5846" cy="64.5200" r="0.8500" /> 
<circle cx="181.5846" cy="67.0600" r="0.8500" /> 
<circle cx="181.5846" cy="69.6000" r="0.8500" /> 
<path style="fill:#02FFEE; fill-opacity:0.4000; stroke:none;fill-rule:evenodd;"
d="M 185.5072,21.7120
185.5072,23.5120
183.7072,23.5120
183.7072,21.7120
Z" /> 
<circle cx="182.0672" cy="22.6120" r="0.9000" /> 
<path style="fill:#02FFEE; fill-opacity:0.4000; stroke:none;fill-rule:evenodd;"
d="M 185.5072,16.0335
185.5072,17.8335
183.7072,17.8335
183.7072,16.0335
Z" /> 
</g>
<g style="fill:#02FFEE; fill-opacity:0.4000; stroke:none;">
<circle cx="182.0672" cy="16.9335" r="0.9000" /> 
<path style="fill:#02FFEE; fill-opacity:0.4000; stroke:none;fill-rule:evenodd;"
d="M 166.7950,69.4854
168.4950,69.4854
168.4950,71.1854
166.7950,71.1854
Z" /> 
</g>
<g style="fill:#02FFEE; fill-opacity:0.4000; stroke:none;">
<circle cx="165.1050" cy="70.3354" r="0.8500" /> 
<path style="fill:#02FFEE; fill-opacity:0.4000; stroke:none;fill-rule:evenodd;"
d="M 88.2532,61.2032
88.2532,59.5032
89.9532,59.5032
89.9532,61.2032
Z" /> 
<circle cx="89.1032" cy="62.8932" r="0.8500" /> 
<circle cx="89.1032" cy="65.4332" r="0.8500" /> 
<circle cx="89.1032" cy="67.9732" r="0.8500" /> 
<circle cx="113.1208" cy="18.8242" r="0.8000" /> 
</g>
<g style="fill:#02FFEE; fill-opacity:0.4000; stroke:none;">
<circle cx="118.1208" cy="18.8242" r="0.8000" /> 
<path style="fill:#02FFEE; fill-opacity:0.4000; stroke:none;fill-rule:evenodd;"
d="M 106.2912,89.9318
104.6912,89.9318
104.6912,88.3318
106.2912,88.3318
Z" /> 
</g>
<g style="fill:#02FFEE; fill-opacity:0.4000; stroke:none;">
<circle cx="108.0312" cy="89.1318" r="0.8000" /> 
<circle cx="110.5712" cy="89.1318" r="0.8000" /> 
<circle cx="113.1112" cy="89.1318" r="0.8000" /> 
<circle cx="113.1112" cy="81.5118" r="0.8000" /> 
<circle cx="110.5712" cy="81.5118" r="0.8000" /> 
<circle cx="108.0312" cy="81.5118" r="0.8000" /> 
<circle cx="105.4912" cy="81.5118" r="0.8000" /> 
<path style="fill:#02FFEE; fill-opacity:0.4000; stroke:none;fill-rule:evenodd;"
d="M 176.4420,40.8678
176.4420,39.1678
178.1420,39.1678
178.1420,40.8678
Z" /> 
<circle cx="177.2920" cy="42.5578" r="0.8500" /> 
<circle cx="177.2920" cy="45.0978" r="0.8500" /> 
<circle cx="177.2920" cy="47.6378" r="0.8500" /> 
<circle cx="88.9532" cy="84.5700" r="1.0000" /> 
</g>
<g style="fill:#02FFEE; fill-opacity:0.4000; stroke:none;">
<circle cx="95.4532" cy="84.5700" r="1.0000" /> 
</g>
<g style="fill:#02FFEE; fill-opacity:0.4000; stroke:none;">
<circle cx="88.9532" cy="89.0700" r="1.0000" /> 
</g>
<g style="fill:#02FFEE; fill-opacity:0.4000; stroke:none;">
<circle cx="95.4532" cy="89.0700" r="1.0000" /> 
<path style="fill:#02FFEE; fill-opacity:0.4000; stroke:none;fill-rule:evenodd;"
d="M 166.7950,61.8654
168.4950,61.8654
168.4950,63.5654
166.7950,63.5654
Z" /> 
</g>
<g style="fill:#02FFEE; fill-opacity:0.4000; stroke:none;">
<circle cx="165.1050" cy="62.7154" r="0.8500" /> 
<circle cx="168.2332" cy="28.2905" r="0.8000" /> 
</g>
<g style="fill:#02FFEE; fill-opacity:0.4000; stroke:none;">
<circle cx="178.3932" cy="28.2905" r="0.8000" /> 
<path style="fill:#02FFEE; fill-opacity:0.4000; stroke:none;fill-rule:evenodd;"
d="M 156.8332,2.7850
158.5332,2.7850
158.5332,4.4850
156.8332,4.4850
Z" /> 
<circle cx="155.1432" cy="3.6350" r="0.8500" /> 
<path style="fill:#02FFEE; fill-opacity:0.4000; stroke:none;fill-rule:evenodd;"
d="M 154.9028,34.7110
154.9028,33.0110
156.6028,33.0110
156.6028,34.7110
Z" /> 
<circle cx="155.7528" cy="36.4010" r="0.8500" /> 
<path style="fill:#02FFEE; fill-opacity:0.4000; stroke:none;fill-rule:evenodd;"
d="M 147.9126,96.4854
147.9126,94.9854
148.9626,94.9854
148.9626,96.4854
Z" /> 
</g>
<g style="fill:none; 
stroke:#02FFEE; stroke-width:1.0500; stroke-opacity:1; 
stroke-linecap:round; stroke-linejoin:round;">
<path d="M149.7076 95.5104
L149.7076 95.9604
" />
<path d="M150.9776 95.5104
L150.9776 95.9604
" />
<path style="fill:#02FFEE; fill-opacity:0.4000; stroke:none;fill-rule:evenodd;"
d="M 108.0784,97.3478
106.3784,97.3478
106.3784,95.6478
108.0784,95.6478
Z" /> 
</g>
<g style="fill:#02FFEE; fill-opacity:0.4000; stroke:none;">
<circle cx="109.7684" cy="96.4978" r="0.8500" /> 
<circle cx="112.3084" cy="96.4978" r="0.8500" /> 
<circle cx="114.8484" cy="96.4978" r="0.8500" /> 
<circle cx="117.3884" cy="96.4978" r="0.8500" /> 
<circle cx="119.9284" cy="96.4978" r="0.8500" /> 
<circle cx="122.4684" cy="96.4978" r="0.8500" /> 
<circle cx="125.0084" cy="96.4978" r="0.8500" /> 
<path style="fill:#02FFEE; fill-opacity:0.4000; stroke:none;fill-rule:evenodd;"
d="M 134.5828,94.2436
134.5828,92.5436
136.2828,92.5436
136.2828,94.2436
Z" /> 
<circle cx="135.4328" cy="95.9336" r="0.8500" /> 
<path style="fill:#02FFEE; fill-opacity:0.4000; stroke:none;fill-rule:evenodd;"
d="M 154.9028,15.9608
154.9028,14.2608
156.6028,14.2608
156.6028,15.9608
Z" /> 
<circle cx="155.7528" cy="17.6508" r="0.8500" /> 
<circle cx="182.6932" cy="96.0250" r="1.7000" /> 
</g>
<g style="fill:#02FFEE; fill-opacity:0.4000; stroke:none;">
<circle cx="182.6932" cy="96.0250" r="3.0000" /> 
<path style="fill:#02FFEE; fill-opacity:0.4000; stroke:none;fill-rule:evenodd;"
d="M 92.8242,21.3180
90.2242,21.3180
90.2242,18.7180
92.8242,18.7180
Z" /> 
</g>
<g style="fill:#02FFEE; fill-opacity:0.4000; stroke:none;">
<circle cx="91.5242" cy="15.0180" r="1.3000" /> 
<path style="fill:#02FFEE; fill-opacity:0.4000; stroke:none;fill-rule:evenodd;"
d="M 154.9028,28.4626
154.9028,26.7626
156.6028,26.7626
156.6028,28.4626
Z" /> 
</g>
<g style="fill:#02FFEE; fill-opacity:0.4000; stroke:none;">
<circle cx="155.7528" cy="30.1526" r="0.8500" /> 
<circle cx="88.9532" cy="72.7950" r="1.0000" /> 
</g>
<g style="fill:#02FFEE; fill-opacity:0.4000; stroke:none;">
<circle cx="95.4532" cy="72.7950" r="1.0000" /> 
</g>
<g style="fill:#02FFEE; fill-opacity:0.4000; stroke:none;">
<circle cx="88.9532" cy="77.2950" r="1.0000" /> 
</g>
<g style="fill:#02FFEE; fill-opacity:0.4000; stroke:none;">
<circle cx="95.4532" cy="77.2950" r="1.0000" /> 
<path style="fill:#02FFEE; fill-opacity:0.4000; stroke:none;fill-rule:evenodd;"
d="M 163.8182,33.2650
165.5182,33.2650
165.5182,34.9650
163.8182,34.9650
Z" /> 
</g>
<g style="fill:#02FFEE; fill-opacity:0.4000; stroke:none;">
<circle cx="162.1282" cy="34.1150" r="0.8500" /> 
<path style="fill:#02FFEE; fill-opacity:0.4000; stroke:none;fill-rule:evenodd;"
d="M 154.9282,9.6158
154.9282,7.9158
156.6282,7.9158
156.6282,9.6158
Z" /> 
<circle cx="155.7782" cy="11.3058" r="0.8500" /> 
<circle cx="131.5974" cy="71.8086" r="0.8000" /> 
</g>
<g style="fill:#02FFEE; fill-opacity:0.4000; stroke:none;">
<circle cx="141.7574" cy="71.8086" r="0.8000" /> 
<path style="fill:#02FFEE; fill-opacity:0.4000; stroke:none;fill-rule:evenodd;"
d="M 108.0530,74.2592
106.3530,74.2592
106.3530,72.5592
108.0530,72.5592
Z" /> 
<circle cx="109.7430" cy="73.4092" r="0.8500" /> 
<circle cx="112.2830" cy="73.4092" r="0.8500" /> 
<circle cx="114.8230" cy="73.4092" r="0.8500" /> 
<circle cx="117.3630" cy="73.4092" r="0.8500" /> 
<circle cx="119.9030" cy="73.4092" r="0.8500" /> 
<circle cx="122.4430" cy="73.4092" r="0.8500" /> 
<circle cx="124.9830" cy="73.4092" r="0.8500" /> 
<circle cx="168.2332" cy="11.2550" r="0.8000" /> 
</g>
<g style="fill:#02FFEE; fill-opacity:0.4000; stroke:none;">
<circle cx="178.3932" cy="11.2550" r="0.8000" /> 
<circle cx="168.6825" cy="2.0962" r="1.0000" /> 
</g>
<g style="fill:#02FFEE; fill-opacity:0.4000; stroke:none;">
<circle cx="175.1825" cy="2.0962" r="1.0000" /> 
</g>
<g style="fill:#02FFEE; fill-opacity:0.4000; stroke:none;">
<circle cx="168.6825" cy="6.5962" r="1.0000" /> 
</g>
<g style="fill:#02FFEE; fill-opacity:0.4000; stroke:none;">
<circle cx="175.1825" cy="6.5962" r="1.0000" /> 
<path style="fill:#02FFEE; fill-opacity:0.4000; stroke:none;fill-rule:evenodd;"
d="M 119.4330,89.9318
117.8330,89.9318
117.8330,88.3318
119.4330,88.3318
Z" /> 
</g>
<g style="fill:#02FFEE; fill-opacity:0.4000; stroke:none;">
<circle cx="121.1730" cy="89.1318" r="0.8000" /> 
<circle cx="123.7130" cy="89.1318" r="0.8000" /> 
<circle cx="126.2530" cy="89.1318" r="0.8000" /> 
<circle cx="126.2530" cy="81.5118" r="0.8000" /> 
<circle cx="123.7130" cy="81.5118" r="0.8000" /> 
<circle cx="121.1730" cy="81.5118" r="0.8000" /> 
<circle cx="118.6330" cy="81.5118" r="0.8000" /> 
<path style="fill:#02FFEE; fill-opacity:0.4000; stroke:none;fill-rule:evenodd;"
d="M 164.1430,42.5492
164.1430,40.8492
165.8430,40.8492
165.8430,42.5492
Z" /> 
<circle cx="164.9930" cy="44.2392" r="0.8500" /> 
<circle cx="164.9930" cy="46.7792" r="0.8500" /> 
<path style="fill:#02FFEE; fill-opacity:0.4000; stroke:none;fill-rule:evenodd;"
d="M 104.8348,45.2284
106.5348,45.2284
106.5348,46.9284
104.8348,46.9284
Z" /> 
<circle cx="103.1448" cy="46.0784" r="0.8500" /> 
<circle cx="100.6048" cy="46.0784" r="0.8500" /> 
<path style="fill:#02FFEE; fill-opacity:0.4000; stroke:none;fill-rule:evenodd;"
d="M 92.0632,48.9350
92.0632,47.2350
93.7632,47.2350
93.7632,48.9350
Z" /> 
<circle cx="92.9132" cy="50.6250" r="0.8500" /> 
<circle cx="92.9132" cy="53.1650" r="0.8500" /> 
<circle cx="92.9132" cy="55.7050" r="0.8500" /> 
<path style="fill:#02FFEE; fill-opacity:0.4000; stroke:none;fill-rule:evenodd;"
d="M 163.8182,16.1200
165.5182,16.1200
165.5182,17.8200
163.8182,17.8200
Z" /> 
<circle cx="162.1282" cy="16.9700" r="0.8500" /> 
<path style="fill:#02FFEE; fill-opacity:0.4000; stroke:none;fill-rule:evenodd;"
d="M 116.6486,61.5080
114.9486,61.5080
114.9486,59.8080
116.6486,59.8080
Z" /> 
<circle cx="118.3386" cy="60.6580" r="0.8500" /> 
<circle cx="168.1732" cy="33.9690" r="0.8000" /> 
</g>
<g style="fill:#02FFEE; fill-opacity:0.4000; stroke:none;">
<circle cx="178.3332" cy="33.9690" r="0.8000" /> 
<path style="fill:#02FFEE; fill-opacity:0.4000; stroke:none;fill-rule:evenodd;"
d="M 168.6390,96.4600
168.6390,94.9600
169.6890,94.9600
169.6890,96.4600
Z" /> 
</g>
<g style="fill:none; 
stroke:#02FFEE; stroke-width:1.0500; stroke-opacity:1; 
stroke-linecap:round; stroke-linejoin:round;">
<path d="M170.4340 95.4850
L170.4340 95.9350
" />
<path d="M171.7040 95.4850
L171.7040 95.9350
" />
<path style="fill:#02FFEE; fill-opacity:0.4000; stroke:none;fill-rule:evenodd;"
d="M 176.4420,52.8466
176.4420,51.1466
178.1420,51.1466
178.1420,52.8466
Z" /> 
</g>
<g style="fill:#02FFEE; fill-opacity:0.4000; stroke:none;">
<circle cx="177.2920" cy="54.5366" r="0.8500" /> 
<path style="fill:#02FFEE; fill-opacity:0.4000; stroke:none;fill-rule:evenodd;"
d="M 185.5072,10.3550
185.5072,12.1550
183.7072,12.1550
183.7072,10.3550
Z" /> 
<circle cx="182.0672" cy="11.2550" r="0.9000" /> 
</g>
<g style="fill:#02FFEE; fill-opacity:0.4000; stroke:none;">
<circle cx="158.1804" cy="94.8210" r="1.1700" /> 
</g>
<g style="fill:#02FFEE; fill-opacity:0.4000; stroke:none;">
<circle cx="163.1804" cy="92.3210" r="1.1700" /> 
</g>
<g style="fill:#02FFEE; fill-opacity:0.4000; stroke:none;">
<circle cx="158.1804" cy="89.8210" r="1.1700" /> 
<path style="fill:#02FFEE; fill-opacity:0.4000; stroke:none;fill-rule:evenodd;"
d="M 163.8182,10.4050
165.5182,10.4050
165.5182,12.1050
163.8182,12.1050
Z" /> 
</g>
<g style="fill:#02FFEE; fill-opacity:0.4000; stroke:none;">
<circle cx="162.1282" cy="11.2550" r="0.8500" /> 
<path style="fill:#02FFEE; fill-opacity:0.4000; stroke:none;fill-rule:evenodd;"
d="M 149.0286,63.2860
147.3286,63.2860
147.3286,61.5860
149.0286,61.5860
Z" /> 
<circle cx="150.7186" cy="62.4360" r="0.8500" /> 
<circle cx="99.2632" cy="93.8050" r="0.8000" /> 
</g>
<g style="fill:#02FFEE; fill-opacity:0.4000; stroke:none;">
<circle cx="99.2632" cy="83.6450" r="0.8000" /> 
<circle cx="151.3332" cy="71.8340" r="0.8000" /> 
</g>
<g style="fill:#02FFEE; fill-opacity:0.4000; stroke:none;">
<circle cx="148.3332" cy="71.8340" r="0.8000" /> 
<path style="fill:#02FFEE; fill-opacity:0.4000; stroke:none;fill-rule:evenodd;"
d="M 180.3132,88.9550
180.3132,85.9550
183.3132,85.9550
183.3132,88.9550
Z" /> 
</g>
<g style="fill:#02FFEE; fill-opacity:0.4000; stroke:none;">
<circle cx="181.8132" cy="82.4550" r="1.5000" /> 
</g>
<g style="fill:#02FFEE; fill-opacity:0.4000; stroke:none;">
<circle cx="181.8132" cy="77.4550" r="1.5000" /> 
<path style="fill:#02FFEE; fill-opacity:0.4000; stroke:none;fill-rule:evenodd;"
d="M 166.7950,58.1062
168.4950,58.1062
168.4950,59.8062
166.7950,59.8062
Z" /> 
</g>
<g style="fill:#02FFEE; fill-opacity:0.4000; stroke:none;">
<circle cx="165.1050" cy="58.9562" r="0.8500" /> 
<path style="fill:#02FFEE; fill-opacity:0.4000; stroke:none;fill-rule:evenodd;"
d="M 185.5072,33.0690
185.5072,34.8690
183.7072,34.8690
183.7072,33.0690
Z" /> 
<circle cx="182.0672" cy="33.9690" r="0.9000" /> 
<path style="fill:#02FFEE; fill-opacity:0.4000; stroke:none;fill-rule:evenodd;"
d="M 108.3954,58.9934
108.3954,57.2934
110.0954,57.2934
110.0954,58.9934
Z" /> 
</g>
<g style="fill:#02FFEE; fill-opacity:0.4000; stroke:none;">
<circle cx="109.2454" cy="60.6834" r="0.8500" /> 
<circle cx="109.2454" cy="63.2234" r="0.8500" /> 
<path style="fill:#02FFEE; fill-opacity:0.4000; stroke:none;fill-rule:evenodd;"
d="M 96.9028,67.2230
95.2028,67.2230
95.2028,65.5230
96.9028,65.5230
Z" /> 
<circle cx="98.5928" cy="66.3730" r="0.8500" /> 
<path style="fill:#02FFEE; fill-opacity:0.4000; stroke:none;fill-rule:evenodd;"
d="M 163.3102,52.7722
165.0102,52.7722
165.0102,54.4722
163.3102,54.4722
Z" /> 
<circle cx="161.6202" cy="53.6222" r="0.8500" /> 
<path style="fill:#02FFEE; fill-opacity:0.4000; stroke:none;fill-rule:evenodd;"
d="M 160.3330,42.5492
160.3330,40.8492
162.0330,40.8492
162.0330,42.5492
Z" /> 
<circle cx="161.1830" cy="44.2392" r="0.8500" /> 
<circle cx="161.1830" cy="46.7792" r="0.8500" /> 
<path style="fill:#02FFEE; fill-opacity:0.4000; stroke:none;fill-rule:evenodd;"
d="M 149.1582,48.2684
147.1582,48.2684
147.1582,47.0684
149.1582,47.0684
Z" /> 
</g>
<g style="fill:none; 
stroke:#02FFEE; stroke-width:1.2000; stroke-opacity:1; 
stroke-linecap:round; stroke-linejoin:round;">
<path d="M147.7582 45.1284
L148.5582 45.1284
" />
<path d="M147.7582 42.5884
L148.5582 42.5884
" />
<path d="M147.7582 40.0484
L148.5582 40.0484
" />
<path d="M147.7582 37.5084
L148.5582 37.5084
" />
<path d="M147.7582 34.9684
L148.5582 34.9684
" />
<path d="M147.7582 32.4284
L148.5582 32.4284
" />
<path d="M147.7582 29.8884
L148.5582 29.8884
" />
<path d="M147.7582 27.3484
L148.5582 27.3484
" />
<path d="M147.7582 24.8084
L148.5582 24.8084
" />
<path d="M147.7582 22.2684
L148.5582 22.2684
" />
<path d="M147.7582 19.7284
L148.5582 19.7284
" />
<path d="M147.7582 17.1884
L148.5582 17.1884
" />
<path d="M147.7582 14.6484
L148.5582 14.6484
" />
<path d="M147.7582 12.1084
L148.5582 12.1084
" />
<path d="M147.7582 9.5684
L148.5582 9.5684
" />
<path d="M147.7582 7.0284
L148.5582 7.0284
" />
<path d="M147.7582 4.4884
L148.5582 4.4884
" />
<path d="M147.7582 1.9484
L148.5582 1.9484
" />
<path d="M122.3619 1.9512
L123.1619 1.9512
" />
<path d="M122.3619 4.4912
L123.1619 4.4912
" />
<path d="M122.3582 7.0284
L123.1582 7.0284
" />
<path d="M122.3582 9.5684
L123.1582 9.5684
" />
<path d="M122.3582 12.1084
L123.1582 12.1084
" />
<path d="M122.3582 14.6484
L123.1582 14.6484
" />
<path d="M122.3582 17.1884
L123.1582 17.1884
" />
<path d="M122.3582 19.7284
L123.1582 19.7284
" />
<path d="M122.3582 22.2684
L123.1582 22.2684
" />
<path d="M122.3582 24.8084
L123.1582 24.8084
" />
<path d="M122.3582 27.3484
L123.1582 27.3484
" />
<path d="M122.3582 29.8884
L123.1582 29.8884
" />
<path d="M122.3582 32.4284
L123.1582 32.4284
" />
<path d="M122.3582 34.9684
L123.1582 34.9684
" />
<path d="M122.3582 37.5084
L123.1582 37.5084
" />
<path d="M122.3582 40.0484
L123.1582 40.0484
" />
<path d="M122.3582 42.5884
L123.1582 42.5884
" />
<path d="M122.3582 45.1284
L123.1582 45.1284
" />
<path d="M122.3582 47.6684
L123.1582 47.6684
" />
<path style="fill:#02FFEE; fill-opacity:0.4000; stroke:none;fill-rule:evenodd;"
d="M 162.3554,76.5070
164.0554,76.5070
164.0554,78.2070
162.3554,78.2070
Z" /> 
</g>
<g style="fill:#02FFEE; fill-opacity:0.4000; stroke:none;">
<circle cx="160.6654" cy="77.3570" r="0.8500" /> 
<circle cx="158.1254" cy="77.3570" r="0.8500" /> 
<path style="fill:#02FFEE; fill-opacity:0.4000; stroke:none;fill-rule:evenodd;"
d="M 162.2434,83.1110
163.9434,83.1110
163.9434,84.8110
162.2434,84.8110
Z" /> 
<circle cx="160.5534" cy="83.9610" r="0.8500" /> 
<circle cx="158.0134" cy="83.9610" r="0.8500" /> 
<path style="fill:#02FFEE; fill-opacity:0.4000; stroke:none;fill-rule:evenodd;"
d="M 108.0530,78.0692
106.3530,78.0692
106.3530,76.3692
108.0530,76.3692
Z" /> 
<circle cx="109.7430" cy="77.2192" r="0.8500" /> 
<circle cx="112.2830" cy="77.2192" r="0.8500" /> 
<circle cx="114.8230" cy="77.2192" r="0.8500" /> 
<circle cx="117.3630" cy="77.2192" r="0.8500" /> 
<circle cx="119.9030" cy="77.2192" r="0.8500" /> 
<circle cx="122.4430" cy="77.2192" r="0.8500" /> 
<circle cx="124.9830" cy="77.2192" r="0.8500" /> 
<path style="fill:#02FFEE; fill-opacity:0.4000; stroke:none;fill-rule:evenodd;"
d="M 88.2282,37.5150
88.2282,35.8150
89.9282,35.8150
89.9282,37.5150
Z" /> 
<circle cx="89.0782" cy="39.2050" r="0.8500" /> 
<circle cx="89.0782" cy="41.7450" r="0.8500" /> 
<circle cx="89.0782" cy="44.2850" r="0.8500" /> 
<circle cx="168.2332" cy="22.6120" r="0.8000" /> 
</g>
<g style="fill:#02FFEE; fill-opacity:0.4000; stroke:none;">
<circle cx="178.3932" cy="22.6120" r="0.8000" /> 
<path style="fill:#02FFEE; fill-opacity:0.4000; stroke:none;fill-rule:evenodd;"
d="M 146.2922,84.3884
146.2922,82.6884
147.9922,82.6884
147.9922,84.3884
Z" /> 
<circle cx="147.1422" cy="86.0784" r="0.8500" /> 
<path style="fill:#02FFEE; fill-opacity:0.4000; stroke:none;fill-rule:evenodd;"
d="M 130.7728,94.2436
130.7728,92.5436
132.4728,92.5436
132.4728,94.2436
Z" /> 
<circle cx="131.6228" cy="95.9336" r="0.8500" /> 
<circle cx="168.2332" cy="16.9335" r="0.8000" /> 
</g>
<g style="fill:#02FFEE; fill-opacity:0.4000; stroke:none;">
<circle cx="178.3932" cy="16.9335" r="0.8000" /> 
<circle cx="151.0030" cy="89.8934" r="0.8000" /> 
</g>
<g style="fill:#02FFEE; fill-opacity:0.4000; stroke:none;">
<circle cx="151.0030" cy="79.7334" r="0.8000" /> 
<circle cx="182.6932" cy="4.0250" r="1.7000" /> 
</g>
<g style="fill:#02FFEE; fill-opacity:0.4000; stroke:none;">
<circle cx="182.6932" cy="4.0250" r="3.0000" /> 
<path style="fill:#02FFEE; fill-opacity:0.4000; stroke:none;fill-rule:evenodd;"
d="M 88.2282,26.0750
88.2282,24.3750
89.9282,24.3750
89.9282,26.0750
Z" /> 
</g>
<g style="fill:#02FFEE; fill-opacity:0.4000; stroke:none;">
<circle cx="89.0782" cy="27.7650" r="0.8500" /> 
<circle cx="89.0782" cy="30.3050" r="0.8500" /> 
<circle cx="89.0782" cy="32.8450" r="0.8500" /> 
<path style="fill:#02FFEE; fill-opacity:0.4000; stroke:none;fill-rule:evenodd;"
d="M 180.2520,40.8678
180.2520,39.1678
181.9520,39.1678
181.9520,40.8678
Z" /> 
<circle cx="181.1020" cy="42.5578" r="0.8500" /> 
<circle cx="181.1020" cy="45.0978" r="0.8500" /> 
<circle cx="181.1020" cy="47.6378" r="0.8500" /> 
<path style="fill:#02FFEE; fill-opacity:0.4000; stroke:none;fill-rule:evenodd;"
d="M 88.2282,48.9350
88.2282,47.2350
89.9282,47.2350
89.9282,48.9350
Z" /> 
<circle cx="89.0782" cy="50.6250" r="0.8500" /> 
<circle cx="89.0782" cy="53.1650" r="0.8500" /> 
<circle cx="89.0782" cy="55.7050" r="0.8500" /> 
<path style="fill:#02FFEE; fill-opacity:0.4000; stroke:none;fill-rule:evenodd;"
d="M 108.0784,93.5378
106.3784,93.5378
106.3784,91.8378
108.0784,91.8378
Z" /> 
<circle cx="109.7684" cy="92.6878" r="0.8500" /> 
<circle cx="112.3084" cy="92.6878" r="0.8500" /> 
<circle cx="114.8484" cy="92.6878" r="0.8500" /> 
<circle cx="117.3884" cy="92.6878" r="0.8500" /> 
<circle cx="119.9284" cy="92.6878" r="0.8500" /> 
<circle cx="122.4684" cy="92.6878" r="0.8500" /> 
<circle cx="125.0084" cy="92.6878" r="0.8500" /> 
<circle cx="90.6932" cy="3.9500" r="1.7000" /> 
</g>
<g style="fill:#02FFEE; fill-opacity:0.4000; stroke:none;">
<circle cx="90.6932" cy="3.9500" r="3.0000" /> 
<path style="fill:#02FFEE; fill-opacity:0.4000; stroke:none;fill-rule:evenodd;"
d="M 108.8282,18.8623
106.8282,18.8623
106.8282,16.9573
108.8282,16.9573
Z" /> 
</g>
<g style="fill:none; 
stroke:#02FFEE; stroke-width:1.9050; stroke-opacity:1; 
stroke-linecap:round; stroke-linejoin:round;">
<path d="M107.7807 15.3698
L107.8757 15.3698
" />
<path d="M107.7807 12.8298
L107.8757 12.8298
" />
<path style="fill:#02FFEE; fill-opacity:0.4000; stroke:none;fill-rule:evenodd;"
d="M 96.8316,63.3114
95.1316,63.3114
95.1316,61.6114
96.8316,61.6114
Z" /> 
</g>
<g style="fill:#02FFEE; fill-opacity:0.4000; stroke:none;">
<circle cx="98.5216" cy="62.4614" r="0.8500" /> 
<circle cx="99.2632" cy="79.8350" r="0.8000" /> 
</g>
<g style="fill:#02FFEE; fill-opacity:0.4000; stroke:none;">
<circle cx="99.2632" cy="69.6750" r="0.8000" /> 
<path style="fill:#02FFEE; fill-opacity:0.4000; stroke:none;fill-rule:evenodd;"
d="M 154.9028,22.2142
154.9028,20.5142
156.6028,20.5142
156.6028,22.2142
Z" /> 
<circle cx="155.7528" cy="23.9042" r="0.8500" /> 
<path style="fill:#02FFEE; fill-opacity:0.4000; stroke:none;fill-rule:evenodd;"
d="M 92.0632,37.5050
92.0632,35.8050
93.7632,35.8050
93.7632,37.5050
Z" /> 
<circle cx="92.9132" cy="39.1950" r="0.8500" /> 
<circle cx="92.9132" cy="41.7350" r="0.8500" /> 
<circle cx="92.9132" cy="44.2750" r="0.8500" /> 
<path style="fill:#02FFEE; fill-opacity:0.4000; stroke:none;fill-rule:evenodd;"
d="M 138.3928,94.2436
138.3928,92.5436
140.0928,92.5436
140.0928,94.2436
Z" /> 
<circle cx="139.2428" cy="95.9336" r="0.8500" /> 
<circle cx="103.7832" cy="6.5200" r="1.0000" /> 
</g>
<g style="fill:#02FFEE; fill-opacity:0.4000; stroke:none;">
<circle cx="97.2832" cy="6.5200" r="1.0000" /> 
</g>
<g style="fill:#02FFEE; fill-opacity:0.4000; stroke:none;">
<circle cx="103.7832" cy="2.0200" r="1.0000" /> 
</g>
<g style="fill:#02FFEE; fill-opacity:0.4000; stroke:none;">
<circle cx="97.2832" cy="2.0200" r="1.0000" /> 
<path style="fill:#02FFEE; fill-opacity:0.4000; stroke:none;fill-rule:evenodd;"
d="M 142.2028,94.2436
142.2028,92.5436
143.9028,92.5436
143.9028,94.2436
Z" /> 
</g>
<g style="fill:#02FFEE; fill-opacity:0.4000; stroke:none;">
<circle cx="143.0528" cy="95.9336" r="0.8500" /> 
<path style="fill:#02FFEE; fill-opacity:0.4000; stroke:none;fill-rule:evenodd;"
d="M 101.4848,41.8484
99.7848,41.8484
99.7848,40.1484
101.4848,40.1484
Z" /> 
<circle cx="103.1748" cy="40.9984" r="0.8500" /> 
<circle cx="105.7148" cy="40.9984" r="0.8500" /> 
<circle cx="108.2548" cy="40.9984" r="0.8500" /> 
<circle cx="90.6932" cy="96.0250" r="1.7000" /> 
</g>
<g style="fill:#02FFEE; fill-opacity:0.4000; stroke:none;">
<circle cx="90.6932" cy="96.0250" r="3.0000" /> 
<path style="fill:#02FFEE; fill-opacity:0.4000; stroke:none;fill-rule:evenodd;"
d="M 163.8182,27.5500
165.5182,27.5500
165.5182,29.2500
163.8182,29.2500
Z" /> 
</g>
<g style="fill:#02FFEE; fill-opacity:0.4000; stroke:none;">
<circle cx="162.1282" cy="28.4000" r="0.8500" /> 
<path style="fill:#02FFEE; fill-opacity:0.4000; stroke:none;fill-rule:evenodd;"
d="M 180.2520,52.8466
180.2520,51.1466
181.9520,51.1466
181.9520,52.8466
Z" /> 
<circle cx="181.1020" cy="54.5366" r="0.8500" /> 
<path style="fill:#02FFEE; fill-opacity:0.4000; stroke:none;fill-rule:evenodd;"
d="M 185.5072,27.3905
185.5072,29.1905
183.7072,29.1905
183.7072,27.3905
Z" /> 
<circle cx="182.0672" cy="28.2905" r="0.9000" /> 
<path style="fill:#02FFEE; fill-opacity:0.4000; stroke:none;fill-rule:evenodd;"
d="M 166.7950,65.7516
168.4950,65.7516
168.4950,67.4516
166.7950,67.4516
Z" /> 
</g>
<g style="fill:#02FFEE; fill-opacity:0.4000; stroke:none;">
<circle cx="165.1050" cy="66.6016" r="0.8500" /> 
<path style="fill:#02FFEE; fill-opacity:0.4000; stroke:none;fill-rule:evenodd;"
d="M 92.0632,26.0750
92.0632,24.3750
93.7632,24.3750
93.7632,26.0750
Z" /> 
<circle cx="92.9132" cy="27.7650" r="0.8500" /> 
<circle cx="92.9132" cy="30.3050" r="0.8500" /> 
<circle cx="92.9132" cy="32.8450" r="0.8500" /> 
<path style="fill:#02FFEE; fill-opacity:0.4000; stroke:none;fill-rule:evenodd;"
d="M 114.8208,10.8247
116.4208,10.8247
116.4208,12.4247
114.8208,12.4247
Z" /> 
<circle cx="115.6208" cy="14.1247" r="0.8000" /> 
<path style="fill:#02FFEE; fill-opacity:0.4000; stroke:none;fill-rule:evenodd;"
d="M 134.0230,89.9314
132.4230,89.9314
132.4230,88.3314
134.0230,88.3314
Z" /> 
</g>
<g style="fill:#02FFEE; fill-opacity:0.4000; stroke:none;">
<circle cx="135.7630" cy="89.1314" r="0.8000" /> 
<circle cx="138.3030" cy="89.1314" r="0.8000" /> 
<circle cx="140.8430" cy="89.1314" r="0.8000" /> 
<circle cx="140.8430" cy="81.5114" r="0.8000" /> 
<circle cx="138.3030" cy="81.5114" r="0.8000" /> 
<circle cx="135.7630" cy="81.5114" r="0.8000" /> 
<circle cx="133.2230" cy="81.5114" r="0.8000" /> 
<path style="fill:#02FFEE; fill-opacity:0.4000; stroke:none;fill-rule:evenodd;"
d="M 141.4298,61.6106
141.4298,63.2106
139.8298,63.2106
139.8298,61.6106
Z" /> 
<circle cx="133.0298" cy="62.4106" r="0.8000" /> 
<path style="fill:none; 
stroke:#D0D2CD; stroke-width:0.0500; stroke-opacity:1; 
stroke-linecap:round; stroke-linejoin:round;fill:none"
d="M 86.6932,0.0250
186.6932,0.0250
186.6932,100.0250
86.6932,100.0250
Z" /> 
</g> 
</svg>
