<?xml version="1.0" standalone="no"?>
 <!DOCTYPE svg PUBLIC "-//W3C//DTD SVG 1.1//EN" 
 "http://www.w3.org/Graphics/SVG/1.1/DTD/svg11.dtd"> 
<svg
  xmlns:svg="http://www.w3.org/2000/svg"
  xmlns="http://www.w3.org/2000/svg"
  xmlns:xlink="http://www.w3.org/1999/xlink"
  version="1.1"
  width="297.0022mm" height="210.0072mm" viewBox="0.0000 0.0000 297.0022 210.0072">
<title>SVG Image created as base_esp32-F_Mask.svg date 2025/01/05 11:32:54 </title>
  <desc>Image generated by PCBNEW </desc>
<g style="fill:#000000; fill-opacity:1.0000;stroke:#000000; stroke-opacity:1.0000;
stroke-linecap:round; stroke-linejoin:round;"
 transform="translate(0 0) scale(1 1)">
<path style="fill:#D864FF; fill-opacity:0.4000; stroke:none;fill-rule:evenodd;"
d="M 106.0210,61.8100
104.3210,61.8100
104.3210,60.1100
106.0210,60.1100
Z" /> 
</g>
<g style="fill:#D864FF; fill-opacity:0.4000; stroke:none;">
<circle cx="107.7110" cy="60.9600" r="0.8500" /> 
<circle cx="110.2510" cy="60.9600" r="0.8500" /> 
<path style="fill:#D864FF; fill-opacity:0.4000; stroke:none;fill-rule:evenodd;"
d="M 120.4700,87.1550
120.4890,87.0593
120.5432,86.9782
120.6243,86.9240
120.7200,86.9050
121.2200,86.9050
121.3157,86.9240
121.3968,86.9782
121.4510,87.0593
121.4700,87.1550
121.4700,88.1050
121.4510,88.2007
121.3968,88.2818
121.3157,88.3360
121.2200,88.3550
120.7200,88.3550
120.6243,88.3360
120.5432,88.2818
120.4890,88.2007
120.4700,88.1050
Z" /> 
<path style="fill:#D864FF; fill-opacity:0.4000; stroke:none;fill-rule:evenodd;"
d="M 122.3700,87.1550
122.3890,87.0593
122.4432,86.9782
122.5243,86.9240
122.6200,86.9050
123.1200,86.9050
123.2157,86.9240
123.2968,86.9782
123.3510,87.0593
123.3700,87.1550
123.3700,88.1050
123.3510,88.2007
123.2968,88.2818
123.2157,88.3360
123.1200,88.3550
122.6200,88.3550
122.5243,88.3360
122.4432,88.2818
122.3890,88.2007
122.3700,88.1050
Z" /> 
<path style="fill:#D864FF; fill-opacity:0.4000; stroke:none;fill-rule:evenodd;"
d="M 131.9000,83.3450
131.9190,83.2493
131.9732,83.1682
132.0543,83.1140
132.1500,83.0950
132.6500,83.0950
132.7457,83.1140
132.8268,83.1682
132.8810,83.2493
132.9000,83.3450
132.9000,84.2950
132.8810,84.3907
132.8268,84.4718
132.7457,84.5260
132.6500,84.5450
132.1500,84.5450
132.0543,84.5260
131.9732,84.4718
131.9190,84.3907
131.9000,84.2950
Z" /> 
<path style="fill:#D864FF; fill-opacity:0.4000; stroke:none;fill-rule:evenodd;"
d="M 133.8000,83.3450
133.8190,83.2493
133.8732,83.1682
133.9543,83.1140
134.0500,83.0950
134.5500,83.0950
134.6457,83.1140
134.7268,83.1682
134.7810,83.2493
134.8000,83.3450
134.8000,84.2950
134.7810,84.3907
134.7268,84.4718
134.6457,84.5260
134.5500,84.5450
134.0500,84.5450
133.9543,84.5260
133.8732,84.4718
133.8190,84.3907
133.8000,84.2950
Z" /> 
<path style="fill:#D864FF; fill-opacity:0.4000; stroke:none;fill-rule:evenodd;"
d="M 180.1250,72.8100
181.8250,72.8100
181.8250,74.5100
180.1250,74.5100
Z" /> 
<circle cx="178.4350" cy="73.6600" r="0.8500" /> 
<path style="fill:#D864FF; fill-opacity:0.4000; stroke:none;fill-rule:evenodd;"
d="M 197.0414,113.8050
197.0414,112.1050
198.7414,112.1050
198.7414,113.8050
Z" /> 
<circle cx="197.8914" cy="115.4950" r="0.8500" /> 
<circle cx="197.8914" cy="118.0350" r="0.8500" /> 
<circle cx="197.8914" cy="120.5750" r="0.8500" /> 
<path style="fill:#D864FF; fill-opacity:0.4000; stroke:none;fill-rule:evenodd;"
d="M 201.8140,72.6870
201.8140,74.4870
200.0140,74.4870
200.0140,72.6870
Z" /> 
<circle cx="198.3740" cy="73.5870" r="0.9000" /> 
<path style="fill:#D864FF; fill-opacity:0.4000; stroke:none;fill-rule:evenodd;"
d="M 201.8140,67.0085
201.8140,68.8085
200.0140,68.8085
200.0140,67.0085
Z" /> 
</g>
<g style="fill:#D864FF; fill-opacity:0.4000; stroke:none;">
<circle cx="198.3740" cy="67.9085" r="0.9000" /> 
<path style="fill:#D864FF; fill-opacity:0.4000; stroke:none;fill-rule:evenodd;"
d="M 183.1018,120.4604
184.8018,120.4604
184.8018,122.1604
183.1018,122.1604
Z" /> 
</g>
<g style="fill:#D864FF; fill-opacity:0.4000; stroke:none;">
<circle cx="181.4118" cy="121.3104" r="0.8500" /> 
<path style="fill:#D864FF; fill-opacity:0.4000; stroke:none;fill-rule:evenodd;"
d="M 104.5600,112.1782
104.5600,110.4782
106.2600,110.4782
106.2600,112.1782
Z" /> 
<circle cx="105.4100" cy="113.8682" r="0.8500" /> 
<circle cx="105.4100" cy="116.4082" r="0.8500" /> 
<circle cx="105.4100" cy="118.9482" r="0.8500" /> 
<circle cx="129.4276" cy="69.7992" r="0.8000" /> 
</g>
<g style="fill:#D864FF; fill-opacity:0.4000; stroke:none;">
<circle cx="134.4276" cy="69.7992" r="0.8000" /> 
<path style="fill:#D864FF; fill-opacity:0.4000; stroke:none;fill-rule:evenodd;"
d="M 122.5980,140.9068
120.9980,140.9068
120.9980,139.3068
122.5980,139.3068
Z" /> 
</g>
<g style="fill:#D864FF; fill-opacity:0.4000; stroke:none;">
<circle cx="124.3380" cy="140.1068" r="0.8000" /> 
<circle cx="126.8780" cy="140.1068" r="0.8000" /> 
<circle cx="129.4180" cy="140.1068" r="0.8000" /> 
<circle cx="129.4180" cy="132.4868" r="0.8000" /> 
<circle cx="126.8780" cy="132.4868" r="0.8000" /> 
<circle cx="124.3380" cy="132.4868" r="0.8000" /> 
<circle cx="121.7980" cy="132.4868" r="0.8000" /> 
<path style="fill:#D864FF; fill-opacity:0.4000; stroke:none;fill-rule:evenodd;"
d="M 192.7488,91.8428
192.7488,90.1428
194.4488,90.1428
194.4488,91.8428
Z" /> 
<circle cx="193.5988" cy="93.5328" r="0.8500" /> 
<circle cx="193.5988" cy="96.0728" r="0.8500" /> 
<circle cx="193.5988" cy="98.6128" r="0.8500" /> 
<circle cx="105.2600" cy="135.5450" r="1.0000" /> 
</g>
<g style="fill:#D864FF; fill-opacity:0.4000; stroke:none;">
<circle cx="111.7600" cy="135.5450" r="1.0000" /> 
</g>
<g style="fill:#D864FF; fill-opacity:0.4000; stroke:none;">
<circle cx="105.2600" cy="140.0450" r="1.0000" /> 
</g>
<g style="fill:#D864FF; fill-opacity:0.4000; stroke:none;">
<circle cx="111.7600" cy="140.0450" r="1.0000" /> 
<path style="fill:#D864FF; fill-opacity:0.4000; stroke:none;fill-rule:evenodd;"
d="M 133.2228,58.1588
133.2038,58.2545
133.1496,58.3356
133.0685,58.3898
132.9728,58.4088
132.2728,58.4088
132.1771,58.3898
132.0960,58.3356
132.0418,58.2545
132.0228,58.1588
132.0228,57.2588
132.0418,57.1631
132.0960,57.0820
132.1771,57.0278
132.2728,57.0088
132.9728,57.0088
133.0685,57.0278
133.1496,57.0820
133.2038,57.1631
133.2228,57.2588
Z" /> 
<path style="fill:#D864FF; fill-opacity:0.4000; stroke:none;fill-rule:evenodd;"
d="M 131.2228,58.1588
131.2038,58.2545
131.1496,58.3356
131.0685,58.3898
130.9728,58.4088
130.2728,58.4088
130.1771,58.3898
130.0960,58.3356
130.0418,58.2545
130.0228,58.1588
130.0228,57.2588
130.0418,57.1631
130.0960,57.0820
130.1771,57.0278
130.2728,57.0088
130.9728,57.0088
131.0685,57.0278
131.1496,57.0820
131.2038,57.1631
131.2228,57.2588
Z" /> 
<path style="fill:#D864FF; fill-opacity:0.4000; stroke:none;fill-rule:evenodd;"
d="M 183.1018,112.8404
184.8018,112.8404
184.8018,114.5404
183.1018,114.5404
Z" /> 
</g>
<g style="fill:#D864FF; fill-opacity:0.4000; stroke:none;">
<circle cx="181.4118" cy="113.6904" r="0.8500" /> 
<circle cx="184.5400" cy="79.2655" r="0.8000" /> 
</g>
<g style="fill:#D864FF; fill-opacity:0.4000; stroke:none;">
<circle cx="194.7000" cy="79.2655" r="0.8000" /> 
<path style="fill:#D864FF; fill-opacity:0.4000; stroke:none;fill-rule:evenodd;"
d="M 173.1400,53.7600
174.8400,53.7600
174.8400,55.4600
173.1400,55.4600
Z" /> 
<circle cx="171.4500" cy="54.6100" r="0.8500" /> 
<path style="fill:#D864FF; fill-opacity:0.4000; stroke:none;fill-rule:evenodd;"
d="M 171.2096,85.6860
171.2096,83.9860
172.9096,83.9860
172.9096,85.6860
Z" /> 
<circle cx="172.0596" cy="87.3760" r="0.8500" /> 
<path style="fill:#D864FF; fill-opacity:0.4000; stroke:none;fill-rule:evenodd;"
d="M 164.2194,147.4604
164.2194,145.9604
165.2694,145.9604
165.2694,147.4604
Z" /> 
</g>
<g style="fill:none; 
stroke:#D864FF; stroke-width:1.0500; stroke-opacity:1; 
stroke-linecap:round; stroke-linejoin:round;">
<path d="M166.0144 146.4854
L166.0144 146.9354
" />
<path d="M167.2844 146.4854
L167.2844 146.9354
" />
<path style="fill:#D864FF; fill-opacity:0.4000; stroke:none;fill-rule:evenodd;"
d="M 124.3852,148.3228
122.6852,148.3228
122.6852,146.6228
124.3852,146.6228
Z" /> 
</g>
<g style="fill:#D864FF; fill-opacity:0.4000; stroke:none;">
<circle cx="126.0752" cy="147.4728" r="0.8500" /> 
<circle cx="128.6152" cy="147.4728" r="0.8500" /> 
<circle cx="131.1552" cy="147.4728" r="0.8500" /> 
<circle cx="133.6952" cy="147.4728" r="0.8500" /> 
<circle cx="136.2352" cy="147.4728" r="0.8500" /> 
<circle cx="138.7752" cy="147.4728" r="0.8500" /> 
<circle cx="141.3152" cy="147.4728" r="0.8500" /> 
<path style="fill:#D864FF; fill-opacity:0.4000; stroke:none;fill-rule:evenodd;"
d="M 150.8896,145.2186
150.8896,143.5186
152.5896,143.5186
152.5896,145.2186
Z" /> 
<circle cx="151.7396" cy="146.9086" r="0.8500" /> 
<path style="fill:#D864FF; fill-opacity:0.4000; stroke:none;fill-rule:evenodd;"
d="M 171.2096,66.9358
171.2096,65.2358
172.9096,65.2358
172.9096,66.9358
Z" /> 
<circle cx="172.0596" cy="68.6258" r="0.8500" /> 
<circle cx="199.0000" cy="147.0000" r="1.7000" /> 
</g>
<g style="fill:#D864FF; fill-opacity:0.4000; stroke:none;">
<circle cx="199.0000" cy="147.0000" r="3.0000" /> 
<path style="fill:#D864FF; fill-opacity:0.4000; stroke:none;fill-rule:evenodd;"
d="M 109.1310,72.2930
106.5310,72.2930
106.5310,69.6930
109.1310,69.6930
Z" /> 
</g>
<g style="fill:#D864FF; fill-opacity:0.4000; stroke:none;">
<circle cx="107.8310" cy="65.9930" r="1.3000" /> 
<path style="fill:#D864FF; fill-opacity:0.4000; stroke:none;fill-rule:evenodd;"
d="M 171.2096,79.4376
171.2096,77.7376
172.9096,77.7376
172.9096,79.4376
Z" /> 
</g>
<g style="fill:#D864FF; fill-opacity:0.4000; stroke:none;">
<circle cx="172.0596" cy="81.1276" r="0.8500" /> 
<circle cx="105.2600" cy="123.7700" r="1.0000" /> 
</g>
<g style="fill:#D864FF; fill-opacity:0.4000; stroke:none;">
<circle cx="111.7600" cy="123.7700" r="1.0000" /> 
</g>
<g style="fill:#D864FF; fill-opacity:0.4000; stroke:none;">
<circle cx="105.2600" cy="128.2700" r="1.0000" /> 
</g>
<g style="fill:#D864FF; fill-opacity:0.4000; stroke:none;">
<circle cx="111.7600" cy="128.2700" r="1.0000" /> 
<path style="fill:#D864FF; fill-opacity:0.4000; stroke:none;fill-rule:evenodd;"
d="M 180.1250,84.2400
181.8250,84.2400
181.8250,85.9400
180.1250,85.9400
Z" /> 
</g>
<g style="fill:#D864FF; fill-opacity:0.4000; stroke:none;">
<circle cx="178.4350" cy="85.0900" r="0.8500" /> 
<path style="fill:#D864FF; fill-opacity:0.4000; stroke:none;fill-rule:evenodd;"
d="M 171.2350,60.5908
171.2350,58.8908
172.9350,58.8908
172.9350,60.5908
Z" /> 
<circle cx="172.0850" cy="62.2808" r="0.8500" /> 
<path style="fill:#D864FF; fill-opacity:0.4000; stroke:none;fill-rule:evenodd;"
d="M 187.7112,112.2450
187.7226,112.1876
187.7551,112.1389
187.8038,112.1064
187.8612,112.0950
189.5612,112.0950
189.6186,112.1064
189.6673,112.1389
189.6998,112.1876
189.7112,112.2450
189.7112,112.5450
189.6998,112.6024
189.6673,112.6511
189.6186,112.6836
189.5612,112.6950
187.8612,112.6950
187.8038,112.6836
187.7551,112.6511
187.7226,112.6024
187.7112,112.5450
Z" /> 
<path style="fill:#D864FF; fill-opacity:0.4000; stroke:none;fill-rule:evenodd;"
d="M 187.7112,113.5150
187.7226,113.4576
187.7551,113.4089
187.8038,113.3764
187.8612,113.3650
189.5612,113.3650
189.6186,113.3764
189.6673,113.4089
189.6998,113.4576
189.7112,113.5150
189.7112,113.8150
189.6998,113.8724
189.6673,113.9211
189.6186,113.9536
189.5612,113.9650
187.8612,113.9650
187.8038,113.9536
187.7551,113.9211
187.7226,113.8724
187.7112,113.8150
Z" /> 
<path style="fill:#D864FF; fill-opacity:0.4000; stroke:none;fill-rule:evenodd;"
d="M 187.7112,114.7850
187.7226,114.7276
187.7551,114.6789
187.8038,114.6464
187.8612,114.6350
189.5612,114.6350
189.6186,114.6464
189.6673,114.6789
189.6998,114.7276
189.7112,114.7850
189.7112,115.0850
189.6998,115.1424
189.6673,115.1911
189.6186,115.2236
189.5612,115.2350
187.8612,115.2350
187.8038,115.2236
187.7551,115.1911
187.7226,115.1424
187.7112,115.0850
Z" /> 
<path style="fill:#D864FF; fill-opacity:0.4000; stroke:none;fill-rule:evenodd;"
d="M 187.7112,116.0550
187.7226,115.9976
187.7551,115.9489
187.8038,115.9164
187.8612,115.9050
189.5612,115.9050
189.6186,115.9164
189.6673,115.9489
189.6998,115.9976
189.7112,116.0550
189.7112,116.3550
189.6998,116.4124
189.6673,116.4611
189.6186,116.4936
189.5612,116.5050
187.8612,116.5050
187.8038,116.4936
187.7551,116.4611
187.7226,116.4124
187.7112,116.3550
Z" /> 
<path style="fill:#D864FF; fill-opacity:0.4000; stroke:none;fill-rule:evenodd;"
d="M 187.7112,117.3250
187.7226,117.2676
187.7551,117.2189
187.8038,117.1864
187.8612,117.1750
189.5612,117.1750
189.6186,117.1864
189.6673,117.2189
189.6998,117.2676
189.7112,117.3250
189.7112,117.6250
189.6998,117.6824
189.6673,117.7311
189.6186,117.7636
189.5612,117.7750
187.8612,117.7750
187.8038,117.7636
187.7551,117.7311
187.7226,117.6824
187.7112,117.6250
Z" /> 
<path style="fill:#D864FF; fill-opacity:0.4000; stroke:none;fill-rule:evenodd;"
d="M 187.7112,118.5950
187.7226,118.5376
187.7551,118.4889
187.8038,118.4564
187.8612,118.4450
189.5612,118.4450
189.6186,118.4564
189.6673,118.4889
189.6998,118.5376
189.7112,118.5950
189.7112,118.8950
189.6998,118.9524
189.6673,119.0011
189.6186,119.0336
189.5612,119.0450
187.8612,119.0450
187.8038,119.0336
187.7551,119.0011
187.7226,118.9524
187.7112,118.8950
Z" /> 
<path style="fill:#D864FF; fill-opacity:0.4000; stroke:none;fill-rule:evenodd;"
d="M 187.7112,119.8650
187.7226,119.8076
187.7551,119.7589
187.8038,119.7264
187.8612,119.7150
189.5612,119.7150
189.6186,119.7264
189.6673,119.7589
189.6998,119.8076
189.7112,119.8650
189.7112,120.1650
189.6998,120.2224
189.6673,120.2711
189.6186,120.3036
189.5612,120.3150
187.8612,120.3150
187.8038,120.3036
187.7551,120.2711
187.7226,120.2224
187.7112,120.1650
Z" /> 
<path style="fill:#D864FF; fill-opacity:0.4000; stroke:none;fill-rule:evenodd;"
d="M 187.7112,121.1350
187.7226,121.0776
187.7551,121.0289
187.8038,120.9964
187.8612,120.9850
189.5612,120.9850
189.6186,120.9964
189.6673,121.0289
189.6998,121.0776
189.7112,121.1350
189.7112,121.4350
189.6998,121.4924
189.6673,121.5411
189.6186,121.5736
189.5612,121.5850
187.8612,121.5850
187.8038,121.5736
187.7551,121.5411
187.7226,121.4924
187.7112,121.4350
Z" /> 
<path style="fill:#D864FF; fill-opacity:0.4000; stroke:none;fill-rule:evenodd;"
d="M 192.7112,121.1350
192.7226,121.0776
192.7551,121.0289
192.8038,120.9964
192.8612,120.9850
194.5612,120.9850
194.6186,120.9964
194.6673,121.0289
194.6998,121.0776
194.7112,121.1350
194.7112,121.4350
194.6998,121.4924
194.6673,121.5411
194.6186,121.5736
194.5612,121.5850
192.8612,121.5850
192.8038,121.5736
192.7551,121.5411
192.7226,121.4924
192.7112,121.4350
Z" /> 
<path style="fill:#D864FF; fill-opacity:0.4000; stroke:none;fill-rule:evenodd;"
d="M 192.7112,119.8650
192.7226,119.8076
192.7551,119.7589
192.8038,119.7264
192.8612,119.7150
194.5612,119.7150
194.6186,119.7264
194.6673,119.7589
194.6998,119.8076
194.7112,119.8650
194.7112,120.1650
194.6998,120.2224
194.6673,120.2711
194.6186,120.3036
194.5612,120.3150
192.8612,120.3150
192.8038,120.3036
192.7551,120.2711
192.7226,120.2224
192.7112,120.1650
Z" /> 
<path style="fill:#D864FF; fill-opacity:0.4000; stroke:none;fill-rule:evenodd;"
d="M 192.7112,118.5950
192.7226,118.5376
192.7551,118.4889
192.8038,118.4564
192.8612,118.4450
194.5612,118.4450
194.6186,118.4564
194.6673,118.4889
194.6998,118.5376
194.7112,118.5950
194.7112,118.8950
194.6998,118.9524
194.6673,119.0011
194.6186,119.0336
194.5612,119.0450
192.8612,119.0450
192.8038,119.0336
192.7551,119.0011
192.7226,118.9524
192.7112,118.8950
Z" /> 
<path style="fill:#D864FF; fill-opacity:0.4000; stroke:none;fill-rule:evenodd;"
d="M 192.7112,117.3250
192.7226,117.2676
192.7551,117.2189
192.8038,117.1864
192.8612,117.1750
194.5612,117.1750
194.6186,117.1864
194.6673,117.2189
194.6998,117.2676
194.7112,117.3250
194.7112,117.6250
194.6998,117.6824
194.6673,117.7311
194.6186,117.7636
194.5612,117.7750
192.8612,117.7750
192.8038,117.7636
192.7551,117.7311
192.7226,117.6824
192.7112,117.6250
Z" /> 
<path style="fill:#D864FF; fill-opacity:0.4000; stroke:none;fill-rule:evenodd;"
d="M 192.7112,116.0550
192.7226,115.9976
192.7551,115.9489
192.8038,115.9164
192.8612,115.9050
194.5612,115.9050
194.6186,115.9164
194.6673,115.9489
194.6998,115.9976
194.7112,116.0550
194.7112,116.3550
194.6998,116.4124
194.6673,116.4611
194.6186,116.4936
194.5612,116.5050
192.8612,116.5050
192.8038,116.4936
192.7551,116.4611
192.7226,116.4124
192.7112,116.3550
Z" /> 
<path style="fill:#D864FF; fill-opacity:0.4000; stroke:none;fill-rule:evenodd;"
d="M 192.7112,114.7850
192.7226,114.7276
192.7551,114.6789
192.8038,114.6464
192.8612,114.6350
194.5612,114.6350
194.6186,114.6464
194.6673,114.6789
194.6998,114.7276
194.7112,114.7850
194.7112,115.0850
194.6998,115.1424
194.6673,115.1911
194.6186,115.2236
194.5612,115.2350
192.8612,115.2350
192.8038,115.2236
192.7551,115.1911
192.7226,115.1424
192.7112,115.0850
Z" /> 
<path style="fill:#D864FF; fill-opacity:0.4000; stroke:none;fill-rule:evenodd;"
d="M 192.7112,113.5150
192.7226,113.4576
192.7551,113.4089
192.8038,113.3764
192.8612,113.3650
194.5612,113.3650
194.6186,113.3764
194.6673,113.4089
194.6998,113.4576
194.7112,113.5150
194.7112,113.8150
194.6998,113.8724
194.6673,113.9211
194.6186,113.9536
194.5612,113.9650
192.8612,113.9650
192.8038,113.9536
192.7551,113.9211
192.7226,113.8724
192.7112,113.8150
Z" /> 
<path style="fill:#D864FF; fill-opacity:0.4000; stroke:none;fill-rule:evenodd;"
d="M 192.7112,112.2450
192.7226,112.1876
192.7551,112.1389
192.8038,112.1064
192.8612,112.0950
194.5612,112.0950
194.6186,112.1064
194.6673,112.1389
194.6998,112.1876
194.7112,112.2450
194.7112,112.5450
194.6998,112.6024
194.6673,112.6511
194.6186,112.6836
194.5612,112.6950
192.8612,112.6950
192.8038,112.6836
192.7551,112.6511
192.7226,112.6024
192.7112,112.5450
Z" /> 
<circle cx="147.9042" cy="122.7836" r="0.8000" /> 
</g>
<g style="fill:#D864FF; fill-opacity:0.4000; stroke:none;">
<circle cx="158.0642" cy="122.7836" r="0.8000" /> 
<path style="fill:#D864FF; fill-opacity:0.4000; stroke:none;fill-rule:evenodd;"
d="M 124.3598,125.2342
122.6598,125.2342
122.6598,123.5342
124.3598,123.5342
Z" /> 
<circle cx="126.0498" cy="124.3842" r="0.8500" /> 
<circle cx="128.5898" cy="124.3842" r="0.8500" /> 
<circle cx="131.1298" cy="124.3842" r="0.8500" /> 
<circle cx="133.6698" cy="124.3842" r="0.8500" /> 
<circle cx="136.2098" cy="124.3842" r="0.8500" /> 
<circle cx="138.7498" cy="124.3842" r="0.8500" /> 
<circle cx="141.2898" cy="124.3842" r="0.8500" /> 
<circle cx="184.5400" cy="62.2300" r="0.8000" /> 
</g>
<g style="fill:#D864FF; fill-opacity:0.4000; stroke:none;">
<circle cx="194.7000" cy="62.2300" r="0.8000" /> 
<circle cx="184.9893" cy="53.0712" r="1.0000" /> 
</g>
<g style="fill:#D864FF; fill-opacity:0.4000; stroke:none;">
<circle cx="191.4893" cy="53.0712" r="1.0000" /> 
</g>
<g style="fill:#D864FF; fill-opacity:0.4000; stroke:none;">
<circle cx="184.9893" cy="57.5712" r="1.0000" /> 
</g>
<g style="fill:#D864FF; fill-opacity:0.4000; stroke:none;">
<circle cx="191.4893" cy="57.5712" r="1.0000" /> 
<path style="fill:#D864FF; fill-opacity:0.4000; stroke:none;fill-rule:evenodd;"
d="M 135.7398,140.9068
134.1398,140.9068
134.1398,139.3068
135.7398,139.3068
Z" /> 
</g>
<g style="fill:#D864FF; fill-opacity:0.4000; stroke:none;">
<circle cx="137.4798" cy="140.1068" r="0.8000" /> 
<circle cx="140.0198" cy="140.1068" r="0.8000" /> 
<circle cx="142.5598" cy="140.1068" r="0.8000" /> 
<circle cx="142.5598" cy="132.4868" r="0.8000" /> 
<circle cx="140.0198" cy="132.4868" r="0.8000" /> 
<circle cx="137.4798" cy="132.4868" r="0.8000" /> 
<circle cx="134.9398" cy="132.4868" r="0.8000" /> 
<path style="fill:#D864FF; fill-opacity:0.4000; stroke:none;fill-rule:evenodd;"
d="M 180.4498,93.5242
180.4498,91.8242
182.1498,91.8242
182.1498,93.5242
Z" /> 
<circle cx="181.2998" cy="95.2142" r="0.8500" /> 
<circle cx="181.2998" cy="97.7542" r="0.8500" /> 
<path style="fill:#D864FF; fill-opacity:0.4000; stroke:none;fill-rule:evenodd;"
d="M 121.1416,96.2034
122.8416,96.2034
122.8416,97.9034
121.1416,97.9034
Z" /> 
<circle cx="119.4516" cy="97.0534" r="0.8500" /> 
<circle cx="116.9116" cy="97.0534" r="0.8500" /> 
<path style="fill:#D864FF; fill-opacity:0.4000; stroke:none;fill-rule:evenodd;"
d="M 108.3700,99.9100
108.3700,98.2100
110.0700,98.2100
110.0700,99.9100
Z" /> 
<circle cx="109.2200" cy="101.6000" r="0.8500" /> 
<circle cx="109.2200" cy="104.1400" r="0.8500" /> 
<circle cx="109.2200" cy="106.6800" r="0.8500" /> 
<path style="fill:#D864FF; fill-opacity:0.4000; stroke:none;fill-rule:evenodd;"
d="M 180.1250,67.0950
181.8250,67.0950
181.8250,68.7950
180.1250,68.7950
Z" /> 
<circle cx="178.4350" cy="67.9450" r="0.8500" /> 
<path style="fill:#D864FF; fill-opacity:0.4000; stroke:none;fill-rule:evenodd;"
d="M 132.9554,112.4830
131.2554,112.4830
131.2554,110.7830
132.9554,110.7830
Z" /> 
<circle cx="134.6454" cy="111.6330" r="0.8500" /> 
<path style="fill:#D864FF; fill-opacity:0.4000; stroke:none;fill-rule:evenodd;"
d="M 127.9650,58.2350
127.9460,58.3307
127.8918,58.4118
127.8107,58.4660
127.7150,58.4850
127.0150,58.4850
126.9193,58.4660
126.8382,58.4118
126.7840,58.3307
126.7650,58.2350
126.7650,57.3350
126.7840,57.2393
126.8382,57.1582
126.9193,57.1040
127.0150,57.0850
127.7150,57.0850
127.8107,57.1040
127.8918,57.1582
127.9460,57.2393
127.9650,57.3350
Z" /> 
<path style="fill:#D864FF; fill-opacity:0.4000; stroke:none;fill-rule:evenodd;"
d="M 125.9650,58.2350
125.9460,58.3307
125.8918,58.4118
125.8107,58.4660
125.7150,58.4850
125.0150,58.4850
124.9193,58.4660
124.8382,58.4118
124.7840,58.3307
124.7650,58.2350
124.7650,57.3350
124.7840,57.2393
124.8382,57.1582
124.9193,57.1040
125.0150,57.0850
125.7150,57.0850
125.8107,57.1040
125.8918,57.1582
125.9460,57.2393
125.9650,57.3350
Z" /> 
<circle cx="184.4800" cy="84.9440" r="0.8000" /> 
</g>
<g style="fill:#D864FF; fill-opacity:0.4000; stroke:none;">
<circle cx="194.6400" cy="84.9440" r="0.8000" /> 
<path style="fill:#D864FF; fill-opacity:0.4000; stroke:none;fill-rule:evenodd;"
d="M 184.9458,147.4350
184.9458,145.9350
185.9958,145.9350
185.9958,147.4350
Z" /> 
</g>
<g style="fill:none; 
stroke:#D864FF; stroke-width:1.0500; stroke-opacity:1; 
stroke-linecap:round; stroke-linejoin:round;">
<path d="M186.7408 146.4600
L186.7408 146.9100
" />
<path d="M188.0108 146.4600
L188.0108 146.9100
" />
<path style="fill:#D864FF; fill-opacity:0.4000; stroke:none;fill-rule:evenodd;"
d="M 192.7488,103.8216
192.7488,102.1216
194.4488,102.1216
194.4488,103.8216
Z" /> 
</g>
<g style="fill:#D864FF; fill-opacity:0.4000; stroke:none;">
<circle cx="193.5988" cy="105.5116" r="0.8500" /> 
<path style="fill:#D864FF; fill-opacity:0.4000; stroke:none;fill-rule:evenodd;"
d="M 201.8140,61.3300
201.8140,63.1300
200.0140,63.1300
200.0140,61.3300
Z" /> 
<circle cx="198.3740" cy="62.2300" r="0.9000" /> 
</g>
<g style="fill:#D864FF; fill-opacity:0.4000; stroke:none;">
<circle cx="174.4872" cy="145.7960" r="1.1700" /> 
</g>
<g style="fill:#D864FF; fill-opacity:0.4000; stroke:none;">
<circle cx="179.4872" cy="143.2960" r="1.1700" /> 
</g>
<g style="fill:#D864FF; fill-opacity:0.4000; stroke:none;">
<circle cx="174.4872" cy="140.7960" r="1.1700" /> 
<path style="fill:#D864FF; fill-opacity:0.4000; stroke:none;fill-rule:evenodd;"
d="M 180.1250,61.3800
181.8250,61.3800
181.8250,63.0800
180.1250,63.0800
Z" /> 
</g>
<g style="fill:#D864FF; fill-opacity:0.4000; stroke:none;">
<circle cx="178.4350" cy="62.2300" r="0.8500" /> 
<path style="fill:#D864FF; fill-opacity:0.4000; stroke:none;fill-rule:evenodd;"
d="M 165.3354,114.2610
163.6354,114.2610
163.6354,112.5610
165.3354,112.5610
Z" /> 
<circle cx="167.0254" cy="113.4110" r="0.8500" /> 
<circle cx="115.5700" cy="144.7800" r="0.8000" /> 
</g>
<g style="fill:#D864FF; fill-opacity:0.4000; stroke:none;">
<circle cx="115.5700" cy="134.6200" r="0.8000" /> 
<circle cx="167.6400" cy="122.8090" r="0.8000" /> 
</g>
<g style="fill:#D864FF; fill-opacity:0.4000; stroke:none;">
<circle cx="164.6400" cy="122.8090" r="0.8000" /> 
<path style="fill:#D864FF; fill-opacity:0.4000; stroke:none;fill-rule:evenodd;"
d="M 196.6200,139.9300
196.6200,136.9300
199.6200,136.9300
199.6200,139.9300
Z" /> 
</g>
<g style="fill:#D864FF; fill-opacity:0.4000; stroke:none;">
<circle cx="198.1200" cy="133.4300" r="1.5000" /> 
</g>
<g style="fill:#D864FF; fill-opacity:0.4000; stroke:none;">
<circle cx="198.1200" cy="128.4300" r="1.5000" /> 
<path style="fill:#D864FF; fill-opacity:0.4000; stroke:none;fill-rule:evenodd;"
d="M 126.8200,83.3450
126.8390,83.2493
126.8932,83.1682
126.9743,83.1140
127.0700,83.0950
127.5700,83.0950
127.6657,83.1140
127.7468,83.1682
127.8010,83.2493
127.8200,83.3450
127.8200,84.2950
127.8010,84.3907
127.7468,84.4718
127.6657,84.5260
127.5700,84.5450
127.0700,84.5450
126.9743,84.5260
126.8932,84.4718
126.8390,84.3907
126.8200,84.2950
Z" /> 
<path style="fill:#D864FF; fill-opacity:0.4000; stroke:none;fill-rule:evenodd;"
d="M 128.7200,83.3450
128.7390,83.2493
128.7932,83.1682
128.8743,83.1140
128.9700,83.0950
129.4700,83.0950
129.5657,83.1140
129.6468,83.1682
129.7010,83.2493
129.7200,83.3450
129.7200,84.2950
129.7010,84.3907
129.6468,84.4718
129.5657,84.5260
129.4700,84.5450
128.9700,84.5450
128.8743,84.5260
128.7932,84.4718
128.7390,84.3907
128.7200,84.2950
Z" /> 
<path style="fill:#D864FF; fill-opacity:0.4000; stroke:none;fill-rule:evenodd;"
d="M 183.1018,109.0812
184.8018,109.0812
184.8018,110.7812
183.1018,110.7812
Z" /> 
</g>
<g style="fill:#D864FF; fill-opacity:0.4000; stroke:none;">
<circle cx="181.4118" cy="109.9312" r="0.8500" /> 
<path style="fill:#D864FF; fill-opacity:0.4000; stroke:none;fill-rule:evenodd;"
d="M 201.8140,84.0440
201.8140,85.8440
200.0140,85.8440
200.0140,84.0440
Z" /> 
<circle cx="198.3740" cy="84.9440" r="0.9000" /> 
<path style="fill:#D864FF; fill-opacity:0.4000; stroke:none;fill-rule:evenodd;"
d="M 124.7022,109.9684
124.7022,108.2684
126.4022,108.2684
126.4022,109.9684
Z" /> 
</g>
<g style="fill:#D864FF; fill-opacity:0.4000; stroke:none;">
<circle cx="125.5522" cy="111.6584" r="0.8500" /> 
<circle cx="125.5522" cy="114.1984" r="0.8500" /> 
<path style="fill:#D864FF; fill-opacity:0.4000; stroke:none;fill-rule:evenodd;"
d="M 113.2096,118.1980
111.5096,118.1980
111.5096,116.4980
113.2096,116.4980
Z" /> 
<circle cx="114.8996" cy="117.3480" r="0.8500" /> 
<path style="fill:#D864FF; fill-opacity:0.4000; stroke:none;fill-rule:evenodd;"
d="M 179.6170,103.7472
181.3170,103.7472
181.3170,105.4472
179.6170,105.4472
Z" /> 
<circle cx="177.9270" cy="104.5972" r="0.8500" /> 
<path style="fill:#D864FF; fill-opacity:0.4000; stroke:none;fill-rule:evenodd;"
d="M 176.6398,93.5242
176.6398,91.8242
178.3398,91.8242
178.3398,93.5242
Z" /> 
<circle cx="177.4898" cy="95.2142" r="0.8500" /> 
<circle cx="177.4898" cy="97.7542" r="0.8500" /> 
<path style="fill:#D864FF; fill-opacity:0.4000; stroke:none;fill-rule:evenodd;"
d="M 178.6622,127.4820
180.3622,127.4820
180.3622,129.1820
178.6622,129.1820
Z" /> 
<circle cx="176.9722" cy="128.3320" r="0.8500" /> 
<circle cx="174.4322" cy="128.3320" r="0.8500" /> 
<path style="fill:#D864FF; fill-opacity:0.4000; stroke:none;fill-rule:evenodd;"
d="M 126.8200,87.1550
126.8390,87.0593
126.8932,86.9782
126.9743,86.9240
127.0700,86.9050
127.5700,86.9050
127.6657,86.9240
127.7468,86.9782
127.8010,87.0593
127.8200,87.1550
127.8200,88.1050
127.8010,88.2007
127.7468,88.2818
127.6657,88.3360
127.5700,88.3550
127.0700,88.3550
126.9743,88.3360
126.8932,88.2818
126.8390,88.2007
126.8200,88.1050
Z" /> 
<path style="fill:#D864FF; fill-opacity:0.4000; stroke:none;fill-rule:evenodd;"
d="M 128.7200,87.1550
128.7390,87.0593
128.7932,86.9782
128.8743,86.9240
128.9700,86.9050
129.4700,86.9050
129.5657,86.9240
129.6468,86.9782
129.7010,87.0593
129.7200,87.1550
129.7200,88.1050
129.7010,88.2007
129.6468,88.2818
129.5657,88.3360
129.4700,88.3550
128.9700,88.3550
128.8743,88.3360
128.7932,88.2818
128.7390,88.2007
128.7200,88.1050
Z" /> 
<path style="fill:#D864FF; fill-opacity:0.4000; stroke:none;fill-rule:evenodd;"
d="M 178.5502,134.0860
180.2502,134.0860
180.2502,135.7860
178.5502,135.7860
Z" /> 
<circle cx="176.8602" cy="134.9360" r="0.8500" /> 
<circle cx="174.3202" cy="134.9360" r="0.8500" /> 
<path style="fill:#D864FF; fill-opacity:0.4000; stroke:none;fill-rule:evenodd;"
d="M 124.3598,129.0442
122.6598,129.0442
122.6598,127.3442
124.3598,127.3442
Z" /> 
<circle cx="126.0498" cy="128.1942" r="0.8500" /> 
<circle cx="128.5898" cy="128.1942" r="0.8500" /> 
<circle cx="131.1298" cy="128.1942" r="0.8500" /> 
<circle cx="133.6698" cy="128.1942" r="0.8500" /> 
<circle cx="136.2098" cy="128.1942" r="0.8500" /> 
<circle cx="138.7498" cy="128.1942" r="0.8500" /> 
<circle cx="141.2898" cy="128.1942" r="0.8500" /> 
<path style="fill:#D864FF; fill-opacity:0.4000; stroke:none;fill-rule:evenodd;"
d="M 104.5350,88.4900
104.5350,86.7900
106.2350,86.7900
106.2350,88.4900
Z" /> 
<circle cx="105.3850" cy="90.1800" r="0.8500" /> 
<circle cx="105.3850" cy="92.7200" r="0.8500" /> 
<circle cx="105.3850" cy="95.2600" r="0.8500" /> 
<circle cx="184.5400" cy="73.5870" r="0.8000" /> 
</g>
<g style="fill:#D864FF; fill-opacity:0.4000; stroke:none;">
<circle cx="194.7000" cy="73.5870" r="0.8000" /> 
<path style="fill:#D864FF; fill-opacity:0.4000; stroke:none;fill-rule:evenodd;"
d="M 162.5990,135.3634
162.5990,133.6634
164.2990,133.6634
164.2990,135.3634
Z" /> 
<circle cx="163.4490" cy="137.0534" r="0.8500" /> 
<path style="fill:#D864FF; fill-opacity:0.4000; stroke:none;fill-rule:evenodd;"
d="M 147.0796,145.2186
147.0796,143.5186
148.7796,143.5186
148.7796,145.2186
Z" /> 
<circle cx="147.9296" cy="146.9086" r="0.8500" /> 
<circle cx="184.5400" cy="67.9085" r="0.8000" /> 
</g>
<g style="fill:#D864FF; fill-opacity:0.4000; stroke:none;">
<circle cx="194.7000" cy="67.9085" r="0.8000" /> 
<circle cx="167.3098" cy="140.8684" r="0.8000" /> 
</g>
<g style="fill:#D864FF; fill-opacity:0.4000; stroke:none;">
<circle cx="167.3098" cy="130.7084" r="0.8000" /> 
<path style="fill:#D864FF; fill-opacity:0.4000; stroke:none;fill-rule:evenodd;"
d="M 130.2486,53.4933
130.2672,53.4001
130.3200,53.3210
130.3991,53.2682
130.4923,53.2496
130.9798,53.2496
131.0731,53.2682
131.1522,53.3210
131.2050,53.4001
131.2236,53.4933
131.2236,54.4059
131.2050,54.4991
131.1522,54.5782
131.0731,54.6310
130.9798,54.6496
130.4923,54.6496
130.3991,54.6310
130.3200,54.5782
130.2672,54.4991
130.2486,54.4059
Z" /> 
<path style="fill:#D864FF; fill-opacity:0.4000; stroke:none;fill-rule:evenodd;"
d="M 132.1236,53.4933
132.1422,53.4001
132.1950,53.3210
132.2741,53.2682
132.3673,53.2496
132.8548,53.2496
132.9481,53.2682
133.0272,53.3210
133.0800,53.4001
133.0986,53.4933
133.0986,54.4059
133.0800,54.4991
133.0272,54.5782
132.9481,54.6310
132.8548,54.6496
132.3673,54.6496
132.2741,54.6310
132.1950,54.5782
132.1422,54.4991
132.1236,54.4059
Z" /> 
<circle cx="199.0000" cy="55.0000" r="1.7000" /> 
</g>
<g style="fill:#D864FF; fill-opacity:0.4000; stroke:none;">
<circle cx="199.0000" cy="55.0000" r="3.0000" /> 
<path style="fill:#D864FF; fill-opacity:0.4000; stroke:none;fill-rule:evenodd;"
d="M 104.5350,77.0500
104.5350,75.3500
106.2350,75.3500
106.2350,77.0500
Z" /> 
</g>
<g style="fill:#D864FF; fill-opacity:0.4000; stroke:none;">
<circle cx="105.3850" cy="78.7400" r="0.8500" /> 
<circle cx="105.3850" cy="81.2800" r="0.8500" /> 
<circle cx="105.3850" cy="83.8200" r="0.8500" /> 
<path style="fill:#D864FF; fill-opacity:0.4000; stroke:none;fill-rule:evenodd;"
d="M 131.9000,87.1550
131.9190,87.0593
131.9732,86.9782
132.0543,86.9240
132.1500,86.9050
132.6500,86.9050
132.7457,86.9240
132.8268,86.9782
132.8810,87.0593
132.9000,87.1550
132.9000,88.1050
132.8810,88.2007
132.8268,88.2818
132.7457,88.3360
132.6500,88.3550
132.1500,88.3550
132.0543,88.3360
131.9732,88.2818
131.9190,88.2007
131.9000,88.1050
Z" /> 
<path style="fill:#D864FF; fill-opacity:0.4000; stroke:none;fill-rule:evenodd;"
d="M 133.8000,87.1550
133.8190,87.0593
133.8732,86.9782
133.9543,86.9240
134.0500,86.9050
134.5500,86.9050
134.6457,86.9240
134.7268,86.9782
134.7810,87.0593
134.8000,87.1550
134.8000,88.1050
134.7810,88.2007
134.7268,88.2818
134.6457,88.3360
134.5500,88.3550
134.0500,88.3550
133.9543,88.3360
133.8732,88.2818
133.8190,88.2007
133.8000,88.1050
Z" /> 
<path style="fill:#D864FF; fill-opacity:0.4000; stroke:none;fill-rule:evenodd;"
d="M 196.5588,91.8428
196.5588,90.1428
198.2588,90.1428
198.2588,91.8428
Z" /> 
<circle cx="197.4088" cy="93.5328" r="0.8500" /> 
<circle cx="197.4088" cy="96.0728" r="0.8500" /> 
<circle cx="197.4088" cy="98.6128" r="0.8500" /> 
<path style="fill:#D864FF; fill-opacity:0.4000; stroke:none;fill-rule:evenodd;"
d="M 104.5350,99.9100
104.5350,98.2100
106.2350,98.2100
106.2350,99.9100
Z" /> 
<circle cx="105.3850" cy="101.6000" r="0.8500" /> 
<circle cx="105.3850" cy="104.1400" r="0.8500" /> 
<circle cx="105.3850" cy="106.6800" r="0.8500" /> 
<path style="fill:#D864FF; fill-opacity:0.4000; stroke:none;fill-rule:evenodd;"
d="M 124.3852,144.5128
122.6852,144.5128
122.6852,142.8128
124.3852,142.8128
Z" /> 
<circle cx="126.0752" cy="143.6628" r="0.8500" /> 
<circle cx="128.6152" cy="143.6628" r="0.8500" /> 
<circle cx="131.1552" cy="143.6628" r="0.8500" /> 
<circle cx="133.6952" cy="143.6628" r="0.8500" /> 
<circle cx="136.2352" cy="143.6628" r="0.8500" /> 
<circle cx="138.7752" cy="143.6628" r="0.8500" /> 
<circle cx="141.3152" cy="143.6628" r="0.8500" /> 
<circle cx="107.0000" cy="54.9250" r="1.7000" /> 
</g>
<g style="fill:#D864FF; fill-opacity:0.4000; stroke:none;">
<circle cx="107.0000" cy="54.9250" r="3.0000" /> 
<path style="fill:#D864FF; fill-opacity:0.4000; stroke:none;fill-rule:evenodd;"
d="M 125.1350,69.8373
123.1350,69.8373
123.1350,67.9323
125.1350,67.9323
Z" /> 
</g>
<g style="fill:none; 
stroke:#D864FF; stroke-width:1.9050; stroke-opacity:1; 
stroke-linecap:round; stroke-linejoin:round;">
<path d="M124.0875 66.3448
L124.1825 66.3448
" />
<path d="M124.0875 63.8048
L124.1825 63.8048
" />
<path style="fill:#D864FF; fill-opacity:0.4000; stroke:none;fill-rule:evenodd;"
d="M 126.6600,74.7950
126.6756,74.6880
126.7298,74.5771
126.8171,74.4898
126.9280,74.4356
127.0350,74.4200
128.2850,74.4200
128.3920,74.4356
128.5029,74.4898
128.5902,74.5771
128.6444,74.6880
128.6600,74.7950
128.6600,75.5450
128.6444,75.6520
128.5902,75.7629
128.5029,75.8502
128.3920,75.9044
128.2850,75.9200
127.0350,75.9200
126.9280,75.9044
126.8171,75.8502
126.7298,75.7629
126.6756,75.6520
126.6600,75.5450
Z" /> 
<path style="fill:#D864FF; fill-opacity:0.4000; stroke:none;fill-rule:evenodd;"
d="M 126.6600,77.0950
126.6756,76.9880
126.7298,76.8771
126.8171,76.7898
126.9280,76.7356
127.0350,76.7200
128.2850,76.7200
128.3920,76.7356
128.5029,76.7898
128.5902,76.8771
128.6444,76.9880
128.6600,77.0950
128.6600,77.8450
128.6444,77.9520
128.5902,78.0629
128.5029,78.1502
128.3920,78.2044
128.2850,78.2200
127.0350,78.2200
126.9280,78.2044
126.8171,78.1502
126.7298,78.0629
126.6756,77.9520
126.6600,77.8450
Z" /> 
<path style="fill:#D864FF; fill-opacity:0.4000; stroke:none;fill-rule:evenodd;"
d="M 132.9600,76.0700
132.9714,75.9637
133.0212,75.8304
133.1064,75.7164
133.2204,75.6312
133.3537,75.5814
133.4600,75.5700
134.4600,75.5700
134.5663,75.5814
134.6996,75.6312
134.8136,75.7164
134.8988,75.8304
134.9486,75.9637
134.9600,76.0700
134.9600,78.8700
134.9486,78.9763
134.8988,79.1096
134.8136,79.2236
134.6996,79.3088
134.5663,79.3586
134.4600,79.3700
133.4600,79.3700
133.3537,79.3586
133.2204,79.3088
133.1064,79.2236
133.0212,79.1096
132.9714,78.9763
132.9600,78.8700
Z" /> 
<path style="fill:#D864FF; fill-opacity:0.4000; stroke:none;fill-rule:evenodd;"
d="M 126.6600,79.3950
126.6756,79.2880
126.7298,79.1771
126.8171,79.0898
126.9280,79.0356
127.0350,79.0200
128.2850,79.0200
128.3920,79.0356
128.5029,79.0898
128.5902,79.1771
128.6444,79.2880
128.6600,79.3950
128.6600,80.1450
128.6444,80.2520
128.5902,80.3629
128.5029,80.4502
128.3920,80.5044
128.2850,80.5200
127.0350,80.5200
126.9280,80.5044
126.8171,80.4502
126.7298,80.3629
126.6756,80.2520
126.6600,80.1450
Z" /> 
<path style="fill:#D864FF; fill-opacity:0.4000; stroke:none;fill-rule:evenodd;"
d="M 120.4700,83.3450
120.4890,83.2493
120.5432,83.1682
120.6243,83.1140
120.7200,83.0950
121.2200,83.0950
121.3157,83.1140
121.3968,83.1682
121.4510,83.2493
121.4700,83.3450
121.4700,84.2950
121.4510,84.3907
121.3968,84.4718
121.3157,84.5260
121.2200,84.5450
120.7200,84.5450
120.6243,84.5260
120.5432,84.4718
120.4890,84.3907
120.4700,84.2950
Z" /> 
<path style="fill:#D864FF; fill-opacity:0.4000; stroke:none;fill-rule:evenodd;"
d="M 122.3700,83.3450
122.3890,83.2493
122.4432,83.1682
122.5243,83.1140
122.6200,83.0950
123.1200,83.0950
123.2157,83.1140
123.2968,83.1682
123.3510,83.2493
123.3700,83.3450
123.3700,84.2950
123.3510,84.3907
123.2968,84.4718
123.2157,84.5260
123.1200,84.5450
122.6200,84.5450
122.5243,84.5260
122.4432,84.4718
122.3890,84.3907
122.3700,84.2950
Z" /> 
<path style="fill:#D864FF; fill-opacity:0.4000; stroke:none;fill-rule:evenodd;"
d="M 138.6620,63.0004
138.6620,61.0004
140.6620,61.0004
140.6620,63.0004
Z" /> 
</g>
<g style="fill:#D864FF; fill-opacity:0.4000; stroke:none;">
<circle cx="139.6620" cy="64.5404" r="1.0000" /> 
</g>
<g style="fill:#D864FF; fill-opacity:0.4000; stroke:none;">
<circle cx="139.6620" cy="67.0804" r="1.0000" /> 
</g>
<g style="fill:#D864FF; fill-opacity:0.4000; stroke:none;">
<circle cx="139.6620" cy="69.6204" r="1.0000" /> 
</g>
<g style="fill:#D864FF; fill-opacity:0.4000; stroke:none;">
<circle cx="139.6620" cy="72.1604" r="1.0000" /> 
</g>
<g style="fill:#D864FF; fill-opacity:0.4000; stroke:none;">
<circle cx="139.6620" cy="74.7004" r="1.0000" /> 
</g>
<g style="fill:#D864FF; fill-opacity:0.4000; stroke:none;">
<circle cx="139.6620" cy="77.2404" r="1.0000" /> 
</g>
<g style="fill:#D864FF; fill-opacity:0.4000; stroke:none;">
<circle cx="139.6620" cy="79.7804" r="1.0000" /> 
</g>
<g style="fill:#D864FF; fill-opacity:0.4000; stroke:none;">
<circle cx="139.6620" cy="82.3204" r="1.0000" /> 
</g>
<g style="fill:#D864FF; fill-opacity:0.4000; stroke:none;">
<circle cx="139.6620" cy="84.8604" r="1.0000" /> 
</g>
<g style="fill:#D864FF; fill-opacity:0.4000; stroke:none;">
<circle cx="139.6620" cy="87.4004" r="1.0000" /> 
</g>
<g style="fill:#D864FF; fill-opacity:0.4000; stroke:none;">
<circle cx="139.6620" cy="89.9404" r="1.0000" /> 
</g>
<g style="fill:#D864FF; fill-opacity:0.4000; stroke:none;">
<circle cx="139.6620" cy="92.4804" r="1.0000" /> 
</g>
<g style="fill:#D864FF; fill-opacity:0.4000; stroke:none;">
<circle cx="139.6620" cy="95.0204" r="1.0000" /> 
</g>
<g style="fill:#D864FF; fill-opacity:0.4000; stroke:none;">
<circle cx="139.6620" cy="97.5604" r="1.0000" /> 
</g>
<g style="fill:#D864FF; fill-opacity:0.4000; stroke:none;">
<circle cx="165.0620" cy="97.5604" r="1.0000" /> 
</g>
<g style="fill:#D864FF; fill-opacity:0.4000; stroke:none;">
<circle cx="165.0620" cy="95.0204" r="1.0000" /> 
</g>
<g style="fill:#D864FF; fill-opacity:0.4000; stroke:none;">
<circle cx="165.0620" cy="92.4804" r="1.0000" /> 
</g>
<g style="fill:#D864FF; fill-opacity:0.4000; stroke:none;">
<circle cx="165.0620" cy="89.9404" r="1.0000" /> 
</g>
<g style="fill:#D864FF; fill-opacity:0.4000; stroke:none;">
<circle cx="165.0620" cy="87.4004" r="1.0000" /> 
</g>
<g style="fill:#D864FF; fill-opacity:0.4000; stroke:none;">
<circle cx="165.0620" cy="84.8604" r="1.0000" /> 
</g>
<g style="fill:#D864FF; fill-opacity:0.4000; stroke:none;">
<circle cx="165.0620" cy="82.3204" r="1.0000" /> 
</g>
<g style="fill:#D864FF; fill-opacity:0.4000; stroke:none;">
<circle cx="165.0620" cy="79.7804" r="1.0000" /> 
</g>
<g style="fill:#D864FF; fill-opacity:0.4000; stroke:none;">
<circle cx="165.0620" cy="77.2404" r="1.0000" /> 
</g>
<g style="fill:#D864FF; fill-opacity:0.4000; stroke:none;">
<circle cx="165.0620" cy="74.7004" r="1.0000" /> 
</g>
<g style="fill:#D864FF; fill-opacity:0.4000; stroke:none;">
<circle cx="165.0620" cy="72.1604" r="1.0000" /> 
</g>
<g style="fill:#D864FF; fill-opacity:0.4000; stroke:none;">
<circle cx="165.0620" cy="69.6204" r="1.0000" /> 
</g>
<g style="fill:#D864FF; fill-opacity:0.4000; stroke:none;">
<circle cx="165.0620" cy="67.0804" r="1.0000" /> 
</g>
<g style="fill:#D864FF; fill-opacity:0.4000; stroke:none;">
<circle cx="165.0620" cy="64.5404" r="1.0000" /> 
</g>
<g style="fill:#D864FF; fill-opacity:0.4000; stroke:none;">
<circle cx="165.0620" cy="62.0004" r="1.0000" /> 
<path style="fill:#D864FF; fill-opacity:0.4000; stroke:none;fill-rule:evenodd;"
d="M 113.1384,114.2864
111.4384,114.2864
111.4384,112.5864
113.1384,112.5864
Z" /> 
</g>
<g style="fill:#D864FF; fill-opacity:0.4000; stroke:none;">
<circle cx="114.8284" cy="113.4364" r="0.8500" /> 
<circle cx="115.5700" cy="130.8100" r="0.8000" /> 
</g>
<g style="fill:#D864FF; fill-opacity:0.4000; stroke:none;">
<circle cx="115.5700" cy="120.6500" r="0.8000" /> 
<path style="fill:#D864FF; fill-opacity:0.4000; stroke:none;fill-rule:evenodd;"
d="M 171.2096,73.1892
171.2096,71.4892
172.9096,71.4892
172.9096,73.1892
Z" /> 
<circle cx="172.0596" cy="74.8792" r="0.8500" /> 
<path style="fill:#D864FF; fill-opacity:0.4000; stroke:none;fill-rule:evenodd;"
d="M 108.3700,88.4800
108.3700,86.7800
110.0700,86.7800
110.0700,88.4800
Z" /> 
<circle cx="109.2200" cy="90.1700" r="0.8500" /> 
<circle cx="109.2200" cy="92.7100" r="0.8500" /> 
<circle cx="109.2200" cy="95.2500" r="0.8500" /> 
<path style="fill:#D864FF; fill-opacity:0.4000; stroke:none;fill-rule:evenodd;"
d="M 154.6996,145.2186
154.6996,143.5186
156.3996,143.5186
156.3996,145.2186
Z" /> 
<circle cx="155.5496" cy="146.9086" r="0.8500" /> 
<path style="fill:#D864FF; fill-opacity:0.4000; stroke:none;fill-rule:evenodd;"
d="M 124.9400,53.4562
124.9586,53.3630
125.0114,53.2839
125.0905,53.2311
125.1837,53.2125
125.6713,53.2125
125.7645,53.2311
125.8436,53.2839
125.8964,53.3630
125.9150,53.4562
125.9150,54.3687
125.8964,54.4620
125.8436,54.5411
125.7645,54.5939
125.6713,54.6125
125.1837,54.6125
125.0905,54.5939
125.0114,54.5411
124.9586,54.4620
124.9400,54.3687
Z" /> 
<path style="fill:#D864FF; fill-opacity:0.4000; stroke:none;fill-rule:evenodd;"
d="M 126.8150,53.4562
126.8336,53.3630
126.8864,53.2839
126.9655,53.2311
127.0587,53.2125
127.5463,53.2125
127.6395,53.2311
127.7186,53.2839
127.7714,53.3630
127.7900,53.4562
127.7900,54.3687
127.7714,54.4620
127.7186,54.5411
127.6395,54.5939
127.5463,54.6125
127.0587,54.6125
126.9655,54.5939
126.8864,54.5411
126.8336,54.4620
126.8150,54.3687
Z" /> 
<path style="fill:#D864FF; fill-opacity:0.4000; stroke:none;fill-rule:evenodd;"
d="M 158.5096,145.2186
158.5096,143.5186
160.2096,143.5186
160.2096,145.2186
Z" /> 
<circle cx="159.3596" cy="146.9086" r="0.8500" /> 
<path style="fill:#D864FF; fill-opacity:0.4000; stroke:none;fill-rule:evenodd;"
d="M 117.7916,92.8234
116.0916,92.8234
116.0916,91.1234
117.7916,91.1234
Z" /> 
<circle cx="119.4816" cy="91.9734" r="0.8500" /> 
<circle cx="122.0216" cy="91.9734" r="0.8500" /> 
<circle cx="124.5616" cy="91.9734" r="0.8500" /> 
<circle cx="107.0000" cy="147.0000" r="1.7000" /> 
</g>
<g style="fill:#D864FF; fill-opacity:0.4000; stroke:none;">
<circle cx="107.0000" cy="147.0000" r="3.0000" /> 
<path style="fill:#D864FF; fill-opacity:0.4000; stroke:none;fill-rule:evenodd;"
d="M 115.3900,83.3450
115.4090,83.2493
115.4632,83.1682
115.5443,83.1140
115.6400,83.0950
116.1400,83.0950
116.2357,83.1140
116.3168,83.1682
116.3710,83.2493
116.3900,83.3450
116.3900,84.2950
116.3710,84.3907
116.3168,84.4718
116.2357,84.5260
116.1400,84.5450
115.6400,84.5450
115.5443,84.5260
115.4632,84.4718
115.4090,84.3907
115.3900,84.2950
Z" /> 
<path style="fill:#D864FF; fill-opacity:0.4000; stroke:none;fill-rule:evenodd;"
d="M 117.2900,83.3450
117.3090,83.2493
117.3632,83.1682
117.4443,83.1140
117.5400,83.0950
118.0400,83.0950
118.1357,83.1140
118.2168,83.1682
118.2710,83.2493
118.2900,83.3450
118.2900,84.2950
118.2710,84.3907
118.2168,84.4718
118.1357,84.5260
118.0400,84.5450
117.5400,84.5450
117.4443,84.5260
117.3632,84.4718
117.3090,84.3907
117.2900,84.2950
Z" /> 
<path style="fill:#D864FF; fill-opacity:0.4000; stroke:none;fill-rule:evenodd;"
d="M 180.1250,78.5250
181.8250,78.5250
181.8250,80.2250
180.1250,80.2250
Z" /> 
</g>
<g style="fill:#D864FF; fill-opacity:0.4000; stroke:none;">
<circle cx="178.4350" cy="79.3750" r="0.8500" /> 
<path style="fill:#D864FF; fill-opacity:0.4000; stroke:none;fill-rule:evenodd;"
d="M 196.5588,103.8216
196.5588,102.1216
198.2588,102.1216
198.2588,103.8216
Z" /> 
<circle cx="197.4088" cy="105.5116" r="0.8500" /> 
<path style="fill:#D864FF; fill-opacity:0.4000; stroke:none;fill-rule:evenodd;"
d="M 201.8140,78.3655
201.8140,80.1655
200.0140,80.1655
200.0140,78.3655
Z" /> 
<circle cx="198.3740" cy="79.2655" r="0.9000" /> 
<path style="fill:#D864FF; fill-opacity:0.4000; stroke:none;fill-rule:evenodd;"
d="M 115.3900,87.1550
115.4090,87.0593
115.4632,86.9782
115.5443,86.9240
115.6400,86.9050
116.1400,86.9050
116.2357,86.9240
116.3168,86.9782
116.3710,87.0593
116.3900,87.1550
116.3900,88.1050
116.3710,88.2007
116.3168,88.2818
116.2357,88.3360
116.1400,88.3550
115.6400,88.3550
115.5443,88.3360
115.4632,88.2818
115.4090,88.2007
115.3900,88.1050
Z" /> 
<path style="fill:#D864FF; fill-opacity:0.4000; stroke:none;fill-rule:evenodd;"
d="M 117.2900,87.1550
117.3090,87.0593
117.3632,86.9782
117.4443,86.9240
117.5400,86.9050
118.0400,86.9050
118.1357,86.9240
118.2168,86.9782
118.2710,87.0593
118.2900,87.1550
118.2900,88.1050
118.2710,88.2007
118.2168,88.2818
118.1357,88.3360
118.0400,88.3550
117.5400,88.3550
117.4443,88.3360
117.3632,88.2818
117.3090,88.2007
117.2900,88.1050
Z" /> 
<path style="fill:#D864FF; fill-opacity:0.4000; stroke:none;fill-rule:evenodd;"
d="M 183.1018,116.7266
184.8018,116.7266
184.8018,118.4266
183.1018,118.4266
Z" /> 
</g>
<g style="fill:#D864FF; fill-opacity:0.4000; stroke:none;">
<circle cx="181.4118" cy="117.5766" r="0.8500" /> 
<path style="fill:#D864FF; fill-opacity:0.4000; stroke:none;fill-rule:evenodd;"
d="M 108.3700,77.0500
108.3700,75.3500
110.0700,75.3500
110.0700,77.0500
Z" /> 
<circle cx="109.2200" cy="78.7400" r="0.8500" /> 
<circle cx="109.2200" cy="81.2800" r="0.8500" /> 
<circle cx="109.2200" cy="83.8200" r="0.8500" /> 
<path style="fill:#D864FF; fill-opacity:0.4000; stroke:none;fill-rule:evenodd;"
d="M 131.1276,61.7997
132.7276,61.7997
132.7276,63.3997
131.1276,63.3997
Z" /> 
<circle cx="131.9276" cy="65.0997" r="0.8000" /> 
<path style="fill:#D864FF; fill-opacity:0.4000; stroke:none;fill-rule:evenodd;"
d="M 115.2300,74.7950
115.2456,74.6880
115.2998,74.5771
115.3871,74.4898
115.4980,74.4356
115.6050,74.4200
116.8550,74.4200
116.9620,74.4356
117.0729,74.4898
117.1602,74.5771
117.2144,74.6880
117.2300,74.7950
117.2300,75.5450
117.2144,75.6520
117.1602,75.7629
117.0729,75.8502
116.9620,75.9044
116.8550,75.9200
115.6050,75.9200
115.4980,75.9044
115.3871,75.8502
115.2998,75.7629
115.2456,75.6520
115.2300,75.5450
Z" /> 
<path style="fill:#D864FF; fill-opacity:0.4000; stroke:none;fill-rule:evenodd;"
d="M 115.2300,77.0950
115.2456,76.9880
115.2998,76.8771
115.3871,76.7898
115.4980,76.7356
115.6050,76.7200
116.8550,76.7200
116.9620,76.7356
117.0729,76.7898
117.1602,76.8771
117.2144,76.9880
117.2300,77.0950
117.2300,77.8450
117.2144,77.9520
117.1602,78.0629
117.0729,78.1502
116.9620,78.2044
116.8550,78.2200
115.6050,78.2200
115.4980,78.2044
115.3871,78.1502
115.2998,78.0629
115.2456,77.9520
115.2300,77.8450
Z" /> 
<path style="fill:#D864FF; fill-opacity:0.4000; stroke:none;fill-rule:evenodd;"
d="M 121.5300,76.0700
121.5414,75.9637
121.5912,75.8304
121.6764,75.7164
121.7904,75.6312
121.9237,75.5814
122.0300,75.5700
123.0300,75.5700
123.1363,75.5814
123.2696,75.6312
123.3836,75.7164
123.4688,75.8304
123.5186,75.9637
123.5300,76.0700
123.5300,78.8700
123.5186,78.9763
123.4688,79.1096
123.3836,79.2236
123.2696,79.3088
123.1363,79.3586
123.0300,79.3700
122.0300,79.3700
121.9237,79.3586
121.7904,79.3088
121.6764,79.2236
121.5912,79.1096
121.5414,78.9763
121.5300,78.8700
Z" /> 
<path style="fill:#D864FF; fill-opacity:0.4000; stroke:none;fill-rule:evenodd;"
d="M 115.2300,79.3950
115.2456,79.2880
115.2998,79.1771
115.3871,79.0898
115.4980,79.0356
115.6050,79.0200
116.8550,79.0200
116.9620,79.0356
117.0729,79.0898
117.1602,79.1771
117.2144,79.2880
117.2300,79.3950
117.2300,80.1450
117.2144,80.2520
117.1602,80.3629
117.0729,80.4502
116.9620,80.5044
116.8550,80.5200
115.6050,80.5200
115.4980,80.5044
115.3871,80.4502
115.2998,80.3629
115.2456,80.2520
115.2300,80.1450
Z" /> 
<path style="fill:#D864FF; fill-opacity:0.4000; stroke:none;fill-rule:evenodd;"
d="M 150.3298,140.9064
148.7298,140.9064
148.7298,139.3064
150.3298,139.3064
Z" /> 
</g>
<g style="fill:#D864FF; fill-opacity:0.4000; stroke:none;">
<circle cx="152.0698" cy="140.1064" r="0.8000" /> 
<circle cx="154.6098" cy="140.1064" r="0.8000" /> 
<circle cx="157.1498" cy="140.1064" r="0.8000" /> 
<circle cx="157.1498" cy="132.4864" r="0.8000" /> 
<circle cx="154.6098" cy="132.4864" r="0.8000" /> 
<circle cx="152.0698" cy="132.4864" r="0.8000" /> 
<circle cx="149.5298" cy="132.4864" r="0.8000" /> 
<path style="fill:#D864FF; fill-opacity:0.4000; stroke:none;fill-rule:evenodd;"
d="M 157.7366,112.5856
157.7366,114.1856
156.1366,114.1856
156.1366,112.5856
Z" /> 
<circle cx="149.3366" cy="113.3856" r="0.8000" /> 
<path style="fill:none; 
stroke:#D0D2CD; stroke-width:0.0500; stroke-opacity:1; 
stroke-linecap:round; stroke-linejoin:round;fill:none"
d="M 103.0000,51.0000
203.0000,51.0000
203.0000,151.0000
103.0000,151.0000
Z" /> 
</g>
<g style="fill:#D0D2CD; fill-opacity:1.0000; stroke:none;">
<circle cx="105.1710" cy="60.9600" r="0.5000" /> 
</g>
<g style="fill:#D0D2CD; fill-opacity:1.0000; stroke:none;">
<circle cx="107.7110" cy="60.9600" r="0.5000" /> 
</g>
<g style="fill:#D0D2CD; fill-opacity:1.0000; stroke:none;">
<circle cx="110.2510" cy="60.9600" r="0.5000" /> 
</g>
<g style="fill:#D0D2CD; fill-opacity:1.0000; stroke:none;">
<circle cx="180.9750" cy="73.6600" r="0.5000" /> 
</g>
<g style="fill:#D0D2CD; fill-opacity:1.0000; stroke:none;">
<circle cx="178.4350" cy="73.6600" r="0.5000" /> 
</g>
<g style="fill:#D0D2CD; fill-opacity:1.0000; stroke:none;">
<circle cx="197.8914" cy="112.9550" r="0.5000" /> 
</g>
<g style="fill:#D0D2CD; fill-opacity:1.0000; stroke:none;">
<circle cx="197.8914" cy="115.4950" r="0.5000" /> 
</g>
<g style="fill:#D0D2CD; fill-opacity:1.0000; stroke:none;">
<circle cx="197.8914" cy="118.0350" r="0.5000" /> 
</g>
<g style="fill:#D0D2CD; fill-opacity:1.0000; stroke:none;">
<circle cx="197.8914" cy="120.5750" r="0.5000" /> 
</g>
<g style="fill:#D0D2CD; fill-opacity:1.0000; stroke:none;">
<circle cx="200.9140" cy="73.5870" r="0.4500" /> 
</g>
<g style="fill:#D0D2CD; fill-opacity:1.0000; stroke:none;">
<circle cx="198.3740" cy="73.5870" r="0.4500" /> 
</g>
<g style="fill:#D0D2CD; fill-opacity:1.0000; stroke:none;">
<circle cx="200.9140" cy="67.9085" r="0.4500" /> 
</g>
<g style="fill:#D0D2CD; fill-opacity:1.0000; stroke:none;">
<circle cx="198.3740" cy="67.9085" r="0.4500" /> 
</g>
<g style="fill:#D0D2CD; fill-opacity:1.0000; stroke:none;">
<circle cx="183.9518" cy="121.3104" r="0.5000" /> 
</g>
<g style="fill:#D0D2CD; fill-opacity:1.0000; stroke:none;">
<circle cx="181.4118" cy="121.3104" r="0.5000" /> 
</g>
<g style="fill:#D0D2CD; fill-opacity:1.0000; stroke:none;">
<circle cx="105.4100" cy="111.3282" r="0.5000" /> 
</g>
<g style="fill:#D0D2CD; fill-opacity:1.0000; stroke:none;">
<circle cx="105.4100" cy="113.8682" r="0.5000" /> 
</g>
<g style="fill:#D0D2CD; fill-opacity:1.0000; stroke:none;">
<circle cx="105.4100" cy="116.4082" r="0.5000" /> 
</g>
<g style="fill:#D0D2CD; fill-opacity:1.0000; stroke:none;">
<circle cx="105.4100" cy="118.9482" r="0.5000" /> 
</g>
<g style="fill:#D0D2CD; fill-opacity:1.0000; stroke:none;">
<circle cx="129.4276" cy="69.7992" r="0.4000" /> 
</g>
<g style="fill:#D0D2CD; fill-opacity:1.0000; stroke:none;">
<circle cx="134.4276" cy="69.7992" r="0.4000" /> 
</g>
<g style="fill:#D0D2CD; fill-opacity:1.0000; stroke:none;">
<circle cx="121.7980" cy="140.1068" r="0.4000" /> 
</g>
<g style="fill:#D0D2CD; fill-opacity:1.0000; stroke:none;">
<circle cx="124.3380" cy="140.1068" r="0.4000" /> 
</g>
<g style="fill:#D0D2CD; fill-opacity:1.0000; stroke:none;">
<circle cx="126.8780" cy="140.1068" r="0.4000" /> 
</g>
<g style="fill:#D0D2CD; fill-opacity:1.0000; stroke:none;">
<circle cx="129.4180" cy="140.1068" r="0.4000" /> 
</g>
<g style="fill:#D0D2CD; fill-opacity:1.0000; stroke:none;">
<circle cx="129.4180" cy="132.4868" r="0.4000" /> 
</g>
<g style="fill:#D0D2CD; fill-opacity:1.0000; stroke:none;">
<circle cx="126.8780" cy="132.4868" r="0.4000" /> 
</g>
<g style="fill:#D0D2CD; fill-opacity:1.0000; stroke:none;">
<circle cx="124.3380" cy="132.4868" r="0.4000" /> 
</g>
<g style="fill:#D0D2CD; fill-opacity:1.0000; stroke:none;">
<circle cx="121.7980" cy="132.4868" r="0.4000" /> 
</g>
<g style="fill:#D0D2CD; fill-opacity:1.0000; stroke:none;">
<circle cx="193.5988" cy="90.9928" r="0.5000" /> 
</g>
<g style="fill:#D0D2CD; fill-opacity:1.0000; stroke:none;">
<circle cx="193.5988" cy="93.5328" r="0.5000" /> 
</g>
<g style="fill:#D0D2CD; fill-opacity:1.0000; stroke:none;">
<circle cx="193.5988" cy="96.0728" r="0.5000" /> 
</g>
<g style="fill:#D0D2CD; fill-opacity:1.0000; stroke:none;">
<circle cx="193.5988" cy="98.6128" r="0.5000" /> 
</g>
<g style="fill:#D0D2CD; fill-opacity:1.0000; stroke:none;">
<circle cx="105.2600" cy="135.5450" r="0.5500" /> 
</g>
<g style="fill:#D0D2CD; fill-opacity:1.0000; stroke:none;">
<circle cx="111.7600" cy="135.5450" r="0.5500" /> 
</g>
<g style="fill:#D0D2CD; fill-opacity:1.0000; stroke:none;">
<circle cx="105.2600" cy="140.0450" r="0.5500" /> 
</g>
<g style="fill:#D0D2CD; fill-opacity:1.0000; stroke:none;">
<circle cx="111.7600" cy="140.0450" r="0.5500" /> 
</g>
<g style="fill:#D0D2CD; fill-opacity:1.0000; stroke:none;">
<circle cx="183.9518" cy="113.6904" r="0.5000" /> 
</g>
<g style="fill:#D0D2CD; fill-opacity:1.0000; stroke:none;">
<circle cx="181.4118" cy="113.6904" r="0.5000" /> 
</g>
<g style="fill:#D0D2CD; fill-opacity:1.0000; stroke:none;">
<circle cx="184.5400" cy="79.2655" r="0.4000" /> 
</g>
<g style="fill:#D0D2CD; fill-opacity:1.0000; stroke:none;">
<circle cx="194.7000" cy="79.2655" r="0.4000" /> 
</g>
<g style="fill:#D0D2CD; fill-opacity:1.0000; stroke:none;">
<circle cx="173.9900" cy="54.6100" r="0.5000" /> 
</g>
<g style="fill:#D0D2CD; fill-opacity:1.0000; stroke:none;">
<circle cx="171.4500" cy="54.6100" r="0.5000" /> 
</g>
<g style="fill:#D0D2CD; fill-opacity:1.0000; stroke:none;">
<circle cx="172.0596" cy="84.8360" r="0.5000" /> 
</g>
<g style="fill:#D0D2CD; fill-opacity:1.0000; stroke:none;">
<circle cx="172.0596" cy="87.3760" r="0.5000" /> 
</g>
<g style="fill:#D0D2CD; fill-opacity:1.0000; stroke:none;">
<circle cx="164.7444" cy="146.7104" r="0.3750" /> 
</g>
<g style="fill:#D0D2CD; fill-opacity:1.0000; stroke:none;">
<circle cx="166.0144" cy="146.7104" r="0.3750" /> 
</g>
<g style="fill:#D0D2CD; fill-opacity:1.0000; stroke:none;">
<circle cx="167.2844" cy="146.7104" r="0.3750" /> 
</g>
<g style="fill:#D0D2CD; fill-opacity:1.0000; stroke:none;">
<circle cx="123.5352" cy="147.4728" r="0.5000" /> 
</g>
<g style="fill:#D0D2CD; fill-opacity:1.0000; stroke:none;">
<circle cx="126.0752" cy="147.4728" r="0.5000" /> 
</g>
<g style="fill:#D0D2CD; fill-opacity:1.0000; stroke:none;">
<circle cx="128.6152" cy="147.4728" r="0.5000" /> 
</g>
<g style="fill:#D0D2CD; fill-opacity:1.0000; stroke:none;">
<circle cx="131.1552" cy="147.4728" r="0.5000" /> 
</g>
<g style="fill:#D0D2CD; fill-opacity:1.0000; stroke:none;">
<circle cx="133.6952" cy="147.4728" r="0.5000" /> 
</g>
<g style="fill:#D0D2CD; fill-opacity:1.0000; stroke:none;">
<circle cx="136.2352" cy="147.4728" r="0.5000" /> 
</g>
<g style="fill:#D0D2CD; fill-opacity:1.0000; stroke:none;">
<circle cx="138.7752" cy="147.4728" r="0.5000" /> 
</g>
<g style="fill:#D0D2CD; fill-opacity:1.0000; stroke:none;">
<circle cx="141.3152" cy="147.4728" r="0.5000" /> 
</g>
<g style="fill:#D0D2CD; fill-opacity:1.0000; stroke:none;">
<circle cx="151.7396" cy="144.3686" r="0.5000" /> 
</g>
<g style="fill:#D0D2CD; fill-opacity:1.0000; stroke:none;">
<circle cx="151.7396" cy="146.9086" r="0.5000" /> 
</g>
<g style="fill:#D0D2CD; fill-opacity:1.0000; stroke:none;">
<circle cx="172.0596" cy="66.0858" r="0.5000" /> 
</g>
<g style="fill:#D0D2CD; fill-opacity:1.0000; stroke:none;">
<circle cx="172.0596" cy="68.6258" r="0.5000" /> 
</g>
<g style="fill:#D0D2CD; fill-opacity:1.0000; stroke:none;">
<circle cx="199.0000" cy="147.0000" r="1.5000" /> 
</g>
<g style="fill:#D0D2CD; fill-opacity:1.0000; stroke:none;">
<circle cx="107.8310" cy="70.9930" r="0.6500" /> 
</g>
<g style="fill:#D0D2CD; fill-opacity:1.0000; stroke:none;">
<circle cx="107.8310" cy="65.9930" r="0.6500" /> 
</g>
<g style="fill:#D0D2CD; fill-opacity:1.0000; stroke:none;">
<circle cx="172.0596" cy="78.5876" r="0.5000" /> 
</g>
<g style="fill:#D0D2CD; fill-opacity:1.0000; stroke:none;">
<circle cx="172.0596" cy="81.1276" r="0.5000" /> 
</g>
<g style="fill:#D0D2CD; fill-opacity:1.0000; stroke:none;">
<circle cx="105.2600" cy="123.7700" r="0.5500" /> 
</g>
<g style="fill:#D0D2CD; fill-opacity:1.0000; stroke:none;">
<circle cx="111.7600" cy="123.7700" r="0.5500" /> 
</g>
<g style="fill:#D0D2CD; fill-opacity:1.0000; stroke:none;">
<circle cx="105.2600" cy="128.2700" r="0.5500" /> 
</g>
<g style="fill:#D0D2CD; fill-opacity:1.0000; stroke:none;">
<circle cx="111.7600" cy="128.2700" r="0.5500" /> 
</g>
<g style="fill:#D0D2CD; fill-opacity:1.0000; stroke:none;">
<circle cx="180.9750" cy="85.0900" r="0.5000" /> 
</g>
<g style="fill:#D0D2CD; fill-opacity:1.0000; stroke:none;">
<circle cx="178.4350" cy="85.0900" r="0.5000" /> 
</g>
<g style="fill:#D0D2CD; fill-opacity:1.0000; stroke:none;">
<circle cx="172.0850" cy="59.7408" r="0.5000" /> 
</g>
<g style="fill:#D0D2CD; fill-opacity:1.0000; stroke:none;">
<circle cx="172.0850" cy="62.2808" r="0.5000" /> 
</g>
<g style="fill:#D0D2CD; fill-opacity:1.0000; stroke:none;">
<circle cx="147.9042" cy="122.7836" r="0.4000" /> 
</g>
<g style="fill:#D0D2CD; fill-opacity:1.0000; stroke:none;">
<circle cx="158.0642" cy="122.7836" r="0.4000" /> 
</g>
<g style="fill:#D0D2CD; fill-opacity:1.0000; stroke:none;">
<circle cx="123.5098" cy="124.3842" r="0.5000" /> 
</g>
<g style="fill:#D0D2CD; fill-opacity:1.0000; stroke:none;">
<circle cx="126.0498" cy="124.3842" r="0.5000" /> 
</g>
<g style="fill:#D0D2CD; fill-opacity:1.0000; stroke:none;">
<circle cx="128.5898" cy="124.3842" r="0.5000" /> 
</g>
<g style="fill:#D0D2CD; fill-opacity:1.0000; stroke:none;">
<circle cx="131.1298" cy="124.3842" r="0.5000" /> 
</g>
<g style="fill:#D0D2CD; fill-opacity:1.0000; stroke:none;">
<circle cx="133.6698" cy="124.3842" r="0.5000" /> 
</g>
<g style="fill:#D0D2CD; fill-opacity:1.0000; stroke:none;">
<circle cx="136.2098" cy="124.3842" r="0.5000" /> 
</g>
<g style="fill:#D0D2CD; fill-opacity:1.0000; stroke:none;">
<circle cx="138.7498" cy="124.3842" r="0.5000" /> 
</g>
<g style="fill:#D0D2CD; fill-opacity:1.0000; stroke:none;">
<circle cx="141.2898" cy="124.3842" r="0.5000" /> 
</g>
<g style="fill:#D0D2CD; fill-opacity:1.0000; stroke:none;">
<circle cx="184.5400" cy="62.2300" r="0.4000" /> 
</g>
<g style="fill:#D0D2CD; fill-opacity:1.0000; stroke:none;">
<circle cx="194.7000" cy="62.2300" r="0.4000" /> 
</g>
<g style="fill:#D0D2CD; fill-opacity:1.0000; stroke:none;">
<circle cx="184.9893" cy="53.0712" r="0.5500" /> 
</g>
<g style="fill:#D0D2CD; fill-opacity:1.0000; stroke:none;">
<circle cx="191.4893" cy="53.0712" r="0.5500" /> 
</g>
<g style="fill:#D0D2CD; fill-opacity:1.0000; stroke:none;">
<circle cx="184.9893" cy="57.5712" r="0.5500" /> 
</g>
<g style="fill:#D0D2CD; fill-opacity:1.0000; stroke:none;">
<circle cx="191.4893" cy="57.5712" r="0.5500" /> 
</g>
<g style="fill:#D0D2CD; fill-opacity:1.0000; stroke:none;">
<circle cx="134.9398" cy="140.1068" r="0.4000" /> 
</g>
<g style="fill:#D0D2CD; fill-opacity:1.0000; stroke:none;">
<circle cx="137.4798" cy="140.1068" r="0.4000" /> 
</g>
<g style="fill:#D0D2CD; fill-opacity:1.0000; stroke:none;">
<circle cx="140.0198" cy="140.1068" r="0.4000" /> 
</g>
<g style="fill:#D0D2CD; fill-opacity:1.0000; stroke:none;">
<circle cx="142.5598" cy="140.1068" r="0.4000" /> 
</g>
<g style="fill:#D0D2CD; fill-opacity:1.0000; stroke:none;">
<circle cx="142.5598" cy="132.4868" r="0.4000" /> 
</g>
<g style="fill:#D0D2CD; fill-opacity:1.0000; stroke:none;">
<circle cx="140.0198" cy="132.4868" r="0.4000" /> 
</g>
<g style="fill:#D0D2CD; fill-opacity:1.0000; stroke:none;">
<circle cx="137.4798" cy="132.4868" r="0.4000" /> 
</g>
<g style="fill:#D0D2CD; fill-opacity:1.0000; stroke:none;">
<circle cx="134.9398" cy="132.4868" r="0.4000" /> 
</g>
<g style="fill:#D0D2CD; fill-opacity:1.0000; stroke:none;">
<circle cx="181.2998" cy="92.6742" r="0.5000" /> 
</g>
<g style="fill:#D0D2CD; fill-opacity:1.0000; stroke:none;">
<circle cx="181.2998" cy="95.2142" r="0.5000" /> 
</g>
<g style="fill:#D0D2CD; fill-opacity:1.0000; stroke:none;">
<circle cx="181.2998" cy="97.7542" r="0.5000" /> 
</g>
<g style="fill:#D0D2CD; fill-opacity:1.0000; stroke:none;">
<circle cx="121.9916" cy="97.0534" r="0.5000" /> 
</g>
<g style="fill:#D0D2CD; fill-opacity:1.0000; stroke:none;">
<circle cx="119.4516" cy="97.0534" r="0.5000" /> 
</g>
<g style="fill:#D0D2CD; fill-opacity:1.0000; stroke:none;">
<circle cx="116.9116" cy="97.0534" r="0.5000" /> 
</g>
<g style="fill:#D0D2CD; fill-opacity:1.0000; stroke:none;">
<circle cx="109.2200" cy="99.0600" r="0.5000" /> 
</g>
<g style="fill:#D0D2CD; fill-opacity:1.0000; stroke:none;">
<circle cx="109.2200" cy="101.6000" r="0.5000" /> 
</g>
<g style="fill:#D0D2CD; fill-opacity:1.0000; stroke:none;">
<circle cx="109.2200" cy="104.1400" r="0.5000" /> 
</g>
<g style="fill:#D0D2CD; fill-opacity:1.0000; stroke:none;">
<circle cx="109.2200" cy="106.6800" r="0.5000" /> 
</g>
<g style="fill:#D0D2CD; fill-opacity:1.0000; stroke:none;">
<circle cx="180.9750" cy="67.9450" r="0.5000" /> 
</g>
<g style="fill:#D0D2CD; fill-opacity:1.0000; stroke:none;">
<circle cx="178.4350" cy="67.9450" r="0.5000" /> 
</g>
<g style="fill:#D0D2CD; fill-opacity:1.0000; stroke:none;">
<circle cx="132.1054" cy="111.6330" r="0.5000" /> 
</g>
<g style="fill:#D0D2CD; fill-opacity:1.0000; stroke:none;">
<circle cx="134.6454" cy="111.6330" r="0.5000" /> 
</g>
<g style="fill:#D0D2CD; fill-opacity:1.0000; stroke:none;">
<circle cx="184.4800" cy="84.9440" r="0.4000" /> 
</g>
<g style="fill:#D0D2CD; fill-opacity:1.0000; stroke:none;">
<circle cx="194.6400" cy="84.9440" r="0.4000" /> 
</g>
<g style="fill:#D0D2CD; fill-opacity:1.0000; stroke:none;">
<circle cx="185.4708" cy="146.6850" r="0.3750" /> 
</g>
<g style="fill:#D0D2CD; fill-opacity:1.0000; stroke:none;">
<circle cx="186.7408" cy="146.6850" r="0.3750" /> 
</g>
<g style="fill:#D0D2CD; fill-opacity:1.0000; stroke:none;">
<circle cx="188.0108" cy="146.6850" r="0.3750" /> 
</g>
<g style="fill:#D0D2CD; fill-opacity:1.0000; stroke:none;">
<circle cx="193.5988" cy="102.9716" r="0.5000" /> 
</g>
<g style="fill:#D0D2CD; fill-opacity:1.0000; stroke:none;">
<circle cx="193.5988" cy="105.5116" r="0.5000" /> 
</g>
<g style="fill:#D0D2CD; fill-opacity:1.0000; stroke:none;">
<circle cx="200.9140" cy="62.2300" r="0.4500" /> 
</g>
<g style="fill:#D0D2CD; fill-opacity:1.0000; stroke:none;">
<circle cx="198.3740" cy="62.2300" r="0.4500" /> 
</g>
<g style="fill:#D0D2CD; fill-opacity:1.0000; stroke:none;">
<circle cx="174.4872" cy="145.7960" r="0.6500" /> 
</g>
<g style="fill:#D0D2CD; fill-opacity:1.0000; stroke:none;">
<circle cx="179.4872" cy="143.2960" r="0.6500" /> 
</g>
<g style="fill:#D0D2CD; fill-opacity:1.0000; stroke:none;">
<circle cx="174.4872" cy="140.7960" r="0.6500" /> 
</g>
<g style="fill:#D0D2CD; fill-opacity:1.0000; stroke:none;">
<circle cx="180.9750" cy="62.2300" r="0.5000" /> 
</g>
<g style="fill:#D0D2CD; fill-opacity:1.0000; stroke:none;">
<circle cx="178.4350" cy="62.2300" r="0.5000" /> 
</g>
<g style="fill:#D0D2CD; fill-opacity:1.0000; stroke:none;">
<circle cx="164.4854" cy="113.4110" r="0.5000" /> 
</g>
<g style="fill:#D0D2CD; fill-opacity:1.0000; stroke:none;">
<circle cx="167.0254" cy="113.4110" r="0.5000" /> 
</g>
<g style="fill:#D0D2CD; fill-opacity:1.0000; stroke:none;">
<circle cx="115.5700" cy="144.7800" r="0.4000" /> 
</g>
<g style="fill:#D0D2CD; fill-opacity:1.0000; stroke:none;">
<circle cx="115.5700" cy="134.6200" r="0.4000" /> 
</g>
<g style="fill:#D0D2CD; fill-opacity:1.0000; stroke:none;">
<circle cx="167.6400" cy="122.8090" r="0.4000" /> 
</g>
<g style="fill:#D0D2CD; fill-opacity:1.0000; stroke:none;">
<circle cx="164.6400" cy="122.8090" r="0.4000" /> 
</g>
<g style="fill:#D0D2CD; fill-opacity:1.0000; stroke:none;">
<circle cx="198.1200" cy="138.4300" r="0.6000" /> 
</g>
<g style="fill:#D0D2CD; fill-opacity:1.0000; stroke:none;">
<circle cx="198.1200" cy="133.4300" r="0.6000" /> 
</g>
<g style="fill:#D0D2CD; fill-opacity:1.0000; stroke:none;">
<circle cx="198.1200" cy="128.4300" r="0.6000" /> 
</g>
<g style="fill:#D0D2CD; fill-opacity:1.0000; stroke:none;">
<circle cx="183.9518" cy="109.9312" r="0.5000" /> 
</g>
<g style="fill:#D0D2CD; fill-opacity:1.0000; stroke:none;">
<circle cx="181.4118" cy="109.9312" r="0.5000" /> 
</g>
<g style="fill:#D0D2CD; fill-opacity:1.0000; stroke:none;">
<circle cx="200.9140" cy="84.9440" r="0.4500" /> 
</g>
<g style="fill:#D0D2CD; fill-opacity:1.0000; stroke:none;">
<circle cx="198.3740" cy="84.9440" r="0.4500" /> 
</g>
<g style="fill:#D0D2CD; fill-opacity:1.0000; stroke:none;">
<circle cx="125.5522" cy="109.1184" r="0.5000" /> 
</g>
<g style="fill:#D0D2CD; fill-opacity:1.0000; stroke:none;">
<circle cx="125.5522" cy="111.6584" r="0.5000" /> 
</g>
<g style="fill:#D0D2CD; fill-opacity:1.0000; stroke:none;">
<circle cx="125.5522" cy="114.1984" r="0.5000" /> 
</g>
<g style="fill:#D0D2CD; fill-opacity:1.0000; stroke:none;">
<circle cx="112.3596" cy="117.3480" r="0.5000" /> 
</g>
<g style="fill:#D0D2CD; fill-opacity:1.0000; stroke:none;">
<circle cx="114.8996" cy="117.3480" r="0.5000" /> 
</g>
<g style="fill:#D0D2CD; fill-opacity:1.0000; stroke:none;">
<circle cx="180.4670" cy="104.5972" r="0.5000" /> 
</g>
<g style="fill:#D0D2CD; fill-opacity:1.0000; stroke:none;">
<circle cx="177.9270" cy="104.5972" r="0.5000" /> 
</g>
<g style="fill:#D0D2CD; fill-opacity:1.0000; stroke:none;">
<circle cx="177.4898" cy="92.6742" r="0.5000" /> 
</g>
<g style="fill:#D0D2CD; fill-opacity:1.0000; stroke:none;">
<circle cx="177.4898" cy="95.2142" r="0.5000" /> 
</g>
<g style="fill:#D0D2CD; fill-opacity:1.0000; stroke:none;">
<circle cx="177.4898" cy="97.7542" r="0.5000" /> 
</g>
<g style="fill:#D0D2CD; fill-opacity:1.0000; stroke:none;">
<circle cx="179.5122" cy="128.3320" r="0.5000" /> 
</g>
<g style="fill:#D0D2CD; fill-opacity:1.0000; stroke:none;">
<circle cx="176.9722" cy="128.3320" r="0.5000" /> 
</g>
<g style="fill:#D0D2CD; fill-opacity:1.0000; stroke:none;">
<circle cx="174.4322" cy="128.3320" r="0.5000" /> 
</g>
<g style="fill:#D0D2CD; fill-opacity:1.0000; stroke:none;">
<circle cx="179.4002" cy="134.9360" r="0.5000" /> 
</g>
<g style="fill:#D0D2CD; fill-opacity:1.0000; stroke:none;">
<circle cx="176.8602" cy="134.9360" r="0.5000" /> 
</g>
<g style="fill:#D0D2CD; fill-opacity:1.0000; stroke:none;">
<circle cx="174.3202" cy="134.9360" r="0.5000" /> 
</g>
<g style="fill:#D0D2CD; fill-opacity:1.0000; stroke:none;">
<circle cx="123.5098" cy="128.1942" r="0.5000" /> 
</g>
<g style="fill:#D0D2CD; fill-opacity:1.0000; stroke:none;">
<circle cx="126.0498" cy="128.1942" r="0.5000" /> 
</g>
<g style="fill:#D0D2CD; fill-opacity:1.0000; stroke:none;">
<circle cx="128.5898" cy="128.1942" r="0.5000" /> 
</g>
<g style="fill:#D0D2CD; fill-opacity:1.0000; stroke:none;">
<circle cx="131.1298" cy="128.1942" r="0.5000" /> 
</g>
<g style="fill:#D0D2CD; fill-opacity:1.0000; stroke:none;">
<circle cx="133.6698" cy="128.1942" r="0.5000" /> 
</g>
<g style="fill:#D0D2CD; fill-opacity:1.0000; stroke:none;">
<circle cx="136.2098" cy="128.1942" r="0.5000" /> 
</g>
<g style="fill:#D0D2CD; fill-opacity:1.0000; stroke:none;">
<circle cx="138.7498" cy="128.1942" r="0.5000" /> 
</g>
<g style="fill:#D0D2CD; fill-opacity:1.0000; stroke:none;">
<circle cx="141.2898" cy="128.1942" r="0.5000" /> 
</g>
<g style="fill:#D0D2CD; fill-opacity:1.0000; stroke:none;">
<circle cx="105.3850" cy="87.6400" r="0.5000" /> 
</g>
<g style="fill:#D0D2CD; fill-opacity:1.0000; stroke:none;">
<circle cx="105.3850" cy="90.1800" r="0.5000" /> 
</g>
<g style="fill:#D0D2CD; fill-opacity:1.0000; stroke:none;">
<circle cx="105.3850" cy="92.7200" r="0.5000" /> 
</g>
<g style="fill:#D0D2CD; fill-opacity:1.0000; stroke:none;">
<circle cx="105.3850" cy="95.2600" r="0.5000" /> 
</g>
<g style="fill:#D0D2CD; fill-opacity:1.0000; stroke:none;">
<circle cx="184.5400" cy="73.5870" r="0.4000" /> 
</g>
<g style="fill:#D0D2CD; fill-opacity:1.0000; stroke:none;">
<circle cx="194.7000" cy="73.5870" r="0.4000" /> 
</g>
<g style="fill:#D0D2CD; fill-opacity:1.0000; stroke:none;">
<circle cx="163.4490" cy="134.5134" r="0.5000" /> 
</g>
<g style="fill:#D0D2CD; fill-opacity:1.0000; stroke:none;">
<circle cx="163.4490" cy="137.0534" r="0.5000" /> 
</g>
<g style="fill:#D0D2CD; fill-opacity:1.0000; stroke:none;">
<circle cx="147.9296" cy="144.3686" r="0.5000" /> 
</g>
<g style="fill:#D0D2CD; fill-opacity:1.0000; stroke:none;">
<circle cx="147.9296" cy="146.9086" r="0.5000" /> 
</g>
<g style="fill:#D0D2CD; fill-opacity:1.0000; stroke:none;">
<circle cx="184.5400" cy="67.9085" r="0.4000" /> 
</g>
<g style="fill:#D0D2CD; fill-opacity:1.0000; stroke:none;">
<circle cx="194.7000" cy="67.9085" r="0.4000" /> 
</g>
<g style="fill:#D0D2CD; fill-opacity:1.0000; stroke:none;">
<circle cx="167.3098" cy="140.8684" r="0.4000" /> 
</g>
<g style="fill:#D0D2CD; fill-opacity:1.0000; stroke:none;">
<circle cx="167.3098" cy="130.7084" r="0.4000" /> 
</g>
<g style="fill:#D0D2CD; fill-opacity:1.0000; stroke:none;">
<circle cx="199.0000" cy="55.0000" r="1.5000" /> 
</g>
<g style="fill:#D0D2CD; fill-opacity:1.0000; stroke:none;">
<circle cx="105.3850" cy="76.2000" r="0.5000" /> 
</g>
<g style="fill:#D0D2CD; fill-opacity:1.0000; stroke:none;">
<circle cx="105.3850" cy="78.7400" r="0.5000" /> 
</g>
<g style="fill:#D0D2CD; fill-opacity:1.0000; stroke:none;">
<circle cx="105.3850" cy="81.2800" r="0.5000" /> 
</g>
<g style="fill:#D0D2CD; fill-opacity:1.0000; stroke:none;">
<circle cx="105.3850" cy="83.8200" r="0.5000" /> 
</g>
<g style="fill:#D0D2CD; fill-opacity:1.0000; stroke:none;">
<circle cx="197.4088" cy="90.9928" r="0.5000" /> 
</g>
<g style="fill:#D0D2CD; fill-opacity:1.0000; stroke:none;">
<circle cx="197.4088" cy="93.5328" r="0.5000" /> 
</g>
<g style="fill:#D0D2CD; fill-opacity:1.0000; stroke:none;">
<circle cx="197.4088" cy="96.0728" r="0.5000" /> 
</g>
<g style="fill:#D0D2CD; fill-opacity:1.0000; stroke:none;">
<circle cx="197.4088" cy="98.6128" r="0.5000" /> 
</g>
<g style="fill:#D0D2CD; fill-opacity:1.0000; stroke:none;">
<circle cx="105.3850" cy="99.0600" r="0.5000" /> 
</g>
<g style="fill:#D0D2CD; fill-opacity:1.0000; stroke:none;">
<circle cx="105.3850" cy="101.6000" r="0.5000" /> 
</g>
<g style="fill:#D0D2CD; fill-opacity:1.0000; stroke:none;">
<circle cx="105.3850" cy="104.1400" r="0.5000" /> 
</g>
<g style="fill:#D0D2CD; fill-opacity:1.0000; stroke:none;">
<circle cx="105.3850" cy="106.6800" r="0.5000" /> 
</g>
<g style="fill:#D0D2CD; fill-opacity:1.0000; stroke:none;">
<circle cx="123.5352" cy="143.6628" r="0.5000" /> 
</g>
<g style="fill:#D0D2CD; fill-opacity:1.0000; stroke:none;">
<circle cx="126.0752" cy="143.6628" r="0.5000" /> 
</g>
<g style="fill:#D0D2CD; fill-opacity:1.0000; stroke:none;">
<circle cx="128.6152" cy="143.6628" r="0.5000" /> 
</g>
<g style="fill:#D0D2CD; fill-opacity:1.0000; stroke:none;">
<circle cx="131.1552" cy="143.6628" r="0.5000" /> 
</g>
<g style="fill:#D0D2CD; fill-opacity:1.0000; stroke:none;">
<circle cx="133.6952" cy="143.6628" r="0.5000" /> 
</g>
<g style="fill:#D0D2CD; fill-opacity:1.0000; stroke:none;">
<circle cx="136.2352" cy="143.6628" r="0.5000" /> 
</g>
<g style="fill:#D0D2CD; fill-opacity:1.0000; stroke:none;">
<circle cx="138.7752" cy="143.6628" r="0.5000" /> 
</g>
<g style="fill:#D0D2CD; fill-opacity:1.0000; stroke:none;">
<circle cx="141.3152" cy="143.6628" r="0.5000" /> 
</g>
<g style="fill:#D0D2CD; fill-opacity:1.0000; stroke:none;">
<circle cx="107.0000" cy="54.9250" r="1.5000" /> 
</g>
<g style="fill:#D0D2CD; fill-opacity:1.0000; stroke:none;">
<circle cx="124.1350" cy="68.8848" r="0.5500" /> 
</g>
<g style="fill:#D0D2CD; fill-opacity:1.0000; stroke:none;">
<circle cx="124.1350" cy="66.3448" r="0.5500" /> 
</g>
<g style="fill:#D0D2CD; fill-opacity:1.0000; stroke:none;">
<circle cx="124.1350" cy="63.8048" r="0.5500" /> 
</g>
<g style="fill:#D0D2CD; fill-opacity:1.0000; stroke:none;">
<circle cx="139.6620" cy="62.0004" r="0.5100" /> 
</g>
<g style="fill:#D0D2CD; fill-opacity:1.0000; stroke:none;">
<circle cx="139.6620" cy="64.5404" r="0.5100" /> 
</g>
<g style="fill:#D0D2CD; fill-opacity:1.0000; stroke:none;">
<circle cx="139.6620" cy="67.0804" r="0.5100" /> 
</g>
<g style="fill:#D0D2CD; fill-opacity:1.0000; stroke:none;">
<circle cx="139.6620" cy="69.6204" r="0.5100" /> 
</g>
<g style="fill:#D0D2CD; fill-opacity:1.0000; stroke:none;">
<circle cx="139.6620" cy="72.1604" r="0.5100" /> 
</g>
<g style="fill:#D0D2CD; fill-opacity:1.0000; stroke:none;">
<circle cx="139.6620" cy="74.7004" r="0.5100" /> 
</g>
<g style="fill:#D0D2CD; fill-opacity:1.0000; stroke:none;">
<circle cx="139.6620" cy="77.2404" r="0.5100" /> 
</g>
<g style="fill:#D0D2CD; fill-opacity:1.0000; stroke:none;">
<circle cx="139.6620" cy="79.7804" r="0.5100" /> 
</g>
<g style="fill:#D0D2CD; fill-opacity:1.0000; stroke:none;">
<circle cx="139.6620" cy="82.3204" r="0.5100" /> 
</g>
<g style="fill:#D0D2CD; fill-opacity:1.0000; stroke:none;">
<circle cx="139.6620" cy="84.8604" r="0.5100" /> 
</g>
<g style="fill:#D0D2CD; fill-opacity:1.0000; stroke:none;">
<circle cx="139.6620" cy="87.4004" r="0.5100" /> 
</g>
<g style="fill:#D0D2CD; fill-opacity:1.0000; stroke:none;">
<circle cx="139.6620" cy="89.9404" r="0.5100" /> 
</g>
<g style="fill:#D0D2CD; fill-opacity:1.0000; stroke:none;">
<circle cx="139.6620" cy="92.4804" r="0.5100" /> 
</g>
<g style="fill:#D0D2CD; fill-opacity:1.0000; stroke:none;">
<circle cx="139.6620" cy="95.0204" r="0.5100" /> 
</g>
<g style="fill:#D0D2CD; fill-opacity:1.0000; stroke:none;">
<circle cx="139.6620" cy="97.5604" r="0.5100" /> 
</g>
<g style="fill:#D0D2CD; fill-opacity:1.0000; stroke:none;">
<circle cx="165.0620" cy="97.5604" r="0.5100" /> 
</g>
<g style="fill:#D0D2CD; fill-opacity:1.0000; stroke:none;">
<circle cx="165.0620" cy="95.0204" r="0.5100" /> 
</g>
<g style="fill:#D0D2CD; fill-opacity:1.0000; stroke:none;">
<circle cx="165.0620" cy="92.4804" r="0.5100" /> 
</g>
<g style="fill:#D0D2CD; fill-opacity:1.0000; stroke:none;">
<circle cx="165.0620" cy="89.9404" r="0.5100" /> 
</g>
<g style="fill:#D0D2CD; fill-opacity:1.0000; stroke:none;">
<circle cx="165.0620" cy="87.4004" r="0.5100" /> 
</g>
<g style="fill:#D0D2CD; fill-opacity:1.0000; stroke:none;">
<circle cx="165.0620" cy="84.8604" r="0.5100" /> 
</g>
<g style="fill:#D0D2CD; fill-opacity:1.0000; stroke:none;">
<circle cx="165.0620" cy="82.3204" r="0.5100" /> 
</g>
<g style="fill:#D0D2CD; fill-opacity:1.0000; stroke:none;">
<circle cx="165.0620" cy="79.7804" r="0.5100" /> 
</g>
<g style="fill:#D0D2CD; fill-opacity:1.0000; stroke:none;">
<circle cx="165.0620" cy="77.2404" r="0.5100" /> 
</g>
<g style="fill:#D0D2CD; fill-opacity:1.0000; stroke:none;">
<circle cx="165.0620" cy="74.7004" r="0.5100" /> 
</g>
<g style="fill:#D0D2CD; fill-opacity:1.0000; stroke:none;">
<circle cx="165.0620" cy="72.1604" r="0.5100" /> 
</g>
<g style="fill:#D0D2CD; fill-opacity:1.0000; stroke:none;">
<circle cx="165.0620" cy="69.6204" r="0.5100" /> 
</g>
<g style="fill:#D0D2CD; fill-opacity:1.0000; stroke:none;">
<circle cx="165.0620" cy="67.0804" r="0.5100" /> 
</g>
<g style="fill:#D0D2CD; fill-opacity:1.0000; stroke:none;">
<circle cx="165.0620" cy="64.5404" r="0.5100" /> 
</g>
<g style="fill:#D0D2CD; fill-opacity:1.0000; stroke:none;">
<circle cx="165.0620" cy="62.0004" r="0.5100" /> 
</g>
<g style="fill:#D0D2CD; fill-opacity:1.0000; stroke:none;">
<circle cx="112.2884" cy="113.4364" r="0.5000" /> 
</g>
<g style="fill:#D0D2CD; fill-opacity:1.0000; stroke:none;">
<circle cx="114.8284" cy="113.4364" r="0.5000" /> 
</g>
<g style="fill:#D0D2CD; fill-opacity:1.0000; stroke:none;">
<circle cx="115.5700" cy="130.8100" r="0.4000" /> 
</g>
<g style="fill:#D0D2CD; fill-opacity:1.0000; stroke:none;">
<circle cx="115.5700" cy="120.6500" r="0.4000" /> 
</g>
<g style="fill:#D0D2CD; fill-opacity:1.0000; stroke:none;">
<circle cx="172.0596" cy="72.3392" r="0.5000" /> 
</g>
<g style="fill:#D0D2CD; fill-opacity:1.0000; stroke:none;">
<circle cx="172.0596" cy="74.8792" r="0.5000" /> 
</g>
<g style="fill:#D0D2CD; fill-opacity:1.0000; stroke:none;">
<circle cx="109.2200" cy="87.6300" r="0.5000" /> 
</g>
<g style="fill:#D0D2CD; fill-opacity:1.0000; stroke:none;">
<circle cx="109.2200" cy="90.1700" r="0.5000" /> 
</g>
<g style="fill:#D0D2CD; fill-opacity:1.0000; stroke:none;">
<circle cx="109.2200" cy="92.7100" r="0.5000" /> 
</g>
<g style="fill:#D0D2CD; fill-opacity:1.0000; stroke:none;">
<circle cx="109.2200" cy="95.2500" r="0.5000" /> 
</g>
<g style="fill:#D0D2CD; fill-opacity:1.0000; stroke:none;">
<circle cx="155.5496" cy="144.3686" r="0.5000" /> 
</g>
<g style="fill:#D0D2CD; fill-opacity:1.0000; stroke:none;">
<circle cx="155.5496" cy="146.9086" r="0.5000" /> 
</g>
<g style="fill:#D0D2CD; fill-opacity:1.0000; stroke:none;">
<circle cx="159.3596" cy="144.3686" r="0.5000" /> 
</g>
<g style="fill:#D0D2CD; fill-opacity:1.0000; stroke:none;">
<circle cx="159.3596" cy="146.9086" r="0.5000" /> 
</g>
<g style="fill:#D0D2CD; fill-opacity:1.0000; stroke:none;">
<circle cx="116.9416" cy="91.9734" r="0.5000" /> 
</g>
<g style="fill:#D0D2CD; fill-opacity:1.0000; stroke:none;">
<circle cx="119.4816" cy="91.9734" r="0.5000" /> 
</g>
<g style="fill:#D0D2CD; fill-opacity:1.0000; stroke:none;">
<circle cx="122.0216" cy="91.9734" r="0.5000" /> 
</g>
<g style="fill:#D0D2CD; fill-opacity:1.0000; stroke:none;">
<circle cx="124.5616" cy="91.9734" r="0.5000" /> 
</g>
<g style="fill:#D0D2CD; fill-opacity:1.0000; stroke:none;">
<circle cx="107.0000" cy="147.0000" r="1.5000" /> 
</g>
<g style="fill:#D0D2CD; fill-opacity:1.0000; stroke:none;">
<circle cx="180.9750" cy="79.3750" r="0.5000" /> 
</g>
<g style="fill:#D0D2CD; fill-opacity:1.0000; stroke:none;">
<circle cx="178.4350" cy="79.3750" r="0.5000" /> 
</g>
<g style="fill:#D0D2CD; fill-opacity:1.0000; stroke:none;">
<circle cx="197.4088" cy="102.9716" r="0.5000" /> 
</g>
<g style="fill:#D0D2CD; fill-opacity:1.0000; stroke:none;">
<circle cx="197.4088" cy="105.5116" r="0.5000" /> 
</g>
<g style="fill:#D0D2CD; fill-opacity:1.0000; stroke:none;">
<circle cx="200.9140" cy="79.2655" r="0.4500" /> 
</g>
<g style="fill:#D0D2CD; fill-opacity:1.0000; stroke:none;">
<circle cx="198.3740" cy="79.2655" r="0.4500" /> 
</g>
<g style="fill:#D0D2CD; fill-opacity:1.0000; stroke:none;">
<circle cx="183.9518" cy="117.5766" r="0.5000" /> 
</g>
<g style="fill:#D0D2CD; fill-opacity:1.0000; stroke:none;">
<circle cx="181.4118" cy="117.5766" r="0.5000" /> 
</g>
<g style="fill:#D0D2CD; fill-opacity:1.0000; stroke:none;">
<circle cx="109.2200" cy="76.2000" r="0.5000" /> 
</g>
<g style="fill:#D0D2CD; fill-opacity:1.0000; stroke:none;">
<circle cx="109.2200" cy="78.7400" r="0.5000" /> 
</g>
<g style="fill:#D0D2CD; fill-opacity:1.0000; stroke:none;">
<circle cx="109.2200" cy="81.2800" r="0.5000" /> 
</g>
<g style="fill:#D0D2CD; fill-opacity:1.0000; stroke:none;">
<circle cx="109.2200" cy="83.8200" r="0.5000" /> 
</g>
<g style="fill:#D0D2CD; fill-opacity:1.0000; stroke:none;">
<circle cx="131.9276" cy="62.5997" r="0.4000" /> 
</g>
<g style="fill:#D0D2CD; fill-opacity:1.0000; stroke:none;">
<circle cx="131.9276" cy="65.0997" r="0.4000" /> 
</g>
<g style="fill:#D0D2CD; fill-opacity:1.0000; stroke:none;">
<circle cx="149.5298" cy="140.1064" r="0.4000" /> 
</g>
<g style="fill:#D0D2CD; fill-opacity:1.0000; stroke:none;">
<circle cx="152.0698" cy="140.1064" r="0.4000" /> 
</g>
<g style="fill:#D0D2CD; fill-opacity:1.0000; stroke:none;">
<circle cx="154.6098" cy="140.1064" r="0.4000" /> 
</g>
<g style="fill:#D0D2CD; fill-opacity:1.0000; stroke:none;">
<circle cx="157.1498" cy="140.1064" r="0.4000" /> 
</g>
<g style="fill:#D0D2CD; fill-opacity:1.0000; stroke:none;">
<circle cx="157.1498" cy="132.4864" r="0.4000" /> 
</g>
<g style="fill:#D0D2CD; fill-opacity:1.0000; stroke:none;">
<circle cx="154.6098" cy="132.4864" r="0.4000" /> 
</g>
<g style="fill:#D0D2CD; fill-opacity:1.0000; stroke:none;">
<circle cx="152.0698" cy="132.4864" r="0.4000" /> 
</g>
<g style="fill:#D0D2CD; fill-opacity:1.0000; stroke:none;">
<circle cx="149.5298" cy="132.4864" r="0.4000" /> 
</g>
<g style="fill:#D0D2CD; fill-opacity:1.0000; stroke:none;">
<circle cx="156.9366" cy="113.3856" r="0.5000" /> 
</g>
<g style="fill:#D0D2CD; fill-opacity:1.0000; stroke:none;">
<circle cx="149.3366" cy="113.3856" r="0.5000" /> 
</g> 
</svg>
