<svg xmlns="http://www.w3.org/2000/svg" width="100" height="100" viewBox="0 0 100 100"><polygon id="boardOutline" points="16.0,16.0 84.0,16.0 84.0,84.0 16.0,84.0" fill="#c01c28" stroke="#607d8b" stroke-width="2"/><polygon points="34.998,46.36 35.203,46.381 35.227,46.385 35.46,46.427 35.688,46.484 35.91,46.557 36.125,46.645 36.333,46.747 36.533,46.862 36.724,46.99 36.906,47.131 37.078,47.284 37.24,47.447 37.39,47.622 37.529,47.807 37.655,48.002 37.768,48.206 37.868,48.418 37.953,48.639 38.007,48.81 38.065,49.039 38.106,49.272 38.131,49.508 38.139,49.746 38.131,49.985 38.107,50.223 38.088,50.343 38.04,50.572 37.975,50.798 37.895,51.019 37.799,51.234 37.689,51.443 37.565,51.644 37.426,51.835 37.293,51.997 37.126,52.173 36.949,52.336 36.762,52.486 36.566,52.621 36.36,52.742 36.145,52.849 35.921,52.941 35.915,52.944 35.692,53.017 35.465,53.075 35.232,53.118 34.993,53.145 34.99,53.145 34.947,53.147 34.893,53.149 34.831,53.151 34.764,53.152 34.698,53.152 34.635,53.151 34.58,53.15 34.536,53.149 34.521,53.148 34.328,53.128 34.146,53.101 33.972,53.066 33.802,53.022 33.632,52.968 33.543,52.936 33.322,52.844 33.109,52.738 32.905,52.617 32.71,52.483 32.525,52.335 32.351,52.175 32.282,52.102 32.345,52.102 32.35,52.131 32.369,52.152 32.369,52.152 32.392,52.159 32.425,52.156 32.464,52.145 32.494,52.132 32.53,52.109 32.567,52.078 32.606,52.037 32.648,51.986 32.694,51.921 32.734,51.863 32.843,51.704 32.955,51.55 33.074,51.399 33.2,51.248 33.336,51.095 33.484,50.939 33.598,50.823 33.715,50.708 33.827,50.599 33.939,50.495 34.053,50.392 34.171,50.289 34.296,50.183 34.431,50.073 34.544,49.981 34.588,49.946 34.64,49.905 34.697,49.861 34.759,49.813 34.823,49.763 34.889,49.713 34.955,49.663 35.019,49.614 35.079,49.569 35.134,49.527 35.183,49.491 35.224,49.46 35.256,49.438 35.276,49.424 35.282,49.42 35.285,49.419 35.287,49.42 35.289,49.424 35.291,49.432 35.293,49.445 35.294,49.464 35.295,49.49 35.296,49.524 35.296,49.568 35.297,49.621 35.297,49.687 35.297,49.764 35.297,49.856 35.297,49.961 35.296,50.083 35.296,50.128 35.296,50.263 35.296,50.382 35.296,50.486 35.296,50.577 35.297,50.656 35.298,50.724 35.299,50.782 35.301,50.832 35.303,50.875 35.306,50.912 35.309,50.944 35.313,50.973 35.317,50.999 35.323,51.025 35.329,51.05 35.334,51.071 35.366,51.174 35.408,51.265 35.459,51.344 35.518,51.411 35.584,51.463 35.657,51.501 35.704,51.516 35.789,51.53 35.878,51.527 35.97,51.509 36.064,51.476 36.16,51.428 36.257,51.367 36.355,51.291 36.454,51.203 36.551,51.102 36.648,50.989 36.744,50.864 36.837,50.729 36.928,50.582 37.015,50.426 37.063,50.333 37.09,50.277 37.11,50.234 37.123,50.202 37.128,50.179 37.128,50.163 37.122,50.152 37.117,50.148 37.104,50.144 37.09,50.148 37.074,50.162 37.055,50.188 37.032,50.226 37.004,50.277 36.983,50.319 36.9,50.476 36.814,50.62 36.727,50.751 36.637,50.868 36.547,50.971 36.456,51.059 36.365,51.132 36.274,51.188 36.256,51.198 36.175,51.232 36.1,51.251 36.031,51.255 35.966,51.244 35.926,51.229 35.863,51.191 35.807,51.137 35.758,51.068 35.716,50.984 35.682,50.885 35.655,50.77 35.636,50.646 35.629,50.593 35.624,50.542 35.619,50.491 35.615,50.438 35.612,50.382 35.609,50.321 35.607,50.253 35.605,50.177 35.603,50.09 35.602,49.992 35.6,49.879 35.599,49.768 35.595,49.226 35.726,49.133 35.757,49.111 35.801,49.081 35.855,49.043 35.918,48.999 35.988,48.951 36.063,48.899 36.142,48.844 36.223,48.789 36.282,48.748 36.404,48.664 36.513,48.589 36.61,48.522 36.694,48.464 36.768,48.413 36.83,48.369 36.884,48.331 36.928,48.299 36.963,48.273 36.991,48.252 37.013,48.235 37.028,48.222 37.037,48.213 37.042,48.206 37.043,48.203 37.036,48.184 37.02,48.161 36.998,48.14 36.976,48.124 36.96,48.119 36.943,48.124 36.913,48.139 36.87,48.163 36.815,48.197 36.747,48.241 36.668,48.293 36.577,48.353 36.476,48.422 36.363,48.5 36.24,48.585 36.108,48.678 35.98,48.768 35.601,49.036 35.595,48.758 35.592,48.605 35.587,48.468 35.581,48.346 35.574,48.236 35.565,48.137 35.555,48.049 35.543,47.97 35.529,47.897 35.514,47.831 35.496,47.769 35.476,47.713 35.446,47.641 35.413,47.581 35.375,47.528 35.333,47.481 35.274,47.428 35.208,47.39 35.135,47.363 35.053,47.349 34.96,47.347 34.938,47.347 34.832,47.36 34.717,47.386 34.595,47.426 34.467,47.479 34.333,47.545 34.194,47.623 34.052,47.712 33.907,47.813 33.76,47.925 33.662,48.004 33.587,48.068 33.526,48.124 33.478,48.173 33.442,48.214 33.418,48.25 33.406,48.281 33.403,48.299 33.41,48.318 33.427,48.34 33.45,48.358 33.474,48.369 33.477,48.37 33.489,48.372 33.499,48.371 33.509,48.366 33.52,48.353 33.535,48.332 33.557,48.299 33.566,48.285 33.621,48.211 33.691,48.135 33.774,48.059 33.867,47.984 33.969,47.911 34.077,47.842 34.19,47.778 34.306,47.721 34.378,47.69 34.489,47.65 34.596,47.62 34.699,47.601 34.796,47.592 34.885,47.595 34.965,47.608 35.034,47.633 35.038,47.635 35.101,47.675 35.153,47.727 35.195,47.791 35.227,47.868 35.249,47.959 35.252,47.977 35.261,48.038 35.269,48.1 35.276,48.165 35.281,48.236 35.286,48.313 35.289,48.4 35.292,48.497 35.295,48.607 35.296,48.731 35.297,48.786 35.301,49.22 35.2,49.292 34.875,49.531 34.562,49.773 34.262,50.016 33.975,50.261 33.702,50.507 33.444,50.754 33.201,51.0 32.973,51.247 32.761,51.493 32.565,51.738 32.541,51.769 32.491,51.836 32.45,51.891 32.418,51.937 32.393,51.975 32.375,52.006 32.362,52.034 32.353,52.058 32.352,52.062 32.345,52.102 32.282,52.102 32.188,52.002 32.037,51.818 31.898,51.623 31.82,51.499 31.704,51.29 31.604,51.074 31.519,50.851 31.449,50.621 31.395,50.384 31.357,50.142 31.352,50.096 31.348,50.048 31.345,49.986 31.343,49.914 31.341,49.835 31.341,49.753 31.341,49.671 31.343,49.592 31.345,49.52 31.348,49.457 31.352,49.409 31.352,49.407 31.387,49.164 31.438,48.927 31.504,48.697 31.586,48.473 31.682,48.256 31.794,48.047 31.817,48.008 31.949,47.806 32.093,47.614 32.249,47.434 32.416,47.267 32.593,47.112 32.781,46.97 32.978,46.841 33.183,46.726 33.397,46.626 33.618,46.54 33.845,46.469 34.079,46.414 34.172,46.397 34.371,46.37 34.578,46.354 34.789,46.351" fill="#f5f5f5" stroke="none" opacity="0.92"/><polygon points="62.182,56.101 62.198,56.111 62.216,56.126 62.216,56.344 62.216,56.408 62.216,56.459 62.215,56.497 62.214,56.526 62.213,56.546 62.211,56.56 62.208,56.569 62.204,56.576 62.201,56.579 62.18,56.593 62.156,56.592 62.134,56.581 62.116,56.566 62.116,56.126 62.134,56.111 62.152,56.1 62.166,56.096 62.182,56.101" fill="#f5f5f5" stroke="none" opacity="0.92"/><polygon points="57.345,56.112 57.35,56.117 57.353,56.123 57.356,56.133 57.358,56.148 57.359,56.17 57.36,56.2 57.36,56.241 57.361,56.294 57.361,56.346 57.361,56.41 57.36,56.46 57.36,56.498 57.359,56.527 57.357,56.547 57.355,56.561 57.353,56.57 57.349,56.576 57.345,56.58 57.323,56.593 57.299,56.592 57.277,56.577 57.273,56.572 57.269,56.565 57.266,56.556 57.264,56.542 57.262,56.522 57.261,56.493 57.261,56.454 57.261,56.404 57.261,56.347 57.261,56.134 57.28,56.115 57.303,56.099 57.325,56.099 57.345,56.112" fill="#f5f5f5" stroke="none" opacity="0.92"/><polygon points="57.788,52.531 57.853,52.548 57.912,52.577 57.963,52.618 58.004,52.669 58.035,52.729 58.053,52.794 58.057,52.861 58.047,52.924 58.024,52.984 57.989,53.038 57.945,53.084 57.891,53.121 57.829,53.147 57.794,53.155 57.764,53.161 57.741,53.163 57.718,53.161 57.691,53.157 57.668,53.152 57.605,53.131 57.548,53.096 57.499,53.049 57.459,52.99 57.45,52.972 57.439,52.947 57.432,52.926 57.428,52.905 57.426,52.877 57.426,52.845 57.429,52.788 57.438,52.741 57.455,52.7 57.482,52.66 57.508,52.63 57.557,52.585 57.608,52.554 57.664,52.536 57.717,52.529 57.788,52.531" fill="#f5f5f5" stroke="none" opacity="0.92"/><polygon points="62.708,56.096 62.762,56.097 62.803,56.097 62.835,56.098 62.857,56.099 62.873,56.101 62.883,56.104 62.89,56.107 62.894,56.11 62.911,56.132 62.913,56.155 62.903,56.176 62.895,56.184 62.888,56.19 62.877,56.193 62.86,56.195 62.833,56.196 62.795,56.196 62.787,56.196 62.688,56.196 62.688,56.38 62.688,56.438 62.688,56.483 62.687,56.516 62.686,56.54 62.684,56.556 62.681,56.567 62.677,56.574 62.673,56.58 62.65,56.593 62.627,56.592 62.606,56.577 62.604,56.575 62.599,56.568 62.595,56.559 62.592,56.548 62.59,56.531 62.589,56.506 62.589,56.472 62.588,56.427 62.588,56.375 62.588,56.196 62.493,56.196 62.453,56.196 62.425,56.195 62.406,56.192 62.395,56.189 62.387,56.183 62.386,56.182 62.375,56.159 62.376,56.134 62.389,56.112 62.394,56.107 62.4,56.104 62.409,56.101 62.424,56.099 62.445,56.098 62.474,56.097 62.513,56.097 62.563,56.096 62.627,56.096 62.641,56.096 62.708,56.096" fill="#f5f5f5" stroke="none" opacity="0.92"/><polygon points="63.569,56.1 63.59,56.115 63.609,56.134 63.609,56.344 63.609,56.407 63.609,56.456 63.608,56.493 63.607,56.521 63.606,56.54 63.604,56.554 63.6,56.564 63.596,56.571 63.593,56.575 63.572,56.592 63.548,56.594 63.526,56.583 63.519,56.577 63.514,56.569 63.511,56.556 63.51,56.535 63.509,56.504 63.509,56.48 63.509,56.388 63.172,56.388 63.172,56.471 63.171,56.509 63.17,56.536 63.167,56.553 63.162,56.566 63.156,56.575 63.135,56.592 63.111,56.594 63.088,56.582 63.082,56.576 63.078,56.567 63.075,56.555 63.073,56.535 63.072,56.505 63.072,56.463 63.072,56.453 63.071,56.374 63.071,56.309 63.071,56.256 63.072,56.214 63.072,56.182 63.073,56.158 63.075,56.141 63.077,56.129 63.08,56.121 63.083,56.116 63.087,56.112 63.109,56.098 63.131,56.1 63.153,56.115 63.161,56.125 63.167,56.136 63.17,56.151 63.171,56.174 63.172,56.21 63.172,56.288 63.509,56.288 63.509,56.208 63.51,56.17 63.511,56.145 63.514,56.129 63.519,56.118 63.525,56.112 63.546,56.098 63.569,56.1" fill="#f5f5f5" stroke="none" opacity="0.92"/><polygon points="60.026,56.096 60.114,56.099 60.188,56.108 60.251,56.124 60.303,56.147 60.346,56.177 60.38,56.215 60.408,56.263 60.408,56.264 60.425,56.306 60.43,56.343 60.426,56.381 60.41,56.424 60.407,56.431 60.388,56.469 60.365,56.498 60.336,56.524 60.297,56.548 60.295,56.55 60.261,56.566 60.222,56.579 60.176,56.587 60.121,56.592 60.054,56.595 60.031,56.595 59.918,56.595 59.902,56.575 59.897,56.568 59.894,56.561 59.891,56.55 59.889,56.534 59.888,56.512 59.887,56.495 59.994,56.495 60.057,56.495 60.095,56.494 60.133,56.491 60.165,56.487 60.167,56.487 60.222,56.472 60.266,56.45 60.298,56.418 60.32,56.378 60.324,56.367 60.328,56.35 60.326,56.333 60.318,56.311 60.314,56.3 60.298,56.272 60.279,56.251 60.257,56.237 60.215,56.219 60.161,56.206 60.099,56.198 60.053,56.196 59.994,56.196 59.994,56.495 59.887,56.495 59.887,56.481 59.886,56.44 59.886,56.386 59.886,56.344 59.886,56.134 59.905,56.115 59.913,56.107 59.922,56.102 59.935,56.099 59.954,56.097 59.983,56.096 60.023,56.096 60.026,56.096" fill="#f5f5f5" stroke="none" opacity="0.92"/><polygon points="55.171,56.096 55.198,56.097 55.276,56.098 55.342,56.104 55.398,56.114 55.445,56.129 55.486,56.149 55.523,56.176 55.536,56.188 55.558,56.215 55.578,56.252 55.593,56.292 55.602,56.331 55.603,56.346 55.597,56.386 55.583,56.429 55.561,56.471 55.536,56.504 55.532,56.508 55.498,56.536 55.46,56.558 55.417,56.574 55.366,56.585 55.305,56.592 55.233,56.595 55.199,56.595 55.157,56.595 55.127,56.594 55.107,56.592 55.094,56.589 55.085,56.584 55.081,56.58 55.076,56.575 55.073,56.568 55.07,56.558 55.068,56.543 55.067,56.521 55.066,56.491 55.066,56.45 55.065,56.397 55.065,56.346 55.065,56.277 55.065,56.222 55.066,56.196 55.165,56.196 55.165,56.495 55.228,56.495 55.267,56.494 55.306,56.491 55.34,56.488 55.341,56.487 55.395,56.474 55.436,56.454 55.468,56.425 55.488,56.394 55.501,56.359 55.5,56.327 55.485,56.292 55.457,56.256 55.418,56.229 55.367,56.211 55.333,56.205 55.295,56.201 55.254,56.197 55.219,56.196 55.217,56.196 55.165,56.196 55.066,56.196 55.066,56.18 55.069,56.148 55.075,56.125 55.084,56.11 55.097,56.101 55.115,56.097 55.14,56.096 55.171,56.096" fill="#f5f5f5" stroke="none" opacity="0.92"/><polygon points="58.449,56.099 58.465,56.109 58.486,56.124 58.513,56.146 58.547,56.176 58.59,56.213 58.641,56.26 58.7,56.313 58.823,56.425 58.827,56.275 58.828,56.224 58.829,56.185 58.831,56.158 58.833,56.139 58.836,56.127 58.84,56.119 58.846,56.113 58.849,56.111 58.872,56.098 58.895,56.1 58.912,56.111 58.93,56.126 58.933,56.34 58.933,56.403 58.934,56.452 58.933,56.49 58.933,56.518 58.932,56.538 58.93,56.552 58.927,56.562 58.923,56.569 58.919,56.575 58.909,56.585 58.9,56.592 58.89,56.595 58.877,56.593 58.86,56.584 58.839,56.569 58.811,56.547 58.775,56.516 58.731,56.477 58.681,56.432 58.501,56.268 58.497,56.417 58.495,56.468 58.494,56.506 58.492,56.534 58.49,56.552 58.487,56.565 58.483,56.572 58.478,56.578 58.475,56.581 58.45,56.594 58.426,56.592 58.405,56.575 58.4,56.568 58.397,56.561 58.394,56.55 58.392,56.534 58.391,56.512 58.39,56.481 58.389,56.439 58.389,56.386 58.389,56.346 58.389,56.283 58.389,56.235 58.39,56.198 58.391,56.17 58.393,56.151 58.395,56.137 58.398,56.128 58.402,56.121 58.405,56.116 58.413,56.107 58.42,56.1 58.428,56.095 58.437,56.095 58.449,56.099" fill="#f5f5f5" stroke="none" opacity="0.92"/><polygon points="58.007,56.1 58.054,56.108 58.09,56.12 58.113,56.136 58.119,56.145 58.126,56.166 58.121,56.186 58.108,56.204 58.086,56.212 58.056,56.212 58.032,56.207 57.979,56.198 57.924,56.197 57.864,56.204 57.847,56.208 57.79,56.223 57.746,56.247 57.715,56.278 57.697,56.316 57.693,56.336 57.695,56.376 57.711,56.411 57.739,56.441 57.777,56.465 57.825,56.482 57.88,56.492 57.941,56.494 58.007,56.488 58.011,56.487 58.037,56.482 58.051,56.477 58.058,56.47 58.059,56.459 58.059,56.452 58.059,56.426 58.013,56.426 57.971,56.424 57.943,56.415 57.927,56.399 57.921,56.375 57.921,56.372 57.925,56.352 57.936,56.337 57.958,56.328 57.993,56.322 58.026,56.32 58.074,56.319 58.109,56.321 58.132,56.327 58.147,56.341 58.155,56.362 58.158,56.395 58.159,56.437 58.158,56.484 58.155,56.516 58.15,56.533 58.149,56.535 58.123,56.556 58.084,56.573 58.035,56.585 57.979,56.592 57.918,56.594 57.855,56.589 57.817,56.584 57.759,56.567 57.704,56.54 57.659,56.505 57.652,56.498 57.629,56.468 57.609,56.432 57.593,56.393 57.584,56.358 57.583,56.345 57.588,56.317 57.6,56.282 57.617,56.245 57.637,56.212 57.655,56.19 57.696,56.156 57.75,56.13 57.814,56.111 57.886,56.1 57.952,56.097 58.007,56.1" fill="#f5f5f5" stroke="none" opacity="0.92"/><polygon points="59.49,56.096 59.542,56.097 59.582,56.098 59.611,56.101 59.631,56.105 59.644,56.111 59.652,56.119 59.655,56.13 59.656,56.144 59.656,56.145 59.655,56.161 59.652,56.173 59.644,56.182 59.631,56.188 59.609,56.192 59.578,56.195 59.536,56.197 59.48,56.198 59.463,56.198 59.299,56.2 59.297,56.244 59.294,56.288 59.409,56.288 59.453,56.288 59.485,56.289 59.507,56.291 59.521,56.293 59.53,56.297 59.537,56.303 59.537,56.303 59.549,56.326 59.548,56.351 59.536,56.372 59.533,56.374 59.524,56.38 59.512,56.384 59.494,56.386 59.468,56.387 59.43,56.388 59.405,56.388 59.295,56.388 59.295,56.495 59.463,56.495 59.518,56.496 59.56,56.496 59.591,56.497 59.612,56.498 59.627,56.5 59.636,56.504 59.642,56.508 59.643,56.509 59.654,56.531 59.655,56.555 59.646,56.576 59.639,56.583 59.631,56.587 59.62,56.59 59.602,56.592 59.577,56.594 59.543,56.595 59.497,56.595 59.437,56.595 59.424,56.595 59.364,56.595 59.317,56.595 59.282,56.594 59.257,56.593 59.239,56.592 59.227,56.589 59.22,56.586 59.214,56.582 59.211,56.578 59.206,56.573 59.203,56.566 59.2,56.556 59.198,56.541 59.197,56.519 59.196,56.488 59.195,56.447 59.195,56.394 59.195,56.349 59.195,56.286 59.196,56.237 59.196,56.199 59.197,56.172 59.199,56.152 59.201,56.138 59.204,56.128 59.208,56.121 59.211,56.116 59.227,56.096 59.424,56.096 59.49,56.096" fill="#f5f5f5" stroke="none" opacity="0.92"/><polygon points="56.129,56.096 56.176,56.097 56.212,56.097 56.237,56.098 56.256,56.1 56.268,56.102 56.276,56.106 56.282,56.11 56.284,56.112 56.298,56.133 56.3,56.157 56.291,56.179 56.287,56.183 56.281,56.187 56.27,56.191 56.253,56.193 56.229,56.195 56.194,56.196 56.148,56.197 56.105,56.198 55.937,56.2 55.934,56.244 55.932,56.288 56.046,56.288 56.096,56.289 56.132,56.29 56.157,56.294 56.173,56.301 56.182,56.312 56.186,56.326 56.186,56.34 56.184,56.357 56.178,56.369 56.165,56.378 56.143,56.384 56.111,56.387 56.067,56.388 56.042,56.388 55.933,56.388 55.933,56.495 56.102,56.495 56.157,56.495 56.199,56.496 56.23,56.497 56.252,56.498 56.266,56.5 56.276,56.503 56.282,56.508 56.286,56.511 56.297,56.529 56.301,56.545 56.296,56.565 56.286,56.58 56.281,56.584 56.274,56.588 56.263,56.591 56.248,56.593 56.225,56.594 56.193,56.595 56.151,56.595 56.096,56.595 56.067,56.595 56.006,56.595 55.958,56.595 55.922,56.594 55.895,56.593 55.877,56.592 55.865,56.589 55.856,56.586 55.851,56.582 55.848,56.58 55.844,56.575 55.84,56.568 55.838,56.558 55.836,56.543 55.834,56.521 55.834,56.491 55.833,56.45 55.833,56.397 55.833,56.347 55.833,56.284 55.833,56.234 55.834,56.196 55.834,56.168 55.836,56.148 55.838,56.134 55.841,56.125 55.845,56.119 55.85,56.114 55.851,56.113 55.857,56.108 55.863,56.104 55.873,56.101 55.888,56.099 55.909,56.098 55.938,56.097 55.978,56.096 56.031,56.096 56.068,56.096 56.129,56.096" fill="#f5f5f5" stroke="none" opacity="0.92"/><polygon points="61.88,56.098 61.893,56.102 61.894,56.103 61.912,56.116 61.922,56.131 61.924,56.137 61.924,56.146 61.921,56.159 61.915,56.177 61.905,56.201 61.891,56.235 61.871,56.278 61.846,56.333 61.833,56.363 61.808,56.416 61.784,56.466 61.763,56.509 61.746,56.544 61.732,56.57 61.724,56.584 61.722,56.586 61.701,56.594 61.677,56.593 61.658,56.583 61.658,56.582 61.65,56.57 61.637,56.548 61.621,56.517 61.602,56.482 61.596,56.469 61.546,56.369 61.492,56.477 61.473,56.515 61.455,56.547 61.439,56.572 61.429,56.587 61.425,56.59 61.397,56.595 61.373,56.586 61.366,56.576 61.355,56.554 61.339,56.523 61.319,56.484 61.298,56.44 61.276,56.392 61.254,56.343 61.232,56.294 61.212,56.249 61.195,56.209 61.181,56.176 61.173,56.153 61.17,56.141 61.17,56.14 61.177,56.125 61.192,56.11 61.193,56.109 61.211,56.099 61.229,56.099 61.235,56.101 61.243,56.105 61.251,56.113 61.261,56.127 61.273,56.149 61.289,56.18 61.309,56.222 61.327,56.261 61.348,56.306 61.367,56.347 61.382,56.381 61.394,56.406 61.4,56.42 61.401,56.422 61.405,56.419 61.415,56.404 61.429,56.379 61.445,56.347 61.452,56.334 61.474,56.29 61.491,56.258 61.505,56.236 61.516,56.222 61.527,56.215 61.538,56.212 61.545,56.211 61.557,56.213 61.569,56.217 61.579,56.227 61.592,56.244 61.607,56.271 61.627,56.309 61.638,56.33 61.655,56.364 61.671,56.392 61.682,56.413 61.689,56.422 61.69,56.422 61.695,56.415 61.704,56.396 61.719,56.366 61.736,56.329 61.757,56.286 61.767,56.265 61.792,56.21 61.813,56.167 61.83,56.136 61.844,56.115 61.856,56.103 61.868,56.097 61.88,56.098" fill="#f5f5f5" stroke="none" opacity="0.92"/><polygon points="56.823,56.097 56.874,56.101 56.921,56.106 56.962,56.114 56.994,56.122 57.014,56.133 57.017,56.136 57.028,56.159 57.025,56.183 57.008,56.204 57.007,56.205 56.998,56.211 56.987,56.214 56.973,56.215 56.951,56.212 56.918,56.207 56.915,56.207 56.866,56.201 56.813,56.198 56.759,56.198 56.709,56.2 56.666,56.206 56.635,56.214 56.633,56.215 56.61,56.228 56.602,56.241 56.608,56.254 56.628,56.266 56.662,56.277 56.708,56.287 56.739,56.292 56.803,56.301 56.854,56.309 56.894,56.318 56.925,56.326 56.95,56.337 56.97,56.349 56.988,56.365 57.002,56.38 57.019,56.401 57.028,56.419 57.03,56.441 57.03,56.449 57.028,56.476 57.021,56.496 57.007,56.514 56.979,56.541 56.948,56.562 56.912,56.577 56.867,56.587 56.813,56.592 56.746,56.594 56.735,56.594 56.69,56.593 56.646,56.591 56.607,56.588 56.578,56.585 56.576,56.584 56.547,56.577 56.522,56.569 56.509,56.561 56.496,56.54 56.495,56.516 56.506,56.494 56.508,56.492 56.519,56.484 56.532,56.481 56.551,56.482 56.576,56.485 56.603,56.487 56.64,56.489 56.685,56.491 56.731,56.491 56.743,56.491 56.789,56.491 56.823,56.49 56.847,56.488 56.865,56.485 56.879,56.48 56.888,56.476 56.907,56.465 56.919,56.455 56.921,56.452 56.917,56.44 56.9,56.428 56.869,56.417 56.826,56.408 56.814,56.406 56.749,56.396 56.697,56.387 56.656,56.38 56.624,56.373 56.599,56.366 56.58,56.357 56.564,56.348 56.548,56.336 56.532,56.322 56.527,56.317 56.508,56.299 56.498,56.284 56.494,56.267 56.493,56.246 56.5,56.204 56.521,56.169 56.556,56.14 56.604,56.117 56.639,56.107 56.677,56.101 56.722,56.097 56.771,56.096 56.823,56.097" fill="#f5f5f5" stroke="none" opacity="0.92"/><polygon points="59.557,53.159 59.666,53.173 59.777,53.2 59.893,53.241 60.013,53.295 60.021,53.298 60.06,53.318 60.095,53.334 60.124,53.346 60.143,53.354 60.149,53.356 60.162,53.359 60.165,53.362 60.162,53.369 60.151,53.387 60.134,53.414 60.112,53.448 60.086,53.487 60.058,53.529 60.029,53.573 60.0,53.616 59.972,53.657 59.947,53.693 59.925,53.724 59.909,53.747 59.899,53.759 59.898,53.761 59.891,53.758 59.876,53.746 59.855,53.728 59.844,53.718 59.779,53.667 59.706,53.629 59.628,53.605 59.544,53.596 59.497,53.597 59.415,53.608 59.34,53.633 59.274,53.67 59.215,53.72 59.164,53.784 59.12,53.861 59.094,53.92 59.065,54.012 59.043,54.113 59.028,54.218 59.022,54.327 59.023,54.436 59.032,54.542 59.048,54.644 59.072,54.738 59.104,54.822 59.115,54.845 59.161,54.923 59.216,54.988 59.278,55.041 59.347,55.081 59.422,55.108 59.502,55.12 59.53,55.121 59.613,55.114 59.694,55.091 59.775,55.055 59.852,55.004 59.914,54.951 59.946,54.92 60.069,55.123 60.099,55.173 60.128,55.219 60.152,55.26 60.172,55.293 60.186,55.318 60.194,55.331 60.195,55.333 60.189,55.34 60.172,55.352 60.145,55.367 60.11,55.386 60.071,55.407 60.028,55.428 59.985,55.449 59.943,55.469 59.904,55.486 59.872,55.499 59.856,55.505 59.765,55.531 59.671,55.548 59.57,55.556 59.484,55.558 59.438,55.557 59.393,55.556 59.354,55.554 59.325,55.552 59.315,55.55 59.221,55.531 59.124,55.5 59.031,55.46 58.945,55.413 58.892,55.377 58.805,55.303 58.725,55.217 58.652,55.121 58.589,55.016 58.536,54.906 58.506,54.826 58.472,54.701 58.449,54.569 58.437,54.432 58.437,54.293 58.449,54.156 58.472,54.022 58.506,53.896 58.508,53.888 58.551,53.778 58.603,53.677 58.666,53.584 58.743,53.494 58.773,53.463 58.865,53.379 58.96,53.309 59.06,53.253 59.164,53.21 59.276,53.179 59.341,53.167 59.449,53.157 59.557,53.159" fill="#f5f5f5" stroke="none" opacity="0.92"/><polygon points="63.54,54.194 63.54,54.354 63.54,54.499 63.54,54.63 63.54,54.747 63.541,54.853 63.541,54.947 63.541,55.03 63.542,55.103 63.543,55.166 63.544,55.221 63.545,55.268 63.547,55.308 63.548,55.342 63.551,55.37 63.553,55.393 63.556,55.412 63.559,55.427 63.563,55.44 63.567,55.451 63.572,55.461 63.577,55.471 63.582,55.481 63.586,55.487 63.609,55.528 63.026,55.528 63.026,55.463 63.025,55.433 63.024,55.411 63.022,55.399 63.021,55.398 63.013,55.402 62.998,55.415 62.983,55.428 62.945,55.455 62.898,55.483 62.846,55.509 62.793,55.529 62.772,55.536 62.726,55.546 62.669,55.553 62.609,55.556 62.549,55.556 62.495,55.552 62.469,55.548 62.375,55.522 62.289,55.483 62.21,55.431 62.14,55.366 62.078,55.288 62.032,55.213 61.995,55.134 61.966,55.053 61.946,54.967 61.933,54.874 61.927,54.771 61.927,54.718 61.928,54.68 62.492,54.68 62.492,54.743 62.494,54.803 62.498,54.855 62.504,54.897 62.506,54.905 62.527,54.978 62.556,55.037 62.591,55.083 62.633,55.115 62.683,55.134 62.741,55.139 62.806,55.132 62.849,55.121 62.883,55.109 62.919,55.091 62.947,55.075 62.995,55.043 62.995,54.261 62.949,54.232 62.896,54.204 62.839,54.186 62.781,54.178 62.725,54.18 62.676,54.193 62.654,54.203 62.615,54.232 62.581,54.271 62.553,54.32 62.53,54.382 62.51,54.457 62.509,54.461 62.502,54.503 62.497,54.556 62.494,54.616 62.492,54.68 61.928,54.68 61.932,54.574 61.947,54.44 61.972,54.319 62.006,54.209 62.049,54.111 62.102,54.025 62.164,53.951 62.236,53.889 62.267,53.868 62.335,53.83 62.406,53.803 62.48,53.786 62.563,53.78 62.626,53.78 62.714,53.788 62.791,53.803 62.858,53.825 62.918,53.857 62.951,53.88 62.971,53.895 62.986,53.905 62.991,53.908 62.992,53.901 62.993,53.88 62.994,53.848 62.994,53.806 62.995,53.756 62.995,53.699 62.995,53.639 62.994,53.577 62.994,53.514 62.993,53.453 62.993,53.395 62.992,53.342 62.991,53.296 62.99,53.26 62.989,53.234 62.988,53.229 62.983,53.181 62.975,53.144 62.963,53.112 62.945,53.08 62.941,53.074 62.924,53.049 63.54,53.049 63.54,54.194" fill="#f5f5f5" stroke="none" opacity="0.92"/><polygon points="61.151,53.783 61.255,53.796 61.347,53.819 61.428,53.851 61.499,53.893 61.552,53.936 61.599,53.987 61.635,54.041 61.664,54.104 61.675,54.133 61.684,54.16 61.691,54.184 61.698,54.208 61.703,54.233 61.708,54.259 61.712,54.288 61.716,54.322 61.718,54.361 61.72,54.407 61.722,54.461 61.724,54.524 61.725,54.598 61.726,54.684 61.727,54.782 61.728,54.88 61.729,54.986 61.729,55.078 61.73,55.157 61.731,55.224 61.732,55.28 61.734,55.326 61.735,55.364 61.737,55.394 61.74,55.418 61.743,55.437 61.747,55.451 61.752,55.463 61.757,55.473 61.764,55.482 61.771,55.491 61.774,55.495 61.785,55.511 61.79,55.521 61.79,55.522 61.782,55.523 61.761,55.524 61.728,55.526 61.685,55.527 61.633,55.527 61.574,55.528 61.51,55.528 61.502,55.528 61.215,55.528 61.213,55.463 61.21,55.398 61.168,55.432 61.102,55.478 61.027,55.515 60.968,55.536 60.921,55.546 60.865,55.553 60.804,55.556 60.744,55.556 60.69,55.552 60.665,55.548 60.57,55.522 60.484,55.485 60.408,55.437 60.342,55.378 60.288,55.309 60.245,55.231 60.215,55.146 60.207,55.107 60.201,55.065 60.199,55.014 60.199,54.991 60.199,54.989 60.715,54.989 60.722,55.04 60.741,55.083 60.774,55.121 60.777,55.124 60.81,55.148 60.845,55.163 60.887,55.171 60.938,55.173 60.95,55.173 60.987,55.171 61.014,55.167 61.038,55.16 61.064,55.149 61.071,55.145 61.113,55.121 61.144,55.092 61.153,55.082 61.183,55.043 61.183,54.91 61.183,54.857 61.182,54.817 61.18,54.791 61.177,54.775 61.174,54.771 61.163,54.769 61.14,54.767 61.108,54.766 61.071,54.765 61.065,54.765 60.983,54.769 60.913,54.78 60.854,54.799 60.805,54.826 60.767,54.858 60.737,54.897 60.72,54.94 60.715,54.989 60.199,54.989 60.2,54.927 60.206,54.873 60.217,54.825 60.234,54.777 60.25,54.741 60.29,54.676 60.343,54.617 60.408,54.563 60.483,54.516 60.566,54.478 60.656,54.448 60.7,54.438 60.792,54.423 60.893,54.413 60.996,54.409 61.082,54.41 61.192,54.415 61.187,54.375 61.174,54.307 61.153,54.252 61.123,54.21 61.084,54.178 61.035,54.159 60.976,54.15 60.906,54.151 60.88,54.154 60.784,54.171 60.691,54.199 60.627,54.225 60.596,54.238 60.57,54.248 60.552,54.255 60.547,54.256 60.54,54.25 60.529,54.231 60.513,54.197 60.492,54.15 60.465,54.088 60.461,54.077 60.44,54.028 60.422,53.984 60.407,53.946 60.395,53.917 60.387,53.898 60.385,53.892 60.392,53.889 60.41,53.885 60.429,53.883 60.45,53.88 60.482,53.873 60.524,53.864 60.572,53.853 60.623,53.841 60.642,53.836 60.714,53.819 60.773,53.805 60.824,53.795 60.869,53.788 60.911,53.783 60.952,53.78 60.997,53.778 61.036,53.778 61.151,53.783" fill="#f5f5f5" stroke="none" opacity="0.92"/><polygon points="57.33,52.846 57.337,52.923 57.359,52.996 57.393,53.064 57.44,53.124 57.498,53.175 57.564,53.214 57.636,53.241 57.709,53.254 57.781,53.253 57.85,53.239 57.916,53.215 57.976,53.179 58.03,53.134 58.076,53.08 58.112,53.018 58.137,52.949 58.15,52.874 58.151,52.84 58.151,52.78 58.187,52.78 58.211,52.782 58.23,52.79 58.248,52.806 58.274,52.832 58.274,54.322 58.274,54.501 58.274,54.664 58.274,54.814 58.274,54.95 58.274,55.073 58.274,55.184 58.273,55.284 58.273,55.372 58.273,55.451 58.273,55.52 58.272,55.58 58.272,55.631 58.271,55.675 58.271,55.712 58.27,55.743 58.269,55.768 58.268,55.787 58.267,55.802 58.266,55.814 58.265,55.822 58.263,55.828 58.262,55.831 58.261,55.833 58.258,55.837 58.256,55.842 58.253,55.846 58.25,55.85 58.245,55.853 58.238,55.856 58.228,55.859 58.215,55.861 58.198,55.863 58.177,55.865 58.15,55.867 58.117,55.868 58.078,55.869 58.032,55.87 57.978,55.871 57.915,55.872 57.844,55.872 57.763,55.873 57.672,55.873 57.57,55.873 57.456,55.873 57.331,55.874 57.192,55.874 57.04,55.874 56.875,55.873 56.694,55.873 56.668,55.873 56.486,55.873 56.32,55.873 56.167,55.873 56.028,55.873 55.901,55.873 55.787,55.873 55.685,55.873 55.593,55.872 55.512,55.872 55.44,55.872 55.378,55.871 55.324,55.871 55.278,55.87 55.239,55.87 55.207,55.869 55.18,55.868 55.16,55.867 55.143,55.866 55.131,55.865 55.123,55.864 55.117,55.862 55.114,55.861 55.108,55.859 55.103,55.857 55.098,55.855 55.094,55.853 55.09,55.849 55.086,55.843 55.083,55.835 55.08,55.824 55.077,55.809 55.075,55.789 55.073,55.765 55.071,55.734 55.07,55.697 55.069,55.654 55.068,55.602 55.067,55.543 55.066,55.474 55.066,55.396 55.066,55.308 55.065,55.209 55.065,55.098 55.065,54.976 55.065,54.84 55.065,54.692 55.065,54.529 55.065,54.352 55.065,54.323 55.065,54.145 55.065,53.981 55.065,53.831 55.065,53.694 55.065,53.57 55.065,53.459 55.066,53.359 55.066,53.269 55.066,53.195 55.272,53.195 55.299,53.234 55.307,53.245 55.314,53.254 55.32,53.263 55.325,53.273 55.33,53.283 55.335,53.296 55.338,53.311 55.341,53.33 55.344,53.354 55.346,53.383 55.348,53.417 55.35,53.459 55.351,53.508 55.352,53.566 55.352,53.633 55.353,53.71 55.353,53.798 55.353,53.897 55.353,54.009 55.353,54.135 55.353,54.274 55.353,54.358 55.353,54.505 55.353,54.638 55.353,54.757 55.353,54.864 55.353,54.958 55.353,55.041 55.352,55.113 55.351,55.176 55.35,55.229 55.349,55.275 55.347,55.314 55.345,55.346 55.343,55.372 55.34,55.393 55.337,55.411 55.333,55.425 55.328,55.437 55.323,55.447 55.318,55.456 55.311,55.465 55.304,55.475 55.3,55.481 55.274,55.521 55.635,55.521 55.719,55.52 55.789,55.52 55.845,55.52 55.891,55.52 55.925,55.519 55.951,55.518 55.969,55.517 55.98,55.515 55.986,55.513 55.987,55.511 55.986,55.508 55.985,55.507 55.968,55.482 55.95,55.446 55.934,55.404 55.928,55.386 55.925,55.374 55.923,55.359 55.92,55.341 55.918,55.319 55.917,55.289 55.916,55.252 55.915,55.206 55.914,55.149 55.913,55.081 55.912,54.998 55.912,54.968 55.911,54.883 55.911,54.812 55.91,54.754 55.91,54.707 55.911,54.671 55.911,54.645 55.912,54.626 55.913,54.614 55.915,54.608 55.918,54.607 55.92,54.608 55.923,54.611 55.931,54.62 55.946,54.639 55.967,54.669 55.995,54.706 56.028,54.75 56.064,54.799 56.103,54.852 56.143,54.907 56.184,54.963 56.225,55.019 56.264,55.072 56.3,55.122 56.332,55.167 56.36,55.205 56.382,55.236 56.397,55.257 56.4,55.261 56.416,55.287 56.434,55.319 56.451,55.353 56.453,55.357 56.468,55.39 56.477,55.416 56.48,55.44 56.481,55.469 56.481,55.521 57.266,55.521 57.204,55.457 57.172,55.423 57.138,55.384 57.106,55.348 57.093,55.33 57.072,55.303 57.045,55.267 57.012,55.223 56.974,55.171 56.932,55.114 56.886,55.052 56.838,54.986 56.788,54.917 56.738,54.847 56.687,54.776 56.637,54.706 56.588,54.638 56.541,54.573 56.498,54.511 56.458,54.455 56.423,54.405 56.393,54.363 56.369,54.329 56.353,54.304 56.344,54.29 56.343,54.287 56.348,54.279 56.362,54.261 56.384,54.233 56.413,54.196 56.448,54.152 56.488,54.102 56.532,54.047 56.579,53.988 56.628,53.927 56.679,53.864 56.719,53.813 57.407,53.813 57.411,53.822 57.42,53.837 57.421,53.838 57.434,53.859 57.447,53.884 57.45,53.889 57.452,53.895 57.454,53.902 57.456,53.911 57.458,53.923 57.459,53.939 57.461,53.96 57.462,53.987 57.462,54.02 57.463,54.062 57.464,54.112 57.464,54.172 57.465,54.242 57.465,54.324 57.466,54.419 57.466,54.527 57.466,54.649 57.467,54.774 57.467,54.886 57.467,54.984 57.467,55.069 57.467,55.143 57.467,55.207 57.466,55.261 57.465,55.306 57.463,55.343 57.461,55.373 57.459,55.398 57.456,55.418 57.452,55.434 57.448,55.446 57.444,55.457 57.438,55.467 57.432,55.477 57.426,55.485 57.414,55.503 57.407,55.515 57.407,55.517 57.414,55.518 57.435,55.518 57.469,55.519 57.513,55.52 57.566,55.52 57.627,55.52 57.694,55.52 57.741,55.521 57.812,55.52 57.878,55.52 57.937,55.519 57.987,55.518 58.027,55.517 58.056,55.516 58.072,55.515 58.074,55.514 58.069,55.504 58.064,55.498 58.055,55.487 58.043,55.466 58.035,55.449 58.017,55.409 58.015,54.609 58.013,53.809 57.71,53.809 57.643,53.809 57.582,53.809 57.527,53.81 57.48,53.81 57.444,53.811 57.419,53.812 57.407,53.813 57.407,53.813 56.719,53.813 56.73,53.8 56.78,53.738 56.829,53.677 56.876,53.619 56.919,53.566 56.958,53.518 56.992,53.476 57.019,53.443 57.031,53.429 57.09,53.36 57.142,53.304 57.189,53.257 57.231,53.221 57.238,53.216 57.265,53.195 56.495,53.195 56.499,53.227 56.496,53.266 56.482,53.313 56.455,53.367 56.424,53.416 56.413,53.431 56.394,53.457 56.368,53.491 56.336,53.533 56.299,53.58 56.26,53.631 56.217,53.686 56.174,53.742 56.13,53.797 56.088,53.851 56.047,53.903 56.01,53.95 55.978,53.991 55.951,54.024 55.931,54.049 55.918,54.064 55.916,54.066 55.914,54.06 55.913,54.04 55.912,54.004 55.911,53.954 55.911,53.889 55.911,53.81 55.912,53.728 55.913,53.638 55.914,53.562 55.915,53.499 55.917,53.446 55.919,53.402 55.923,53.367 55.927,53.338 55.932,53.313 55.939,53.292 55.947,53.273 55.957,53.254 55.967,53.237 55.993,53.195 55.272,53.195 55.066,53.195 55.066,53.19 55.067,53.121 55.068,53.06 55.069,53.008 55.07,52.964 55.071,52.926 55.072,52.895 55.074,52.87 55.076,52.85 55.078,52.834 55.081,52.822 55.083,52.813 55.087,52.807 55.09,52.803 55.094,52.8 55.098,52.798 55.103,52.795 55.107,52.793 55.11,52.791 55.116,52.789 55.124,52.788 55.136,52.787 55.152,52.786 55.173,52.785 55.2,52.784 55.233,52.783 55.273,52.782 55.322,52.782 55.379,52.781 55.445,52.781 55.522,52.781 55.61,52.78 55.709,52.78 55.821,52.78 55.946,52.78 56.084,52.78 56.228,52.78 57.33,52.78 57.33,52.846" fill="#f5f5f5" stroke="none" opacity="0.92"/><polygon points="74.622,75.129 74.661,75.141 74.686,75.156 74.694,75.168 74.692,75.182 74.677,75.204 74.665,75.22 74.639,75.249 74.62,75.261 74.604,75.26 74.555,75.248 74.52,75.248 74.491,75.262 74.481,75.27 74.45,75.299 74.45,75.675 74.325,75.675 74.325,75.13 74.388,75.13 74.425,75.131 74.444,75.136 74.45,75.147 74.45,75.147 74.453,75.158 74.465,75.156 74.481,75.149 74.516,75.134 74.543,75.125 74.579,75.123 74.622,75.129" fill="#f5f5f5" stroke="none" opacity="0.92"/><polygon points="74.473,75.982 74.517,75.99 74.542,76.003 74.568,76.024 74.531,76.071 74.508,76.1 74.492,76.114 74.477,76.116 74.454,76.109 74.443,76.105 74.4,76.099 74.36,76.112 74.331,76.139 74.327,76.148 74.321,76.171 74.317,76.214 74.315,76.274 74.314,76.347 74.314,76.357 74.314,76.539 74.189,76.539 74.189,75.982 74.251,75.982 74.287,75.983 74.306,75.987 74.313,75.997 74.314,76.005 74.314,76.029 74.344,76.005 74.378,75.989 74.424,75.981 74.473,75.982" fill="#f5f5f5" stroke="none" opacity="0.92"/><polygon points="72.098,75.983 72.115,75.988 72.12,75.999 72.121,76.004 72.122,76.019 72.128,76.021 72.147,76.011 72.158,76.005 72.192,75.99 72.233,75.983 72.276,75.983 72.316,75.988 72.349,75.998 72.37,76.013 72.374,76.031 72.372,76.036 72.357,76.057 72.333,76.082 72.329,76.086 72.307,76.105 72.287,76.111 72.26,76.107 72.25,76.104 72.216,76.097 72.192,76.1 72.172,76.111 72.154,76.126 72.141,76.144 72.131,76.169 72.125,76.205 72.122,76.255 72.121,76.323 72.121,76.363 72.121,76.539 72.007,76.539 72.007,75.982 72.064,75.982 72.098,75.983" fill="#f5f5f5" stroke="none" opacity="0.92"/><polygon points="73.893,75.307 73.894,75.39 73.898,75.453 73.906,75.499 73.919,75.53 73.938,75.549 73.964,75.558 73.996,75.561 74.029,75.558 74.055,75.548 74.073,75.529 74.085,75.497 74.093,75.45 74.097,75.386 74.098,75.307 74.098,75.13 74.223,75.13 74.223,75.675 74.16,75.675 74.123,75.674 74.103,75.668 74.098,75.658 74.095,75.649 74.082,75.651 74.055,75.664 73.995,75.684 73.932,75.682 73.871,75.661 73.842,75.644 73.819,75.625 73.803,75.602 73.792,75.571 73.785,75.53 73.781,75.473 73.78,75.4 73.78,75.343 73.78,75.13 73.893,75.13 73.893,75.307" fill="#f5f5f5" stroke="none" opacity="0.92"/><polygon points="72.314,75.139 72.342,75.153 72.37,75.172 72.391,75.195 72.406,75.223 72.416,75.261 72.423,75.312 72.426,75.379 72.427,75.464 72.427,75.473 72.427,75.675 72.302,75.675 72.302,75.489 72.302,75.42 72.302,75.37 72.3,75.336 72.297,75.312 72.291,75.297 72.284,75.285 72.272,75.273 72.234,75.248 72.191,75.244 72.151,75.259 72.137,75.271 72.127,75.282 72.119,75.294 72.114,75.31 72.111,75.335 72.11,75.371 72.109,75.424 72.109,75.487 72.109,75.675 71.984,75.675 71.984,75.13 72.047,75.13 72.084,75.131 72.104,75.136 72.109,75.147 72.109,75.147 72.112,75.157 72.123,75.156 72.146,75.145 72.198,75.129 72.257,75.127 72.314,75.139" fill="#f5f5f5" stroke="none" opacity="0.92"/><polygon points="74.999,75.134 75.065,75.162 75.086,75.176 75.112,75.197 75.129,75.213 75.132,75.219 75.124,75.231 75.103,75.251 75.086,75.265 75.04,75.302 75.004,75.271 74.976,75.252 74.949,75.245 74.918,75.247 74.869,75.259 74.834,75.284 74.814,75.326 74.804,75.385 74.804,75.385 74.805,75.452 74.818,75.5 74.843,75.534 74.86,75.545 74.906,75.559 74.954,75.559 74.997,75.545 75.007,75.539 75.032,75.522 75.052,75.519 75.073,75.532 75.096,75.554 75.133,75.593 75.092,75.627 75.029,75.665 74.957,75.684 74.882,75.682 74.832,75.67 74.775,75.639 74.729,75.59 74.708,75.556 74.691,75.506 74.682,75.444 74.682,75.376 74.691,75.311 74.707,75.257 74.71,75.251 74.749,75.196 74.801,75.156 74.863,75.132 74.931,75.125 74.999,75.134" fill="#f5f5f5" stroke="none" opacity="0.92"/><polygon points="73.547,75.136 73.605,75.168 73.65,75.217 73.671,75.257 73.68,75.293 73.686,75.343 73.689,75.402 73.688,75.46 73.683,75.512 73.677,75.539 73.659,75.577 73.627,75.617 73.588,75.652 73.55,75.674 73.549,75.674 73.501,75.684 73.445,75.685 73.391,75.676 73.371,75.668 73.317,75.638 73.279,75.599 73.254,75.546 73.24,75.478 73.237,75.442 73.237,75.396 73.359,75.396 73.363,75.462 73.375,75.513 73.394,75.545 73.407,75.554 73.441,75.56 73.482,75.558 73.517,75.549 73.527,75.544 73.551,75.515 73.567,75.469 73.574,75.414 73.571,75.356 73.563,75.32 73.542,75.279 73.508,75.253 73.467,75.244 73.425,75.254 73.392,75.277 73.375,75.295 73.365,75.314 73.361,75.339 73.359,75.377 73.359,75.396 73.237,75.396 73.238,75.346 73.253,75.267 73.284,75.206 73.329,75.161 73.389,75.134 73.402,75.131 73.479,75.124 73.547,75.136" fill="#f5f5f5" stroke="none" opacity="0.92"/><polygon points="73.25,75.984 73.295,75.988 73.354,76.164 73.412,76.34 73.431,76.277 73.442,76.239 73.457,76.187 73.472,76.129 73.481,76.098 73.512,75.982 73.641,75.982 73.603,76.104 73.583,76.164 73.561,76.237 73.537,76.312 73.515,76.38 73.466,76.533 73.361,76.54 73.332,76.446 73.315,76.387 73.295,76.322 73.279,76.265 73.278,76.263 73.265,76.224 73.254,76.198 73.247,76.188 73.245,76.189 73.239,76.205 73.229,76.238 73.214,76.284 73.198,76.34 73.189,76.371 73.139,76.539 73.035,76.539 72.951,76.275 72.928,76.2 72.906,76.133 72.888,76.076 72.874,76.032 72.865,76.004 72.862,75.996 72.864,75.987 72.881,75.984 72.917,75.984 72.922,75.984 72.988,75.988 73.032,76.147 73.048,76.205 73.062,76.256 73.073,76.295 73.08,76.319 73.081,76.323 73.087,76.318 73.098,76.295 73.113,76.257 73.131,76.206 73.146,76.16 73.205,75.981 73.25,75.984" fill="#f5f5f5" stroke="none" opacity="0.92"/><polygon points="70.702,75.136 70.761,75.162 70.806,75.206 70.837,75.267 70.854,75.347 70.855,75.359 70.856,75.446 70.844,75.523 70.819,75.585 70.806,75.605 70.761,75.647 70.702,75.674 70.637,75.686 70.571,75.68 70.52,75.662 70.477,75.632 70.441,75.593 70.441,75.592 70.426,75.568 70.417,75.543 70.411,75.513 70.408,75.469 70.407,75.434 70.406,75.401 70.52,75.401 70.521,75.433 70.525,75.476 70.532,75.504 70.545,75.523 70.557,75.535 70.599,75.558 70.644,75.562 70.685,75.544 70.706,75.525 70.721,75.506 70.73,75.487 70.733,75.463 70.734,75.427 70.733,75.394 70.73,75.346 70.726,75.315 70.719,75.295 70.706,75.28 70.697,75.271 70.656,75.248 70.612,75.246 70.576,75.26 70.544,75.289 70.526,75.336 70.52,75.401 70.406,75.401 70.405,75.363 70.407,75.31 70.414,75.27 70.427,75.239 70.445,75.211 70.452,75.203 70.496,75.162 70.543,75.138 70.6,75.128 70.628,75.127 70.702,75.136" fill="#f5f5f5" stroke="none" opacity="0.92"/><polygon points="72.814,76.539 72.751,76.539 72.715,76.538 72.696,76.533 72.689,76.524 72.689,76.517 72.688,76.504 72.68,76.502 72.661,76.51 72.647,76.517 72.59,76.535 72.528,76.536 72.478,76.523 72.431,76.491 72.396,76.444 72.376,76.388 72.376,76.385 72.373,76.351 72.371,76.303 72.371,76.266 72.496,76.266 72.498,76.315 72.505,76.355 72.514,76.378 72.547,76.409 72.587,76.42 72.628,76.411 72.663,76.384 72.676,76.366 72.684,76.345 72.688,76.313 72.689,76.266 72.687,76.219 72.683,76.178 72.677,76.15 72.676,76.148 72.652,76.119 72.616,76.103 72.577,76.1 72.54,76.111 72.513,76.136 72.51,76.141 72.501,76.172 72.496,76.216 72.496,76.266 72.371,76.266 72.372,76.247 72.372,76.218 72.378,76.144 72.389,76.089 72.409,76.048 72.437,76.017 72.465,75.999 72.504,75.987 72.552,75.983 72.601,75.986 72.643,75.997 72.666,76.01 72.689,76.031 72.689,75.766 72.814,75.766 72.814,76.539" fill="#f5f5f5" stroke="none" opacity="0.92"/><polygon points="75.416,75.128 75.445,75.135 75.5,75.161 75.548,75.2 75.581,75.248 75.586,75.258 75.592,75.286 75.596,75.327 75.598,75.369 75.598,75.448 75.433,75.448 75.365,75.448 75.317,75.45 75.287,75.454 75.271,75.461 75.268,75.474 75.274,75.493 75.284,75.514 75.314,75.551 75.356,75.569 75.407,75.568 75.465,75.549 75.515,75.524 75.557,75.557 75.598,75.59 75.559,75.626 75.507,75.66 75.443,75.681 75.374,75.686 75.307,75.676 75.297,75.673 75.238,75.642 75.194,75.596 75.165,75.534 75.148,75.454 75.148,75.453 75.147,75.366 75.153,75.335 75.268,75.335 75.279,75.34 75.308,75.343 75.35,75.345 75.377,75.346 75.427,75.345 75.458,75.344 75.475,75.341 75.48,75.334 75.479,75.324 75.478,75.32 75.458,75.282 75.426,75.252 75.397,75.238 75.36,75.239 75.322,75.256 75.29,75.283 75.271,75.317 75.268,75.335 75.153,75.335 75.161,75.289 75.19,75.225 75.232,75.175 75.284,75.141 75.346,75.125 75.416,75.128" fill="#f5f5f5" stroke="none" opacity="0.92"/><polygon points="73.008,75.128 73.051,75.136 73.096,75.153 73.101,75.155 73.135,75.173 73.158,75.189 73.166,75.2 73.158,75.217 73.141,75.243 73.133,75.252 73.101,75.29 73.06,75.265 73.02,75.249 72.975,75.241 72.931,75.24 72.897,75.248 72.889,75.253 72.874,75.277 72.872,75.303 72.884,75.325 72.89,75.329 72.911,75.334 72.947,75.34 72.991,75.345 72.999,75.346 73.071,75.358 73.122,75.379 73.156,75.411 73.175,75.455 73.181,75.508 73.173,75.569 73.147,75.617 73.102,75.652 73.038,75.674 72.967,75.683 72.909,75.683 72.863,75.675 72.831,75.664 72.79,75.645 72.753,75.623 72.74,75.613 72.706,75.586 72.788,75.502 72.835,75.533 72.882,75.557 72.932,75.569 72.98,75.57 73.021,75.561 73.05,75.541 73.059,75.524 73.058,75.497 73.035,75.477 72.99,75.463 72.94,75.456 72.865,75.443 72.809,75.42 72.771,75.385 72.751,75.337 72.749,75.28 72.762,75.221 72.793,75.176 72.841,75.146 72.906,75.129 72.955,75.126 73.008,75.128" fill="#f5f5f5" stroke="none" opacity="0.92"/><polygon points="74.832,75.985 74.887,75.999 74.932,76.028 74.954,76.05 74.99,76.101 75.011,76.161 75.018,76.235 75.018,76.24 75.018,76.3 74.675,76.3 74.682,76.331 74.695,76.36 74.719,76.389 74.723,76.394 74.765,76.419 74.812,76.424 74.867,76.407 74.876,76.402 74.905,76.389 74.924,76.381 74.927,76.38 74.938,76.387 74.961,76.404 74.972,76.414 74.995,76.435 75.003,76.449 74.997,76.463 74.994,76.466 74.975,76.482 74.944,76.501 74.922,76.512 74.859,76.532 74.79,76.538 74.724,76.53 74.706,76.525 74.649,76.495 74.607,76.448 74.579,76.384 74.566,76.303 74.564,76.26 74.568,76.199 74.677,76.199 74.688,76.203 74.716,76.207 74.757,76.209 74.785,76.209 74.835,76.209 74.867,76.207 74.884,76.203 74.892,76.197 74.893,76.187 74.883,76.156 74.859,76.126 74.827,76.103 74.794,76.093 74.751,76.102 74.713,76.126 74.686,76.161 74.677,76.199 74.568,76.199 74.57,76.17 74.59,76.099 74.623,76.045 74.669,76.008 74.731,75.988 74.764,75.984 74.832,75.985" fill="#f5f5f5" stroke="none" opacity="0.92"/><polygon points="71.77,75.142 71.781,75.148 71.82,75.176 71.857,75.218 71.885,75.264 71.893,75.286 71.9,75.324 71.904,75.369 71.905,75.388 71.905,75.448 71.561,75.448 71.569,75.479 71.587,75.516 71.618,75.548 71.655,75.569 71.679,75.573 71.712,75.568 71.75,75.555 71.763,75.549 71.812,75.525 71.853,75.556 71.877,75.577 71.889,75.595 71.89,75.6 71.879,75.613 71.854,75.632 71.831,75.646 71.77,75.673 71.702,75.685 71.635,75.682 71.581,75.666 71.525,75.63 71.486,75.584 71.461,75.524 71.45,75.448 71.449,75.414 71.453,75.334 71.453,75.332 71.567,75.332 71.57,75.339 71.583,75.343 71.61,75.345 71.654,75.346 71.671,75.346 71.723,75.345 71.756,75.343 71.773,75.338 71.779,75.331 71.78,75.329 71.773,75.31 71.755,75.284 71.747,75.275 71.719,75.25 71.689,75.24 71.673,75.239 71.63,75.249 71.593,75.278 71.57,75.319 71.57,75.32 71.567,75.332 71.453,75.332 71.466,75.271 71.49,75.221 71.519,75.186 71.573,75.147 71.636,75.127 71.704,75.125 71.77,75.142" fill="#f5f5f5" stroke="none" opacity="0.92"/><polygon points="73.934,75.985 73.982,75.997 73.996,76.003 74.023,76.019 74.043,76.037 74.058,76.061 74.069,76.093 74.076,76.136 74.081,76.194 74.083,76.269 74.084,76.32 74.088,76.539 74.025,76.539 73.986,76.537 73.967,76.532 73.961,76.522 73.959,76.512 73.947,76.514 73.93,76.522 73.889,76.535 73.836,76.538 73.78,76.532 73.731,76.519 73.726,76.517 73.681,76.485 73.651,76.441 73.638,76.389 73.639,76.371 73.751,76.371 73.76,76.396 73.79,76.413 73.837,76.423 73.862,76.424 73.904,76.421 73.932,76.408 73.939,76.402 73.957,76.37 73.961,76.34 73.961,76.3 73.906,76.3 73.842,76.303 73.796,76.314 73.768,76.332 73.762,76.34 73.751,76.371 73.639,76.371 73.641,76.335 73.661,76.283 73.689,76.248 73.706,76.233 73.723,76.223 73.744,76.217 73.776,76.214 73.824,76.212 73.843,76.211 73.961,76.207 73.961,76.171 73.957,76.133 73.94,76.111 73.907,76.096 73.906,76.096 73.858,76.09 73.812,76.098 73.777,76.116 73.763,76.125 73.748,76.124 73.725,76.111 73.712,76.101 73.685,76.082 73.669,76.067 73.666,76.063 73.677,76.041 73.709,76.015 73.723,76.006 73.763,75.991 73.816,75.982 73.876,75.98 73.934,75.985" fill="#f5f5f5" stroke="none" opacity="0.92"/><polygon points="71.745,75.986 71.798,76.001 71.839,76.026 71.868,76.06 71.876,76.075 71.883,76.09 71.888,76.109 71.891,76.136 71.892,76.175 71.893,76.228 71.893,76.3 71.893,76.319 71.893,76.539 71.839,76.539 71.804,76.536 71.778,76.53 71.772,76.526 71.754,76.52 71.736,76.526 71.707,76.535 71.664,76.538 71.616,76.536 71.572,76.53 71.547,76.523 71.497,76.491 71.467,76.447 71.453,76.389 71.453,76.387 71.454,76.361 71.564,76.361 71.573,76.391 71.589,76.407 71.62,76.42 71.662,76.425 71.704,76.422 71.738,76.413 71.748,76.406 71.764,76.377 71.768,76.344 71.768,76.3 71.705,76.3 71.646,76.305 71.6,76.318 71.572,76.338 71.564,76.361 71.454,76.361 71.456,76.323 71.477,76.273 71.516,76.235 71.522,76.231 71.545,76.22 71.574,76.213 71.615,76.21 71.663,76.209 71.768,76.209 71.768,76.165 71.764,76.131 71.753,76.108 71.751,76.107 71.726,76.097 71.688,76.093 71.645,76.095 71.608,76.102 71.586,76.113 71.574,76.122 71.561,76.124 71.544,76.116 71.517,76.099 71.478,76.068 71.474,76.065 71.476,76.055 71.491,76.037 71.515,76.018 71.541,76.001 71.549,75.997 71.579,75.99 71.623,75.984 71.672,75.982 71.674,75.982 71.745,75.986" fill="#f5f5f5" stroke="none" opacity="0.92"/><polygon points="71.271,75.139 71.295,75.151 71.324,75.172 71.346,75.194 71.36,75.222 71.37,75.26 71.374,75.312 71.376,75.381 71.376,75.41 71.376,75.475 71.375,75.521 71.372,75.553 71.367,75.575 71.36,75.592 71.353,75.603 71.306,75.65 71.25,75.678 71.19,75.686 71.129,75.674 71.11,75.665 71.064,75.641 71.064,76.017 71.097,75.999 71.142,75.986 71.196,75.982 71.25,75.989 71.291,76.003 71.325,76.03 71.354,76.069 71.356,76.073 71.365,76.092 71.372,76.111 71.377,76.134 71.38,76.164 71.381,76.207 71.382,76.265 71.382,76.33 71.382,76.539 71.257,76.539 71.257,76.154 71.222,76.125 71.186,76.101 71.151,76.097 71.117,76.108 71.098,76.119 71.085,76.134 71.075,76.158 71.068,76.192 71.064,76.241 71.062,76.307 71.061,76.351 71.058,76.533 70.998,76.536 70.939,76.54 70.939,75.412 71.064,75.412 71.067,75.475 71.078,75.518 71.098,75.545 71.129,75.559 71.16,75.561 71.196,75.558 71.22,75.546 71.234,75.53 71.246,75.513 71.253,75.494 71.256,75.467 71.256,75.427 71.255,75.393 71.253,75.342 71.249,75.309 71.243,75.287 71.234,75.273 71.224,75.265 71.186,75.247 71.141,75.244 71.115,75.25 71.09,75.272 71.073,75.315 71.065,75.378 71.064,75.412 70.939,75.412 70.939,75.13 71.001,75.13 71.039,75.131 71.058,75.136 71.064,75.147 71.064,75.147 71.066,75.157 71.078,75.156 71.101,75.145 71.154,75.128 71.214,75.126 71.271,75.139" fill="#f5f5f5" stroke="none" opacity="0.92"/><polygon points="73.336,71.363 73.388,71.635 73.767,71.791 73.994,71.637 74.058,71.594 74.115,71.555 74.164,71.523 74.201,71.499 74.225,71.485 74.231,71.482 74.242,71.49 74.266,71.511 74.301,71.544 74.343,71.585 74.389,71.631 74.438,71.68 74.486,71.729 74.53,71.776 74.569,71.817 74.598,71.849 74.616,71.871 74.62,71.878 74.614,71.891 74.597,71.92 74.57,71.962 74.536,72.014 74.496,72.074 74.473,72.108 74.431,72.169 74.393,72.225 74.362,72.272 74.339,72.308 74.327,72.329 74.325,72.333 74.329,72.346 74.341,72.375 74.358,72.417 74.379,72.467 74.402,72.522 74.426,72.577 74.448,72.628 74.467,72.671 74.481,72.702 74.488,72.717 74.488,72.717 74.5,72.72 74.531,72.727 74.577,72.736 74.637,72.747 74.706,72.76 74.746,72.768 74.82,72.782 74.887,72.795 74.943,72.807 74.985,72.817 75.01,72.824 75.015,72.826 75.02,72.841 75.024,72.875 75.027,72.923 75.029,72.983 75.031,73.049 75.031,73.118 75.03,73.187 75.028,73.25 75.026,73.305 75.022,73.347 75.018,73.372 75.015,73.378 74.999,73.384 74.965,73.393 74.918,73.404 74.861,73.415 74.842,73.419 74.747,73.436 74.672,73.45 74.615,73.461 74.572,73.47 74.542,73.477 74.522,73.483 74.51,73.489 74.502,73.494 74.501,73.495 74.491,73.512 74.475,73.546 74.456,73.591 74.434,73.644 74.412,73.702 74.39,73.759 74.371,73.812 74.356,73.857 74.346,73.889 74.344,73.905 74.344,73.906 74.352,73.919 74.372,73.948 74.4,73.989 74.435,74.041 74.475,74.099 74.486,74.115 74.526,74.175 74.562,74.229 74.591,74.275 74.611,74.31 74.62,74.33 74.62,74.332 74.613,74.345 74.591,74.371 74.558,74.407 74.517,74.449 74.47,74.496 74.421,74.545 74.372,74.593 74.325,74.637 74.285,74.674 74.253,74.702 74.232,74.718 74.226,74.721 74.213,74.715 74.185,74.698 74.148,74.674 74.119,74.655 74.068,74.619 74.007,74.577 73.945,74.535 73.912,74.513 73.801,74.437 73.707,74.488 73.664,74.51 73.628,74.528 73.603,74.537 73.597,74.539 73.589,74.529 73.575,74.5 73.553,74.456 73.527,74.398 73.497,74.33 73.464,74.254 73.429,74.172 73.394,74.088 73.359,74.004 73.325,73.923 73.294,73.847 73.267,73.778 73.245,73.721 73.229,73.676 73.22,73.647 73.218,73.638 73.23,73.625 73.255,73.605 73.29,73.581 73.292,73.579 73.381,73.508 73.452,73.426 73.505,73.334 73.54,73.236 73.556,73.134 73.553,73.031 73.53,72.93 73.485,72.832 73.472,72.811 73.404,72.724 73.324,72.655 73.235,72.603 73.138,72.569 73.038,72.553 72.936,72.555 72.836,72.576 72.741,72.616 72.652,72.676 72.625,72.7 72.555,72.776 72.504,72.856 72.469,72.946 72.45,73.035 72.445,73.134 72.461,73.235 72.496,73.332 72.549,73.423 72.617,73.505 72.7,73.573 72.711,73.58 72.746,73.604 72.772,73.624 72.784,73.637 72.785,73.638 72.782,73.652 72.771,73.684 72.754,73.731 72.73,73.791 72.702,73.861 72.671,73.938 72.637,74.021 72.602,74.105 72.566,74.189 72.532,74.269 72.499,74.344 72.47,74.41 72.444,74.465 72.425,74.507 72.411,74.532 72.406,74.539 72.389,74.534 72.358,74.52 72.318,74.5 72.296,74.488 72.202,74.437 72.09,74.513 72.033,74.552 71.971,74.594 71.912,74.634 71.883,74.655 71.842,74.682 71.807,74.704 71.783,74.718 71.775,74.72 71.764,74.713 71.739,74.691 71.702,74.659 71.657,74.616 71.605,74.567 71.572,74.536 71.515,74.479 71.465,74.429 71.425,74.387 71.397,74.355 71.383,74.335 71.382,74.331 71.388,74.316 71.405,74.285 71.432,74.242 71.466,74.19 71.505,74.131 71.516,74.115 71.557,74.056 71.594,74.002 71.624,73.958 71.646,73.925 71.658,73.908 71.659,73.906 71.657,73.892 71.648,73.861 71.633,73.817 71.615,73.765 71.593,73.708 71.571,73.65 71.549,73.596 71.529,73.55 71.513,73.515 71.502,73.496 71.501,73.495 71.494,73.49 71.483,73.484 71.465,73.479 71.437,73.472 71.397,73.463 71.343,73.452 71.271,73.439 71.18,73.422 71.161,73.419 71.103,73.407 71.052,73.396 71.013,73.387 70.991,73.379 70.987,73.378 70.983,73.363 70.979,73.329 70.975,73.28 70.973,73.22 70.972,73.154 70.972,73.085 70.972,73.016 70.974,72.953 70.977,72.898 70.98,72.856 70.984,72.831 70.987,72.826 71.002,72.821 71.036,72.812 71.085,72.801 71.147,72.789 71.218,72.775 71.256,72.768 71.329,72.754 71.394,72.742 71.448,72.731 71.488,72.723 71.51,72.718 71.514,72.717 71.52,72.705 71.533,72.677 71.552,72.635 71.573,72.585 71.597,72.53 71.62,72.475 71.641,72.424 71.659,72.38 71.672,72.349 71.677,72.333 71.677,72.332 71.671,72.32 71.654,72.292 71.627,72.251 71.593,72.2 71.553,72.141 71.53,72.107 71.487,72.045 71.45,71.989 71.419,71.941 71.396,71.905 71.384,71.883 71.382,71.878 71.39,71.866 71.411,71.842 71.443,71.807 71.483,71.764 71.529,71.717 71.577,71.668 71.626,71.619 71.671,71.574 71.712,71.535 71.744,71.505 71.765,71.486 71.772,71.482 71.783,71.488 71.811,71.505 71.852,71.532 71.904,71.566 71.963,71.606 72.008,71.637 72.236,71.791 72.425,71.713 72.615,71.635 72.666,71.363 72.718,71.09 73.285,71.09 73.336,71.363" fill="#f5f5f5" stroke="none" opacity="0.92"/><polygon points="27.156,49.717 26.948,49.993 27.363,49.993" fill="#f5f5f5" stroke="none" opacity="0.92"/><polygon points="27.156,49.699 26.948,49.976 27.363,49.976" fill="#f5f5f5" stroke="none" opacity="0.92"/><polygon points="28.866,49.7 28.658,49.976 29.073,49.976" fill="#f5f5f5" stroke="none" opacity="0.92"/><polygon points="25.551,45.192 25.344,45.468 25.758,45.468" fill="#f5f5f5" stroke="none" opacity="0.92"/><polygon points="28.988,45.174 28.781,45.45 29.196,45.45" fill="#f5f5f5" stroke="none" opacity="0.92"/><polygon points="25.446,49.716 25.238,49.993 25.653,49.993" fill="#f5f5f5" stroke="none" opacity="0.92"/><line x1="27.156" y1="50.356" x2="28.866" y2="50.356" stroke="#f5f5f5" stroke-width="0.5" stroke-linecap="round" opacity="0.92"/><line x1="28.988" y1="45.831" x2="28.988" y2="45.209" stroke="#f5f5f5" stroke-width="0.5" stroke-linecap="round" opacity="0.92"/><line x1="25.446" y1="49.716" x2="25.446" y2="50.355" stroke="#f5f5f5" stroke-width="0.5" stroke-linecap="round" opacity="0.92"/><line x1="27.156" y1="49.717" x2="27.156" y2="50.356" stroke="#f5f5f5" stroke-width="0.5" stroke-linecap="round" opacity="0.92"/><line x1="27.156" y1="50.356" x2="27.156" y2="49.734" stroke="#f5f5f5" stroke-width="0.5" stroke-linecap="round" opacity="0.92"/><line x1="25.551" y1="45.831" x2="28.988" y2="45.831" stroke="#f5f5f5" stroke-width="0.5" stroke-linecap="round" opacity="0.92"/><line x1="25.551" y1="45.192" x2="25.551" y2="45.831" stroke="#f5f5f5" stroke-width="0.5" stroke-linecap="round" opacity="0.92"/><line x1="28.866" y1="50.357" x2="28.866" y2="49.735" stroke="#f5f5f5" stroke-width="0.5" stroke-linecap="round" opacity="0.92"/><line x1="25.446" y1="50.355" x2="27.156" y2="50.355" stroke="#f5f5f5" stroke-width="0.5" stroke-linecap="round" opacity="0.92"/><text x="18.934" y="78.475" font-size="3.0" font-family="sans-serif" fill="#f5f5f5" text-anchor="start" dominant-baseline="alphabetic" opacity="0.96"><tspan x="18.934" dy="-0.0">IO39</tspan></text><text x="43.409" y="51.617" font-size="3.0" font-family="sans-serif" fill="#f5f5f5" text-anchor="start" dominant-baseline="alphabetic" opacity="0.96"><tspan x="43.409" dy="-134.55">IO00 -&gt; BOOT</tspan><tspan x="43.409" dy="3.45">IO01 -&gt; TX</tspan><tspan x="43.409" dy="3.45">IO02 -&gt; DTH11 M2B</tspan><tspan x="43.409" dy="3.45">IO03 -&gt; RX</tspan><tspan x="43.409" dy="3.45">IO04 -&gt; -</tspan><tspan x="43.409" dy="3.45">IO05 -&gt; -</tspan><tspan x="43.409" dy="3.45">IO06 -&gt; X</tspan><tspan x="43.409" dy="3.45">IO07 -&gt; X</tspan><tspan x="43.409" dy="3.45">IO08 -&gt; X</tspan><tspan x="43.409" dy="3.45">IO09 -&gt; X</tspan><tspan x="43.409" dy="3.45">IO10 -&gt; X</tspan><tspan x="43.409" dy="3.45">IO11 -&gt; X</tspan><tspan x="43.409" dy="3.45">IO12 -&gt; K2 ECHO</tspan><tspan x="43.409" dy="3.45">IO13 -&gt; K1 TRIGGER</tspan><tspan x="43.409" dy="3.45">IO14 -&gt; K3 SERVO</tspan><tspan x="43.409" dy="3.45">IO15 -&gt; DS18B M1B</tspan><tspan x="43.409" dy="3.45">IO16 -&gt; K5</tspan><tspan x="43.409" dy="3.45">IO17 -&gt; K6</tspan><tspan x="43.409" dy="3.45">IO18 -&gt; -</tspan><tspan x="43.409" dy="3.45">IO19 -&gt; -</tspan><tspan x="43.409" dy="3.45">IO20 -&gt; X</tspan><tspan x="43.409" dy="3.45">IO21 -&gt; -</tspan><tspan x="43.409" dy="3.45">IO22 -&gt; -</tspan><tspan x="43.409" dy="3.45">IO23 -&gt; -</tspan><tspan x="43.409" dy="3.45">IO24 -&gt; X</tspan><tspan x="43.409" dy="3.45">IO25 -&gt; K7</tspan><tspan x="43.409" dy="3.45">IO26 -&gt; K8</tspan><tspan x="43.409" dy="3.45">IO27 -&gt; K4</tspan><tspan x="43.409" dy="3.45">IO28 -&gt; X</tspan><tspan x="43.409" dy="3.45">IO29 -&gt; X</tspan><tspan x="43.409" dy="3.45">IO30 -&gt; X</tspan><tspan x="43.409" dy="3.45">IO31 -&gt; X</tspan><tspan x="43.409" dy="3.45">IO32 -&gt; BUZZER M2A</tspan><tspan x="43.409" dy="3.45">IO33 -&gt; M1A</tspan><tspan x="43.409" dy="3.45">IO34 -&gt; POT_1/LDR</tspan><tspan x="43.409" dy="3.45">IO35 -&gt; POT_2/LM35</tspan><tspan x="43.409" dy="3.45">IO36 -&gt; DI VP</tspan><tspan x="43.409" dy="3.45">IO37 -&gt; X</tspan><tspan x="43.409" dy="3.45">IO38 -&gt; X</tspan><tspan x="43.409" dy="3.45">IO39 -&gt; DI VN</tspan></text><text x="21.646" y="50.292" font-size="3.0" font-family="sans-serif" fill="#f5f5f5" text-anchor="start" dominant-baseline="alphabetic" opacity="0.96" transform="rotate(90.0 21.646 50.292)"><tspan x="21.646" dy="-0.0">3V3</tspan></text><text x="30.662" y="17.211" font-size="3.0" font-family="sans-serif" fill="#f5f5f5" text-anchor="start" dominant-baseline="alphabetic" opacity="0.96"><tspan x="30.662" dy="-0.0">V EXT</tspan></text><text x="57.433" y="63.034" font-size="3.0" font-family="sans-serif" fill="#f5f5f5" text-anchor="start" dominant-baseline="alphabetic" opacity="0.96"><tspan x="57.433" dy="-0.0">IO34/A</tspan></text><text x="81.804" y="60.161" font-size="3.0" font-family="sans-serif" fill="#f5f5f5" text-anchor="start" dominant-baseline="alphabetic" opacity="0.96"><tspan x="81.804" dy="-0.0">M1B</tspan></text><text x="25.446" y="59.148" font-size="3.0" font-family="sans-serif" fill="#f5f5f5" text-anchor="start" dominant-baseline="alphabetic" opacity="0.96"><tspan x="25.446" dy="-3.45">TRIGGER/</tspan><tspan x="25.446" dy="3.45">IO13</tspan></text><text x="30.458" y="83.441" font-size="3.0" font-family="sans-serif" fill="#f5f5f5" text-anchor="start" dominant-baseline="alphabetic" opacity="0.96"><tspan x="30.458" dy="-0.0">IO12K</tspan></text><text x="26.854" y="49.049" font-size="3.0" font-family="sans-serif" fill="#f5f5f5" text-anchor="start" dominant-baseline="alphabetic" opacity="0.96"><tspan x="26.854" dy="-0.0">5V</tspan></text><text x="60.439" y="52.895" font-size="3.0" font-family="sans-serif" fill="#f5f5f5" text-anchor="start" dominant-baseline="alphabetic" opacity="0.96"><tspan x="60.439" dy="-0.0">IO02-DTH11</tspan></text><text x="28.876" y="49.596" font-size="3.0" font-family="sans-serif" fill="#f5f5f5" text-anchor="middle" dominant-baseline="alphabetic" opacity="0.96"><tspan x="28.876" dy="-3.45">VCC</tspan><tspan x="28.876" dy="3.45">RAW</tspan></text><text x="81.562" y="48.75" font-size="3.0" font-family="sans-serif" fill="#f5f5f5" text-anchor="start" dominant-baseline="alphabetic" opacity="0.96"><tspan x="81.562" dy="-0.0">IO05</tspan></text><text x="81.804" y="63.811" font-size="3.0" font-family="sans-serif" fill="#f5f5f5" text-anchor="start" dominant-baseline="alphabetic" opacity="0.96"><tspan x="81.804" dy="-0.0">M2B</tspan></text><text x="49.747" y="70.392" font-size="3.0" font-family="sans-serif" fill="#f5f5f5" text-anchor="start" dominant-baseline="alphabetic" opacity="0.96" transform="rotate(-90.0 49.747 70.392)"><tspan x="49.747" dy="-0.0">IO36/D</tspan></text><text x="50.749" y="83.398" font-size="3.0" font-family="sans-serif" fill="#f5f5f5" text-anchor="start" dominant-baseline="alphabetic" opacity="0.96"><tspan x="50.749" dy="-0.0">IO35</tspan></text><text x="61.561" y="40.39" font-size="3.0" font-family="sans-serif" fill="#f5f5f5" text-anchor="start" dominant-baseline="alphabetic" opacity="0.96" transform="rotate(-90.0 61.561 40.39)"><tspan x="61.561" dy="-0.0">IO04</tspan></text><text x="45.568" y="83.398" font-size="3.0" font-family="sans-serif" fill="#f5f5f5" text-anchor="start" dominant-baseline="alphabetic" opacity="0.96"><tspan x="45.568" dy="-0.0">IO39</tspan></text><text x="25.974" y="42.567" font-size="3.0" font-family="sans-serif" fill="#f5f5f5" text-anchor="start" dominant-baseline="alphabetic" opacity="0.96"><tspan x="25.974" dy="-0.0">3V3_INT</tspan></text><text x="41.553" y="83.441" font-size="3.0" font-family="sans-serif" fill="#f5f5f5" text-anchor="start" dominant-baseline="alphabetic" opacity="0.96"><tspan x="41.553" dy="-0.0">IO26K</tspan></text><text x="28.15" y="80.272" font-size="3.0" font-family="sans-serif" fill="#f5f5f5" text-anchor="middle" dominant-baseline="middle" opacity="0.96" transform="rotate(-90.0 28.15 80.272)"><tspan x="28.15" dy="-0.0">KEYPAD</tspan></text><text x="34.496" y="59.32" font-size="3.0" font-family="sans-serif" fill="#f5f5f5" text-anchor="start" dominant-baseline="alphabetic" opacity="0.96"><tspan x="34.496" dy="-0.0">SERVO-IO04</tspan></text><text x="30.309" y="64.485" font-size="3.0" font-family="sans-serif" fill="#f5f5f5" text-anchor="start" dominant-baseline="alphabetic" opacity="0.96" transform="rotate(-90.0 30.309 64.485)"><tspan x="30.309" dy="-0.0">IO13</tspan></text><text x="62.75" y="44.76" font-size="3.0" font-family="sans-serif" fill="#f5f5f5" text-anchor="start" dominant-baseline="alphabetic" opacity="0.96"><tspan x="62.75" dy="-0.0">DATA</tspan></text><text x="63.6" y="61.537" font-size="3.0" font-family="sans-serif" fill="#f5f5f5" text-anchor="start" dominant-baseline="alphabetic" opacity="0.96"><tspan x="63.6" dy="-0.0">IO32-IN2A</tspan></text><text x="81.545" y="51.496" font-size="3.0" font-family="sans-serif" fill="#f5f5f5" text-anchor="start" dominant-baseline="alphabetic" opacity="0.96"><tspan x="81.545" dy="-0.0">IO22</tspan></text><text x="81.804" y="61.986" font-size="3.0" font-family="sans-serif" fill="#f5f5f5" text-anchor="start" dominant-baseline="alphabetic" opacity="0.96"><tspan x="81.804" dy="-0.0">M2A</tspan></text><text x="66.011" y="22.237" font-size="3.0" font-family="sans-serif" fill="#f5f5f5" text-anchor="start" dominant-baseline="alphabetic" opacity="0.96"><tspan x="66.011" dy="-0.0">IO33-OUT</tspan></text><text x="81.545" y="52.619" font-size="3.0" font-family="sans-serif" fill="#f5f5f5" text-anchor="start" dominant-baseline="alphabetic" opacity="0.96"><tspan x="81.545" dy="-0.0">I2C</tspan></text><text x="63.883" y="46.487" font-size="3.0" font-family="sans-serif" fill="#f5f5f5" text-anchor="start" dominant-baseline="alphabetic" opacity="0.96"><tspan x="63.883" dy="-0.0">5V</tspan></text><text x="18.934" y="59.153" font-size="3.0" font-family="sans-serif" fill="#f5f5f5" text-anchor="start" dominant-baseline="alphabetic" opacity="0.96"><tspan x="18.934" dy="-0.0">TRG</tspan></text><text x="79.317" y="56.747" font-size="3.0" font-family="sans-serif" fill="#f5f5f5" text-anchor="start" dominant-baseline="alphabetic" opacity="0.96"><tspan x="79.317" dy="-0.0">MOTOR</tspan></text><text x="38.945" y="64.485" font-size="3.0" font-family="sans-serif" fill="#f5f5f5" text-anchor="start" dominant-baseline="alphabetic" opacity="0.96" transform="rotate(-90.0 38.945 64.485)"><tspan x="38.945" dy="-0.0">IO17</tspan></text><text x="49.16" y="63.276" font-size="3.0" font-family="sans-serif" fill="#f5f5f5" text-anchor="start" dominant-baseline="alphabetic" opacity="0.96"><tspan x="49.16" dy="-0.0">BUZZER</tspan></text><text x="56.963" y="83.398" font-size="3.0" font-family="sans-serif" fill="#f5f5f5" text-anchor="start" dominant-baseline="alphabetic" opacity="0.96"><tspan x="56.963" dy="-0.0">DS18B20</tspan></text><text x="63.041" y="48.214" font-size="3.0" font-family="sans-serif" fill="#f5f5f5" text-anchor="start" dominant-baseline="alphabetic" opacity="0.96"><tspan x="63.041" dy="-0.0">GND</tspan></text><text x="61.907" y="17.142" font-size="3.0" font-family="sans-serif" fill="#f5f5f5" text-anchor="start" dominant-baseline="alphabetic" opacity="0.96"><tspan x="61.907" dy="-0.0">RX</tspan></text><text x="81.562" y="45.244" font-size="3.0" font-family="sans-serif" fill="#f5f5f5" text-anchor="start" dominant-baseline="alphabetic" opacity="0.96"><tspan x="81.562" dy="-0.0">IO19</tspan></text><text x="25.283" y="49.596" font-size="3.0" font-family="sans-serif" fill="#f5f5f5" text-anchor="middle" dominant-baseline="alphabetic" opacity="0.96"><tspan x="25.283" dy="-3.45">5V</tspan><tspan x="25.283" dy="3.45">ESP32</tspan></text><text x="63.6" y="56.436" font-size="3.0" font-family="sans-serif" fill="#f5f5f5" text-anchor="start" dominant-baseline="alphabetic" opacity="0.96"><tspan x="63.6" dy="-0.0">IO33-IN1A</tspan></text><text x="21.577" y="42.843" font-size="3.0" font-family="sans-serif" fill="#f5f5f5" text-anchor="start" dominant-baseline="alphabetic" opacity="0.96" transform="rotate(-270.0 21.577 42.843)"><tspan x="21.577" dy="-0.0">5V</tspan></text><text x="53.202" y="70.392" font-size="3.0" font-family="sans-serif" fill="#f5f5f5" text-anchor="start" dominant-baseline="alphabetic" opacity="0.96" transform="rotate(-90.0 53.202 70.392)"><tspan x="53.202" dy="-0.0">IO34/A</tspan></text><text x="25.515" y="61.911" font-size="3.0" font-family="sans-serif" fill="#f5f5f5" text-anchor="start" dominant-baseline="alphabetic" opacity="0.96"><tspan x="25.515" dy="-3.45">ECHO/</tspan><tspan x="25.515" dy="3.45">IO12</tspan></text><text x="40.673" y="64.485" font-size="3.0" font-family="sans-serif" fill="#f5f5f5" text-anchor="start" dominant-baseline="alphabetic" opacity="0.96" transform="rotate(-90.0 40.673 64.485)"><tspan x="40.673" dy="-0.0">IO25</tspan></text><text x="19.021" y="62.654" font-size="3.0" font-family="sans-serif" fill="#f5f5f5" text-anchor="start" dominant-baseline="alphabetic" opacity="0.96"><tspan x="19.021" dy="-0.0">GND</tspan></text><text x="21.56" y="34.639" font-size="3.0" font-family="sans-serif" fill="#f5f5f5" text-anchor="start" dominant-baseline="alphabetic" opacity="0.96" transform="rotate(-270.0 21.56 34.639)"><tspan x="21.56" dy="-0.0">GND</tspan></text><text x="66.011" y="30.044" font-size="3.0" font-family="sans-serif" fill="#f5f5f5" text-anchor="start" dominant-baseline="alphabetic" opacity="0.96"><tspan x="66.011" dy="-0.0">IO32-OUT</tspan></text><text x="61.561" y="28.265" font-size="3.0" font-family="sans-serif" fill="#f5f5f5" text-anchor="start" dominant-baseline="alphabetic" opacity="0.96" transform="rotate(-90.0 61.561 28.265)"><tspan x="61.561" dy="-0.0">IO15</tspan></text><text x="70.526" y="20.044" font-size="3.0" font-family="sans-serif" fill="#f5f5f5" text-anchor="start" dominant-baseline="alphabetic" opacity="0.96" transform="rotate(-90.0 70.526 20.044)"><tspan x="70.526" dy="-0.0">RESET</tspan></text><text x="64.762" y="83.398" font-size="3.0" font-family="sans-serif" fill="#f5f5f5" text-anchor="start" dominant-baseline="alphabetic" opacity="0.96"><tspan x="64.762" dy="-0.0">IO35/A</tspan></text><text x="26.083" y="31.409" font-size="3.0" font-family="sans-serif" fill="#f5f5f5" text-anchor="start" dominant-baseline="alphabetic" opacity="0.96"><tspan x="26.083" dy="-0.0">3V3_INT</tspan></text><text x="48.158" y="83.398" font-size="3.0" font-family="sans-serif" fill="#f5f5f5" text-anchor="start" dominant-baseline="alphabetic" opacity="0.96"><tspan x="48.158" dy="-0.0">IO36</tspan></text><text x="81.562" y="43.551" font-size="3.0" font-family="sans-serif" fill="#f5f5f5" text-anchor="start" dominant-baseline="alphabetic" opacity="0.96"><tspan x="81.562" dy="-0.0">IO18</tspan></text><text x="77.901" y="41.831" font-size="3.0" font-family="sans-serif" fill="#f5f5f5" text-anchor="start" dominant-baseline="alphabetic" opacity="0.96"><tspan x="77.901" dy="-0.0">SPI</tspan></text><text x="70.522" y="48.214" font-size="3.0" font-family="sans-serif" fill="#f5f5f5" text-anchor="start" dominant-baseline="alphabetic" opacity="0.96"><tspan x="70.522" dy="-0.0">GND</tspan></text><text x="37.218" y="64.485" font-size="3.0" font-family="sans-serif" fill="#f5f5f5" text-anchor="start" dominant-baseline="alphabetic" opacity="0.96" transform="rotate(-90.0 37.218 64.485)"><tspan x="37.218" dy="-0.0">IO16</tspan></text><text x="56.501" y="69.217" font-size="3.0" font-family="sans-serif" fill="#f5f5f5" text-anchor="start" dominant-baseline="alphabetic" opacity="0.96"><tspan x="56.501" dy="-0.0">IO15-DS</tspan></text><text x="55.983" y="37.73" font-size="3.0" font-family="sans-serif" fill="#f5f5f5" text-anchor="start" dominant-baseline="alphabetic" opacity="0.96" transform="rotate(-90.0 55.983 37.73)"><tspan x="55.983" dy="-3.45">x -&gt; No connection</tspan><tspan x="55.983" dy="3.45">- Free</tspan></text><text x="63.6" y="58.986" font-size="3.0" font-family="sans-serif" fill="#f5f5f5" text-anchor="start" dominant-baseline="alphabetic" opacity="0.96"><tspan x="63.6" dy="-0.0">IO15-IN1B</tspan></text><text x="70.522" y="46.487" font-size="3.0" font-family="sans-serif" fill="#f5f5f5" text-anchor="start" dominant-baseline="alphabetic" opacity="0.96"><tspan x="70.522" dy="-0.0">DATA</tspan></text><text x="34.156" y="83.441" font-size="3.0" font-family="sans-serif" fill="#f5f5f5" text-anchor="start" dominant-baseline="alphabetic" opacity="0.96"><tspan x="34.156" dy="-0.0">IO27K</tspan></text><text x="26.223" y="50.857" font-size="3.0" font-family="sans-serif" fill="#f5f5f5" text-anchor="start" dominant-baseline="alphabetic" opacity="0.96"><tspan x="26.223" dy="-0.0">BYPASS</tspan></text><text x="61.561" y="32.307" font-size="3.0" font-family="sans-serif" fill="#f5f5f5" text-anchor="start" dominant-baseline="alphabetic" opacity="0.96" transform="rotate(-90.0 61.561 32.307)"><tspan x="61.561" dy="-0.0">IO32</tspan></text><text x="32.579" y="57.481" font-size="3.0" font-family="sans-serif" fill="#f5f5f5" text-anchor="start" dominant-baseline="alphabetic" opacity="0.96"><tspan x="32.579" dy="-0.0">5V</tspan></text><text x="75.69" y="71.324" font-size="3.0" font-family="sans-serif" fill="#f5f5f5" text-anchor="start" dominant-baseline="alphabetic" opacity="0.96" transform="rotate(-90.0 75.69 71.324)"><tspan x="75.69" dy="-0.0">IO34/A</tspan></text><text x="66.011" y="33.982" font-size="3.0" font-family="sans-serif" fill="#f5f5f5" text-anchor="start" dominant-baseline="alphabetic" opacity="0.96"><tspan x="66.011" dy="-0.0">IO02-OUT</tspan></text><text x="37.855" y="83.441" font-size="3.0" font-family="sans-serif" fill="#f5f5f5" text-anchor="start" dominant-baseline="alphabetic" opacity="0.96"><tspan x="37.855" dy="-0.0">IO17K</tspan></text><text x="71.847" y="83.398" font-size="3.0" font-family="sans-serif" fill="#f5f5f5" text-anchor="start" dominant-baseline="alphabetic" opacity="0.96"><tspan x="71.847" dy="-0.0">LM35</tspan></text><text x="23.087" y="30.407" font-size="3.0" font-family="sans-serif" fill="#f5f5f5" text-anchor="start" dominant-baseline="alphabetic" opacity="0.96"><tspan x="23.087" dy="-0.0">-</tspan></text><text x="63.791" y="71.729" font-size="3.0" font-family="sans-serif" fill="#f5f5f5" text-anchor="start" dominant-baseline="alphabetic" opacity="0.96"><tspan x="63.791" dy="-0.0">PRST-LM35</tspan></text><text x="63.738" y="17.142" font-size="3.0" font-family="sans-serif" fill="#f5f5f5" text-anchor="start" dominant-baseline="alphabetic" opacity="0.96"><tspan x="63.738" dy="-0.0">TX</tspan></text><text x="19.021" y="60.904" font-size="3.0" font-family="sans-serif" fill="#f5f5f5" text-anchor="start" dominant-baseline="alphabetic" opacity="0.96"><tspan x="19.021" dy="-0.0">ECHO</tspan></text><text x="23.087" y="26.918" font-size="3.0" font-family="sans-serif" fill="#f5f5f5" text-anchor="start" dominant-baseline="alphabetic" opacity="0.96"><tspan x="23.087" dy="-0.0">+</tspan></text><text x="22.009" y="19.819" font-size="3.0" font-family="sans-serif" fill="#f5f5f5" text-anchor="start" dominant-baseline="alphabetic" opacity="0.96" transform="rotate(-90.0 22.009 19.819)"><tspan x="22.009" dy="-0.0">BOOT</tspan></text><text x="34.373" y="31.409" font-size="3.0" font-family="sans-serif" fill="#f5f5f5" text-anchor="start" dominant-baseline="alphabetic" opacity="0.96"><tspan x="34.373" dy="-0.0">3V3</tspan></text><text x="81.804" y="58.336" font-size="3.0" font-family="sans-serif" fill="#f5f5f5" text-anchor="start" dominant-baseline="alphabetic" opacity="0.96"><tspan x="81.804" dy="-0.0">M1A</tspan></text><text x="53.34" y="83.398" font-size="3.0" font-family="sans-serif" fill="#f5f5f5" text-anchor="start" dominant-baseline="alphabetic" opacity="0.96"><tspan x="53.34" dy="-0.0">IO34</tspan></text><text x="66.011" y="26.175" font-size="3.0" font-family="sans-serif" fill="#f5f5f5" text-anchor="start" dominant-baseline="alphabetic" opacity="0.96"><tspan x="66.011" dy="-0.0">IO15-OUT</tspan></text><text x="23.131" y="22.98" font-size="3.0" font-family="sans-serif" fill="#f5f5f5" text-anchor="middle" dominant-baseline="alphabetic" opacity="0.96" transform="rotate(-90.0 23.131 22.98)"><tspan x="23.131" dy="-0.0">VCC</tspan></text><text x="35.491" y="64.485" font-size="3.0" font-family="sans-serif" fill="#f5f5f5" text-anchor="start" dominant-baseline="alphabetic" opacity="0.96" transform="rotate(-90.0 35.491 64.485)"><tspan x="35.491" dy="-0.0">IO27</tspan></text><text x="32.307" y="83.441" font-size="3.0" font-family="sans-serif" fill="#f5f5f5" text-anchor="start" dominant-baseline="alphabetic" opacity="0.96"><tspan x="32.307" dy="-0.0">IO14K</tspan></text><text x="73.487" y="56.937" font-size="3.0" font-family="sans-serif" fill="#f5f5f5" text-anchor="start" dominant-baseline="alphabetic" opacity="0.96"><tspan x="73.487" dy="-0.0">BRIDGE H</tspan></text><text x="66.011" y="37.851" font-size="3.0" font-family="sans-serif" fill="#f5f5f5" text-anchor="start" dominant-baseline="alphabetic" opacity="0.96"><tspan x="66.011" dy="-0.0">IO04-OUT</tspan></text><text x="28.634" y="83.441" font-size="3.0" font-family="sans-serif" fill="#f5f5f5" text-anchor="start" dominant-baseline="alphabetic" opacity="0.96"><tspan x="28.634" dy="-0.0">IO13K</tspan></text><text x="70.522" y="44.76" font-size="3.0" font-family="sans-serif" fill="#f5f5f5" text-anchor="start" dominant-baseline="alphabetic" opacity="0.96"><tspan x="70.522" dy="-0.0">5V</tspan></text><text x="32.579" y="55.711" font-size="3.0" font-family="sans-serif" fill="#f5f5f5" text-anchor="start" dominant-baseline="alphabetic" opacity="0.96"><tspan x="32.579" dy="-0.0">PWM</tspan></text><text x="18.986" y="57.403" font-size="3.0" font-family="sans-serif" fill="#f5f5f5" text-anchor="start" dominant-baseline="alphabetic" opacity="0.96"><tspan x="18.986" dy="-0.0">5V</tspan></text><text x="61.561" y="24.224" font-size="3.0" font-family="sans-serif" fill="#f5f5f5" text-anchor="start" dominant-baseline="alphabetic" opacity="0.96" transform="rotate(-90.0 61.561 24.224)"><tspan x="61.561" dy="-0.0">IO33</tspan></text><text x="81.562" y="46.919" font-size="3.0" font-family="sans-serif" fill="#f5f5f5" text-anchor="start" dominant-baseline="alphabetic" opacity="0.96"><tspan x="81.562" dy="-0.0">IO23</tspan></text><text x="32.579" y="59.251" font-size="3.0" font-family="sans-serif" fill="#f5f5f5" text-anchor="start" dominant-baseline="alphabetic" opacity="0.96"><tspan x="32.579" dy="-0.0">GND</tspan></text><text x="42.4" y="64.485" font-size="3.0" font-family="sans-serif" fill="#f5f5f5" text-anchor="start" dominant-baseline="alphabetic" opacity="0.96" transform="rotate(-90.0 42.4 64.485)"><tspan x="42.4" dy="-0.0">IO26</tspan></text><text x="56.82" y="60.201" font-size="3.0" font-family="sans-serif" fill="#f5f5f5" text-anchor="start" dominant-baseline="alphabetic" opacity="0.96"><tspan x="56.82" dy="-0.0">BUZZER-IO32</tspan></text><text x="46.863" y="53.068" font-size="3.0" font-family="sans-serif" fill="#f5f5f5" text-anchor="start" dominant-baseline="alphabetic" opacity="0.96"><tspan x="46.863" dy="-0.0">DevKitV4</tspan></text><text x="24.099" y="28.213" font-size="3.0" font-family="sans-serif" fill="#f5f5f5" text-anchor="middle" dominant-baseline="alphabetic" opacity="0.96"><tspan x="24.099" dy="-0.0">VCC</tspan></text><text x="33.978" y="17.194" font-size="3.0" font-family="sans-serif" fill="#f5f5f5" text-anchor="start" dominant-baseline="alphabetic" opacity="0.96"><tspan x="33.978" dy="-0.0">V BOARD</tspan></text><text x="63.6" y="64.087" font-size="3.0" font-family="sans-serif" fill="#f5f5f5" text-anchor="start" dominant-baseline="alphabetic" opacity="0.96"><tspan x="63.6" dy="-0.0">IO02-IN2B</tspan></text><text x="33.764" y="64.485" font-size="3.0" font-family="sans-serif" fill="#f5f5f5" text-anchor="start" dominant-baseline="alphabetic" opacity="0.96" transform="rotate(-90.0 33.764 64.485)"><tspan x="33.764" dy="-0.0">IO14</tspan></text><text x="18.934" y="70.271" font-size="3.0" font-family="sans-serif" fill="#f5f5f5" text-anchor="start" dominant-baseline="alphabetic" opacity="0.96"><tspan x="18.934" dy="-0.0">IO36</tspan></text><text x="51.475" y="70.392" font-size="3.0" font-family="sans-serif" fill="#f5f5f5" text-anchor="start" dominant-baseline="alphabetic" opacity="0.96" transform="rotate(-90.0 51.475 70.392)"><tspan x="51.475" dy="-0.0">IO35/A</tspan></text><text x="81.545" y="53.638" font-size="3.0" font-family="sans-serif" fill="#f5f5f5" text-anchor="start" dominant-baseline="alphabetic" opacity="0.96"><tspan x="81.545" dy="-0.0">IO21</tspan></text><text x="39.704" y="83.441" font-size="3.0" font-family="sans-serif" fill="#f5f5f5" text-anchor="start" dominant-baseline="alphabetic" opacity="0.96"><tspan x="39.704" dy="-0.0">IO25K</tspan></text><text x="30.189" y="42.532" font-size="3.0" font-family="sans-serif" fill="#f5f5f5" text-anchor="start" dominant-baseline="alphabetic" opacity="0.96"><tspan x="30.189" dy="-0.0">3V3</tspan></text><text x="25.81" y="45.675" font-size="3.0" font-family="sans-serif" fill="#f5f5f5" text-anchor="start" dominant-baseline="alphabetic" opacity="0.96"><tspan x="25.81" dy="-0.0">3V3_ESP32</tspan></text><text x="64.446" y="67.256" font-size="3.0" font-family="sans-serif" fill="#f5f5f5" text-anchor="start" dominant-baseline="alphabetic" opacity="0.96"><tspan x="64.446" dy="-0.0">POT-LDR</tspan></text><text x="19.988" y="56.937" font-size="3.0" font-family="sans-serif" fill="#f5f5f5" text-anchor="start" dominant-baseline="alphabetic" opacity="0.96"><tspan x="19.988" dy="-0.0">ULTRASONIC</tspan></text><text x="36.006" y="83.441" font-size="3.0" font-family="sans-serif" fill="#f5f5f5" text-anchor="start" dominant-baseline="alphabetic" opacity="0.96"><tspan x="36.006" dy="-0.0">IO16K</tspan></text><text x="66.204" y="50.373" font-size="3.0" font-family="sans-serif" fill="#f5f5f5" text-anchor="start" dominant-baseline="alphabetic" opacity="0.96"><tspan x="66.204" dy="-0.0">DTH11</tspan></text><text x="32.037" y="64.485" font-size="3.0" font-family="sans-serif" fill="#f5f5f5" text-anchor="start" dominant-baseline="alphabetic" opacity="0.96" transform="rotate(-90.0 32.037 64.485)"><tspan x="32.037" dy="-0.0">IO12</tspan></text><text x="61.561" y="36.349" font-size="3.0" font-family="sans-serif" fill="#f5f5f5" text-anchor="start" dominant-baseline="alphabetic" opacity="0.96" transform="rotate(-90.0 61.561 36.349)"><tspan x="61.561" dy="-0.0">IO02</tspan></text><text x="48.02" y="70.392" font-size="3.0" font-family="sans-serif" fill="#f5f5f5" text-anchor="start" dominant-baseline="alphabetic" opacity="0.96" transform="rotate(-90.0 48.02 70.392)"><tspan x="48.02" dy="-0.0">IO39/D</tspan></text><circle id="connector0pin" cx="17.476" cy="22.773" r="3" fill="#455a64"/><circle id="connector1pin" cx="19.203" cy="22.773" r="3" fill="#455a64"/><circle id="connector2pin" cx="20.931" cy="22.773" r="3" fill="#455a64"/><circle id="connector3pin" cx="69.023" cy="31.409" r="3" fill="#455a64"/><circle id="connector4pin" cx="67.296" cy="31.409" r="3" fill="#455a64"/><circle id="connector5pin" cx="80.526" cy="58.129" r="3" fill="#455a64"/><circle id="connector6pin" cx="80.526" cy="59.857" r="3" fill="#455a64"/><circle id="connector7pin" cx="80.526" cy="61.584" r="3" fill="#455a64"/><circle id="connector8pin" cx="80.526" cy="63.311" r="3" fill="#455a64"/><circle id="connector9pin" cx="71.047" cy="63.811" r="3" fill="#455a64"/><circle id="connector10pin" cx="69.32" cy="63.811" r="3" fill="#455a64"/><circle id="connector11pin" cx="17.639" cy="57.023" r="3" fill="#455a64"/><circle id="connector12pin" cx="17.639" cy="58.75" r="3" fill="#455a64"/><circle id="connector13pin" cx="17.639" cy="60.478" r="3" fill="#455a64"/><circle id="connector14pin" cx="17.639" cy="62.205" r="3" fill="#455a64"/><circle id="connector15pin" cx="77.607" cy="43.195" r="3" fill="#455a64"/><circle id="connector16pin" cx="77.607" cy="44.922" r="3" fill="#455a64"/><circle id="connector17pin" cx="77.607" cy="46.65" r="3" fill="#455a64"/><circle id="connector18pin" cx="77.607" cy="48.377" r="3" fill="#455a64"/><circle id="connector19pin" cx="71.047" cy="58.629" r="3" fill="#455a64"/><circle id="connector20pin" cx="69.32" cy="58.629" r="3" fill="#455a64"/><circle id="connector21pin" cx="64.273" cy="18.455" r="3" fill="#455a64"/><circle id="connector22pin" cx="62.546" cy="18.455" r="3" fill="#455a64"/><circle id="connector23pin" cx="62.961" cy="39.008" r="3" fill="#455a64"/><circle id="connector24pin" cx="62.961" cy="40.736" r="3" fill="#455a64"/><circle id="connector25pin" cx="29.964" cy="81.602" r="3" fill="#455a64"/><circle id="connector26pin" cx="31.691" cy="81.602" r="3" fill="#455a64"/><circle id="connector27pin" cx="33.418" cy="81.602" r="3" fill="#455a64"/><circle id="connector28pin" cx="35.146" cy="81.602" r="3" fill="#455a64"/><circle id="connector29pin" cx="36.873" cy="81.602" r="3" fill="#455a64"/><circle id="connector30pin" cx="38.6" cy="81.602" r="3" fill="#455a64"/><circle id="connector31pin" cx="40.327" cy="81.602" r="3" fill="#455a64"/><circle id="connector32pin" cx="42.054" cy="81.602" r="3" fill="#455a64"/><circle id="connector33pin" cx="49.143" cy="79.491" r="3" fill="#455a64"/><circle id="connector34pin" cx="49.143" cy="81.218" r="3" fill="#455a64"/><circle id="connector35pin" cx="62.961" cy="26.258" r="3" fill="#455a64"/><circle id="connector36pin" cx="62.961" cy="27.986" r="3" fill="#455a64"/><circle id="connector37pin" cx="19.285" cy="29.595" r="3" fill="#455a64"/><circle id="connector38pin" cx="19.285" cy="26.195" r="3" fill="#455a64"/><circle id="connector39pin" cx="62.961" cy="34.76" r="3" fill="#455a64"/><circle id="connector40pin" cx="62.961" cy="36.487" r="3" fill="#455a64"/><circle id="connector41pin" cx="69.023" cy="39.181" r="3" fill="#455a64"/><circle id="connector42pin" cx="67.296" cy="39.181" r="3" fill="#455a64"/><circle id="connector43pin" cx="62.978" cy="21.944" r="3" fill="#455a64"/><circle id="connector44pin" cx="62.978" cy="23.671" r="3" fill="#455a64"/><circle id="connector45pin" cx="29.947" cy="65.901" r="3" fill="#455a64"/><circle id="connector46pin" cx="31.674" cy="65.901" r="3" fill="#455a64"/><circle id="connector47pin" cx="33.401" cy="65.901" r="3" fill="#455a64"/><circle id="connector48pin" cx="35.128" cy="65.901" r="3" fill="#455a64"/><circle id="connector49pin" cx="36.855" cy="65.901" r="3" fill="#455a64"/><circle id="connector50pin" cx="38.583" cy="65.901" r="3" fill="#455a64"/><circle id="connector51pin" cx="40.31" cy="65.901" r="3" fill="#455a64"/><circle id="connector52pin" cx="42.037" cy="65.901" r="3" fill="#455a64"/><circle id="connector53pin" cx="69.244" cy="44.338" r="3" fill="#455a64"/><circle id="connector54pin" cx="69.244" cy="46.066" r="3" fill="#455a64"/><circle id="connector55pin" cx="69.244" cy="47.793" r="3" fill="#455a64"/><circle id="connector56pin" cx="28.914" cy="47.316" r="3" fill="#455a64"/><circle id="connector57pin" cx="27.187" cy="47.316" r="3" fill="#455a64"/><circle id="connector58pin" cx="25.46" cy="47.316" r="3" fill="#455a64"/><circle id="connector59pin" cx="20.23" cy="48.681" r="3" fill="#455a64"/><circle id="connector60pin" cx="20.23" cy="50.408" r="3" fill="#455a64"/><circle id="connector61pin" cx="20.23" cy="52.135" r="3" fill="#455a64"/><circle id="connector62pin" cx="20.23" cy="53.862" r="3" fill="#455a64"/><circle id="connector63pin" cx="69.023" cy="27.523" r="3" fill="#455a64"/><circle id="connector64pin" cx="67.296" cy="27.523" r="3" fill="#455a64"/><circle id="connector65pin" cx="35.792" cy="57.23" r="3" fill="#455a64"/><circle id="connector66pin" cx="37.519" cy="57.23" r="3" fill="#455a64"/><circle id="connector67pin" cx="77.607" cy="51.341" r="3" fill="#455a64"/><circle id="connector68pin" cx="77.607" cy="53.068" r="3" fill="#455a64"/><circle id="connector69pin" cx="69.023" cy="23.636" r="3" fill="#455a64"/><circle id="connector70pin" cx="67.296" cy="23.636" r="3" fill="#455a64"/><circle id="connector71pin" cx="57.81" cy="58.439" r="3" fill="#455a64"/><circle id="connector72pin" cx="59.537" cy="58.439" r="3" fill="#455a64"/><circle id="connector73pin" cx="71.047" cy="56.073" r="3" fill="#455a64"/><circle id="connector74pin" cx="69.32" cy="56.073" r="3" fill="#455a64"/><circle id="connector75pin" cx="31.335" cy="55.521" r="3" fill="#455a64"/><circle id="connector76pin" cx="31.335" cy="57.248" r="3" fill="#455a64"/><circle id="connector77pin" cx="31.335" cy="58.975" r="3" fill="#455a64"/><circle id="connector78pin" cx="22.365" cy="61.117" r="3" fill="#455a64"/><circle id="connector79pin" cx="24.092" cy="61.117" r="3" fill="#455a64"/><circle id="connector80pin" cx="68.678" cy="52.446" r="3" fill="#455a64"/><circle id="connector81pin" cx="66.95" cy="52.446" r="3" fill="#455a64"/><circle id="connector82pin" cx="66.653" cy="44.338" r="3" fill="#455a64"/><circle id="connector83pin" cx="66.653" cy="46.066" r="3" fill="#455a64"/><circle id="connector84pin" cx="66.653" cy="47.793" r="3" fill="#455a64"/><circle id="connector85pin" cx="68.028" cy="68.586" r="3" fill="#455a64"/><circle id="connector86pin" cx="66.301" cy="68.586" r="3" fill="#455a64"/><circle id="connector87pin" cx="64.574" cy="68.586" r="3" fill="#455a64"/><circle id="connector88pin" cx="67.952" cy="73.076" r="3" fill="#455a64"/><circle id="connector89pin" cx="66.225" cy="73.076" r="3" fill="#455a64"/><circle id="connector90pin" cx="64.498" cy="73.076" r="3" fill="#455a64"/><circle id="connector91pin" cx="29.947" cy="68.492" r="3" fill="#455a64"/><circle id="connector92pin" cx="31.674" cy="68.492" r="3" fill="#455a64"/><circle id="connector93pin" cx="33.401" cy="68.492" r="3" fill="#455a64"/><circle id="connector94pin" cx="35.128" cy="68.492" r="3" fill="#455a64"/><circle id="connector95pin" cx="36.855" cy="68.492" r="3" fill="#455a64"/><circle id="connector96pin" cx="38.583" cy="68.492" r="3" fill="#455a64"/><circle id="connector97pin" cx="40.31" cy="68.492" r="3" fill="#455a64"/><circle id="connector98pin" cx="42.037" cy="68.492" r="3" fill="#455a64"/><circle id="connector99pin" cx="17.622" cy="40.915" r="3" fill="#455a64"/><circle id="connector100pin" cx="17.622" cy="42.642" r="3" fill="#455a64"/><circle id="connector101pin" cx="17.622" cy="44.37" r="3" fill="#455a64"/><circle id="connector102pin" cx="17.622" cy="46.097" r="3" fill="#455a64"/><circle id="connector103pin" cx="57.105" cy="72.789" r="3" fill="#455a64"/><circle id="connector104pin" cx="57.105" cy="74.516" r="3" fill="#455a64"/><circle id="connector105pin" cx="46.552" cy="79.491" r="3" fill="#455a64"/><circle id="connector106pin" cx="46.552" cy="81.218" r="3" fill="#455a64"/><circle id="connector107pin" cx="17.622" cy="33.136" r="3" fill="#455a64"/><circle id="connector108pin" cx="17.622" cy="34.863" r="3" fill="#455a64"/><circle id="connector109pin" cx="17.622" cy="36.59" r="3" fill="#455a64"/><circle id="connector110pin" cx="17.622" cy="38.318" r="3" fill="#455a64"/><circle id="connector111pin" cx="80.198" cy="43.195" r="3" fill="#455a64"/><circle id="connector112pin" cx="80.198" cy="44.922" r="3" fill="#455a64"/><circle id="connector113pin" cx="80.198" cy="46.65" r="3" fill="#455a64"/><circle id="connector114pin" cx="80.198" cy="48.377" r="3" fill="#455a64"/><circle id="connector115pin" cx="17.622" cy="48.681" r="3" fill="#455a64"/><circle id="connector116pin" cx="17.622" cy="50.408" r="3" fill="#455a64"/><circle id="connector117pin" cx="17.622" cy="52.135" r="3" fill="#455a64"/><circle id="connector118pin" cx="17.622" cy="53.862" r="3" fill="#455a64"/><circle id="connector119pin" cx="29.964" cy="79.011" r="3" fill="#455a64"/><circle id="connector120pin" cx="31.691" cy="79.011" r="3" fill="#455a64"/><circle id="connector121pin" cx="33.418" cy="79.011" r="3" fill="#455a64"/><circle id="connector122pin" cx="35.146" cy="79.011" r="3" fill="#455a64"/><circle id="connector123pin" cx="36.873" cy="79.011" r="3" fill="#455a64"/><circle id="connector124pin" cx="38.6" cy="79.011" r="3" fill="#455a64"/><circle id="connector125pin" cx="40.327" cy="79.011" r="3" fill="#455a64"/><circle id="connector126pin" cx="42.054" cy="79.011" r="3" fill="#455a64"/><circle id="connector127pin" cx="22.316" cy="58.457" r="3" fill="#455a64"/><circle id="connector128pin" cx="24.043" cy="58.457" r="3" fill="#455a64"/><circle id="connector129pin" cx="62.961" cy="30.511" r="3" fill="#455a64"/><circle id="connector130pin" cx="62.961" cy="32.238" r="3" fill="#455a64"/><circle id="connector131pin" cx="20.23" cy="40.908" r="3" fill="#455a64"/><circle id="connector132pin" cx="20.23" cy="42.636" r="3" fill="#455a64"/><circle id="connector133pin" cx="20.23" cy="44.363" r="3" fill="#455a64"/><circle id="connector134pin" cx="20.23" cy="46.09" r="3" fill="#455a64"/><circle id="connector135pin" cx="51.734" cy="79.491" r="3" fill="#455a64"/><circle id="connector136pin" cx="51.734" cy="81.218" r="3" fill="#455a64"/><circle id="connector137pin" cx="54.325" cy="79.491" r="3" fill="#455a64"/><circle id="connector138pin" cx="54.325" cy="81.218" r="3" fill="#455a64"/><circle id="connector139pin" cx="25.48" cy="43.862" r="3" fill="#455a64"/><circle id="connector140pin" cx="27.207" cy="43.862" r="3" fill="#455a64"/><circle id="connector141pin" cx="28.935" cy="43.862" r="3" fill="#455a64"/><circle id="connector142pin" cx="30.662" cy="43.862" r="3" fill="#455a64"/><circle id="connector143pin" cx="69.023" cy="35.295" r="3" fill="#455a64"/><circle id="connector144pin" cx="67.296" cy="35.295" r="3" fill="#455a64"/><circle id="connector145pin" cx="80.198" cy="51.341" r="3" fill="#455a64"/><circle id="connector146pin" cx="80.198" cy="53.068" r="3" fill="#455a64"/><circle id="connector147pin" cx="71.047" cy="61.272" r="3" fill="#455a64"/><circle id="connector148pin" cx="69.32" cy="61.272" r="3" fill="#455a64"/><circle id="connector149pin" cx="20.23" cy="33.136" r="3" fill="#455a64"/><circle id="connector150pin" cx="20.23" cy="34.863" r="3" fill="#455a64"/><circle id="connector151pin" cx="20.23" cy="36.59" r="3" fill="#455a64"/><circle id="connector152pin" cx="20.23" cy="38.318" r="3" fill="#455a64"/></svg>