<svg xmlns="http://www.w3.org/2000/svg" width="260" height="3100" viewBox="0 0 260 3100"><rect x="60" y="10" width="125" height="3080" fill="none" stroke="#000" stroke-width="2"/><line x1="185" y1="30.0" x2="205" y2="30.0" stroke="#000" stroke-width="2"/><line x1="185" y1="50.0" x2="205" y2="50.0" stroke="#000" stroke-width="2"/><line x1="185" y1="70.0" x2="205" y2="70.0" stroke="#000" stroke-width="2"/><line x1="185" y1="90.0" x2="205" y2="90.0" stroke="#000" stroke-width="2"/><line x1="185" y1="110.0" x2="205" y2="110.0" stroke="#000" stroke-width="2"/><line x1="185" y1="130.0" x2="205" y2="130.0" stroke="#000" stroke-width="2"/><line x1="185" y1="150.0" x2="205" y2="150.0" stroke="#000" stroke-width="2"/><line x1="185" y1="170.0" x2="205" y2="170.0" stroke="#000" stroke-width="2"/><line x1="185" y1="190.0" x2="205" y2="190.0" stroke="#000" stroke-width="2"/><line x1="185" y1="210.0" x2="205" y2="210.0" stroke="#000" stroke-width="2"/><line x1="185" y1="230.0" x2="205" y2="230.0" stroke="#000" stroke-width="2"/><line x1="185" y1="250.0" x2="205" y2="250.0" stroke="#000" stroke-width="2"/><line x1="185" y1="270.0" x2="205" y2="270.0" stroke="#000" stroke-width="2"/><line x1="185" y1="290.0" x2="205" y2="290.0" stroke="#000" stroke-width="2"/><line x1="185" y1="310.0" x2="205" y2="310.0" stroke="#000" stroke-width="2"/><line x1="185" y1="330.0" x2="205" y2="330.0" stroke="#000" stroke-width="2"/><line x1="185" y1="350.0" x2="205" y2="350.0" stroke="#000" stroke-width="2"/><line x1="185" y1="370.0" x2="205" y2="370.0" stroke="#000" stroke-width="2"/><line x1="185" y1="390.0" x2="205" y2="390.0" stroke="#000" stroke-width="2"/><line x1="185" y1="410.0" x2="205" y2="410.0" stroke="#000" stroke-width="2"/><line x1="185" y1="430.0" x2="205" y2="430.0" stroke="#000" stroke-width="2"/><line x1="185" y1="450.0" x2="205" y2="450.0" stroke="#000" stroke-width="2"/><line x1="185" y1="470.0" x2="205" y2="470.0" stroke="#000" stroke-width="2"/><line x1="185" y1="490.0" x2="205" y2="490.0" stroke="#000" stroke-width="2"/><line x1="185" y1="510.0" x2="205" y2="510.0" stroke="#000" stroke-width="2"/><line x1="185" y1="530.0" x2="205" y2="530.0" stroke="#000" stroke-width="2"/><line x1="185" y1="550.0" x2="205" y2="550.0" stroke="#000" stroke-width="2"/><line x1="185" y1="570.0" x2="205" y2="570.0" stroke="#000" stroke-width="2"/><line x1="185" y1="590.0" x2="205" y2="590.0" stroke="#000" stroke-width="2"/><line x1="185" y1="610.0" x2="205" y2="610.0" stroke="#000" stroke-width="2"/><line x1="185" y1="630.0" x2="205" y2="630.0" stroke="#000" stroke-width="2"/><line x1="185" y1="650.0" x2="205" y2="650.0" stroke="#000" stroke-width="2"/><line x1="185" y1="670.0" x2="205" y2="670.0" stroke="#000" stroke-width="2"/><line x1="185" y1="690.0" x2="205" y2="690.0" stroke="#000" stroke-width="2"/><line x1="185" y1="710.0" x2="205" y2="710.0" stroke="#000" stroke-width="2"/><line x1="185" y1="730.0" x2="205" y2="730.0" stroke="#000" stroke-width="2"/><line x1="185" y1="750.0" x2="205" y2="750.0" stroke="#000" stroke-width="2"/><line x1="185" y1="770.0" x2="205" y2="770.0" stroke="#000" stroke-width="2"/><line x1="185" y1="790.0" x2="205" y2="790.0" stroke="#000" stroke-width="2"/><line x1="185" y1="810.0" x2="205" y2="810.0" stroke="#000" stroke-width="2"/><line x1="185" y1="830.0" x2="205" y2="830.0" stroke="#000" stroke-width="2"/><line x1="185" y1="850.0" x2="205" y2="850.0" stroke="#000" stroke-width="2"/><line x1="185" y1="870.0" x2="205" y2="870.0" stroke="#000" stroke-width="2"/><line x1="185" y1="890.0" x2="205" y2="890.0" stroke="#000" stroke-width="2"/><line x1="185" y1="910.0" x2="205" y2="910.0" stroke="#000" stroke-width="2"/><line x1="185" y1="930.0" x2="205" y2="930.0" stroke="#000" stroke-width="2"/><line x1="185" y1="950.0" x2="205" y2="950.0" stroke="#000" stroke-width="2"/><line x1="185" y1="970.0" x2="205" y2="970.0" stroke="#000" stroke-width="2"/><line x1="185" y1="990.0" x2="205" y2="990.0" stroke="#000" stroke-width="2"/><line x1="185" y1="1010.0" x2="205" y2="1010.0" stroke="#000" stroke-width="2"/><line x1="185" y1="1030.0" x2="205" y2="1030.0" stroke="#000" stroke-width="2"/><line x1="185" y1="1050.0" x2="205" y2="1050.0" stroke="#000" stroke-width="2"/><line x1="185" y1="1070.0" x2="205" y2="1070.0" stroke="#000" stroke-width="2"/><line x1="185" y1="1090.0" x2="205" y2="1090.0" stroke="#000" stroke-width="2"/><line x1="185" y1="1110.0" x2="205" y2="1110.0" stroke="#000" stroke-width="2"/><line x1="185" y1="1130.0" x2="205" y2="1130.0" stroke="#000" stroke-width="2"/><line x1="185" y1="1150.0" x2="205" y2="1150.0" stroke="#000" stroke-width="2"/><line x1="185" y1="1170.0" x2="205" y2="1170.0" stroke="#000" stroke-width="2"/><line x1="185" y1="1190.0" x2="205" y2="1190.0" stroke="#000" stroke-width="2"/><line x1="185" y1="1210.0" x2="205" y2="1210.0" stroke="#000" stroke-width="2"/><line x1="185" y1="1230.0" x2="205" y2="1230.0" stroke="#000" stroke-width="2"/><line x1="185" y1="1250.0" x2="205" y2="1250.0" stroke="#000" stroke-width="2"/><line x1="185" y1="1270.0" x2="205" y2="1270.0" stroke="#000" stroke-width="2"/><line x1="185" y1="1290.0" x2="205" y2="1290.0" stroke="#000" stroke-width="2"/><line x1="185" y1="1310.0" x2="205" y2="1310.0" stroke="#000" stroke-width="2"/><line x1="185" y1="1330.0" x2="205" y2="1330.0" stroke="#000" stroke-width="2"/><line x1="185" y1="1350.0" x2="205" y2="1350.0" stroke="#000" stroke-width="2"/><line x1="185" y1="1370.0" x2="205" y2="1370.0" stroke="#000" stroke-width="2"/><line x1="185" y1="1390.0" x2="205" y2="1390.0" stroke="#000" stroke-width="2"/><line x1="185" y1="1410.0" x2="205" y2="1410.0" stroke="#000" stroke-width="2"/><line x1="185" y1="1430.0" x2="205" y2="1430.0" stroke="#000" stroke-width="2"/><line x1="185" y1="1450.0" x2="205" y2="1450.0" stroke="#000" stroke-width="2"/><line x1="185" y1="1470.0" x2="205" y2="1470.0" stroke="#000" stroke-width="2"/><line x1="185" y1="1490.0" x2="205" y2="1490.0" stroke="#000" stroke-width="2"/><line x1="185" y1="1510.0" x2="205" y2="1510.0" stroke="#000" stroke-width="2"/><line x1="185" y1="1530.0" x2="205" y2="1530.0" stroke="#000" stroke-width="2"/><line x1="185" y1="1550.0" x2="205" y2="1550.0" stroke="#000" stroke-width="2"/><line x1="185" y1="1570.0" x2="205" y2="1570.0" stroke="#000" stroke-width="2"/><line x1="185" y1="1590.0" x2="205" y2="1590.0" stroke="#000" stroke-width="2"/><line x1="185" y1="1610.0" x2="205" y2="1610.0" stroke="#000" stroke-width="2"/><line x1="185" y1="1630.0" x2="205" y2="1630.0" stroke="#000" stroke-width="2"/><line x1="185" y1="1650.0" x2="205" y2="1650.0" stroke="#000" stroke-width="2"/><line x1="185" y1="1670.0" x2="205" y2="1670.0" stroke="#000" stroke-width="2"/><line x1="185" y1="1690.0" x2="205" y2="1690.0" stroke="#000" stroke-width="2"/><line x1="185" y1="1710.0" x2="205" y2="1710.0" stroke="#000" stroke-width="2"/><line x1="185" y1="1730.0" x2="205" y2="1730.0" stroke="#000" stroke-width="2"/><line x1="185" y1="1750.0" x2="205" y2="1750.0" stroke="#000" stroke-width="2"/><line x1="185" y1="1770.0" x2="205" y2="1770.0" stroke="#000" stroke-width="2"/><line x1="185" y1="1790.0" x2="205" y2="1790.0" stroke="#000" stroke-width="2"/><line x1="185" y1="1810.0" x2="205" y2="1810.0" stroke="#000" stroke-width="2"/><line x1="185" y1="1830.0" x2="205" y2="1830.0" stroke="#000" stroke-width="2"/><line x1="185" y1="1850.0" x2="205" y2="1850.0" stroke="#000" stroke-width="2"/><line x1="185" y1="1870.0" x2="205" y2="1870.0" stroke="#000" stroke-width="2"/><line x1="185" y1="1890.0" x2="205" y2="1890.0" stroke="#000" stroke-width="2"/><line x1="185" y1="1910.0" x2="205" y2="1910.0" stroke="#000" stroke-width="2"/><line x1="185" y1="1930.0" x2="205" y2="1930.0" stroke="#000" stroke-width="2"/><line x1="185" y1="1950.0" x2="205" y2="1950.0" stroke="#000" stroke-width="2"/><line x1="185" y1="1970.0" x2="205" y2="1970.0" stroke="#000" stroke-width="2"/><line x1="185" y1="1990.0" x2="205" y2="1990.0" stroke="#000" stroke-width="2"/><line x1="185" y1="2010.0" x2="205" y2="2010.0" stroke="#000" stroke-width="2"/><line x1="185" y1="2030.0" x2="205" y2="2030.0" stroke="#000" stroke-width="2"/><line x1="185" y1="2050.0" x2="205" y2="2050.0" stroke="#000" stroke-width="2"/><line x1="185" y1="2070.0" x2="205" y2="2070.0" stroke="#000" stroke-width="2"/><line x1="185" y1="2090.0" x2="205" y2="2090.0" stroke="#000" stroke-width="2"/><line x1="185" y1="2110.0" x2="205" y2="2110.0" stroke="#000" stroke-width="2"/><line x1="185" y1="2130.0" x2="205" y2="2130.0" stroke="#000" stroke-width="2"/><line x1="185" y1="2150.0" x2="205" y2="2150.0" stroke="#000" stroke-width="2"/><line x1="185" y1="2170.0" x2="205" y2="2170.0" stroke="#000" stroke-width="2"/><line x1="185" y1="2190.0" x2="205" y2="2190.0" stroke="#000" stroke-width="2"/><line x1="185" y1="2210.0" x2="205" y2="2210.0" stroke="#000" stroke-width="2"/><line x1="185" y1="2230.0" x2="205" y2="2230.0" stroke="#000" stroke-width="2"/><line x1="185" y1="2250.0" x2="205" y2="2250.0" stroke="#000" stroke-width="2"/><line x1="185" y1="2270.0" x2="205" y2="2270.0" stroke="#000" stroke-width="2"/><line x1="185" y1="2290.0" x2="205" y2="2290.0" stroke="#000" stroke-width="2"/><line x1="185" y1="2310.0" x2="205" y2="2310.0" stroke="#000" stroke-width="2"/><line x1="185" y1="2330.0" x2="205" y2="2330.0" stroke="#000" stroke-width="2"/><line x1="185" y1="2350.0" x2="205" y2="2350.0" stroke="#000" stroke-width="2"/><line x1="185" y1="2370.0" x2="205" y2="2370.0" stroke="#000" stroke-width="2"/><line x1="185" y1="2390.0" x2="205" y2="2390.0" stroke="#000" stroke-width="2"/><line x1="185" y1="2410.0" x2="205" y2="2410.0" stroke="#000" stroke-width="2"/><line x1="185" y1="2430.0" x2="205" y2="2430.0" stroke="#000" stroke-width="2"/><line x1="185" y1="2450.0" x2="205" y2="2450.0" stroke="#000" stroke-width="2"/><line x1="185" y1="2470.0" x2="205" y2="2470.0" stroke="#000" stroke-width="2"/><line x1="185" y1="2490.0" x2="205" y2="2490.0" stroke="#000" stroke-width="2"/><line x1="185" y1="2510.0" x2="205" y2="2510.0" stroke="#000" stroke-width="2"/><line x1="185" y1="2530.0" x2="205" y2="2530.0" stroke="#000" stroke-width="2"/><line x1="185" y1="2550.0" x2="205" y2="2550.0" stroke="#000" stroke-width="2"/><line x1="185" y1="2570.0" x2="205" y2="2570.0" stroke="#000" stroke-width="2"/><line x1="185" y1="2590.0" x2="205" y2="2590.0" stroke="#000" stroke-width="2"/><line x1="185" y1="2610.0" x2="205" y2="2610.0" stroke="#000" stroke-width="2"/><line x1="185" y1="2630.0" x2="205" y2="2630.0" stroke="#000" stroke-width="2"/><line x1="185" y1="2650.0" x2="205" y2="2650.0" stroke="#000" stroke-width="2"/><line x1="185" y1="2670.0" x2="205" y2="2670.0" stroke="#000" stroke-width="2"/><line x1="185" y1="2690.0" x2="205" y2="2690.0" stroke="#000" stroke-width="2"/><line x1="185" y1="2710.0" x2="205" y2="2710.0" stroke="#000" stroke-width="2"/><line x1="185" y1="2730.0" x2="205" y2="2730.0" stroke="#000" stroke-width="2"/><line x1="185" y1="2750.0" x2="205" y2="2750.0" stroke="#000" stroke-width="2"/><line x1="185" y1="2770.0" x2="205" y2="2770.0" stroke="#000" stroke-width="2"/><line x1="185" y1="2790.0" x2="205" y2="2790.0" stroke="#000" stroke-width="2"/><line x1="185" y1="2810.0" x2="205" y2="2810.0" stroke="#000" stroke-width="2"/><line x1="185" y1="2830.0" x2="205" y2="2830.0" stroke="#000" stroke-width="2"/><line x1="185" y1="2850.0" x2="205" y2="2850.0" stroke="#000" stroke-width="2"/><line x1="185" y1="2870.0" x2="205" y2="2870.0" stroke="#000" stroke-width="2"/><line x1="185" y1="2890.0" x2="205" y2="2890.0" stroke="#000" stroke-width="2"/><line x1="185" y1="2910.0" x2="205" y2="2910.0" stroke="#000" stroke-width="2"/><line x1="185" y1="2930.0" x2="205" y2="2930.0" stroke="#000" stroke-width="2"/><line x1="185" y1="2950.0" x2="205" y2="2950.0" stroke="#000" stroke-width="2"/><line x1="185" y1="2970.0" x2="205" y2="2970.0" stroke="#000" stroke-width="2"/><line x1="185" y1="2990.0" x2="205" y2="2990.0" stroke="#000" stroke-width="2"/><line x1="185" y1="3010.0" x2="205" y2="3010.0" stroke="#000" stroke-width="2"/><line x1="185" y1="3030.0" x2="205" y2="3030.0" stroke="#000" stroke-width="2"/><line x1="185" y1="3050.0" x2="205" y2="3050.0" stroke="#000" stroke-width="2"/><line x1="185" y1="3070.0" x2="205" y2="3070.0" stroke="#000" stroke-width="2"/><rect id="connector0pin" x="205" y="27.0" width="6" height="6" fill="#000"/><rect id="connector1pin" x="205" y="47.0" width="6" height="6" fill="#000"/><rect id="connector2pin" x="205" y="67.0" width="6" height="6" fill="#000"/><rect id="connector3pin" x="205" y="87.0" width="6" height="6" fill="#000"/><rect id="connector4pin" x="205" y="107.0" width="6" height="6" fill="#000"/><rect id="connector5pin" x="205" y="127.0" width="6" height="6" fill="#000"/><rect id="connector6pin" x="205" y="147.0" width="6" height="6" fill="#000"/><rect id="connector7pin" x="205" y="167.0" width="6" height="6" fill="#000"/><rect id="connector8pin" x="205" y="187.0" width="6" height="6" fill="#000"/><rect id="connector9pin" x="205" y="207.0" width="6" height="6" fill="#000"/><rect id="connector10pin" x="205" y="227.0" width="6" height="6" fill="#000"/><rect id="connector11pin" x="205" y="247.0" width="6" height="6" fill="#000"/><rect id="connector12pin" x="205" y="267.0" width="6" height="6" fill="#000"/><rect id="connector13pin" x="205" y="287.0" width="6" height="6" fill="#000"/><rect id="connector14pin" x="205" y="307.0" width="6" height="6" fill="#000"/><rect id="connector15pin" x="205" y="327.0" width="6" height="6" fill="#000"/><rect id="connector16pin" x="205" y="347.0" width="6" height="6" fill="#000"/><rect id="connector17pin" x="205" y="367.0" width="6" height="6" fill="#000"/><rect id="connector18pin" x="205" y="387.0" width="6" height="6" fill="#000"/><rect id="connector19pin" x="205" y="407.0" width="6" height="6" fill="#000"/><rect id="connector20pin" x="205" y="427.0" width="6" height="6" fill="#000"/><rect id="connector21pin" x="205" y="447.0" width="6" height="6" fill="#000"/><rect id="connector22pin" x="205" y="467.0" width="6" height="6" fill="#000"/><rect id="connector23pin" x="205" y="487.0" width="6" height="6" fill="#000"/><rect id="connector24pin" x="205" y="507.0" width="6" height="6" fill="#000"/><rect id="connector25pin" x="205" y="527.0" width="6" height="6" fill="#000"/><rect id="connector26pin" x="205" y="547.0" width="6" height="6" fill="#000"/><rect id="connector27pin" x="205" y="567.0" width="6" height="6" fill="#000"/><rect id="connector28pin" x="205" y="587.0" width="6" height="6" fill="#000"/><rect id="connector29pin" x="205" y="607.0" width="6" height="6" fill="#000"/><rect id="connector30pin" x="205" y="627.0" width="6" height="6" fill="#000"/><rect id="connector31pin" x="205" y="647.0" width="6" height="6" fill="#000"/><rect id="connector32pin" x="205" y="667.0" width="6" height="6" fill="#000"/><rect id="connector33pin" x="205" y="687.0" width="6" height="6" fill="#000"/><rect id="connector34pin" x="205" y="707.0" width="6" height="6" fill="#000"/><rect id="connector35pin" x="205" y="727.0" width="6" height="6" fill="#000"/><rect id="connector36pin" x="205" y="747.0" width="6" height="6" fill="#000"/><rect id="connector37pin" x="205" y="767.0" width="6" height="6" fill="#000"/><rect id="connector38pin" x="205" y="787.0" width="6" height="6" fill="#000"/><rect id="connector39pin" x="205" y="807.0" width="6" height="6" fill="#000"/><rect id="connector40pin" x="205" y="827.0" width="6" height="6" fill="#000"/><rect id="connector41pin" x="205" y="847.0" width="6" height="6" fill="#000"/><rect id="connector42pin" x="205" y="867.0" width="6" height="6" fill="#000"/><rect id="connector43pin" x="205" y="887.0" width="6" height="6" fill="#000"/><rect id="connector44pin" x="205" y="907.0" width="6" height="6" fill="#000"/><rect id="connector45pin" x="205" y="927.0" width="6" height="6" fill="#000"/><rect id="connector46pin" x="205" y="947.0" width="6" height="6" fill="#000"/><rect id="connector47pin" x="205" y="967.0" width="6" height="6" fill="#000"/><rect id="connector48pin" x="205" y="987.0" width="6" height="6" fill="#000"/><rect id="connector49pin" x="205" y="1007.0" width="6" height="6" fill="#000"/><rect id="connector50pin" x="205" y="1027.0" width="6" height="6" fill="#000"/><rect id="connector51pin" x="205" y="1047.0" width="6" height="6" fill="#000"/><rect id="connector52pin" x="205" y="1067.0" width="6" height="6" fill="#000"/><rect id="connector53pin" x="205" y="1087.0" width="6" height="6" fill="#000"/><rect id="connector54pin" x="205" y="1107.0" width="6" height="6" fill="#000"/><rect id="connector55pin" x="205" y="1127.0" width="6" height="6" fill="#000"/><rect id="connector56pin" x="205" y="1147.0" width="6" height="6" fill="#000"/><rect id="connector57pin" x="205" y="1167.0" width="6" height="6" fill="#000"/><rect id="connector58pin" x="205" y="1187.0" width="6" height="6" fill="#000"/><rect id="connector59pin" x="205" y="1207.0" width="6" height="6" fill="#000"/><rect id="connector60pin" x="205" y="1227.0" width="6" height="6" fill="#000"/><rect id="connector61pin" x="205" y="1247.0" width="6" height="6" fill="#000"/><rect id="connector62pin" x="205" y="1267.0" width="6" height="6" fill="#000"/><rect id="connector63pin" x="205" y="1287.0" width="6" height="6" fill="#000"/><rect id="connector64pin" x="205" y="1307.0" width="6" height="6" fill="#000"/><rect id="connector65pin" x="205" y="1327.0" width="6" height="6" fill="#000"/><rect id="connector66pin" x="205" y="1347.0" width="6" height="6" fill="#000"/><rect id="connector67pin" x="205" y="1367.0" width="6" height="6" fill="#000"/><rect id="connector68pin" x="205" y="1387.0" width="6" height="6" fill="#000"/><rect id="connector69pin" x="205" y="1407.0" width="6" height="6" fill="#000"/><rect id="connector70pin" x="205" y="1427.0" width="6" height="6" fill="#000"/><rect id="connector71pin" x="205" y="1447.0" width="6" height="6" fill="#000"/><rect id="connector72pin" x="205" y="1467.0" width="6" height="6" fill="#000"/><rect id="connector73pin" x="205" y="1487.0" width="6" height="6" fill="#000"/><rect id="connector74pin" x="205" y="1507.0" width="6" height="6" fill="#000"/><rect id="connector75pin" x="205" y="1527.0" width="6" height="6" fill="#000"/><rect id="connector76pin" x="205" y="1547.0" width="6" height="6" fill="#000"/><rect id="connector77pin" x="205" y="1567.0" width="6" height="6" fill="#000"/><rect id="connector78pin" x="205" y="1587.0" width="6" height="6" fill="#000"/><rect id="connector79pin" x="205" y="1607.0" width="6" height="6" fill="#000"/><rect id="connector80pin" x="205" y="1627.0" width="6" height="6" fill="#000"/><rect id="connector81pin" x="205" y="1647.0" width="6" height="6" fill="#000"/><rect id="connector82pin" x="205" y="1667.0" width="6" height="6" fill="#000"/><rect id="connector83pin" x="205" y="1687.0" width="6" height="6" fill="#000"/><rect id="connector84pin" x="205" y="1707.0" width="6" height="6" fill="#000"/><rect id="connector85pin" x="205" y="1727.0" width="6" height="6" fill="#000"/><rect id="connector86pin" x="205" y="1747.0" width="6" height="6" fill="#000"/><rect id="connector87pin" x="205" y="1767.0" width="6" height="6" fill="#000"/><rect id="connector88pin" x="205" y="1787.0" width="6" height="6" fill="#000"/><rect id="connector89pin" x="205" y="1807.0" width="6" height="6" fill="#000"/><rect id="connector90pin" x="205" y="1827.0" width="6" height="6" fill="#000"/><rect id="connector91pin" x="205" y="1847.0" width="6" height="6" fill="#000"/><rect id="connector92pin" x="205" y="1867.0" width="6" height="6" fill="#000"/><rect id="connector93pin" x="205" y="1887.0" width="6" height="6" fill="#000"/><rect id="connector94pin" x="205" y="1907.0" width="6" height="6" fill="#000"/><rect id="connector95pin" x="205" y="1927.0" width="6" height="6" fill="#000"/><rect id="connector96pin" x="205" y="1947.0" width="6" height="6" fill="#000"/><rect id="connector97pin" x="205" y="1967.0" width="6" height="6" fill="#000"/><rect id="connector98pin" x="205" y="1987.0" width="6" height="6" fill="#000"/><rect id="connector99pin" x="205" y="2007.0" width="6" height="6" fill="#000"/><rect id="connector100pin" x="205" y="2027.0" width="6" height="6" fill="#000"/><rect id="connector101pin" x="205" y="2047.0" width="6" height="6" fill="#000"/><rect id="connector102pin" x="205" y="2067.0" width="6" height="6" fill="#000"/><rect id="connector103pin" x="205" y="2087.0" width="6" height="6" fill="#000"/><rect id="connector104pin" x="205" y="2107.0" width="6" height="6" fill="#000"/><rect id="connector105pin" x="205" y="2127.0" width="6" height="6" fill="#000"/><rect id="connector106pin" x="205" y="2147.0" width="6" height="6" fill="#000"/><rect id="connector107pin" x="205" y="2167.0" width="6" height="6" fill="#000"/><rect id="connector108pin" x="205" y="2187.0" width="6" height="6" fill="#000"/><rect id="connector109pin" x="205" y="2207.0" width="6" height="6" fill="#000"/><rect id="connector110pin" x="205" y="2227.0" width="6" height="6" fill="#000"/><rect id="connector111pin" x="205" y="2247.0" width="6" height="6" fill="#000"/><rect id="connector112pin" x="205" y="2267.0" width="6" height="6" fill="#000"/><rect id="connector113pin" x="205" y="2287.0" width="6" height="6" fill="#000"/><rect id="connector114pin" x="205" y="2307.0" width="6" height="6" fill="#000"/><rect id="connector115pin" x="205" y="2327.0" width="6" height="6" fill="#000"/><rect id="connector116pin" x="205" y="2347.0" width="6" height="6" fill="#000"/><rect id="connector117pin" x="205" y="2367.0" width="6" height="6" fill="#000"/><rect id="connector118pin" x="205" y="2387.0" width="6" height="6" fill="#000"/><rect id="connector119pin" x="205" y="2407.0" width="6" height="6" fill="#000"/><rect id="connector120pin" x="205" y="2427.0" width="6" height="6" fill="#000"/><rect id="connector121pin" x="205" y="2447.0" width="6" height="6" fill="#000"/><rect id="connector122pin" x="205" y="2467.0" width="6" height="6" fill="#000"/><rect id="connector123pin" x="205" y="2487.0" width="6" height="6" fill="#000"/><rect id="connector124pin" x="205" y="2507.0" width="6" height="6" fill="#000"/><rect id="connector125pin" x="205" y="2527.0" width="6" height="6" fill="#000"/><rect id="connector126pin" x="205" y="2547.0" width="6" height="6" fill="#000"/><rect id="connector127pin" x="205" y="2567.0" width="6" height="6" fill="#000"/><rect id="connector128pin" x="205" y="2587.0" width="6" height="6" fill="#000"/><rect id="connector129pin" x="205" y="2607.0" width="6" height="6" fill="#000"/><rect id="connector130pin" x="205" y="2627.0" width="6" height="6" fill="#000"/><rect id="connector131pin" x="205" y="2647.0" width="6" height="6" fill="#000"/><rect id="connector132pin" x="205" y="2667.0" width="6" height="6" fill="#000"/><rect id="connector133pin" x="205" y="2687.0" width="6" height="6" fill="#000"/><rect id="connector134pin" x="205" y="2707.0" width="6" height="6" fill="#000"/><rect id="connector135pin" x="205" y="2727.0" width="6" height="6" fill="#000"/><rect id="connector136pin" x="205" y="2747.0" width="6" height="6" fill="#000"/><rect id="connector137pin" x="205" y="2767.0" width="6" height="6" fill="#000"/><rect id="connector138pin" x="205" y="2787.0" width="6" height="6" fill="#000"/><rect id="connector139pin" x="205" y="2807.0" width="6" height="6" fill="#000"/><rect id="connector140pin" x="205" y="2827.0" width="6" height="6" fill="#000"/><rect id="connector141pin" x="205" y="2847.0" width="6" height="6" fill="#000"/><rect id="connector142pin" x="205" y="2867.0" width="6" height="6" fill="#000"/><rect id="connector143pin" x="205" y="2887.0" width="6" height="6" fill="#000"/><rect id="connector144pin" x="205" y="2907.0" width="6" height="6" fill="#000"/><rect id="connector145pin" x="205" y="2927.0" width="6" height="6" fill="#000"/><rect id="connector146pin" x="205" y="2947.0" width="6" height="6" fill="#000"/><rect id="connector147pin" x="205" y="2967.0" width="6" height="6" fill="#000"/><rect id="connector148pin" x="205" y="2987.0" width="6" height="6" fill="#000"/><rect id="connector149pin" x="205" y="3007.0" width="6" height="6" fill="#000"/><rect id="connector150pin" x="205" y="3027.0" width="6" height="6" fill="#000"/><rect id="connector151pin" x="205" y="3047.0" width="6" height="6" fill="#000"/><rect id="connector152pin" x="205" y="3067.0" width="6" height="6" fill="#000"/><text x="181" y="33.5" text-anchor="end" font-size="9" font-family="sans-serif" fill="#000">VCC</text><text x="181" y="53.5" text-anchor="end" font-size="9" font-family="sans-serif" fill="#000">VCC</text><text x="181" y="73.5" text-anchor="end" font-size="9" font-family="sans-serif" fill="#000">VCC</text><text x="181" y="93.5" text-anchor="end" font-size="9" font-family="sans-serif" fill="#000">J42_1</text><text x="181" y="113.5" text-anchor="end" font-size="9" font-family="sans-serif" fill="#000">/BUZZER</text><text x="181" y="133.5" text-anchor="end" font-size="9" font-family="sans-serif" fill="#000">/M1A</text><text x="181" y="153.5" text-anchor="end" font-size="9" font-family="sans-serif" fill="#000">/M1B</text><text x="181" y="173.5" text-anchor="end" font-size="9" font-family="sans-serif" fill="#000">/M2A</text><text x="181" y="193.5" text-anchor="end" font-size="9" font-family="sans-serif" fill="#000">/M2B</text><text x="181" y="213.5" text-anchor="end" font-size="9" font-family="sans-serif" fill="#000">J24_1</text><text x="181" y="233.5" text-anchor="end" font-size="9" font-family="sans-serif" fill="#000">/IO02</text><text x="181" y="253.5" text-anchor="end" font-size="9" font-family="sans-serif" fill="#000">+5V</text><text x="181" y="273.5" text-anchor="end" font-size="9" font-family="sans-serif" fill="#000">/TRIGGER</text><text x="181" y="293.5" text-anchor="end" font-size="9" font-family="sans-serif" fill="#000">/ECHO</text><text x="181" y="313.5" text-anchor="end" font-size="9" font-family="sans-serif" fill="#000">GND</text><text x="181" y="333.5" text-anchor="end" font-size="9" font-family="sans-serif" fill="#000">/IO18</text><text x="181" y="353.5" text-anchor="end" font-size="9" font-family="sans-serif" fill="#000">/IO19</text><text x="181" y="373.5" text-anchor="end" font-size="9" font-family="sans-serif" fill="#000">/IO23</text><text x="181" y="393.5" text-anchor="end" font-size="9" font-family="sans-serif" fill="#000">/IO05</text><text x="181" y="413.5" text-anchor="end" font-size="9" font-family="sans-serif" fill="#000">J18_1</text><text x="181" y="433.5" text-anchor="end" font-size="9" font-family="sans-serif" fill="#000">/DS18B</text><text x="181" y="453.5" text-anchor="end" font-size="9" font-family="sans-serif" fill="#000">/TX</text><text x="181" y="473.5" text-anchor="end" font-size="9" font-family="sans-serif" fill="#000">/RX</text><text x="181" y="493.5" text-anchor="end" font-size="9" font-family="sans-serif" fill="#000">/IO04</text><text x="181" y="513.5" text-anchor="end" font-size="9" font-family="sans-serif" fill="#000">/IO04</text><text x="181" y="533.5" text-anchor="end" font-size="9" font-family="sans-serif" fill="#000">/IO13_IN</text><text x="181" y="553.5" text-anchor="end" font-size="9" font-family="sans-serif" fill="#000">/IO12_IN</text><text x="181" y="573.5" text-anchor="end" font-size="9" font-family="sans-serif" fill="#000">/IO14_IN</text><text x="181" y="593.5" text-anchor="end" font-size="9" font-family="sans-serif" fill="#000">/IO27_IN</text><text x="181" y="613.5" text-anchor="end" font-size="9" font-family="sans-serif" fill="#000">/IO16_IN</text><text x="181" y="633.5" text-anchor="end" font-size="9" font-family="sans-serif" fill="#000">/IO17_IN</text><text x="181" y="653.5" text-anchor="end" font-size="9" font-family="sans-serif" fill="#000">/IO25_IN</text><text x="181" y="673.5" text-anchor="end" font-size="9" font-family="sans-serif" fill="#000">/IO26_IN</text><text x="181" y="693.5" text-anchor="end" font-size="9" font-family="sans-serif" fill="#000">/IO36</text><text x="181" y="713.5" text-anchor="end" font-size="9" font-family="sans-serif" fill="#000">/IO36</text><text x="181" y="733.5" text-anchor="end" font-size="9" font-family="sans-serif" fill="#000">/DS18B</text><text x="181" y="753.5" text-anchor="end" font-size="9" font-family="sans-serif" fill="#000">/DS18B</text><text x="181" y="773.5" text-anchor="end" font-size="9" font-family="sans-serif" fill="#000">GND</text><text x="181" y="793.5" text-anchor="end" font-size="9" font-family="sans-serif" fill="#000">VCC</text><text x="181" y="813.5" text-anchor="end" font-size="9" font-family="sans-serif" fill="#000">/IO02</text><text x="181" y="833.5" text-anchor="end" font-size="9" font-family="sans-serif" fill="#000">/IO02</text><text x="181" y="853.5" text-anchor="end" font-size="9" font-family="sans-serif" fill="#000">J46_1</text><text x="181" y="873.5" text-anchor="end" font-size="9" font-family="sans-serif" fill="#000">/IO04</text><text x="181" y="893.5" text-anchor="end" font-size="9" font-family="sans-serif" fill="#000">/IO33</text><text x="181" y="913.5" text-anchor="end" font-size="9" font-family="sans-serif" fill="#000">/IO33</text><text x="181" y="933.5" text-anchor="end" font-size="9" font-family="sans-serif" fill="#000">/IO13</text><text x="181" y="953.5" text-anchor="end" font-size="9" font-family="sans-serif" fill="#000">/IO12</text><text x="181" y="973.5" text-anchor="end" font-size="9" font-family="sans-serif" fill="#000">/IO14</text><text x="181" y="993.5" text-anchor="end" font-size="9" font-family="sans-serif" fill="#000">/IO27</text><text x="181" y="1013.5" text-anchor="end" font-size="9" font-family="sans-serif" fill="#000">/IO16</text><text x="181" y="1033.5" text-anchor="end" font-size="9" font-family="sans-serif" fill="#000">/IO17</text><text x="181" y="1053.5" text-anchor="end" font-size="9" font-family="sans-serif" fill="#000">/IO25</text><text x="181" y="1073.5" text-anchor="end" font-size="9" font-family="sans-serif" fill="#000">/IO26</text><text x="181" y="1093.5" text-anchor="end" font-size="9" font-family="sans-serif" fill="#000">+5V</text><text x="181" y="1113.5" text-anchor="end" font-size="9" font-family="sans-serif" fill="#000">/DTH11</text><text x="181" y="1133.5" text-anchor="end" font-size="9" font-family="sans-serif" fill="#000">GND</text><text x="181" y="1153.5" text-anchor="end" font-size="9" font-family="sans-serif" fill="#000">VCC</text><text x="181" y="1173.5" text-anchor="end" font-size="9" font-family="sans-serif" fill="#000">+5V</text><text x="181" y="1193.5" text-anchor="end" font-size="9" font-family="sans-serif" fill="#000">VPP</text><text x="181" y="1213.5" text-anchor="end" font-size="9" font-family="sans-serif" fill="#000">+3V3_2</text><text x="181" y="1233.5" text-anchor="end" font-size="9" font-family="sans-serif" fill="#000">+3V3_2</text><text x="181" y="1253.5" text-anchor="end" font-size="9" font-family="sans-serif" fill="#000">+3V3_2</text><text x="181" y="1273.5" text-anchor="end" font-size="9" font-family="sans-serif" fill="#000">+3V3_2</text><text x="181" y="1293.5" text-anchor="end" font-size="9" font-family="sans-serif" fill="#000">J39_1</text><text x="181" y="1313.5" text-anchor="end" font-size="9" font-family="sans-serif" fill="#000">/DS18B</text><text x="181" y="1333.5" text-anchor="end" font-size="9" font-family="sans-serif" fill="#000">J15_1</text><text x="181" y="1353.5" text-anchor="end" font-size="9" font-family="sans-serif" fill="#000">/IO04</text><text x="181" y="1373.5" text-anchor="end" font-size="9" font-family="sans-serif" fill="#000">/IO22</text><text x="181" y="1393.5" text-anchor="end" font-size="9" font-family="sans-serif" fill="#000">/IO21</text><text x="181" y="1413.5" text-anchor="end" font-size="9" font-family="sans-serif" fill="#000">J37_1</text><text x="181" y="1433.5" text-anchor="end" font-size="9" font-family="sans-serif" fill="#000">/IO33</text><text x="181" y="1453.5" text-anchor="end" font-size="9" font-family="sans-serif" fill="#000">J17_1</text><text x="181" y="1473.5" text-anchor="end" font-size="9" font-family="sans-serif" fill="#000">/BUZZER</text><text x="181" y="1493.5" text-anchor="end" font-size="9" font-family="sans-serif" fill="#000">J16_1</text><text x="181" y="1513.5" text-anchor="end" font-size="9" font-family="sans-serif" fill="#000">/IO33</text><text x="181" y="1533.5" text-anchor="end" font-size="9" font-family="sans-serif" fill="#000">PWM</text><text x="181" y="1553.5" text-anchor="end" font-size="9" font-family="sans-serif" fill="#000">+5V</text><text x="181" y="1573.5" text-anchor="end" font-size="9" font-family="sans-serif" fill="#000">GND</text><text x="181" y="1593.5" text-anchor="end" font-size="9" font-family="sans-serif" fill="#000">/ECHO</text><text x="181" y="1613.5" text-anchor="end" font-size="9" font-family="sans-serif" fill="#000">/IO12</text><text x="181" y="1633.5" text-anchor="end" font-size="9" font-family="sans-serif" fill="#000">/DTH11</text><text x="181" y="1653.5" text-anchor="end" font-size="9" font-family="sans-serif" fill="#000">/IO02</text><text x="181" y="1673.5" text-anchor="end" font-size="9" font-family="sans-serif" fill="#000">/DTH11</text><text x="181" y="1693.5" text-anchor="end" font-size="9" font-family="sans-serif" fill="#000">+5V</text><text x="181" y="1713.5" text-anchor="end" font-size="9" font-family="sans-serif" fill="#000">GND</text><text x="181" y="1733.5" text-anchor="end" font-size="9" font-family="sans-serif" fill="#000">/LDR_1</text><text x="181" y="1753.5" text-anchor="end" font-size="9" font-family="sans-serif" fill="#000">/AI_1</text><text x="181" y="1773.5" text-anchor="end" font-size="9" font-family="sans-serif" fill="#000">/POT_1</text><text x="181" y="1793.5" text-anchor="end" font-size="9" font-family="sans-serif" fill="#000">/LM35</text><text x="181" y="1813.5" text-anchor="end" font-size="9" font-family="sans-serif" fill="#000">/AI_2</text><text x="181" y="1833.5" text-anchor="end" font-size="9" font-family="sans-serif" fill="#000">/POT_2</text><text x="181" y="1853.5" text-anchor="end" font-size="9" font-family="sans-serif" fill="#000">/IO13</text><text x="181" y="1873.5" text-anchor="end" font-size="9" font-family="sans-serif" fill="#000">/IO12</text><text x="181" y="1893.5" text-anchor="end" font-size="9" font-family="sans-serif" fill="#000">/IO14</text><text x="181" y="1913.5" text-anchor="end" font-size="9" font-family="sans-serif" fill="#000">/IO27</text><text x="181" y="1933.5" text-anchor="end" font-size="9" font-family="sans-serif" fill="#000">/IO16</text><text x="181" y="1953.5" text-anchor="end" font-size="9" font-family="sans-serif" fill="#000">/IO17</text><text x="181" y="1973.5" text-anchor="end" font-size="9" font-family="sans-serif" fill="#000">/IO25</text><text x="181" y="1993.5" text-anchor="end" font-size="9" font-family="sans-serif" fill="#000">/IO26</text><text x="181" y="2013.5" text-anchor="end" font-size="9" font-family="sans-serif" fill="#000">+5V</text><text x="181" y="2033.5" text-anchor="end" font-size="9" font-family="sans-serif" fill="#000">+5V</text><text x="181" y="2053.5" text-anchor="end" font-size="9" font-family="sans-serif" fill="#000">+5V</text><text x="181" y="2073.5" text-anchor="end" font-size="9" font-family="sans-serif" fill="#000">+5V</text><text x="181" y="2093.5" text-anchor="end" font-size="9" font-family="sans-serif" fill="#000">/DS18B</text><text x="181" y="2113.5" text-anchor="end" font-size="9" font-family="sans-serif" fill="#000">J31_2</text><text x="181" y="2133.5" text-anchor="end" font-size="9" font-family="sans-serif" fill="#000">/IO39</text><text x="181" y="2153.5" text-anchor="end" font-size="9" font-family="sans-serif" fill="#000">/IO39</text><text x="181" y="2173.5" text-anchor="end" font-size="9" font-family="sans-serif" fill="#000">GND</text><text x="181" y="2193.5" text-anchor="end" font-size="9" font-family="sans-serif" fill="#000">GND</text><text x="181" y="2213.5" text-anchor="end" font-size="9" font-family="sans-serif" fill="#000">GND</text><text x="181" y="2233.5" text-anchor="end" font-size="9" font-family="sans-serif" fill="#000">GND</text><text x="181" y="2253.5" text-anchor="end" font-size="9" font-family="sans-serif" fill="#000">/IO18</text><text x="181" y="2273.5" text-anchor="end" font-size="9" font-family="sans-serif" fill="#000">/IO19</text><text x="181" y="2293.5" text-anchor="end" font-size="9" font-family="sans-serif" fill="#000">/IO23</text><text x="181" y="2313.5" text-anchor="end" font-size="9" font-family="sans-serif" fill="#000">/IO05</text><text x="181" y="2333.5" text-anchor="end" font-size="9" font-family="sans-serif" fill="#000">+3V3_2</text><text x="181" y="2353.5" text-anchor="end" font-size="9" font-family="sans-serif" fill="#000">+3V3_2</text><text x="181" y="2373.5" text-anchor="end" font-size="9" font-family="sans-serif" fill="#000">+3V3_2</text><text x="181" y="2393.5" text-anchor="end" font-size="9" font-family="sans-serif" fill="#000">+3V3_2</text><text x="181" y="2413.5" text-anchor="end" font-size="9" font-family="sans-serif" fill="#000">/IO13_IN</text><text x="181" y="2433.5" text-anchor="end" font-size="9" font-family="sans-serif" fill="#000">/IO12_IN</text><text x="181" y="2453.5" text-anchor="end" font-size="9" font-family="sans-serif" fill="#000">/IO14_IN</text><text x="181" y="2473.5" text-anchor="end" font-size="9" font-family="sans-serif" fill="#000">/IO27_IN</text><text x="181" y="2493.5" text-anchor="end" font-size="9" font-family="sans-serif" fill="#000">/IO16_IN</text><text x="181" y="2513.5" text-anchor="end" font-size="9" font-family="sans-serif" fill="#000">/IO17_IN</text><text x="181" y="2533.5" text-anchor="end" font-size="9" font-family="sans-serif" fill="#000">/IO25_IN</text><text x="181" y="2553.5" text-anchor="end" font-size="9" font-family="sans-serif" fill="#000">/IO26_IN</text><text x="181" y="2573.5" text-anchor="end" font-size="9" font-family="sans-serif" fill="#000">/TRIGGER</text><text x="181" y="2593.5" text-anchor="end" font-size="9" font-family="sans-serif" fill="#000">/IO13</text><text x="181" y="2613.5" text-anchor="end" font-size="9" font-family="sans-serif" fill="#000">/BUZZER</text><text x="181" y="2633.5" text-anchor="end" font-size="9" font-family="sans-serif" fill="#000">/BUZZER</text><text x="181" y="2653.5" text-anchor="end" font-size="9" font-family="sans-serif" fill="#000">+5V</text><text x="181" y="2673.5" text-anchor="end" font-size="9" font-family="sans-serif" fill="#000">+5V</text><text x="181" y="2693.5" text-anchor="end" font-size="9" font-family="sans-serif" fill="#000">+5V</text><text x="181" y="2713.5" text-anchor="end" font-size="9" font-family="sans-serif" fill="#000">+5V</text><text x="181" y="2733.5" text-anchor="end" font-size="9" font-family="sans-serif" fill="#000">/IO35</text><text x="181" y="2753.5" text-anchor="end" font-size="9" font-family="sans-serif" fill="#000">/IO35</text><text x="181" y="2773.5" text-anchor="end" font-size="9" font-family="sans-serif" fill="#000">/IO34</text><text x="181" y="2793.5" text-anchor="end" font-size="9" font-family="sans-serif" fill="#000">/IO34</text><text x="181" y="2813.5" text-anchor="end" font-size="9" font-family="sans-serif" fill="#000">VCC3</text><text x="181" y="2833.5" text-anchor="end" font-size="9" font-family="sans-serif" fill="#000">+3V3_1</text><text x="181" y="2853.5" text-anchor="end" font-size="9" font-family="sans-serif" fill="#000">VCC3</text><text x="181" y="2873.5" text-anchor="end" font-size="9" font-family="sans-serif" fill="#000">+3V3_2</text><text x="181" y="2893.5" text-anchor="end" font-size="9" font-family="sans-serif" fill="#000">J44_1</text><text x="181" y="2913.5" text-anchor="end" font-size="9" font-family="sans-serif" fill="#000">/IO02</text><text x="181" y="2933.5" text-anchor="end" font-size="9" font-family="sans-serif" fill="#000">/IO22</text><text x="181" y="2953.5" text-anchor="end" font-size="9" font-family="sans-serif" fill="#000">/IO21</text><text x="181" y="2973.5" text-anchor="end" font-size="9" font-family="sans-serif" fill="#000">J23_1</text><text x="181" y="2993.5" text-anchor="end" font-size="9" font-family="sans-serif" fill="#000">/BUZZER</text><text x="181" y="3013.5" text-anchor="end" font-size="9" font-family="sans-serif" fill="#000">GND</text><text x="181" y="3033.5" text-anchor="end" font-size="9" font-family="sans-serif" fill="#000">GND</text><text x="181" y="3053.5" text-anchor="end" font-size="9" font-family="sans-serif" fill="#000">GND</text><text x="181" y="3073.5" text-anchor="end" font-size="9" font-family="sans-serif" fill="#000">GND</text></svg>