G04 #@! TF.GenerationSoftware,KiCad,Pcbnew,8.0.7*
G04 #@! TF.CreationDate,2025-01-04T16:17:54-06:00*
G04 #@! TF.ProjectId,base_esp32,62617365-5f65-4737-9033-322e6b696361,v0.1*
G04 #@! TF.SameCoordinates,Original*
G04 #@! TF.FileFunction,Paste,Top*
G04 #@! TF.FilePolarity,Positive*
%FSLAX46Y46*%
G04 Gerber Fmt 4.6, Leading zero omitted, Abs format (unit mm)*
G04 Created by KiCad (PCBNEW 8.0.7) date 2025-01-04 16:17:54*
%MOMM*%
%LPD*%
G01*
G04 APERTURE LIST*
G04 Aperture macros list*
%AMRoundRect*
0 Rectangle with rounded corners*
0 $1 Rounding radius*
0 $2 $3 $4 $5 $6 $7 $8 $9 X,Y pos of 4 corners*
0 Add a 4 corners polygon primitive as box body*
4,1,4,$2,$3,$4,$5,$6,$7,$8,$9,$2,$3,0*
0 Add four circle primitives for the rounded corners*
1,1,$1+$1,$2,$3*
1,1,$1+$1,$4,$5*
1,1,$1+$1,$6,$7*
1,1,$1+$1,$8,$9*
0 Add four rect primitives between the rounded corners*
20,1,$1+$1,$2,$3,$4,$5,0*
20,1,$1+$1,$4,$5,$6,$7,0*
20,1,$1+$1,$6,$7,$8,$9,0*
20,1,$1+$1,$8,$9,$2,$3,0*%
G04 Aperture macros list end*
%ADD10RoundRect,0.250000X-0.250000X-0.475000X0.250000X-0.475000X0.250000X0.475000X-0.250000X0.475000X0*%
%ADD11RoundRect,0.250000X0.350000X0.450000X-0.350000X0.450000X-0.350000X-0.450000X0.350000X-0.450000X0*%
%ADD12RoundRect,0.150000X-0.850000X-0.150000X0.850000X-0.150000X0.850000X0.150000X-0.850000X0.150000X0*%
%ADD13RoundRect,0.243750X-0.243750X-0.456250X0.243750X-0.456250X0.243750X0.456250X-0.243750X0.456250X0*%
%ADD14RoundRect,0.375000X-0.625000X-0.375000X0.625000X-0.375000X0.625000X0.375000X-0.625000X0.375000X0*%
%ADD15RoundRect,0.500000X-0.500000X-1.400000X0.500000X-1.400000X0.500000X1.400000X-0.500000X1.400000X0*%
G04 APERTURE END LIST*
D10*
X120970000Y-87630000D03*
X122870000Y-87630000D03*
X132400000Y-83820000D03*
X134300000Y-83820000D03*
D11*
X132622800Y-57708800D03*
X130622800Y-57708800D03*
D12*
X188711200Y-112395000D03*
X188711200Y-113665000D03*
X188711200Y-114935000D03*
X188711200Y-116205000D03*
X188711200Y-117475000D03*
X188711200Y-118745000D03*
X188711200Y-120015000D03*
X188711200Y-121285000D03*
X193711200Y-121285000D03*
X193711200Y-120015000D03*
X193711200Y-118745000D03*
X193711200Y-117475000D03*
X193711200Y-116205000D03*
X193711200Y-114935000D03*
X193711200Y-113665000D03*
X193711200Y-112395000D03*
D11*
X127365000Y-57785000D03*
X125365000Y-57785000D03*
D10*
X127320000Y-83820000D03*
X129220000Y-83820000D03*
X127320000Y-87630000D03*
X129220000Y-87630000D03*
D13*
X130736100Y-53949600D03*
X132611100Y-53949600D03*
D10*
X132400000Y-87630000D03*
X134300000Y-87630000D03*
D14*
X127660000Y-75170000D03*
X127660000Y-77470000D03*
D15*
X133960000Y-77470000D03*
D14*
X127660000Y-79770000D03*
D10*
X120970000Y-83820000D03*
X122870000Y-83820000D03*
D13*
X125427500Y-53912500D03*
X127302500Y-53912500D03*
D10*
X115890000Y-83820000D03*
X117790000Y-83820000D03*
X115890000Y-87630000D03*
X117790000Y-87630000D03*
D14*
X116230000Y-75170000D03*
X116230000Y-77470000D03*
D15*
X122530000Y-77470000D03*
D14*
X116230000Y-79770000D03*
M02*
