M48
; DRILL file {KiCad 8.0.7} date 2025-01-05T11:32:02-0600
; FORMAT={-:-/ absolute / metric / decimal}
; #@! TF.CreationDate,2025-01-05T11:32:02-06:00
; #@! TF.GenerationSoftware,Kicad,Pcbnew,8.0.7
; #@! TF.FileFunction,Plated,1,2,PTH
FMAT,2
METRIC
; #@! TA.AperFunction,Plated,PTH,ViaDrill
T1C0.300
; #@! TA.AperFunction,Plated,PTH,ComponentDrill
T2C0.750
; #@! TA.AperFunction,Plated,PTH,ComponentDrill
T3C0.800
; #@! TA.AperFunction,Plated,PTH,ComponentDrill
T4C0.900
; #@! TA.AperFunction,Plated,PTH,ComponentDrill
T5C1.000
; #@! TA.AperFunction,Plated,PTH,ComponentDrill
T6C1.020
; #@! TA.AperFunction,Plated,PTH,ComponentDrill
T7C1.100
; #@! TA.AperFunction,Plated,PTH,ComponentDrill
T8C1.200
; #@! TA.AperFunction,Plated,PTH,ComponentDrill
T9C1.300
; #@! TA.AperFunction,Plated,PTH,ComponentDrill
T10C3.000
%
G90
G05
T1
X105.359Y-121.463
X108.61Y-118.313
X111.811Y-121.768
X112.319Y-96.317
X114.351Y-147.066
X114.808Y-70.104
X115.113Y-103.48
X117.094Y-62.23
X117.373Y-73.203
X117.805Y-120.04
X118.313Y-77.318
X118.618Y-74.93
X118.923Y-85.801
X120.396Y-113.132
X121.798Y-134.488
X122.555Y-103.454
X122.682Y-73.66
X124.358Y-136.754
X124.841Y-97.663
X126.416Y-89.129
X127.127Y-116.357
X128.422Y-136.296
X128.829Y-90.119
X128.981Y-117.78
X129.54Y-77.064
X130.556Y-81.915
X132.842Y-92.329
X132.994Y-74.727
X133.528Y-60.681
X134.214Y-90.119
X134.925Y-137.211
X135.89Y-59.69
X136.21Y-130.389
X136.246Y-137.77
X136.246Y-142.189
X136.896Y-118.618
X138.684Y-138.176
X138.786Y-141.884
X140.97Y-107.315
X141.605Y-63.119
X141.605Y-73.152
X141.605Y-76.073
X142.367Y-63.119
X142.367Y-73.152
X142.367Y-76.2
X143.129Y-66.929
X143.129Y-73.152
X143.129Y-76.903
X143.891Y-63.119
X143.891Y-73.152
X143.891Y-78.105
X144.653Y-61.595
X144.653Y-73.152
X144.653Y-78.994
X144.856Y-94.488
X148.184Y-84.379
X148.488Y-130.454
X152.603Y-73.889
X153.67Y-74.27
X154.635Y-75.336
X155.194Y-59.846
X155.575Y-60.452
X155.575Y-75.819
X155.735Y-61.092
X155.88Y-76.784
X156.001Y-61.697
X156.303Y-62.283
X156.718Y-86.614
X159.385Y-82.423
X159.876Y-101.854
X162.306Y-83.185
X163.22Y-53.721
X168.402Y-52.451
X169.062Y-117.075
X173.736Y-103.124
X181.534Y-87.478
X186.69Y-107.315
X189.103Y-97.79
X191.389Y-107.315
T2
X164.744Y-146.71
X166.014Y-146.71
X167.284Y-146.71
X185.471Y-146.685
X186.741Y-146.685
X188.011Y-146.685
T3
X115.57Y-120.65
X115.57Y-130.81
X115.57Y-134.62
X115.57Y-144.78
X121.798Y-132.487
X121.798Y-140.107
X124.338Y-132.487
X124.338Y-140.107
X126.878Y-132.487
X126.878Y-140.107
X129.418Y-132.487
X129.418Y-140.107
X129.428Y-69.799
X131.928Y-62.6
X131.928Y-65.1
X134.428Y-69.799
X134.94Y-132.487
X134.94Y-140.107
X137.48Y-132.487
X137.48Y-140.107
X140.02Y-132.487
X140.02Y-140.107
X142.56Y-132.487
X142.56Y-140.107
X147.904Y-122.784
X149.53Y-132.486
X149.53Y-140.106
X152.07Y-132.486
X152.07Y-140.106
X154.61Y-132.486
X154.61Y-140.106
X157.15Y-132.486
X157.15Y-140.106
X158.064Y-122.784
X164.64Y-122.809
X167.31Y-130.708
X167.31Y-140.868
X167.64Y-122.809
X184.48Y-84.944
X184.54Y-62.23
X184.54Y-67.909
X184.54Y-73.587
X184.54Y-79.266
X194.64Y-84.944
X194.7Y-62.23
X194.7Y-67.909
X194.7Y-73.587
X194.7Y-79.266
T4
X198.374Y-62.23
X198.374Y-67.909
X198.374Y-73.587
X198.374Y-79.266
X198.374Y-84.944
X200.914Y-62.23
X200.914Y-67.909
X200.914Y-73.587
X200.914Y-79.266
X200.914Y-84.944
T5
X105.171Y-60.96
X105.385Y-76.2
X105.385Y-78.74
X105.385Y-81.28
X105.385Y-83.82
X105.385Y-87.64
X105.385Y-90.18
X105.385Y-92.72
X105.385Y-95.26
X105.385Y-99.06
X105.385Y-101.6
X105.385Y-104.14
X105.385Y-106.68
X105.41Y-111.328
X105.41Y-113.868
X105.41Y-116.408
X105.41Y-118.948
X107.711Y-60.96
X109.22Y-76.2
X109.22Y-78.74
X109.22Y-81.28
X109.22Y-83.82
X109.22Y-87.63
X109.22Y-90.17
X109.22Y-92.71
X109.22Y-95.25
X109.22Y-99.06
X109.22Y-101.6
X109.22Y-104.14
X109.22Y-106.68
X110.251Y-60.96
X112.288Y-113.436
X112.36Y-117.348
X114.828Y-113.436
X114.9Y-117.348
X116.912Y-97.053
X116.942Y-91.973
X119.452Y-97.053
X119.482Y-91.973
X121.992Y-97.053
X122.022Y-91.973
X123.51Y-124.384
X123.51Y-128.194
X123.535Y-143.663
X123.535Y-147.473
X124.562Y-91.973
X125.552Y-109.118
X125.552Y-111.658
X125.552Y-114.198
X126.05Y-124.384
X126.05Y-128.194
X126.075Y-143.663
X126.075Y-147.473
X128.59Y-124.384
X128.59Y-128.194
X128.615Y-143.663
X128.615Y-147.473
X131.13Y-124.384
X131.13Y-128.194
X131.155Y-143.663
X131.155Y-147.473
X132.105Y-111.633
X133.67Y-124.384
X133.67Y-128.194
X133.695Y-143.663
X133.695Y-147.473
X134.645Y-111.633
X136.21Y-124.384
X136.21Y-128.194
X136.235Y-143.663
X136.235Y-147.473
X138.75Y-124.384
X138.75Y-128.194
X138.775Y-143.663
X138.775Y-147.473
X141.29Y-124.384
X141.29Y-128.194
X141.315Y-143.663
X141.315Y-147.473
X147.93Y-144.369
X147.93Y-146.909
X149.337Y-113.386
X151.74Y-144.369
X151.74Y-146.909
X155.55Y-144.369
X155.55Y-146.909
X156.937Y-113.386
X159.36Y-144.369
X159.36Y-146.909
X163.449Y-134.513
X163.449Y-137.053
X164.485Y-113.411
X167.025Y-113.411
X171.45Y-54.61
X172.06Y-66.086
X172.06Y-68.626
X172.06Y-72.339
X172.06Y-74.879
X172.06Y-78.588
X172.06Y-81.128
X172.06Y-84.836
X172.06Y-87.376
X172.085Y-59.741
X172.085Y-62.281
X173.99Y-54.61
X174.32Y-134.936
X174.432Y-128.332
X176.86Y-134.936
X176.972Y-128.332
X177.49Y-92.674
X177.49Y-95.214
X177.49Y-97.754
X177.927Y-104.597
X178.435Y-62.23
X178.435Y-67.945
X178.435Y-73.66
X178.435Y-79.375
X178.435Y-85.09
X179.4Y-134.936
X179.512Y-128.332
X180.467Y-104.597
X180.975Y-62.23
X180.975Y-67.945
X180.975Y-73.66
X180.975Y-79.375
X180.975Y-85.09
X181.3Y-92.674
X181.3Y-95.214
X181.3Y-97.754
X181.412Y-109.931
X181.412Y-113.69
X181.412Y-117.577
X181.412Y-121.31
X183.952Y-109.931
X183.952Y-113.69
X183.952Y-117.577
X183.952Y-121.31
X193.599Y-90.993
X193.599Y-93.533
X193.599Y-96.073
X193.599Y-98.613
X193.599Y-102.972
X193.599Y-105.512
X197.409Y-90.993
X197.409Y-93.533
X197.409Y-96.073
X197.409Y-98.613
X197.409Y-102.972
X197.409Y-105.512
X197.891Y-112.955
X197.891Y-115.495
X197.891Y-118.035
X197.891Y-120.575
T6
X139.662Y-62.0
X139.662Y-64.54
X139.662Y-67.08
X139.662Y-69.62
X139.662Y-72.16
X139.662Y-74.7
X139.662Y-77.24
X139.662Y-79.78
X139.662Y-82.32
X139.662Y-84.86
X139.662Y-87.4
X139.662Y-89.94
X139.662Y-92.48
X139.662Y-95.02
X139.662Y-97.56
X165.062Y-62.0
X165.062Y-64.54
X165.062Y-67.08
X165.062Y-69.62
X165.062Y-72.16
X165.062Y-74.7
X165.062Y-77.24
X165.062Y-79.78
X165.062Y-82.32
X165.062Y-84.86
X165.062Y-87.4
X165.062Y-89.94
X165.062Y-92.48
X165.062Y-95.02
X165.062Y-97.56
T7
X105.26Y-123.77
X105.26Y-128.27
X105.26Y-135.545
X105.26Y-140.045
X111.76Y-123.77
X111.76Y-128.27
X111.76Y-135.545
X111.76Y-140.045
X124.135Y-63.805
X124.135Y-66.345
X124.135Y-68.885
X184.989Y-53.071
X184.989Y-57.571
X191.489Y-53.071
X191.489Y-57.571
T8
X198.12Y-128.43
X198.12Y-133.43
X198.12Y-138.43
T9
X107.831Y-65.993
X107.831Y-70.993
X174.487Y-140.796
X174.487Y-145.796
X179.487Y-143.296
T10
X107.0Y-54.925
X107.0Y-147.0
X199.0Y-55.0
X199.0Y-147.0
M30
