%TF.GenerationSoftware,KiCad,Pcbnew,8.0.7*%
%TF.CreationDate,2025-01-05T11:07:57-06:00*%
%TF.ProjectId,base_esp32,62617365-5f65-4737-9033-322e6b696361,v0.1*%
%TF.SameCoordinates,Original*%
%TF.FileFunction,Drillmap*%
%TF.FilePolarity,Positive*%
%FSLAX45Y45*%
G04 Gerber Fmt 4.5, Leading zero omitted, Abs format (unit mm)*
G04 Created by KiCad (PCBNEW 8.0.7) date 2025-01-05 11:07:57*
%MOMM*%
%LPD*%
G01*
G04 APERTURE LIST*
%ADD10C,0.050000*%
%ADD11C,0.200000*%
%ADD12C,0.100000*%
%ADD13C,0.102000*%
%ADD14C,0.110000*%
%ADD15C,0.120000*%
%ADD16C,0.130000*%
%ADD17C,0.300000*%
G04 APERTURE END LIST*
D10*
X10300000Y-5100000D02*
X20300000Y-5100000D01*
X20300000Y-15100000D01*
X10300000Y-15100000D01*
X10300000Y-5100000D01*
D11*
D12*
X10520920Y-12131280D02*
X10550920Y-12161280D01*
X10550920Y-12131280D02*
X10520920Y-12161280D01*
X10846040Y-11816320D02*
X10876040Y-11846320D01*
X10876040Y-11816320D02*
X10846040Y-11846320D01*
X11166080Y-12161760D02*
X11196080Y-12191760D01*
X11196080Y-12161760D02*
X11166080Y-12191760D01*
X11216880Y-9616680D02*
X11246880Y-9646680D01*
X11246880Y-9616680D02*
X11216880Y-9646680D01*
X11420080Y-14691600D02*
X11450080Y-14721600D01*
X11450080Y-14691600D02*
X11420080Y-14721600D01*
X11465800Y-6995400D02*
X11495800Y-7025400D01*
X11495800Y-6995400D02*
X11465800Y-7025400D01*
X11496280Y-10332960D02*
X11526280Y-10362960D01*
X11526280Y-10332960D02*
X11496280Y-10362960D01*
X11694400Y-6208000D02*
X11724400Y-6238000D01*
X11724400Y-6208000D02*
X11694400Y-6238000D01*
X11722340Y-7305280D02*
X11752340Y-7335280D01*
X11752340Y-7305280D02*
X11722340Y-7335280D01*
X11765520Y-11989040D02*
X11795520Y-12019040D01*
X11795520Y-11989040D02*
X11765520Y-12019040D01*
X11816320Y-7716760D02*
X11846320Y-7746760D01*
X11846320Y-7716760D02*
X11816320Y-7746760D01*
X11846800Y-7478000D02*
X11876800Y-7508000D01*
X11876800Y-7478000D02*
X11846800Y-7508000D01*
X11877280Y-8565120D02*
X11907280Y-8595120D01*
X11907280Y-8565120D02*
X11877280Y-8595120D01*
X12024600Y-11298160D02*
X12054600Y-11328160D01*
X12054600Y-11298160D02*
X12024600Y-11328160D01*
X12164800Y-13433800D02*
X12194800Y-13463800D01*
X12194800Y-13433800D02*
X12164800Y-13463800D01*
X12240500Y-10330420D02*
X12270500Y-10360420D01*
X12270500Y-10330420D02*
X12240500Y-10360420D01*
X12253200Y-7351000D02*
X12283200Y-7381000D01*
X12283200Y-7351000D02*
X12253200Y-7381000D01*
X12420840Y-13660360D02*
X12450840Y-13690360D01*
X12450840Y-13660360D02*
X12420840Y-13690360D01*
X12469100Y-9751300D02*
X12499100Y-9781300D01*
X12499100Y-9751300D02*
X12469100Y-9781300D01*
X12626580Y-8897860D02*
X12656580Y-8927860D01*
X12656580Y-8897860D02*
X12626580Y-8927860D01*
X12697700Y-11620740D02*
X12727700Y-11650740D01*
X12727700Y-11620740D02*
X12697700Y-11650740D01*
X12827240Y-13614640D02*
X12857240Y-13644640D01*
X12857240Y-13614640D02*
X12827240Y-13644640D01*
X12867880Y-8996920D02*
X12897880Y-9026920D01*
X12897880Y-8996920D02*
X12867880Y-9026920D01*
X12883120Y-11762980D02*
X12913120Y-11792980D01*
X12913120Y-11762980D02*
X12883120Y-11792980D01*
X12939000Y-7691360D02*
X12969000Y-7721360D01*
X12969000Y-7691360D02*
X12939000Y-7721360D01*
X13040600Y-8176500D02*
X13070600Y-8206500D01*
X13070600Y-8176500D02*
X13040600Y-8206500D01*
X13269200Y-9217900D02*
X13299200Y-9247900D01*
X13299200Y-9217900D02*
X13269200Y-9247900D01*
X13284440Y-7457680D02*
X13314440Y-7487680D01*
X13314440Y-7457680D02*
X13284440Y-7487680D01*
X13337780Y-6053060D02*
X13367780Y-6083060D01*
X13367780Y-6053060D02*
X13337780Y-6083060D01*
X13406360Y-8996920D02*
X13436360Y-9026920D01*
X13436360Y-8996920D02*
X13406360Y-9026920D01*
X13477480Y-13706080D02*
X13507480Y-13736080D01*
X13507480Y-13706080D02*
X13477480Y-13736080D01*
X13574000Y-5954000D02*
X13604000Y-5984000D01*
X13604000Y-5954000D02*
X13574000Y-5984000D01*
X13605980Y-13023860D02*
X13635980Y-13053860D01*
X13635980Y-13023860D02*
X13605980Y-13053860D01*
X13609560Y-13761960D02*
X13639560Y-13791960D01*
X13639560Y-13761960D02*
X13609560Y-13791960D01*
X13609560Y-14203920D02*
X13639560Y-14233920D01*
X13639560Y-14203920D02*
X13609560Y-14233920D01*
X13674600Y-11846800D02*
X13704600Y-11876800D01*
X13704600Y-11846800D02*
X13674600Y-11876800D01*
X13853400Y-13802600D02*
X13883400Y-13832600D01*
X13883400Y-13802600D02*
X13853400Y-13832600D01*
X13863560Y-14173440D02*
X13893560Y-14203440D01*
X13893560Y-14173440D02*
X13863560Y-14203440D01*
X14082000Y-10716500D02*
X14112000Y-10746500D01*
X14112000Y-10716500D02*
X14082000Y-10746500D01*
X14145500Y-6296900D02*
X14175500Y-6326900D01*
X14175500Y-6296900D02*
X14145500Y-6326900D01*
X14145500Y-7300200D02*
X14175500Y-7330200D01*
X14175500Y-7300200D02*
X14145500Y-7330200D01*
X14145500Y-7592300D02*
X14175500Y-7622300D01*
X14175500Y-7592300D02*
X14145500Y-7622300D01*
X14221700Y-6296900D02*
X14251700Y-6326900D01*
X14251700Y-6296900D02*
X14221700Y-6326900D01*
X14221700Y-7300200D02*
X14251700Y-7330200D01*
X14251700Y-7300200D02*
X14221700Y-7330200D01*
X14221700Y-7605000D02*
X14251700Y-7635000D01*
X14251700Y-7605000D02*
X14221700Y-7635000D01*
X14297900Y-6677900D02*
X14327900Y-6707900D01*
X14327900Y-6677900D02*
X14297900Y-6707900D01*
X14297900Y-7300200D02*
X14327900Y-7330200D01*
X14327900Y-7300200D02*
X14297900Y-7330200D01*
X14297900Y-7675273D02*
X14327900Y-7705273D01*
X14327900Y-7675273D02*
X14297900Y-7705273D01*
X14374100Y-6296900D02*
X14404100Y-6326900D01*
X14404100Y-6296900D02*
X14374100Y-6326900D01*
X14374100Y-7300200D02*
X14404100Y-7330200D01*
X14404100Y-7300200D02*
X14374100Y-7330200D01*
X14374100Y-7795500D02*
X14404100Y-7825500D01*
X14404100Y-7795500D02*
X14374100Y-7825500D01*
X14450300Y-6144500D02*
X14480300Y-6174500D01*
X14480300Y-6144500D02*
X14450300Y-6174500D01*
X14450300Y-7300200D02*
X14480300Y-7330200D01*
X14480300Y-7300200D02*
X14450300Y-7330200D01*
X14450300Y-7884400D02*
X14480300Y-7914400D01*
X14480300Y-7884400D02*
X14450300Y-7914400D01*
X14470620Y-9433800D02*
X14500620Y-9463800D01*
X14500620Y-9433800D02*
X14470620Y-9463800D01*
X14803360Y-8422880D02*
X14833360Y-8452880D01*
X14833360Y-8422880D02*
X14803360Y-8452880D01*
X14833840Y-13030440D02*
X14863840Y-13060440D01*
X14863840Y-13030440D02*
X14833840Y-13060440D01*
X15245320Y-7373860D02*
X15275320Y-7403860D01*
X15275320Y-7373860D02*
X15245320Y-7403860D01*
X15352000Y-7411960D02*
X15382000Y-7441960D01*
X15382000Y-7411960D02*
X15352000Y-7441960D01*
X15448520Y-7518640D02*
X15478520Y-7548640D01*
X15478520Y-7518640D02*
X15448520Y-7548640D01*
X15504400Y-5969600D02*
X15534400Y-5999600D01*
X15534400Y-5969600D02*
X15504400Y-5999600D01*
X15542500Y-6030200D02*
X15572500Y-6060200D01*
X15572500Y-6030200D02*
X15542500Y-6060200D01*
X15542500Y-7566900D02*
X15572500Y-7596900D01*
X15572500Y-7566900D02*
X15542500Y-7596900D01*
X15558507Y-6094230D02*
X15588507Y-6124230D01*
X15588507Y-6094230D02*
X15558507Y-6124230D01*
X15572980Y-7663420D02*
X15602980Y-7693420D01*
X15602980Y-7663420D02*
X15572980Y-7693420D01*
X15585062Y-6154652D02*
X15615062Y-6184652D01*
X15615062Y-6154652D02*
X15585062Y-6184652D01*
X15615285Y-6213326D02*
X15645285Y-6243326D01*
X15645285Y-6213326D02*
X15615285Y-6243326D01*
X15656800Y-8646400D02*
X15686800Y-8676400D01*
X15686800Y-8646400D02*
X15656800Y-8676400D01*
X15923500Y-8227300D02*
X15953500Y-8257300D01*
X15953500Y-8227300D02*
X15923500Y-8257300D01*
X15972600Y-10170400D02*
X16002600Y-10200400D01*
X16002600Y-10170400D02*
X15972600Y-10200400D01*
X16215600Y-8303500D02*
X16245600Y-8333500D01*
X16245600Y-8303500D02*
X16215600Y-8333500D01*
X16307040Y-5357100D02*
X16337040Y-5387100D01*
X16337040Y-5357100D02*
X16307040Y-5387100D01*
X16825200Y-5230060D02*
X16855200Y-5260060D01*
X16855200Y-5230060D02*
X16825200Y-5260060D01*
X16891240Y-11692480D02*
X16921240Y-11722480D01*
X16921240Y-11692480D02*
X16891240Y-11722480D01*
X17358600Y-10297400D02*
X17388600Y-10327400D01*
X17388600Y-10297400D02*
X17358600Y-10327400D01*
X18138380Y-8732760D02*
X18168380Y-8762760D01*
X18168380Y-8732760D02*
X18138380Y-8762760D01*
X18654000Y-10716500D02*
X18684000Y-10746500D01*
X18684000Y-10716500D02*
X18654000Y-10746500D01*
X18895300Y-9764000D02*
X18925300Y-9794000D01*
X18925300Y-9764000D02*
X18895300Y-9794000D01*
X19123900Y-10716500D02*
X19153900Y-10746500D01*
X19153900Y-10716500D02*
X19123900Y-10746500D01*
X16511940Y-14671040D02*
G75*
G02*
X16436940Y-14671040I-37500J0D01*
G01*
X16436940Y-14671040D02*
G75*
G02*
X16511940Y-14671040I37500J0D01*
G01*
X16638940Y-14671040D02*
G75*
G02*
X16563940Y-14671040I-37500J0D01*
G01*
X16563940Y-14671040D02*
G75*
G02*
X16638940Y-14671040I37500J0D01*
G01*
X16765940Y-14671040D02*
G75*
G02*
X16690940Y-14671040I-37500J0D01*
G01*
X16690940Y-14671040D02*
G75*
G02*
X16765940Y-14671040I37500J0D01*
G01*
X18584580Y-14668500D02*
G75*
G02*
X18509580Y-14668500I-37500J0D01*
G01*
X18509580Y-14668500D02*
G75*
G02*
X18584580Y-14668500I37500J0D01*
G01*
X18711580Y-14668500D02*
G75*
G02*
X18636580Y-14668500I-37500J0D01*
G01*
X18636580Y-14668500D02*
G75*
G02*
X18711580Y-14668500I37500J0D01*
G01*
X18838580Y-14668500D02*
G75*
G02*
X18763580Y-14668500I-37500J0D01*
G01*
X18763580Y-14668500D02*
G75*
G02*
X18838580Y-14668500I37500J0D01*
G01*
X11557000Y-12025000D02*
X11557000Y-12105000D01*
X11517000Y-12065000D02*
X11597000Y-12065000D01*
X11557000Y-13041000D02*
X11557000Y-13121000D01*
X11517000Y-13081000D02*
X11597000Y-13081000D01*
X11557000Y-13422000D02*
X11557000Y-13502000D01*
X11517000Y-13462000D02*
X11597000Y-13462000D01*
X11557000Y-14438000D02*
X11557000Y-14518000D01*
X11517000Y-14478000D02*
X11597000Y-14478000D01*
X12179800Y-13208680D02*
X12179800Y-13288680D01*
X12139800Y-13248680D02*
X12219800Y-13248680D01*
X12179800Y-13970680D02*
X12179800Y-14050680D01*
X12139800Y-14010680D02*
X12219800Y-14010680D01*
X12433800Y-13208680D02*
X12433800Y-13288680D01*
X12393800Y-13248680D02*
X12473800Y-13248680D01*
X12433800Y-13970680D02*
X12433800Y-14050680D01*
X12393800Y-14010680D02*
X12473800Y-14010680D01*
X12687800Y-13208680D02*
X12687800Y-13288680D01*
X12647800Y-13248680D02*
X12727800Y-13248680D01*
X12687800Y-13970680D02*
X12687800Y-14050680D01*
X12647800Y-14010680D02*
X12727800Y-14010680D01*
X12941800Y-13208680D02*
X12941800Y-13288680D01*
X12901800Y-13248680D02*
X12981800Y-13248680D01*
X12941800Y-13970680D02*
X12941800Y-14050680D01*
X12901800Y-14010680D02*
X12981800Y-14010680D01*
X12942760Y-6939920D02*
X12942760Y-7019920D01*
X12902760Y-6979920D02*
X12982760Y-6979920D01*
X13192760Y-6219969D02*
X13192760Y-6299969D01*
X13152760Y-6259969D02*
X13232760Y-6259969D01*
X13192760Y-6469969D02*
X13192760Y-6549969D01*
X13152760Y-6509969D02*
X13232760Y-6509969D01*
X13442760Y-6939920D02*
X13442760Y-7019920D01*
X13402760Y-6979920D02*
X13482760Y-6979920D01*
X13493980Y-13208680D02*
X13493980Y-13288680D01*
X13453980Y-13248680D02*
X13533980Y-13248680D01*
X13493980Y-13970680D02*
X13493980Y-14050680D01*
X13453980Y-14010680D02*
X13533980Y-14010680D01*
X13747980Y-13208680D02*
X13747980Y-13288680D01*
X13707980Y-13248680D02*
X13787980Y-13248680D01*
X13747980Y-13970680D02*
X13747980Y-14050680D01*
X13707980Y-14010680D02*
X13787980Y-14010680D01*
X14001980Y-13208680D02*
X14001980Y-13288680D01*
X13961980Y-13248680D02*
X14041980Y-13248680D01*
X14001980Y-13970680D02*
X14001980Y-14050680D01*
X13961980Y-14010680D02*
X14041980Y-14010680D01*
X14255980Y-13208680D02*
X14255980Y-13288680D01*
X14215980Y-13248680D02*
X14295980Y-13248680D01*
X14255980Y-13970680D02*
X14255980Y-14050680D01*
X14215980Y-14010680D02*
X14295980Y-14010680D01*
X14790420Y-12238360D02*
X14790420Y-12318360D01*
X14750420Y-12278360D02*
X14830420Y-12278360D01*
X14952980Y-13208640D02*
X14952980Y-13288640D01*
X14912980Y-13248640D02*
X14992980Y-13248640D01*
X14952980Y-13970640D02*
X14952980Y-14050640D01*
X14912980Y-14010640D02*
X14992980Y-14010640D01*
X15206980Y-13208640D02*
X15206980Y-13288640D01*
X15166980Y-13248640D02*
X15246980Y-13248640D01*
X15206980Y-13970640D02*
X15206980Y-14050640D01*
X15166980Y-14010640D02*
X15246980Y-14010640D01*
X15460980Y-13208640D02*
X15460980Y-13288640D01*
X15420980Y-13248640D02*
X15500980Y-13248640D01*
X15460980Y-13970640D02*
X15460980Y-14050640D01*
X15420980Y-14010640D02*
X15500980Y-14010640D01*
X15714980Y-13208640D02*
X15714980Y-13288640D01*
X15674980Y-13248640D02*
X15754980Y-13248640D01*
X15714980Y-13970640D02*
X15714980Y-14050640D01*
X15674980Y-14010640D02*
X15754980Y-14010640D01*
X15806420Y-12238360D02*
X15806420Y-12318360D01*
X15766420Y-12278360D02*
X15846420Y-12278360D01*
X16464000Y-12240900D02*
X16464000Y-12320900D01*
X16424000Y-12280900D02*
X16504000Y-12280900D01*
X16730980Y-13030840D02*
X16730980Y-13110840D01*
X16690980Y-13070840D02*
X16770980Y-13070840D01*
X16730980Y-14046840D02*
X16730980Y-14126840D01*
X16690980Y-14086840D02*
X16770980Y-14086840D01*
X16764000Y-12240900D02*
X16764000Y-12320900D01*
X16724000Y-12280900D02*
X16804000Y-12280900D01*
X18448000Y-8454400D02*
X18448000Y-8534400D01*
X18408000Y-8494400D02*
X18488000Y-8494400D01*
X18454000Y-6183000D02*
X18454000Y-6263000D01*
X18414000Y-6223000D02*
X18494000Y-6223000D01*
X18454000Y-6750850D02*
X18454000Y-6830850D01*
X18414000Y-6790850D02*
X18494000Y-6790850D01*
X18454000Y-7318700D02*
X18454000Y-7398700D01*
X18414000Y-7358700D02*
X18494000Y-7358700D01*
X18454000Y-7886550D02*
X18454000Y-7966550D01*
X18414000Y-7926550D02*
X18494000Y-7926550D01*
X19464000Y-8454400D02*
X19464000Y-8534400D01*
X19424000Y-8494400D02*
X19504000Y-8494400D01*
X19470000Y-6183000D02*
X19470000Y-6263000D01*
X19430000Y-6223000D02*
X19510000Y-6223000D01*
X19470000Y-6750850D02*
X19470000Y-6830850D01*
X19430000Y-6790850D02*
X19510000Y-6790850D01*
X19470000Y-7318700D02*
X19470000Y-7398700D01*
X19430000Y-7358700D02*
X19510000Y-7358700D01*
X19470000Y-7886550D02*
X19470000Y-7966550D01*
X19430000Y-7926550D02*
X19510000Y-7926550D01*
X19869220Y-6254820D02*
X19869220Y-6191180D01*
X19805580Y-6191180D01*
X19805580Y-6254820D01*
X19869220Y-6254820D01*
X19869220Y-6822670D02*
X19869220Y-6759030D01*
X19805580Y-6759030D01*
X19805580Y-6822670D01*
X19869220Y-6822670D01*
X19869220Y-7390520D02*
X19869220Y-7326880D01*
X19805580Y-7326880D01*
X19805580Y-7390520D01*
X19869220Y-7390520D01*
X19869220Y-7958370D02*
X19869220Y-7894730D01*
X19805580Y-7894730D01*
X19805580Y-7958370D01*
X19869220Y-7958370D01*
X19869220Y-8526220D02*
X19869220Y-8462580D01*
X19805580Y-8462580D01*
X19805580Y-8526220D01*
X19869220Y-8526220D01*
X20123220Y-6254820D02*
X20123220Y-6191180D01*
X20059580Y-6191180D01*
X20059580Y-6254820D01*
X20123220Y-6254820D01*
X20123220Y-6822670D02*
X20123220Y-6759030D01*
X20059580Y-6759030D01*
X20059580Y-6822670D01*
X20123220Y-6822670D01*
X20123220Y-7390520D02*
X20123220Y-7326880D01*
X20059580Y-7326880D01*
X20059580Y-7390520D01*
X20123220Y-7390520D01*
X20123220Y-7958370D02*
X20123220Y-7894730D01*
X20059580Y-7894730D01*
X20059580Y-7958370D01*
X20123220Y-7958370D01*
X20123220Y-8526220D02*
X20123220Y-8462580D01*
X20059580Y-8462580D01*
X20059580Y-8526220D01*
X20123220Y-8526220D01*
X10517100Y-6146000D02*
X10567100Y-6096000D01*
X10517100Y-6046000D01*
X10467100Y-6096000D01*
X10517100Y-6146000D01*
X10538500Y-7670000D02*
X10588500Y-7620000D01*
X10538500Y-7570000D01*
X10488500Y-7620000D01*
X10538500Y-7670000D01*
X10538500Y-7924000D02*
X10588500Y-7874000D01*
X10538500Y-7824000D01*
X10488500Y-7874000D01*
X10538500Y-7924000D01*
X10538500Y-8178000D02*
X10588500Y-8128000D01*
X10538500Y-8078000D01*
X10488500Y-8128000D01*
X10538500Y-8178000D01*
X10538500Y-8432000D02*
X10588500Y-8382000D01*
X10538500Y-8332000D01*
X10488500Y-8382000D01*
X10538500Y-8432000D01*
X10538500Y-8814000D02*
X10588500Y-8764000D01*
X10538500Y-8714000D01*
X10488500Y-8764000D01*
X10538500Y-8814000D01*
X10538500Y-9068000D02*
X10588500Y-9018000D01*
X10538500Y-8968000D01*
X10488500Y-9018000D01*
X10538500Y-9068000D01*
X10538500Y-9322000D02*
X10588500Y-9272000D01*
X10538500Y-9222000D01*
X10488500Y-9272000D01*
X10538500Y-9322000D01*
X10538500Y-9576000D02*
X10588500Y-9526000D01*
X10538500Y-9476000D01*
X10488500Y-9526000D01*
X10538500Y-9576000D01*
X10538500Y-9956000D02*
X10588500Y-9906000D01*
X10538500Y-9856000D01*
X10488500Y-9906000D01*
X10538500Y-9956000D01*
X10538500Y-10210000D02*
X10588500Y-10160000D01*
X10538500Y-10110000D01*
X10488500Y-10160000D01*
X10538500Y-10210000D01*
X10538500Y-10464000D02*
X10588500Y-10414000D01*
X10538500Y-10364000D01*
X10488500Y-10414000D01*
X10538500Y-10464000D01*
X10538500Y-10718000D02*
X10588500Y-10668000D01*
X10538500Y-10618000D01*
X10488500Y-10668000D01*
X10538500Y-10718000D01*
X10541000Y-11182820D02*
X10591000Y-11132820D01*
X10541000Y-11082820D01*
X10491000Y-11132820D01*
X10541000Y-11182820D01*
X10541000Y-11436820D02*
X10591000Y-11386820D01*
X10541000Y-11336820D01*
X10491000Y-11386820D01*
X10541000Y-11436820D01*
X10541000Y-11690820D02*
X10591000Y-11640820D01*
X10541000Y-11590820D01*
X10491000Y-11640820D01*
X10541000Y-11690820D01*
X10541000Y-11944820D02*
X10591000Y-11894820D01*
X10541000Y-11844820D01*
X10491000Y-11894820D01*
X10541000Y-11944820D01*
X10771100Y-6146000D02*
X10821100Y-6096000D01*
X10771100Y-6046000D01*
X10721100Y-6096000D01*
X10771100Y-6146000D01*
X10922000Y-7670000D02*
X10972000Y-7620000D01*
X10922000Y-7570000D01*
X10872000Y-7620000D01*
X10922000Y-7670000D01*
X10922000Y-7924000D02*
X10972000Y-7874000D01*
X10922000Y-7824000D01*
X10872000Y-7874000D01*
X10922000Y-7924000D01*
X10922000Y-8178000D02*
X10972000Y-8128000D01*
X10922000Y-8078000D01*
X10872000Y-8128000D01*
X10922000Y-8178000D01*
X10922000Y-8432000D02*
X10972000Y-8382000D01*
X10922000Y-8332000D01*
X10872000Y-8382000D01*
X10922000Y-8432000D01*
X10922000Y-8813000D02*
X10972000Y-8763000D01*
X10922000Y-8713000D01*
X10872000Y-8763000D01*
X10922000Y-8813000D01*
X10922000Y-9067000D02*
X10972000Y-9017000D01*
X10922000Y-8967000D01*
X10872000Y-9017000D01*
X10922000Y-9067000D01*
X10922000Y-9321000D02*
X10972000Y-9271000D01*
X10922000Y-9221000D01*
X10872000Y-9271000D01*
X10922000Y-9321000D01*
X10922000Y-9575000D02*
X10972000Y-9525000D01*
X10922000Y-9475000D01*
X10872000Y-9525000D01*
X10922000Y-9575000D01*
X10922000Y-9956000D02*
X10972000Y-9906000D01*
X10922000Y-9856000D01*
X10872000Y-9906000D01*
X10922000Y-9956000D01*
X10922000Y-10210000D02*
X10972000Y-10160000D01*
X10922000Y-10110000D01*
X10872000Y-10160000D01*
X10922000Y-10210000D01*
X10922000Y-10464000D02*
X10972000Y-10414000D01*
X10922000Y-10364000D01*
X10872000Y-10414000D01*
X10922000Y-10464000D01*
X10922000Y-10718000D02*
X10972000Y-10668000D01*
X10922000Y-10618000D01*
X10872000Y-10668000D01*
X10922000Y-10718000D01*
X11025100Y-6146000D02*
X11075100Y-6096000D01*
X11025100Y-6046000D01*
X10975100Y-6096000D01*
X11025100Y-6146000D01*
X11228840Y-11393640D02*
X11278840Y-11343640D01*
X11228840Y-11293640D01*
X11178840Y-11343640D01*
X11228840Y-11393640D01*
X11235960Y-11784800D02*
X11285960Y-11734800D01*
X11235960Y-11684800D01*
X11185960Y-11734800D01*
X11235960Y-11784800D01*
X11482840Y-11393640D02*
X11532840Y-11343640D01*
X11482840Y-11293640D01*
X11432840Y-11343640D01*
X11482840Y-11393640D01*
X11489960Y-11784800D02*
X11539960Y-11734800D01*
X11489960Y-11684800D01*
X11439960Y-11734800D01*
X11489960Y-11784800D01*
X11691160Y-9755340D02*
X11741160Y-9705340D01*
X11691160Y-9655340D01*
X11641160Y-9705340D01*
X11691160Y-9755340D01*
X11694160Y-9247340D02*
X11744160Y-9197340D01*
X11694160Y-9147340D01*
X11644160Y-9197340D01*
X11694160Y-9247340D01*
X11945160Y-9755340D02*
X11995160Y-9705340D01*
X11945160Y-9655340D01*
X11895160Y-9705340D01*
X11945160Y-9755340D01*
X11948160Y-9247340D02*
X11998160Y-9197340D01*
X11948160Y-9147340D01*
X11898160Y-9197340D01*
X11948160Y-9247340D01*
X12199160Y-9755340D02*
X12249160Y-9705340D01*
X12199160Y-9655340D01*
X12149160Y-9705340D01*
X12199160Y-9755340D01*
X12202160Y-9247340D02*
X12252160Y-9197340D01*
X12202160Y-9147340D01*
X12152160Y-9197340D01*
X12202160Y-9247340D01*
X12350980Y-12488420D02*
X12400980Y-12438420D01*
X12350980Y-12388420D01*
X12300980Y-12438420D01*
X12350980Y-12488420D01*
X12350980Y-12869420D02*
X12400980Y-12819420D01*
X12350980Y-12769420D01*
X12300980Y-12819420D01*
X12350980Y-12869420D01*
X12353520Y-14416280D02*
X12403520Y-14366280D01*
X12353520Y-14316280D01*
X12303520Y-14366280D01*
X12353520Y-14416280D01*
X12353520Y-14797280D02*
X12403520Y-14747280D01*
X12353520Y-14697280D01*
X12303520Y-14747280D01*
X12353520Y-14797280D01*
X12456160Y-9247340D02*
X12506160Y-9197340D01*
X12456160Y-9147340D01*
X12406160Y-9197340D01*
X12456160Y-9247340D01*
X12555220Y-10961840D02*
X12605220Y-10911840D01*
X12555220Y-10861840D01*
X12505220Y-10911840D01*
X12555220Y-10961840D01*
X12555220Y-11215840D02*
X12605220Y-11165840D01*
X12555220Y-11115840D01*
X12505220Y-11165840D01*
X12555220Y-11215840D01*
X12555220Y-11469840D02*
X12605220Y-11419840D01*
X12555220Y-11369840D01*
X12505220Y-11419840D01*
X12555220Y-11469840D01*
X12604980Y-12488420D02*
X12654980Y-12438420D01*
X12604980Y-12388420D01*
X12554980Y-12438420D01*
X12604980Y-12488420D01*
X12604980Y-12869420D02*
X12654980Y-12819420D01*
X12604980Y-12769420D01*
X12554980Y-12819420D01*
X12604980Y-12869420D01*
X12607520Y-14416280D02*
X12657520Y-14366280D01*
X12607520Y-14316280D01*
X12557520Y-14366280D01*
X12607520Y-14416280D01*
X12607520Y-14797280D02*
X12657520Y-14747280D01*
X12607520Y-14697280D01*
X12557520Y-14747280D01*
X12607520Y-14797280D01*
X12858980Y-12488420D02*
X12908980Y-12438420D01*
X12858980Y-12388420D01*
X12808980Y-12438420D01*
X12858980Y-12488420D01*
X12858980Y-12869420D02*
X12908980Y-12819420D01*
X12858980Y-12769420D01*
X12808980Y-12819420D01*
X12858980Y-12869420D01*
X12861520Y-14416280D02*
X12911520Y-14366280D01*
X12861520Y-14316280D01*
X12811520Y-14366280D01*
X12861520Y-14416280D01*
X12861520Y-14797280D02*
X12911520Y-14747280D01*
X12861520Y-14697280D01*
X12811520Y-14747280D01*
X12861520Y-14797280D01*
X13112980Y-12488420D02*
X13162980Y-12438420D01*
X13112980Y-12388420D01*
X13062980Y-12438420D01*
X13112980Y-12488420D01*
X13112980Y-12869420D02*
X13162980Y-12819420D01*
X13112980Y-12769420D01*
X13062980Y-12819420D01*
X13112980Y-12869420D01*
X13115520Y-14416280D02*
X13165520Y-14366280D01*
X13115520Y-14316280D01*
X13065520Y-14366280D01*
X13115520Y-14416280D01*
X13115520Y-14797280D02*
X13165520Y-14747280D01*
X13115520Y-14697280D01*
X13065520Y-14747280D01*
X13115520Y-14797280D01*
X13210540Y-11213300D02*
X13260540Y-11163300D01*
X13210540Y-11113300D01*
X13160540Y-11163300D01*
X13210540Y-11213300D01*
X13366980Y-12488420D02*
X13416980Y-12438420D01*
X13366980Y-12388420D01*
X13316980Y-12438420D01*
X13366980Y-12488420D01*
X13366980Y-12869420D02*
X13416980Y-12819420D01*
X13366980Y-12769420D01*
X13316980Y-12819420D01*
X13366980Y-12869420D01*
X13369520Y-14416280D02*
X13419520Y-14366280D01*
X13369520Y-14316280D01*
X13319520Y-14366280D01*
X13369520Y-14416280D01*
X13369520Y-14797280D02*
X13419520Y-14747280D01*
X13369520Y-14697280D01*
X13319520Y-14747280D01*
X13369520Y-14797280D01*
X13464540Y-11213300D02*
X13514540Y-11163300D01*
X13464540Y-11113300D01*
X13414540Y-11163300D01*
X13464540Y-11213300D01*
X13620980Y-12488420D02*
X13670980Y-12438420D01*
X13620980Y-12388420D01*
X13570980Y-12438420D01*
X13620980Y-12488420D01*
X13620980Y-12869420D02*
X13670980Y-12819420D01*
X13620980Y-12769420D01*
X13570980Y-12819420D01*
X13620980Y-12869420D01*
X13623520Y-14416280D02*
X13673520Y-14366280D01*
X13623520Y-14316280D01*
X13573520Y-14366280D01*
X13623520Y-14416280D01*
X13623520Y-14797280D02*
X13673520Y-14747280D01*
X13623520Y-14697280D01*
X13573520Y-14747280D01*
X13623520Y-14797280D01*
X13874980Y-12488420D02*
X13924980Y-12438420D01*
X13874980Y-12388420D01*
X13824980Y-12438420D01*
X13874980Y-12488420D01*
X13874980Y-12869420D02*
X13924980Y-12819420D01*
X13874980Y-12769420D01*
X13824980Y-12819420D01*
X13874980Y-12869420D01*
X13877520Y-14416280D02*
X13927520Y-14366280D01*
X13877520Y-14316280D01*
X13827520Y-14366280D01*
X13877520Y-14416280D01*
X13877520Y-14797280D02*
X13927520Y-14747280D01*
X13877520Y-14697280D01*
X13827520Y-14747280D01*
X13877520Y-14797280D01*
X14128980Y-12488420D02*
X14178980Y-12438420D01*
X14128980Y-12388420D01*
X14078980Y-12438420D01*
X14128980Y-12488420D01*
X14128980Y-12869420D02*
X14178980Y-12819420D01*
X14128980Y-12769420D01*
X14078980Y-12819420D01*
X14128980Y-12869420D01*
X14131520Y-14416280D02*
X14181520Y-14366280D01*
X14131520Y-14316280D01*
X14081520Y-14366280D01*
X14131520Y-14416280D01*
X14131520Y-14797280D02*
X14181520Y-14747280D01*
X14131520Y-14697280D01*
X14081520Y-14747280D01*
X14131520Y-14797280D01*
X14792960Y-14486860D02*
X14842960Y-14436860D01*
X14792960Y-14386860D01*
X14742960Y-14436860D01*
X14792960Y-14486860D01*
X14792960Y-14740860D02*
X14842960Y-14690860D01*
X14792960Y-14640860D01*
X14742960Y-14690860D01*
X14792960Y-14740860D01*
X14933660Y-11388560D02*
X14983660Y-11338560D01*
X14933660Y-11288560D01*
X14883660Y-11338560D01*
X14933660Y-11388560D01*
X15173960Y-14486860D02*
X15223960Y-14436860D01*
X15173960Y-14386860D01*
X15123960Y-14436860D01*
X15173960Y-14486860D01*
X15173960Y-14740860D02*
X15223960Y-14690860D01*
X15173960Y-14640860D01*
X15123960Y-14690860D01*
X15173960Y-14740860D01*
X15554960Y-14486860D02*
X15604960Y-14436860D01*
X15554960Y-14386860D01*
X15504960Y-14436860D01*
X15554960Y-14486860D01*
X15554960Y-14740860D02*
X15604960Y-14690860D01*
X15554960Y-14640860D01*
X15504960Y-14690860D01*
X15554960Y-14740860D01*
X15693660Y-11388560D02*
X15743660Y-11338560D01*
X15693660Y-11288560D01*
X15643660Y-11338560D01*
X15693660Y-11388560D01*
X15935960Y-14486860D02*
X15985960Y-14436860D01*
X15935960Y-14386860D01*
X15885960Y-14436860D01*
X15935960Y-14486860D01*
X15935960Y-14740860D02*
X15985960Y-14690860D01*
X15935960Y-14640860D01*
X15885960Y-14690860D01*
X15935960Y-14740860D01*
X16344900Y-13501340D02*
X16394900Y-13451340D01*
X16344900Y-13401340D01*
X16294900Y-13451340D01*
X16344900Y-13501340D01*
X16344900Y-13755340D02*
X16394900Y-13705340D01*
X16344900Y-13655340D01*
X16294900Y-13705340D01*
X16344900Y-13755340D01*
X16448540Y-11391100D02*
X16498540Y-11341100D01*
X16448540Y-11291100D01*
X16398540Y-11341100D01*
X16448540Y-11391100D01*
X16702540Y-11391100D02*
X16752540Y-11341100D01*
X16702540Y-11291100D01*
X16652540Y-11341100D01*
X16702540Y-11391100D01*
X17145000Y-5511000D02*
X17195000Y-5461000D01*
X17145000Y-5411000D01*
X17095000Y-5461000D01*
X17145000Y-5511000D01*
X17205960Y-6658580D02*
X17255960Y-6608580D01*
X17205960Y-6558580D01*
X17155960Y-6608580D01*
X17205960Y-6658580D01*
X17205960Y-6912580D02*
X17255960Y-6862580D01*
X17205960Y-6812580D01*
X17155960Y-6862580D01*
X17205960Y-6912580D01*
X17205960Y-7283920D02*
X17255960Y-7233920D01*
X17205960Y-7183920D01*
X17155960Y-7233920D01*
X17205960Y-7283920D01*
X17205960Y-7537920D02*
X17255960Y-7487920D01*
X17205960Y-7437920D01*
X17155960Y-7487920D01*
X17205960Y-7537920D01*
X17205960Y-7908760D02*
X17255960Y-7858760D01*
X17205960Y-7808760D01*
X17155960Y-7858760D01*
X17205960Y-7908760D01*
X17205960Y-8162760D02*
X17255960Y-8112760D01*
X17205960Y-8062760D01*
X17155960Y-8112760D01*
X17205960Y-8162760D01*
X17205960Y-8533600D02*
X17255960Y-8483600D01*
X17205960Y-8433600D01*
X17155960Y-8483600D01*
X17205960Y-8533600D01*
X17205960Y-8787600D02*
X17255960Y-8737600D01*
X17205960Y-8687600D01*
X17155960Y-8737600D01*
X17205960Y-8787600D01*
X17208500Y-6024080D02*
X17258500Y-5974080D01*
X17208500Y-5924080D01*
X17158500Y-5974080D01*
X17208500Y-6024080D01*
X17208500Y-6278080D02*
X17258500Y-6228080D01*
X17208500Y-6178080D01*
X17158500Y-6228080D01*
X17208500Y-6278080D01*
X17399000Y-5511000D02*
X17449000Y-5461000D01*
X17399000Y-5411000D01*
X17349000Y-5461000D01*
X17399000Y-5511000D01*
X17432020Y-13543600D02*
X17482020Y-13493600D01*
X17432020Y-13443600D01*
X17382020Y-13493600D01*
X17432020Y-13543600D01*
X17443220Y-12883200D02*
X17493220Y-12833200D01*
X17443220Y-12783200D01*
X17393220Y-12833200D01*
X17443220Y-12883200D01*
X17686020Y-13543600D02*
X17736020Y-13493600D01*
X17686020Y-13443600D01*
X17636020Y-13493600D01*
X17686020Y-13543600D01*
X17697220Y-12883200D02*
X17747220Y-12833200D01*
X17697220Y-12783200D01*
X17647220Y-12833200D01*
X17697220Y-12883200D01*
X17748980Y-9317420D02*
X17798980Y-9267420D01*
X17748980Y-9217420D01*
X17698980Y-9267420D01*
X17748980Y-9317420D01*
X17748980Y-9571420D02*
X17798980Y-9521420D01*
X17748980Y-9471420D01*
X17698980Y-9521420D01*
X17748980Y-9571420D01*
X17748980Y-9825420D02*
X17798980Y-9775420D01*
X17748980Y-9725420D01*
X17698980Y-9775420D01*
X17748980Y-9825420D01*
X17792700Y-10509720D02*
X17842700Y-10459720D01*
X17792700Y-10409720D01*
X17742700Y-10459720D01*
X17792700Y-10509720D01*
X17843500Y-6273000D02*
X17893500Y-6223000D01*
X17843500Y-6173000D01*
X17793500Y-6223000D01*
X17843500Y-6273000D01*
X17843500Y-6844500D02*
X17893500Y-6794500D01*
X17843500Y-6744500D01*
X17793500Y-6794500D01*
X17843500Y-6844500D01*
X17843500Y-7416000D02*
X17893500Y-7366000D01*
X17843500Y-7316000D01*
X17793500Y-7366000D01*
X17843500Y-7416000D01*
X17843500Y-7987500D02*
X17893500Y-7937500D01*
X17843500Y-7887500D01*
X17793500Y-7937500D01*
X17843500Y-7987500D01*
X17843500Y-8559000D02*
X17893500Y-8509000D01*
X17843500Y-8459000D01*
X17793500Y-8509000D01*
X17843500Y-8559000D01*
X17940020Y-13543600D02*
X17990020Y-13493600D01*
X17940020Y-13443600D01*
X17890020Y-13493600D01*
X17940020Y-13543600D01*
X17951220Y-12883200D02*
X18001220Y-12833200D01*
X17951220Y-12783200D01*
X17901220Y-12833200D01*
X17951220Y-12883200D01*
X18046700Y-10509720D02*
X18096700Y-10459720D01*
X18046700Y-10409720D01*
X17996700Y-10459720D01*
X18046700Y-10509720D01*
X18097500Y-6273000D02*
X18147500Y-6223000D01*
X18097500Y-6173000D01*
X18047500Y-6223000D01*
X18097500Y-6273000D01*
X18097500Y-6844500D02*
X18147500Y-6794500D01*
X18097500Y-6744500D01*
X18047500Y-6794500D01*
X18097500Y-6844500D01*
X18097500Y-7416000D02*
X18147500Y-7366000D01*
X18097500Y-7316000D01*
X18047500Y-7366000D01*
X18097500Y-7416000D01*
X18097500Y-7987500D02*
X18147500Y-7937500D01*
X18097500Y-7887500D01*
X18047500Y-7937500D01*
X18097500Y-7987500D01*
X18097500Y-8559000D02*
X18147500Y-8509000D01*
X18097500Y-8459000D01*
X18047500Y-8509000D01*
X18097500Y-8559000D01*
X18129980Y-9317420D02*
X18179980Y-9267420D01*
X18129980Y-9217420D01*
X18079980Y-9267420D01*
X18129980Y-9317420D01*
X18129980Y-9571420D02*
X18179980Y-9521420D01*
X18129980Y-9471420D01*
X18079980Y-9521420D01*
X18129980Y-9571420D01*
X18129980Y-9825420D02*
X18179980Y-9775420D01*
X18129980Y-9725420D01*
X18079980Y-9775420D01*
X18129980Y-9825420D01*
X18141180Y-11043120D02*
X18191180Y-10993120D01*
X18141180Y-10943120D01*
X18091180Y-10993120D01*
X18141180Y-11043120D01*
X18141180Y-11419040D02*
X18191180Y-11369040D01*
X18141180Y-11319040D01*
X18091180Y-11369040D01*
X18141180Y-11419040D01*
X18141180Y-11807660D02*
X18191180Y-11757660D01*
X18141180Y-11707660D01*
X18091180Y-11757660D01*
X18141180Y-11807660D01*
X18141180Y-12181040D02*
X18191180Y-12131040D01*
X18141180Y-12081040D01*
X18091180Y-12131040D01*
X18141180Y-12181040D01*
X18395180Y-11043120D02*
X18445180Y-10993120D01*
X18395180Y-10943120D01*
X18345180Y-10993120D01*
X18395180Y-11043120D01*
X18395180Y-11419040D02*
X18445180Y-11369040D01*
X18395180Y-11319040D01*
X18345180Y-11369040D01*
X18395180Y-11419040D01*
X18395180Y-11807660D02*
X18445180Y-11757660D01*
X18395180Y-11707660D01*
X18345180Y-11757660D01*
X18395180Y-11807660D01*
X18395180Y-12181040D02*
X18445180Y-12131040D01*
X18395180Y-12081040D01*
X18345180Y-12131040D01*
X18395180Y-12181040D01*
X19359880Y-9149280D02*
X19409880Y-9099280D01*
X19359880Y-9049280D01*
X19309880Y-9099280D01*
X19359880Y-9149280D01*
X19359880Y-9403280D02*
X19409880Y-9353280D01*
X19359880Y-9303280D01*
X19309880Y-9353280D01*
X19359880Y-9403280D01*
X19359880Y-9657280D02*
X19409880Y-9607280D01*
X19359880Y-9557280D01*
X19309880Y-9607280D01*
X19359880Y-9657280D01*
X19359880Y-9911280D02*
X19409880Y-9861280D01*
X19359880Y-9811280D01*
X19309880Y-9861280D01*
X19359880Y-9911280D01*
X19359880Y-10347160D02*
X19409880Y-10297160D01*
X19359880Y-10247160D01*
X19309880Y-10297160D01*
X19359880Y-10347160D01*
X19359880Y-10601160D02*
X19409880Y-10551160D01*
X19359880Y-10501160D01*
X19309880Y-10551160D01*
X19359880Y-10601160D01*
X19740880Y-9149280D02*
X19790880Y-9099280D01*
X19740880Y-9049280D01*
X19690880Y-9099280D01*
X19740880Y-9149280D01*
X19740880Y-9403280D02*
X19790880Y-9353280D01*
X19740880Y-9303280D01*
X19690880Y-9353280D01*
X19740880Y-9403280D01*
X19740880Y-9657280D02*
X19790880Y-9607280D01*
X19740880Y-9557280D01*
X19690880Y-9607280D01*
X19740880Y-9657280D01*
X19740880Y-9911280D02*
X19790880Y-9861280D01*
X19740880Y-9811280D01*
X19690880Y-9861280D01*
X19740880Y-9911280D01*
X19740880Y-10347160D02*
X19790880Y-10297160D01*
X19740880Y-10247160D01*
X19690880Y-10297160D01*
X19740880Y-10347160D01*
X19740880Y-10601160D02*
X19790880Y-10551160D01*
X19740880Y-10501160D01*
X19690880Y-10551160D01*
X19740880Y-10601160D01*
X19789140Y-11345500D02*
X19839140Y-11295500D01*
X19789140Y-11245500D01*
X19739140Y-11295500D01*
X19789140Y-11345500D01*
X19789140Y-11599500D02*
X19839140Y-11549500D01*
X19789140Y-11499500D01*
X19739140Y-11549500D01*
X19789140Y-11599500D01*
X19789140Y-11853500D02*
X19839140Y-11803500D01*
X19789140Y-11753500D01*
X19739140Y-11803500D01*
X19789140Y-11853500D01*
X19789140Y-12107500D02*
X19839140Y-12057500D01*
X19789140Y-12007500D01*
X19739140Y-12057500D01*
X19789140Y-12107500D01*
D13*
X13915200Y-6149040D02*
X14017200Y-6251040D01*
X14017200Y-6149040D02*
X13915200Y-6251040D01*
X14017200Y-6200040D02*
G75*
G02*
X13915200Y-6200040I-51000J0D01*
G01*
X13915200Y-6200040D02*
G75*
G02*
X14017200Y-6200040I51000J0D01*
G01*
X13915200Y-6403040D02*
X14017200Y-6505040D01*
X14017200Y-6403040D02*
X13915200Y-6505040D01*
X14017200Y-6454040D02*
G75*
G02*
X13915200Y-6454040I-51000J0D01*
G01*
X13915200Y-6454040D02*
G75*
G02*
X14017200Y-6454040I51000J0D01*
G01*
X13915200Y-6657040D02*
X14017200Y-6759040D01*
X14017200Y-6657040D02*
X13915200Y-6759040D01*
X14017200Y-6708040D02*
G75*
G02*
X13915200Y-6708040I-51000J0D01*
G01*
X13915200Y-6708040D02*
G75*
G02*
X14017200Y-6708040I51000J0D01*
G01*
X13915200Y-6911040D02*
X14017200Y-7013040D01*
X14017200Y-6911040D02*
X13915200Y-7013040D01*
X14017200Y-6962040D02*
G75*
G02*
X13915200Y-6962040I-51000J0D01*
G01*
X13915200Y-6962040D02*
G75*
G02*
X14017200Y-6962040I51000J0D01*
G01*
X13915200Y-7165040D02*
X14017200Y-7267040D01*
X14017200Y-7165040D02*
X13915200Y-7267040D01*
X14017200Y-7216040D02*
G75*
G02*
X13915200Y-7216040I-51000J0D01*
G01*
X13915200Y-7216040D02*
G75*
G02*
X14017200Y-7216040I51000J0D01*
G01*
X13915200Y-7419040D02*
X14017200Y-7521040D01*
X14017200Y-7419040D02*
X13915200Y-7521040D01*
X14017200Y-7470040D02*
G75*
G02*
X13915200Y-7470040I-51000J0D01*
G01*
X13915200Y-7470040D02*
G75*
G02*
X14017200Y-7470040I51000J0D01*
G01*
X13915200Y-7673040D02*
X14017200Y-7775040D01*
X14017200Y-7673040D02*
X13915200Y-7775040D01*
X14017200Y-7724040D02*
G75*
G02*
X13915200Y-7724040I-51000J0D01*
G01*
X13915200Y-7724040D02*
G75*
G02*
X14017200Y-7724040I51000J0D01*
G01*
X13915200Y-7927040D02*
X14017200Y-8029040D01*
X14017200Y-7927040D02*
X13915200Y-8029040D01*
X14017200Y-7978040D02*
G75*
G02*
X13915200Y-7978040I-51000J0D01*
G01*
X13915200Y-7978040D02*
G75*
G02*
X14017200Y-7978040I51000J0D01*
G01*
X13915200Y-8181040D02*
X14017200Y-8283040D01*
X14017200Y-8181040D02*
X13915200Y-8283040D01*
X14017200Y-8232040D02*
G75*
G02*
X13915200Y-8232040I-51000J0D01*
G01*
X13915200Y-8232040D02*
G75*
G02*
X14017200Y-8232040I51000J0D01*
G01*
X13915200Y-8435040D02*
X14017200Y-8537040D01*
X14017200Y-8435040D02*
X13915200Y-8537040D01*
X14017200Y-8486040D02*
G75*
G02*
X13915200Y-8486040I-51000J0D01*
G01*
X13915200Y-8486040D02*
G75*
G02*
X14017200Y-8486040I51000J0D01*
G01*
X13915200Y-8689040D02*
X14017200Y-8791040D01*
X14017200Y-8689040D02*
X13915200Y-8791040D01*
X14017200Y-8740040D02*
G75*
G02*
X13915200Y-8740040I-51000J0D01*
G01*
X13915200Y-8740040D02*
G75*
G02*
X14017200Y-8740040I51000J0D01*
G01*
X13915200Y-8943040D02*
X14017200Y-9045040D01*
X14017200Y-8943040D02*
X13915200Y-9045040D01*
X14017200Y-8994040D02*
G75*
G02*
X13915200Y-8994040I-51000J0D01*
G01*
X13915200Y-8994040D02*
G75*
G02*
X14017200Y-8994040I51000J0D01*
G01*
X13915200Y-9197040D02*
X14017200Y-9299040D01*
X14017200Y-9197040D02*
X13915200Y-9299040D01*
X14017200Y-9248040D02*
G75*
G02*
X13915200Y-9248040I-51000J0D01*
G01*
X13915200Y-9248040D02*
G75*
G02*
X14017200Y-9248040I51000J0D01*
G01*
X13915200Y-9451040D02*
X14017200Y-9553040D01*
X14017200Y-9451040D02*
X13915200Y-9553040D01*
X14017200Y-9502040D02*
G75*
G02*
X13915200Y-9502040I-51000J0D01*
G01*
X13915200Y-9502040D02*
G75*
G02*
X14017200Y-9502040I51000J0D01*
G01*
X13915200Y-9705040D02*
X14017200Y-9807040D01*
X14017200Y-9705040D02*
X13915200Y-9807040D01*
X14017200Y-9756040D02*
G75*
G02*
X13915200Y-9756040I-51000J0D01*
G01*
X13915200Y-9756040D02*
G75*
G02*
X14017200Y-9756040I51000J0D01*
G01*
X16455200Y-6149040D02*
X16557200Y-6251040D01*
X16557200Y-6149040D02*
X16455200Y-6251040D01*
X16557200Y-6200040D02*
G75*
G02*
X16455200Y-6200040I-51000J0D01*
G01*
X16455200Y-6200040D02*
G75*
G02*
X16557200Y-6200040I51000J0D01*
G01*
X16455200Y-6403040D02*
X16557200Y-6505040D01*
X16557200Y-6403040D02*
X16455200Y-6505040D01*
X16557200Y-6454040D02*
G75*
G02*
X16455200Y-6454040I-51000J0D01*
G01*
X16455200Y-6454040D02*
G75*
G02*
X16557200Y-6454040I51000J0D01*
G01*
X16455200Y-6657040D02*
X16557200Y-6759040D01*
X16557200Y-6657040D02*
X16455200Y-6759040D01*
X16557200Y-6708040D02*
G75*
G02*
X16455200Y-6708040I-51000J0D01*
G01*
X16455200Y-6708040D02*
G75*
G02*
X16557200Y-6708040I51000J0D01*
G01*
X16455200Y-6911040D02*
X16557200Y-7013040D01*
X16557200Y-6911040D02*
X16455200Y-7013040D01*
X16557200Y-6962040D02*
G75*
G02*
X16455200Y-6962040I-51000J0D01*
G01*
X16455200Y-6962040D02*
G75*
G02*
X16557200Y-6962040I51000J0D01*
G01*
X16455200Y-7165040D02*
X16557200Y-7267040D01*
X16557200Y-7165040D02*
X16455200Y-7267040D01*
X16557200Y-7216040D02*
G75*
G02*
X16455200Y-7216040I-51000J0D01*
G01*
X16455200Y-7216040D02*
G75*
G02*
X16557200Y-7216040I51000J0D01*
G01*
X16455200Y-7419040D02*
X16557200Y-7521040D01*
X16557200Y-7419040D02*
X16455200Y-7521040D01*
X16557200Y-7470040D02*
G75*
G02*
X16455200Y-7470040I-51000J0D01*
G01*
X16455200Y-7470040D02*
G75*
G02*
X16557200Y-7470040I51000J0D01*
G01*
X16455200Y-7673040D02*
X16557200Y-7775040D01*
X16557200Y-7673040D02*
X16455200Y-7775040D01*
X16557200Y-7724040D02*
G75*
G02*
X16455200Y-7724040I-51000J0D01*
G01*
X16455200Y-7724040D02*
G75*
G02*
X16557200Y-7724040I51000J0D01*
G01*
X16455200Y-7927040D02*
X16557200Y-8029040D01*
X16557200Y-7927040D02*
X16455200Y-8029040D01*
X16557200Y-7978040D02*
G75*
G02*
X16455200Y-7978040I-51000J0D01*
G01*
X16455200Y-7978040D02*
G75*
G02*
X16557200Y-7978040I51000J0D01*
G01*
X16455200Y-8181040D02*
X16557200Y-8283040D01*
X16557200Y-8181040D02*
X16455200Y-8283040D01*
X16557200Y-8232040D02*
G75*
G02*
X16455200Y-8232040I-51000J0D01*
G01*
X16455200Y-8232040D02*
G75*
G02*
X16557200Y-8232040I51000J0D01*
G01*
X16455200Y-8435040D02*
X16557200Y-8537040D01*
X16557200Y-8435040D02*
X16455200Y-8537040D01*
X16557200Y-8486040D02*
G75*
G02*
X16455200Y-8486040I-51000J0D01*
G01*
X16455200Y-8486040D02*
G75*
G02*
X16557200Y-8486040I51000J0D01*
G01*
X16455200Y-8689040D02*
X16557200Y-8791040D01*
X16557200Y-8689040D02*
X16455200Y-8791040D01*
X16557200Y-8740040D02*
G75*
G02*
X16455200Y-8740040I-51000J0D01*
G01*
X16455200Y-8740040D02*
G75*
G02*
X16557200Y-8740040I51000J0D01*
G01*
X16455200Y-8943040D02*
X16557200Y-9045040D01*
X16557200Y-8943040D02*
X16455200Y-9045040D01*
X16557200Y-8994040D02*
G75*
G02*
X16455200Y-8994040I-51000J0D01*
G01*
X16455200Y-8994040D02*
G75*
G02*
X16557200Y-8994040I51000J0D01*
G01*
X16455200Y-9197040D02*
X16557200Y-9299040D01*
X16557200Y-9197040D02*
X16455200Y-9299040D01*
X16557200Y-9248040D02*
G75*
G02*
X16455200Y-9248040I-51000J0D01*
G01*
X16455200Y-9248040D02*
G75*
G02*
X16557200Y-9248040I51000J0D01*
G01*
X16455200Y-9451040D02*
X16557200Y-9553040D01*
X16557200Y-9451040D02*
X16455200Y-9553040D01*
X16557200Y-9502040D02*
G75*
G02*
X16455200Y-9502040I-51000J0D01*
G01*
X16455200Y-9502040D02*
G75*
G02*
X16557200Y-9502040I51000J0D01*
G01*
X16455200Y-9705040D02*
X16557200Y-9807040D01*
X16557200Y-9705040D02*
X16455200Y-9807040D01*
X16557200Y-9756040D02*
G75*
G02*
X16455200Y-9756040I-51000J0D01*
G01*
X16455200Y-9756040D02*
G75*
G02*
X16557200Y-9756040I51000J0D01*
G01*
D14*
X10471000Y-12322000D02*
X10581000Y-12432000D01*
X10581000Y-12322000D02*
X10471000Y-12432000D01*
X10526000Y-12322000D02*
X10526000Y-12432000D01*
X10471000Y-12377000D02*
X10581000Y-12377000D01*
X10471000Y-12772000D02*
X10581000Y-12882000D01*
X10581000Y-12772000D02*
X10471000Y-12882000D01*
X10526000Y-12772000D02*
X10526000Y-12882000D01*
X10471000Y-12827000D02*
X10581000Y-12827000D01*
X10471000Y-13499500D02*
X10581000Y-13609500D01*
X10581000Y-13499500D02*
X10471000Y-13609500D01*
X10526000Y-13499500D02*
X10526000Y-13609500D01*
X10471000Y-13554500D02*
X10581000Y-13554500D01*
X10471000Y-13949500D02*
X10581000Y-14059500D01*
X10581000Y-13949500D02*
X10471000Y-14059500D01*
X10526000Y-13949500D02*
X10526000Y-14059500D01*
X10471000Y-14004500D02*
X10581000Y-14004500D01*
X11121000Y-12322000D02*
X11231000Y-12432000D01*
X11231000Y-12322000D02*
X11121000Y-12432000D01*
X11176000Y-12322000D02*
X11176000Y-12432000D01*
X11121000Y-12377000D02*
X11231000Y-12377000D01*
X11121000Y-12772000D02*
X11231000Y-12882000D01*
X11231000Y-12772000D02*
X11121000Y-12882000D01*
X11176000Y-12772000D02*
X11176000Y-12882000D01*
X11121000Y-12827000D02*
X11231000Y-12827000D01*
X11121000Y-13499500D02*
X11231000Y-13609500D01*
X11231000Y-13499500D02*
X11121000Y-13609500D01*
X11176000Y-13499500D02*
X11176000Y-13609500D01*
X11121000Y-13554500D02*
X11231000Y-13554500D01*
X11121000Y-13949500D02*
X11231000Y-14059500D01*
X11231000Y-13949500D02*
X11121000Y-14059500D01*
X11176000Y-13949500D02*
X11176000Y-14059500D01*
X11121000Y-14004500D02*
X11231000Y-14004500D01*
X12358500Y-6325480D02*
X12468500Y-6435480D01*
X12468500Y-6325480D02*
X12358500Y-6435480D01*
X12413500Y-6325480D02*
X12413500Y-6435480D01*
X12358500Y-6380480D02*
X12468500Y-6380480D01*
X12358500Y-6579480D02*
X12468500Y-6689480D01*
X12468500Y-6579480D02*
X12358500Y-6689480D01*
X12413500Y-6579480D02*
X12413500Y-6689480D01*
X12358500Y-6634480D02*
X12468500Y-6634480D01*
X12358500Y-6833480D02*
X12468500Y-6943480D01*
X12468500Y-6833480D02*
X12358500Y-6943480D01*
X12413500Y-6833480D02*
X12413500Y-6943480D01*
X12358500Y-6888480D02*
X12468500Y-6888480D01*
X18443932Y-5252120D02*
X18553932Y-5362120D01*
X18553932Y-5252120D02*
X18443932Y-5362120D01*
X18498932Y-5252120D02*
X18498932Y-5362120D01*
X18443932Y-5307120D02*
X18553932Y-5307120D01*
X18443932Y-5702120D02*
X18553932Y-5812120D01*
X18553932Y-5702120D02*
X18443932Y-5812120D01*
X18498932Y-5702120D02*
X18498932Y-5812120D01*
X18443932Y-5757120D02*
X18553932Y-5757120D01*
X19093932Y-5252120D02*
X19203932Y-5362120D01*
X19203932Y-5252120D02*
X19093932Y-5362120D01*
X19148932Y-5252120D02*
X19148932Y-5362120D01*
X19093932Y-5307120D02*
X19203932Y-5307120D01*
X19093932Y-5702120D02*
X19203932Y-5812120D01*
X19203932Y-5702120D02*
X19093932Y-5812120D01*
X19148932Y-5702120D02*
X19148932Y-5812120D01*
X19093932Y-5757120D02*
X19203932Y-5757120D01*
D15*
X19752000Y-12783000D02*
X19872000Y-12903000D01*
X19872000Y-12783000D02*
X19752000Y-12903000D01*
X19854427Y-12885427D02*
X19854427Y-12800573D01*
X19769573Y-12800573D01*
X19769573Y-12885427D01*
X19854427Y-12885427D01*
X19752000Y-13283000D02*
X19872000Y-13403000D01*
X19872000Y-13283000D02*
X19752000Y-13403000D01*
X19854427Y-13385427D02*
X19854427Y-13300573D01*
X19769573Y-13300573D01*
X19769573Y-13385427D01*
X19854427Y-13385427D01*
X19752000Y-13783000D02*
X19872000Y-13903000D01*
X19872000Y-13783000D02*
X19752000Y-13903000D01*
X19854427Y-13885427D02*
X19854427Y-13800573D01*
X19769573Y-13800573D01*
X19769573Y-13885427D01*
X19854427Y-13885427D01*
D16*
X10718100Y-6534300D02*
X10848100Y-6664300D01*
X10848100Y-6534300D02*
X10718100Y-6664300D01*
X10783100Y-6664300D02*
X10848100Y-6599300D01*
X10783100Y-6534300D01*
X10718100Y-6599300D01*
X10783100Y-6664300D01*
X10718100Y-7034300D02*
X10848100Y-7164300D01*
X10848100Y-7034300D02*
X10718100Y-7164300D01*
X10783100Y-7164300D02*
X10848100Y-7099300D01*
X10783100Y-7034300D01*
X10718100Y-7099300D01*
X10783100Y-7164300D01*
X17383720Y-14014600D02*
X17513720Y-14144600D01*
X17513720Y-14014600D02*
X17383720Y-14144600D01*
X17448720Y-14144600D02*
X17513720Y-14079600D01*
X17448720Y-14014600D01*
X17383720Y-14079600D01*
X17448720Y-14144600D01*
X17383720Y-14514600D02*
X17513720Y-14644600D01*
X17513720Y-14514600D02*
X17383720Y-14644600D01*
X17448720Y-14644600D02*
X17513720Y-14579600D01*
X17448720Y-14514600D01*
X17383720Y-14579600D01*
X17448720Y-14644600D01*
X17883720Y-14264600D02*
X18013720Y-14394600D01*
X18013720Y-14264600D02*
X17883720Y-14394600D01*
X17948720Y-14394600D02*
X18013720Y-14329600D01*
X17948720Y-14264600D01*
X17883720Y-14329600D01*
X17948720Y-14394600D01*
D17*
X10700000Y-5342500D02*
X10700000Y-5642500D01*
X10550000Y-5492500D02*
X10850000Y-5492500D01*
X10850000Y-5492500D02*
G75*
G02*
X10550000Y-5492500I-150000J0D01*
G01*
X10550000Y-5492500D02*
G75*
G02*
X10850000Y-5492500I150000J0D01*
G01*
X10700000Y-14550000D02*
X10700000Y-14850000D01*
X10550000Y-14700000D02*
X10850000Y-14700000D01*
X10850000Y-14700000D02*
G75*
G02*
X10550000Y-14700000I-150000J0D01*
G01*
X10550000Y-14700000D02*
G75*
G02*
X10850000Y-14700000I150000J0D01*
G01*
X19900000Y-5350000D02*
X19900000Y-5650000D01*
X19750000Y-5500000D02*
X20050000Y-5500000D01*
X20050000Y-5500000D02*
G75*
G02*
X19750000Y-5500000I-150000J0D01*
G01*
X19750000Y-5500000D02*
G75*
G02*
X20050000Y-5500000I150000J0D01*
G01*
X19900000Y-14550000D02*
X19900000Y-14850000D01*
X19750000Y-14700000D02*
X20050000Y-14700000D01*
X20050000Y-14700000D02*
G75*
G02*
X19750000Y-14700000I-150000J0D01*
G01*
X19750000Y-14700000D02*
G75*
G02*
X20050000Y-14700000I150000J0D01*
G01*
D11*
X10558277Y-15413984D02*
X10558277Y-15213984D01*
X10558277Y-15213984D02*
X10605896Y-15213984D01*
X10605896Y-15213984D02*
X10634467Y-15223508D01*
X10634467Y-15223508D02*
X10653515Y-15242555D01*
X10653515Y-15242555D02*
X10663039Y-15261603D01*
X10663039Y-15261603D02*
X10672563Y-15299698D01*
X10672563Y-15299698D02*
X10672563Y-15328269D01*
X10672563Y-15328269D02*
X10663039Y-15366365D01*
X10663039Y-15366365D02*
X10653515Y-15385412D01*
X10653515Y-15385412D02*
X10634467Y-15404460D01*
X10634467Y-15404460D02*
X10605896Y-15413984D01*
X10605896Y-15413984D02*
X10558277Y-15413984D01*
X10758277Y-15413984D02*
X10758277Y-15280650D01*
X10758277Y-15318746D02*
X10767801Y-15299698D01*
X10767801Y-15299698D02*
X10777324Y-15290174D01*
X10777324Y-15290174D02*
X10796372Y-15280650D01*
X10796372Y-15280650D02*
X10815420Y-15280650D01*
X10882086Y-15413984D02*
X10882086Y-15280650D01*
X10882086Y-15213984D02*
X10872563Y-15223508D01*
X10872563Y-15223508D02*
X10882086Y-15233031D01*
X10882086Y-15233031D02*
X10891610Y-15223508D01*
X10891610Y-15223508D02*
X10882086Y-15213984D01*
X10882086Y-15213984D02*
X10882086Y-15233031D01*
X11005896Y-15413984D02*
X10986848Y-15404460D01*
X10986848Y-15404460D02*
X10977324Y-15385412D01*
X10977324Y-15385412D02*
X10977324Y-15213984D01*
X11110658Y-15413984D02*
X11091610Y-15404460D01*
X11091610Y-15404460D02*
X11082086Y-15385412D01*
X11082086Y-15385412D02*
X11082086Y-15213984D01*
X11339229Y-15413984D02*
X11339229Y-15213984D01*
X11339229Y-15213984D02*
X11405896Y-15356841D01*
X11405896Y-15356841D02*
X11472562Y-15213984D01*
X11472562Y-15213984D02*
X11472562Y-15413984D01*
X11653515Y-15413984D02*
X11653515Y-15309222D01*
X11653515Y-15309222D02*
X11643991Y-15290174D01*
X11643991Y-15290174D02*
X11624943Y-15280650D01*
X11624943Y-15280650D02*
X11586848Y-15280650D01*
X11586848Y-15280650D02*
X11567801Y-15290174D01*
X11653515Y-15404460D02*
X11634467Y-15413984D01*
X11634467Y-15413984D02*
X11586848Y-15413984D01*
X11586848Y-15413984D02*
X11567801Y-15404460D01*
X11567801Y-15404460D02*
X11558277Y-15385412D01*
X11558277Y-15385412D02*
X11558277Y-15366365D01*
X11558277Y-15366365D02*
X11567801Y-15347317D01*
X11567801Y-15347317D02*
X11586848Y-15337793D01*
X11586848Y-15337793D02*
X11634467Y-15337793D01*
X11634467Y-15337793D02*
X11653515Y-15328269D01*
X11748753Y-15280650D02*
X11748753Y-15480650D01*
X11748753Y-15290174D02*
X11767801Y-15280650D01*
X11767801Y-15280650D02*
X11805896Y-15280650D01*
X11805896Y-15280650D02*
X11824943Y-15290174D01*
X11824943Y-15290174D02*
X11834467Y-15299698D01*
X11834467Y-15299698D02*
X11843991Y-15318746D01*
X11843991Y-15318746D02*
X11843991Y-15375888D01*
X11843991Y-15375888D02*
X11834467Y-15394936D01*
X11834467Y-15394936D02*
X11824943Y-15404460D01*
X11824943Y-15404460D02*
X11805896Y-15413984D01*
X11805896Y-15413984D02*
X11767801Y-15413984D01*
X11767801Y-15413984D02*
X11748753Y-15404460D01*
X11929705Y-15394936D02*
X11939229Y-15404460D01*
X11939229Y-15404460D02*
X11929705Y-15413984D01*
X11929705Y-15413984D02*
X11920182Y-15404460D01*
X11920182Y-15404460D02*
X11929705Y-15394936D01*
X11929705Y-15394936D02*
X11929705Y-15413984D01*
X11929705Y-15290174D02*
X11939229Y-15299698D01*
X11939229Y-15299698D02*
X11929705Y-15309222D01*
X11929705Y-15309222D02*
X11920182Y-15299698D01*
X11920182Y-15299698D02*
X11929705Y-15290174D01*
X11929705Y-15290174D02*
X11929705Y-15309222D01*
D12*
X10267500Y-15727500D02*
X10297500Y-15757500D01*
X10297500Y-15727500D02*
X10267500Y-15757500D01*
D11*
X10596372Y-15633984D02*
X10615420Y-15633984D01*
X10615420Y-15633984D02*
X10634467Y-15643508D01*
X10634467Y-15643508D02*
X10643991Y-15653031D01*
X10643991Y-15653031D02*
X10653515Y-15672079D01*
X10653515Y-15672079D02*
X10663039Y-15710174D01*
X10663039Y-15710174D02*
X10663039Y-15757793D01*
X10663039Y-15757793D02*
X10653515Y-15795888D01*
X10653515Y-15795888D02*
X10643991Y-15814936D01*
X10643991Y-15814936D02*
X10634467Y-15824460D01*
X10634467Y-15824460D02*
X10615420Y-15833984D01*
X10615420Y-15833984D02*
X10596372Y-15833984D01*
X10596372Y-15833984D02*
X10577324Y-15824460D01*
X10577324Y-15824460D02*
X10567801Y-15814936D01*
X10567801Y-15814936D02*
X10558277Y-15795888D01*
X10558277Y-15795888D02*
X10548753Y-15757793D01*
X10548753Y-15757793D02*
X10548753Y-15710174D01*
X10548753Y-15710174D02*
X10558277Y-15672079D01*
X10558277Y-15672079D02*
X10567801Y-15653031D01*
X10567801Y-15653031D02*
X10577324Y-15643508D01*
X10577324Y-15643508D02*
X10596372Y-15633984D01*
X10748753Y-15814936D02*
X10758277Y-15824460D01*
X10758277Y-15824460D02*
X10748753Y-15833984D01*
X10748753Y-15833984D02*
X10739229Y-15824460D01*
X10739229Y-15824460D02*
X10748753Y-15814936D01*
X10748753Y-15814936D02*
X10748753Y-15833984D01*
X10824944Y-15633984D02*
X10948753Y-15633984D01*
X10948753Y-15633984D02*
X10882086Y-15710174D01*
X10882086Y-15710174D02*
X10910658Y-15710174D01*
X10910658Y-15710174D02*
X10929705Y-15719698D01*
X10929705Y-15719698D02*
X10939229Y-15729222D01*
X10939229Y-15729222D02*
X10948753Y-15748269D01*
X10948753Y-15748269D02*
X10948753Y-15795888D01*
X10948753Y-15795888D02*
X10939229Y-15814936D01*
X10939229Y-15814936D02*
X10929705Y-15824460D01*
X10929705Y-15824460D02*
X10910658Y-15833984D01*
X10910658Y-15833984D02*
X10853515Y-15833984D01*
X10853515Y-15833984D02*
X10834467Y-15824460D01*
X10834467Y-15824460D02*
X10824944Y-15814936D01*
X11072563Y-15633984D02*
X11091610Y-15633984D01*
X11091610Y-15633984D02*
X11110658Y-15643508D01*
X11110658Y-15643508D02*
X11120182Y-15653031D01*
X11120182Y-15653031D02*
X11129705Y-15672079D01*
X11129705Y-15672079D02*
X11139229Y-15710174D01*
X11139229Y-15710174D02*
X11139229Y-15757793D01*
X11139229Y-15757793D02*
X11129705Y-15795888D01*
X11129705Y-15795888D02*
X11120182Y-15814936D01*
X11120182Y-15814936D02*
X11110658Y-15824460D01*
X11110658Y-15824460D02*
X11091610Y-15833984D01*
X11091610Y-15833984D02*
X11072563Y-15833984D01*
X11072563Y-15833984D02*
X11053515Y-15824460D01*
X11053515Y-15824460D02*
X11043991Y-15814936D01*
X11043991Y-15814936D02*
X11034467Y-15795888D01*
X11034467Y-15795888D02*
X11024944Y-15757793D01*
X11024944Y-15757793D02*
X11024944Y-15710174D01*
X11024944Y-15710174D02*
X11034467Y-15672079D01*
X11034467Y-15672079D02*
X11043991Y-15653031D01*
X11043991Y-15653031D02*
X11053515Y-15643508D01*
X11053515Y-15643508D02*
X11072563Y-15633984D01*
X11263039Y-15633984D02*
X11282086Y-15633984D01*
X11282086Y-15633984D02*
X11301134Y-15643508D01*
X11301134Y-15643508D02*
X11310658Y-15653031D01*
X11310658Y-15653031D02*
X11320182Y-15672079D01*
X11320182Y-15672079D02*
X11329705Y-15710174D01*
X11329705Y-15710174D02*
X11329705Y-15757793D01*
X11329705Y-15757793D02*
X11320182Y-15795888D01*
X11320182Y-15795888D02*
X11310658Y-15814936D01*
X11310658Y-15814936D02*
X11301134Y-15824460D01*
X11301134Y-15824460D02*
X11282086Y-15833984D01*
X11282086Y-15833984D02*
X11263039Y-15833984D01*
X11263039Y-15833984D02*
X11243991Y-15824460D01*
X11243991Y-15824460D02*
X11234467Y-15814936D01*
X11234467Y-15814936D02*
X11224943Y-15795888D01*
X11224943Y-15795888D02*
X11215420Y-15757793D01*
X11215420Y-15757793D02*
X11215420Y-15710174D01*
X11215420Y-15710174D02*
X11224943Y-15672079D01*
X11224943Y-15672079D02*
X11234467Y-15653031D01*
X11234467Y-15653031D02*
X11243991Y-15643508D01*
X11243991Y-15643508D02*
X11263039Y-15633984D01*
X11415420Y-15833984D02*
X11415420Y-15700650D01*
X11415420Y-15719698D02*
X11424943Y-15710174D01*
X11424943Y-15710174D02*
X11443991Y-15700650D01*
X11443991Y-15700650D02*
X11472563Y-15700650D01*
X11472563Y-15700650D02*
X11491610Y-15710174D01*
X11491610Y-15710174D02*
X11501134Y-15729222D01*
X11501134Y-15729222D02*
X11501134Y-15833984D01*
X11501134Y-15729222D02*
X11510658Y-15710174D01*
X11510658Y-15710174D02*
X11529705Y-15700650D01*
X11529705Y-15700650D02*
X11558277Y-15700650D01*
X11558277Y-15700650D02*
X11577324Y-15710174D01*
X11577324Y-15710174D02*
X11586848Y-15729222D01*
X11586848Y-15729222D02*
X11586848Y-15833984D01*
X11682086Y-15833984D02*
X11682086Y-15700650D01*
X11682086Y-15719698D02*
X11691610Y-15710174D01*
X11691610Y-15710174D02*
X11710658Y-15700650D01*
X11710658Y-15700650D02*
X11739229Y-15700650D01*
X11739229Y-15700650D02*
X11758277Y-15710174D01*
X11758277Y-15710174D02*
X11767801Y-15729222D01*
X11767801Y-15729222D02*
X11767801Y-15833984D01*
X11767801Y-15729222D02*
X11777324Y-15710174D01*
X11777324Y-15710174D02*
X11796372Y-15700650D01*
X11796372Y-15700650D02*
X11824943Y-15700650D01*
X11824943Y-15700650D02*
X11843991Y-15710174D01*
X11843991Y-15710174D02*
X11853515Y-15729222D01*
X11853515Y-15729222D02*
X11853515Y-15833984D01*
X12243991Y-15624460D02*
X12072563Y-15881603D01*
X12501134Y-15633984D02*
X12520182Y-15633984D01*
X12520182Y-15633984D02*
X12539229Y-15643508D01*
X12539229Y-15643508D02*
X12548753Y-15653031D01*
X12548753Y-15653031D02*
X12558277Y-15672079D01*
X12558277Y-15672079D02*
X12567801Y-15710174D01*
X12567801Y-15710174D02*
X12567801Y-15757793D01*
X12567801Y-15757793D02*
X12558277Y-15795888D01*
X12558277Y-15795888D02*
X12548753Y-15814936D01*
X12548753Y-15814936D02*
X12539229Y-15824460D01*
X12539229Y-15824460D02*
X12520182Y-15833984D01*
X12520182Y-15833984D02*
X12501134Y-15833984D01*
X12501134Y-15833984D02*
X12482086Y-15824460D01*
X12482086Y-15824460D02*
X12472563Y-15814936D01*
X12472563Y-15814936D02*
X12463039Y-15795888D01*
X12463039Y-15795888D02*
X12453515Y-15757793D01*
X12453515Y-15757793D02*
X12453515Y-15710174D01*
X12453515Y-15710174D02*
X12463039Y-15672079D01*
X12463039Y-15672079D02*
X12472563Y-15653031D01*
X12472563Y-15653031D02*
X12482086Y-15643508D01*
X12482086Y-15643508D02*
X12501134Y-15633984D01*
X12653515Y-15814936D02*
X12663039Y-15824460D01*
X12663039Y-15824460D02*
X12653515Y-15833984D01*
X12653515Y-15833984D02*
X12643991Y-15824460D01*
X12643991Y-15824460D02*
X12653515Y-15814936D01*
X12653515Y-15814936D02*
X12653515Y-15833984D01*
X12786848Y-15633984D02*
X12805896Y-15633984D01*
X12805896Y-15633984D02*
X12824944Y-15643508D01*
X12824944Y-15643508D02*
X12834467Y-15653031D01*
X12834467Y-15653031D02*
X12843991Y-15672079D01*
X12843991Y-15672079D02*
X12853515Y-15710174D01*
X12853515Y-15710174D02*
X12853515Y-15757793D01*
X12853515Y-15757793D02*
X12843991Y-15795888D01*
X12843991Y-15795888D02*
X12834467Y-15814936D01*
X12834467Y-15814936D02*
X12824944Y-15824460D01*
X12824944Y-15824460D02*
X12805896Y-15833984D01*
X12805896Y-15833984D02*
X12786848Y-15833984D01*
X12786848Y-15833984D02*
X12767801Y-15824460D01*
X12767801Y-15824460D02*
X12758277Y-15814936D01*
X12758277Y-15814936D02*
X12748753Y-15795888D01*
X12748753Y-15795888D02*
X12739229Y-15757793D01*
X12739229Y-15757793D02*
X12739229Y-15710174D01*
X12739229Y-15710174D02*
X12748753Y-15672079D01*
X12748753Y-15672079D02*
X12758277Y-15653031D01*
X12758277Y-15653031D02*
X12767801Y-15643508D01*
X12767801Y-15643508D02*
X12786848Y-15633984D01*
X13043991Y-15833984D02*
X12929706Y-15833984D01*
X12986848Y-15833984D02*
X12986848Y-15633984D01*
X12986848Y-15633984D02*
X12967801Y-15662555D01*
X12967801Y-15662555D02*
X12948753Y-15681603D01*
X12948753Y-15681603D02*
X12929706Y-15691127D01*
X13234467Y-15833984D02*
X13120182Y-15833984D01*
X13177325Y-15833984D02*
X13177325Y-15633984D01*
X13177325Y-15633984D02*
X13158277Y-15662555D01*
X13158277Y-15662555D02*
X13139229Y-15681603D01*
X13139229Y-15681603D02*
X13120182Y-15691127D01*
X13348753Y-15719698D02*
X13329706Y-15710174D01*
X13329706Y-15710174D02*
X13320182Y-15700650D01*
X13320182Y-15700650D02*
X13310658Y-15681603D01*
X13310658Y-15681603D02*
X13310658Y-15672079D01*
X13310658Y-15672079D02*
X13320182Y-15653031D01*
X13320182Y-15653031D02*
X13329706Y-15643508D01*
X13329706Y-15643508D02*
X13348753Y-15633984D01*
X13348753Y-15633984D02*
X13386848Y-15633984D01*
X13386848Y-15633984D02*
X13405896Y-15643508D01*
X13405896Y-15643508D02*
X13415420Y-15653031D01*
X13415420Y-15653031D02*
X13424944Y-15672079D01*
X13424944Y-15672079D02*
X13424944Y-15681603D01*
X13424944Y-15681603D02*
X13415420Y-15700650D01*
X13415420Y-15700650D02*
X13405896Y-15710174D01*
X13405896Y-15710174D02*
X13386848Y-15719698D01*
X13386848Y-15719698D02*
X13348753Y-15719698D01*
X13348753Y-15719698D02*
X13329706Y-15729222D01*
X13329706Y-15729222D02*
X13320182Y-15738746D01*
X13320182Y-15738746D02*
X13310658Y-15757793D01*
X13310658Y-15757793D02*
X13310658Y-15795888D01*
X13310658Y-15795888D02*
X13320182Y-15814936D01*
X13320182Y-15814936D02*
X13329706Y-15824460D01*
X13329706Y-15824460D02*
X13348753Y-15833984D01*
X13348753Y-15833984D02*
X13386848Y-15833984D01*
X13386848Y-15833984D02*
X13405896Y-15824460D01*
X13405896Y-15824460D02*
X13415420Y-15814936D01*
X13415420Y-15814936D02*
X13424944Y-15795888D01*
X13424944Y-15795888D02*
X13424944Y-15757793D01*
X13424944Y-15757793D02*
X13415420Y-15738746D01*
X13415420Y-15738746D02*
X13405896Y-15729222D01*
X13405896Y-15729222D02*
X13386848Y-15719698D01*
X13501134Y-15633984D02*
X13501134Y-15672079D01*
X13577325Y-15633984D02*
X13577325Y-15672079D01*
X13872563Y-15910174D02*
X13863039Y-15900650D01*
X13863039Y-15900650D02*
X13843991Y-15872079D01*
X13843991Y-15872079D02*
X13834468Y-15853031D01*
X13834468Y-15853031D02*
X13824944Y-15824460D01*
X13824944Y-15824460D02*
X13815420Y-15776841D01*
X13815420Y-15776841D02*
X13815420Y-15738746D01*
X13815420Y-15738746D02*
X13824944Y-15691127D01*
X13824944Y-15691127D02*
X13834468Y-15662555D01*
X13834468Y-15662555D02*
X13843991Y-15643508D01*
X13843991Y-15643508D02*
X13863039Y-15614936D01*
X13863039Y-15614936D02*
X13872563Y-15605412D01*
X13929706Y-15633984D02*
X14063039Y-15633984D01*
X14063039Y-15633984D02*
X13977325Y-15833984D01*
X14148753Y-15833984D02*
X14186848Y-15833984D01*
X14186848Y-15833984D02*
X14205896Y-15824460D01*
X14205896Y-15824460D02*
X14215420Y-15814936D01*
X14215420Y-15814936D02*
X14234468Y-15786365D01*
X14234468Y-15786365D02*
X14243991Y-15748269D01*
X14243991Y-15748269D02*
X14243991Y-15672079D01*
X14243991Y-15672079D02*
X14234468Y-15653031D01*
X14234468Y-15653031D02*
X14224944Y-15643508D01*
X14224944Y-15643508D02*
X14205896Y-15633984D01*
X14205896Y-15633984D02*
X14167801Y-15633984D01*
X14167801Y-15633984D02*
X14148753Y-15643508D01*
X14148753Y-15643508D02*
X14139229Y-15653031D01*
X14139229Y-15653031D02*
X14129706Y-15672079D01*
X14129706Y-15672079D02*
X14129706Y-15719698D01*
X14129706Y-15719698D02*
X14139229Y-15738746D01*
X14139229Y-15738746D02*
X14148753Y-15748269D01*
X14148753Y-15748269D02*
X14167801Y-15757793D01*
X14167801Y-15757793D02*
X14205896Y-15757793D01*
X14205896Y-15757793D02*
X14224944Y-15748269D01*
X14224944Y-15748269D02*
X14234468Y-15738746D01*
X14234468Y-15738746D02*
X14243991Y-15719698D01*
X14482087Y-15833984D02*
X14482087Y-15633984D01*
X14567801Y-15833984D02*
X14567801Y-15729222D01*
X14567801Y-15729222D02*
X14558277Y-15710174D01*
X14558277Y-15710174D02*
X14539230Y-15700650D01*
X14539230Y-15700650D02*
X14510658Y-15700650D01*
X14510658Y-15700650D02*
X14491610Y-15710174D01*
X14491610Y-15710174D02*
X14482087Y-15719698D01*
X14691610Y-15833984D02*
X14672563Y-15824460D01*
X14672563Y-15824460D02*
X14663039Y-15814936D01*
X14663039Y-15814936D02*
X14653515Y-15795888D01*
X14653515Y-15795888D02*
X14653515Y-15738746D01*
X14653515Y-15738746D02*
X14663039Y-15719698D01*
X14663039Y-15719698D02*
X14672563Y-15710174D01*
X14672563Y-15710174D02*
X14691610Y-15700650D01*
X14691610Y-15700650D02*
X14720182Y-15700650D01*
X14720182Y-15700650D02*
X14739230Y-15710174D01*
X14739230Y-15710174D02*
X14748753Y-15719698D01*
X14748753Y-15719698D02*
X14758277Y-15738746D01*
X14758277Y-15738746D02*
X14758277Y-15795888D01*
X14758277Y-15795888D02*
X14748753Y-15814936D01*
X14748753Y-15814936D02*
X14739230Y-15824460D01*
X14739230Y-15824460D02*
X14720182Y-15833984D01*
X14720182Y-15833984D02*
X14691610Y-15833984D01*
X14872563Y-15833984D02*
X14853515Y-15824460D01*
X14853515Y-15824460D02*
X14843991Y-15805412D01*
X14843991Y-15805412D02*
X14843991Y-15633984D01*
X15024944Y-15824460D02*
X15005896Y-15833984D01*
X15005896Y-15833984D02*
X14967801Y-15833984D01*
X14967801Y-15833984D02*
X14948753Y-15824460D01*
X14948753Y-15824460D02*
X14939230Y-15805412D01*
X14939230Y-15805412D02*
X14939230Y-15729222D01*
X14939230Y-15729222D02*
X14948753Y-15710174D01*
X14948753Y-15710174D02*
X14967801Y-15700650D01*
X14967801Y-15700650D02*
X15005896Y-15700650D01*
X15005896Y-15700650D02*
X15024944Y-15710174D01*
X15024944Y-15710174D02*
X15034468Y-15729222D01*
X15034468Y-15729222D02*
X15034468Y-15748269D01*
X15034468Y-15748269D02*
X14939230Y-15767317D01*
X15110658Y-15824460D02*
X15129706Y-15833984D01*
X15129706Y-15833984D02*
X15167801Y-15833984D01*
X15167801Y-15833984D02*
X15186849Y-15824460D01*
X15186849Y-15824460D02*
X15196372Y-15805412D01*
X15196372Y-15805412D02*
X15196372Y-15795888D01*
X15196372Y-15795888D02*
X15186849Y-15776841D01*
X15186849Y-15776841D02*
X15167801Y-15767317D01*
X15167801Y-15767317D02*
X15139230Y-15767317D01*
X15139230Y-15767317D02*
X15120182Y-15757793D01*
X15120182Y-15757793D02*
X15110658Y-15738746D01*
X15110658Y-15738746D02*
X15110658Y-15729222D01*
X15110658Y-15729222D02*
X15120182Y-15710174D01*
X15120182Y-15710174D02*
X15139230Y-15700650D01*
X15139230Y-15700650D02*
X15167801Y-15700650D01*
X15167801Y-15700650D02*
X15186849Y-15710174D01*
X15263039Y-15910174D02*
X15272563Y-15900650D01*
X15272563Y-15900650D02*
X15291611Y-15872079D01*
X15291611Y-15872079D02*
X15301134Y-15853031D01*
X15301134Y-15853031D02*
X15310658Y-15824460D01*
X15310658Y-15824460D02*
X15320182Y-15776841D01*
X15320182Y-15776841D02*
X15320182Y-15738746D01*
X15320182Y-15738746D02*
X15310658Y-15691127D01*
X15310658Y-15691127D02*
X15301134Y-15662555D01*
X15301134Y-15662555D02*
X15291611Y-15643508D01*
X15291611Y-15643508D02*
X15272563Y-15614936D01*
X15272563Y-15614936D02*
X15263039Y-15605412D01*
D12*
X10297500Y-16006500D02*
G75*
G02*
X10222500Y-16006500I-37500J0D01*
G01*
X10222500Y-16006500D02*
G75*
G02*
X10297500Y-16006500I37500J0D01*
G01*
D11*
X10596372Y-15897984D02*
X10615420Y-15897984D01*
X10615420Y-15897984D02*
X10634467Y-15907508D01*
X10634467Y-15907508D02*
X10643991Y-15917031D01*
X10643991Y-15917031D02*
X10653515Y-15936079D01*
X10653515Y-15936079D02*
X10663039Y-15974174D01*
X10663039Y-15974174D02*
X10663039Y-16021793D01*
X10663039Y-16021793D02*
X10653515Y-16059888D01*
X10653515Y-16059888D02*
X10643991Y-16078936D01*
X10643991Y-16078936D02*
X10634467Y-16088460D01*
X10634467Y-16088460D02*
X10615420Y-16097984D01*
X10615420Y-16097984D02*
X10596372Y-16097984D01*
X10596372Y-16097984D02*
X10577324Y-16088460D01*
X10577324Y-16088460D02*
X10567801Y-16078936D01*
X10567801Y-16078936D02*
X10558277Y-16059888D01*
X10558277Y-16059888D02*
X10548753Y-16021793D01*
X10548753Y-16021793D02*
X10548753Y-15974174D01*
X10548753Y-15974174D02*
X10558277Y-15936079D01*
X10558277Y-15936079D02*
X10567801Y-15917031D01*
X10567801Y-15917031D02*
X10577324Y-15907508D01*
X10577324Y-15907508D02*
X10596372Y-15897984D01*
X10748753Y-16078936D02*
X10758277Y-16088460D01*
X10758277Y-16088460D02*
X10748753Y-16097984D01*
X10748753Y-16097984D02*
X10739229Y-16088460D01*
X10739229Y-16088460D02*
X10748753Y-16078936D01*
X10748753Y-16078936D02*
X10748753Y-16097984D01*
X10824944Y-15897984D02*
X10958277Y-15897984D01*
X10958277Y-15897984D02*
X10872563Y-16097984D01*
X11129705Y-15897984D02*
X11034467Y-15897984D01*
X11034467Y-15897984D02*
X11024944Y-15993222D01*
X11024944Y-15993222D02*
X11034467Y-15983698D01*
X11034467Y-15983698D02*
X11053515Y-15974174D01*
X11053515Y-15974174D02*
X11101134Y-15974174D01*
X11101134Y-15974174D02*
X11120182Y-15983698D01*
X11120182Y-15983698D02*
X11129705Y-15993222D01*
X11129705Y-15993222D02*
X11139229Y-16012269D01*
X11139229Y-16012269D02*
X11139229Y-16059888D01*
X11139229Y-16059888D02*
X11129705Y-16078936D01*
X11129705Y-16078936D02*
X11120182Y-16088460D01*
X11120182Y-16088460D02*
X11101134Y-16097984D01*
X11101134Y-16097984D02*
X11053515Y-16097984D01*
X11053515Y-16097984D02*
X11034467Y-16088460D01*
X11034467Y-16088460D02*
X11024944Y-16078936D01*
X11263039Y-15897984D02*
X11282086Y-15897984D01*
X11282086Y-15897984D02*
X11301134Y-15907508D01*
X11301134Y-15907508D02*
X11310658Y-15917031D01*
X11310658Y-15917031D02*
X11320182Y-15936079D01*
X11320182Y-15936079D02*
X11329705Y-15974174D01*
X11329705Y-15974174D02*
X11329705Y-16021793D01*
X11329705Y-16021793D02*
X11320182Y-16059888D01*
X11320182Y-16059888D02*
X11310658Y-16078936D01*
X11310658Y-16078936D02*
X11301134Y-16088460D01*
X11301134Y-16088460D02*
X11282086Y-16097984D01*
X11282086Y-16097984D02*
X11263039Y-16097984D01*
X11263039Y-16097984D02*
X11243991Y-16088460D01*
X11243991Y-16088460D02*
X11234467Y-16078936D01*
X11234467Y-16078936D02*
X11224943Y-16059888D01*
X11224943Y-16059888D02*
X11215420Y-16021793D01*
X11215420Y-16021793D02*
X11215420Y-15974174D01*
X11215420Y-15974174D02*
X11224943Y-15936079D01*
X11224943Y-15936079D02*
X11234467Y-15917031D01*
X11234467Y-15917031D02*
X11243991Y-15907508D01*
X11243991Y-15907508D02*
X11263039Y-15897984D01*
X11415420Y-16097984D02*
X11415420Y-15964650D01*
X11415420Y-15983698D02*
X11424943Y-15974174D01*
X11424943Y-15974174D02*
X11443991Y-15964650D01*
X11443991Y-15964650D02*
X11472563Y-15964650D01*
X11472563Y-15964650D02*
X11491610Y-15974174D01*
X11491610Y-15974174D02*
X11501134Y-15993222D01*
X11501134Y-15993222D02*
X11501134Y-16097984D01*
X11501134Y-15993222D02*
X11510658Y-15974174D01*
X11510658Y-15974174D02*
X11529705Y-15964650D01*
X11529705Y-15964650D02*
X11558277Y-15964650D01*
X11558277Y-15964650D02*
X11577324Y-15974174D01*
X11577324Y-15974174D02*
X11586848Y-15993222D01*
X11586848Y-15993222D02*
X11586848Y-16097984D01*
X11682086Y-16097984D02*
X11682086Y-15964650D01*
X11682086Y-15983698D02*
X11691610Y-15974174D01*
X11691610Y-15974174D02*
X11710658Y-15964650D01*
X11710658Y-15964650D02*
X11739229Y-15964650D01*
X11739229Y-15964650D02*
X11758277Y-15974174D01*
X11758277Y-15974174D02*
X11767801Y-15993222D01*
X11767801Y-15993222D02*
X11767801Y-16097984D01*
X11767801Y-15993222D02*
X11777324Y-15974174D01*
X11777324Y-15974174D02*
X11796372Y-15964650D01*
X11796372Y-15964650D02*
X11824943Y-15964650D01*
X11824943Y-15964650D02*
X11843991Y-15974174D01*
X11843991Y-15974174D02*
X11853515Y-15993222D01*
X11853515Y-15993222D02*
X11853515Y-16097984D01*
X12243991Y-15888460D02*
X12072563Y-16145603D01*
X12501134Y-15897984D02*
X12520182Y-15897984D01*
X12520182Y-15897984D02*
X12539229Y-15907508D01*
X12539229Y-15907508D02*
X12548753Y-15917031D01*
X12548753Y-15917031D02*
X12558277Y-15936079D01*
X12558277Y-15936079D02*
X12567801Y-15974174D01*
X12567801Y-15974174D02*
X12567801Y-16021793D01*
X12567801Y-16021793D02*
X12558277Y-16059888D01*
X12558277Y-16059888D02*
X12548753Y-16078936D01*
X12548753Y-16078936D02*
X12539229Y-16088460D01*
X12539229Y-16088460D02*
X12520182Y-16097984D01*
X12520182Y-16097984D02*
X12501134Y-16097984D01*
X12501134Y-16097984D02*
X12482086Y-16088460D01*
X12482086Y-16088460D02*
X12472563Y-16078936D01*
X12472563Y-16078936D02*
X12463039Y-16059888D01*
X12463039Y-16059888D02*
X12453515Y-16021793D01*
X12453515Y-16021793D02*
X12453515Y-15974174D01*
X12453515Y-15974174D02*
X12463039Y-15936079D01*
X12463039Y-15936079D02*
X12472563Y-15917031D01*
X12472563Y-15917031D02*
X12482086Y-15907508D01*
X12482086Y-15907508D02*
X12501134Y-15897984D01*
X12653515Y-16078936D02*
X12663039Y-16088460D01*
X12663039Y-16088460D02*
X12653515Y-16097984D01*
X12653515Y-16097984D02*
X12643991Y-16088460D01*
X12643991Y-16088460D02*
X12653515Y-16078936D01*
X12653515Y-16078936D02*
X12653515Y-16097984D01*
X12786848Y-15897984D02*
X12805896Y-15897984D01*
X12805896Y-15897984D02*
X12824944Y-15907508D01*
X12824944Y-15907508D02*
X12834467Y-15917031D01*
X12834467Y-15917031D02*
X12843991Y-15936079D01*
X12843991Y-15936079D02*
X12853515Y-15974174D01*
X12853515Y-15974174D02*
X12853515Y-16021793D01*
X12853515Y-16021793D02*
X12843991Y-16059888D01*
X12843991Y-16059888D02*
X12834467Y-16078936D01*
X12834467Y-16078936D02*
X12824944Y-16088460D01*
X12824944Y-16088460D02*
X12805896Y-16097984D01*
X12805896Y-16097984D02*
X12786848Y-16097984D01*
X12786848Y-16097984D02*
X12767801Y-16088460D01*
X12767801Y-16088460D02*
X12758277Y-16078936D01*
X12758277Y-16078936D02*
X12748753Y-16059888D01*
X12748753Y-16059888D02*
X12739229Y-16021793D01*
X12739229Y-16021793D02*
X12739229Y-15974174D01*
X12739229Y-15974174D02*
X12748753Y-15936079D01*
X12748753Y-15936079D02*
X12758277Y-15917031D01*
X12758277Y-15917031D02*
X12767801Y-15907508D01*
X12767801Y-15907508D02*
X12786848Y-15897984D01*
X12929706Y-15917031D02*
X12939229Y-15907508D01*
X12939229Y-15907508D02*
X12958277Y-15897984D01*
X12958277Y-15897984D02*
X13005896Y-15897984D01*
X13005896Y-15897984D02*
X13024944Y-15907508D01*
X13024944Y-15907508D02*
X13034467Y-15917031D01*
X13034467Y-15917031D02*
X13043991Y-15936079D01*
X13043991Y-15936079D02*
X13043991Y-15955127D01*
X13043991Y-15955127D02*
X13034467Y-15983698D01*
X13034467Y-15983698D02*
X12920182Y-16097984D01*
X12920182Y-16097984D02*
X13043991Y-16097984D01*
X13139229Y-16097984D02*
X13177325Y-16097984D01*
X13177325Y-16097984D02*
X13196372Y-16088460D01*
X13196372Y-16088460D02*
X13205896Y-16078936D01*
X13205896Y-16078936D02*
X13224944Y-16050365D01*
X13224944Y-16050365D02*
X13234467Y-16012269D01*
X13234467Y-16012269D02*
X13234467Y-15936079D01*
X13234467Y-15936079D02*
X13224944Y-15917031D01*
X13224944Y-15917031D02*
X13215420Y-15907508D01*
X13215420Y-15907508D02*
X13196372Y-15897984D01*
X13196372Y-15897984D02*
X13158277Y-15897984D01*
X13158277Y-15897984D02*
X13139229Y-15907508D01*
X13139229Y-15907508D02*
X13129706Y-15917031D01*
X13129706Y-15917031D02*
X13120182Y-15936079D01*
X13120182Y-15936079D02*
X13120182Y-15983698D01*
X13120182Y-15983698D02*
X13129706Y-16002746D01*
X13129706Y-16002746D02*
X13139229Y-16012269D01*
X13139229Y-16012269D02*
X13158277Y-16021793D01*
X13158277Y-16021793D02*
X13196372Y-16021793D01*
X13196372Y-16021793D02*
X13215420Y-16012269D01*
X13215420Y-16012269D02*
X13224944Y-16002746D01*
X13224944Y-16002746D02*
X13234467Y-15983698D01*
X13415420Y-15897984D02*
X13320182Y-15897984D01*
X13320182Y-15897984D02*
X13310658Y-15993222D01*
X13310658Y-15993222D02*
X13320182Y-15983698D01*
X13320182Y-15983698D02*
X13339229Y-15974174D01*
X13339229Y-15974174D02*
X13386848Y-15974174D01*
X13386848Y-15974174D02*
X13405896Y-15983698D01*
X13405896Y-15983698D02*
X13415420Y-15993222D01*
X13415420Y-15993222D02*
X13424944Y-16012269D01*
X13424944Y-16012269D02*
X13424944Y-16059888D01*
X13424944Y-16059888D02*
X13415420Y-16078936D01*
X13415420Y-16078936D02*
X13405896Y-16088460D01*
X13405896Y-16088460D02*
X13386848Y-16097984D01*
X13386848Y-16097984D02*
X13339229Y-16097984D01*
X13339229Y-16097984D02*
X13320182Y-16088460D01*
X13320182Y-16088460D02*
X13310658Y-16078936D01*
X13501134Y-15897984D02*
X13501134Y-15936079D01*
X13577325Y-15897984D02*
X13577325Y-15936079D01*
X13872563Y-16174174D02*
X13863039Y-16164650D01*
X13863039Y-16164650D02*
X13843991Y-16136079D01*
X13843991Y-16136079D02*
X13834468Y-16117031D01*
X13834468Y-16117031D02*
X13824944Y-16088460D01*
X13824944Y-16088460D02*
X13815420Y-16040841D01*
X13815420Y-16040841D02*
X13815420Y-16002746D01*
X13815420Y-16002746D02*
X13824944Y-15955127D01*
X13824944Y-15955127D02*
X13834468Y-15926555D01*
X13834468Y-15926555D02*
X13843991Y-15907508D01*
X13843991Y-15907508D02*
X13863039Y-15878936D01*
X13863039Y-15878936D02*
X13872563Y-15869412D01*
X14034468Y-15897984D02*
X13996372Y-15897984D01*
X13996372Y-15897984D02*
X13977325Y-15907508D01*
X13977325Y-15907508D02*
X13967801Y-15917031D01*
X13967801Y-15917031D02*
X13948753Y-15945603D01*
X13948753Y-15945603D02*
X13939229Y-15983698D01*
X13939229Y-15983698D02*
X13939229Y-16059888D01*
X13939229Y-16059888D02*
X13948753Y-16078936D01*
X13948753Y-16078936D02*
X13958277Y-16088460D01*
X13958277Y-16088460D02*
X13977325Y-16097984D01*
X13977325Y-16097984D02*
X14015420Y-16097984D01*
X14015420Y-16097984D02*
X14034468Y-16088460D01*
X14034468Y-16088460D02*
X14043991Y-16078936D01*
X14043991Y-16078936D02*
X14053515Y-16059888D01*
X14053515Y-16059888D02*
X14053515Y-16012269D01*
X14053515Y-16012269D02*
X14043991Y-15993222D01*
X14043991Y-15993222D02*
X14034468Y-15983698D01*
X14034468Y-15983698D02*
X14015420Y-15974174D01*
X14015420Y-15974174D02*
X13977325Y-15974174D01*
X13977325Y-15974174D02*
X13958277Y-15983698D01*
X13958277Y-15983698D02*
X13948753Y-15993222D01*
X13948753Y-15993222D02*
X13939229Y-16012269D01*
X14291610Y-16097984D02*
X14291610Y-15897984D01*
X14377325Y-16097984D02*
X14377325Y-15993222D01*
X14377325Y-15993222D02*
X14367801Y-15974174D01*
X14367801Y-15974174D02*
X14348753Y-15964650D01*
X14348753Y-15964650D02*
X14320182Y-15964650D01*
X14320182Y-15964650D02*
X14301134Y-15974174D01*
X14301134Y-15974174D02*
X14291610Y-15983698D01*
X14501134Y-16097984D02*
X14482087Y-16088460D01*
X14482087Y-16088460D02*
X14472563Y-16078936D01*
X14472563Y-16078936D02*
X14463039Y-16059888D01*
X14463039Y-16059888D02*
X14463039Y-16002746D01*
X14463039Y-16002746D02*
X14472563Y-15983698D01*
X14472563Y-15983698D02*
X14482087Y-15974174D01*
X14482087Y-15974174D02*
X14501134Y-15964650D01*
X14501134Y-15964650D02*
X14529706Y-15964650D01*
X14529706Y-15964650D02*
X14548753Y-15974174D01*
X14548753Y-15974174D02*
X14558277Y-15983698D01*
X14558277Y-15983698D02*
X14567801Y-16002746D01*
X14567801Y-16002746D02*
X14567801Y-16059888D01*
X14567801Y-16059888D02*
X14558277Y-16078936D01*
X14558277Y-16078936D02*
X14548753Y-16088460D01*
X14548753Y-16088460D02*
X14529706Y-16097984D01*
X14529706Y-16097984D02*
X14501134Y-16097984D01*
X14682087Y-16097984D02*
X14663039Y-16088460D01*
X14663039Y-16088460D02*
X14653515Y-16069412D01*
X14653515Y-16069412D02*
X14653515Y-15897984D01*
X14834468Y-16088460D02*
X14815420Y-16097984D01*
X14815420Y-16097984D02*
X14777325Y-16097984D01*
X14777325Y-16097984D02*
X14758277Y-16088460D01*
X14758277Y-16088460D02*
X14748753Y-16069412D01*
X14748753Y-16069412D02*
X14748753Y-15993222D01*
X14748753Y-15993222D02*
X14758277Y-15974174D01*
X14758277Y-15974174D02*
X14777325Y-15964650D01*
X14777325Y-15964650D02*
X14815420Y-15964650D01*
X14815420Y-15964650D02*
X14834468Y-15974174D01*
X14834468Y-15974174D02*
X14843991Y-15993222D01*
X14843991Y-15993222D02*
X14843991Y-16012269D01*
X14843991Y-16012269D02*
X14748753Y-16031317D01*
X14920182Y-16088460D02*
X14939230Y-16097984D01*
X14939230Y-16097984D02*
X14977325Y-16097984D01*
X14977325Y-16097984D02*
X14996372Y-16088460D01*
X14996372Y-16088460D02*
X15005896Y-16069412D01*
X15005896Y-16069412D02*
X15005896Y-16059888D01*
X15005896Y-16059888D02*
X14996372Y-16040841D01*
X14996372Y-16040841D02*
X14977325Y-16031317D01*
X14977325Y-16031317D02*
X14948753Y-16031317D01*
X14948753Y-16031317D02*
X14929706Y-16021793D01*
X14929706Y-16021793D02*
X14920182Y-16002746D01*
X14920182Y-16002746D02*
X14920182Y-15993222D01*
X14920182Y-15993222D02*
X14929706Y-15974174D01*
X14929706Y-15974174D02*
X14948753Y-15964650D01*
X14948753Y-15964650D02*
X14977325Y-15964650D01*
X14977325Y-15964650D02*
X14996372Y-15974174D01*
X15072563Y-16174174D02*
X15082087Y-16164650D01*
X15082087Y-16164650D02*
X15101134Y-16136079D01*
X15101134Y-16136079D02*
X15110658Y-16117031D01*
X15110658Y-16117031D02*
X15120182Y-16088460D01*
X15120182Y-16088460D02*
X15129706Y-16040841D01*
X15129706Y-16040841D02*
X15129706Y-16002746D01*
X15129706Y-16002746D02*
X15120182Y-15955127D01*
X15120182Y-15955127D02*
X15110658Y-15926555D01*
X15110658Y-15926555D02*
X15101134Y-15907508D01*
X15101134Y-15907508D02*
X15082087Y-15878936D01*
X15082087Y-15878936D02*
X15072563Y-15869412D01*
D12*
X10257500Y-16230500D02*
X10257500Y-16310500D01*
X10217500Y-16270500D02*
X10297500Y-16270500D01*
D11*
X10596372Y-16161984D02*
X10615420Y-16161984D01*
X10615420Y-16161984D02*
X10634467Y-16171508D01*
X10634467Y-16171508D02*
X10643991Y-16181031D01*
X10643991Y-16181031D02*
X10653515Y-16200079D01*
X10653515Y-16200079D02*
X10663039Y-16238174D01*
X10663039Y-16238174D02*
X10663039Y-16285793D01*
X10663039Y-16285793D02*
X10653515Y-16323888D01*
X10653515Y-16323888D02*
X10643991Y-16342936D01*
X10643991Y-16342936D02*
X10634467Y-16352460D01*
X10634467Y-16352460D02*
X10615420Y-16361984D01*
X10615420Y-16361984D02*
X10596372Y-16361984D01*
X10596372Y-16361984D02*
X10577324Y-16352460D01*
X10577324Y-16352460D02*
X10567801Y-16342936D01*
X10567801Y-16342936D02*
X10558277Y-16323888D01*
X10558277Y-16323888D02*
X10548753Y-16285793D01*
X10548753Y-16285793D02*
X10548753Y-16238174D01*
X10548753Y-16238174D02*
X10558277Y-16200079D01*
X10558277Y-16200079D02*
X10567801Y-16181031D01*
X10567801Y-16181031D02*
X10577324Y-16171508D01*
X10577324Y-16171508D02*
X10596372Y-16161984D01*
X10748753Y-16342936D02*
X10758277Y-16352460D01*
X10758277Y-16352460D02*
X10748753Y-16361984D01*
X10748753Y-16361984D02*
X10739229Y-16352460D01*
X10739229Y-16352460D02*
X10748753Y-16342936D01*
X10748753Y-16342936D02*
X10748753Y-16361984D01*
X10872563Y-16247698D02*
X10853515Y-16238174D01*
X10853515Y-16238174D02*
X10843991Y-16228650D01*
X10843991Y-16228650D02*
X10834467Y-16209603D01*
X10834467Y-16209603D02*
X10834467Y-16200079D01*
X10834467Y-16200079D02*
X10843991Y-16181031D01*
X10843991Y-16181031D02*
X10853515Y-16171508D01*
X10853515Y-16171508D02*
X10872563Y-16161984D01*
X10872563Y-16161984D02*
X10910658Y-16161984D01*
X10910658Y-16161984D02*
X10929705Y-16171508D01*
X10929705Y-16171508D02*
X10939229Y-16181031D01*
X10939229Y-16181031D02*
X10948753Y-16200079D01*
X10948753Y-16200079D02*
X10948753Y-16209603D01*
X10948753Y-16209603D02*
X10939229Y-16228650D01*
X10939229Y-16228650D02*
X10929705Y-16238174D01*
X10929705Y-16238174D02*
X10910658Y-16247698D01*
X10910658Y-16247698D02*
X10872563Y-16247698D01*
X10872563Y-16247698D02*
X10853515Y-16257222D01*
X10853515Y-16257222D02*
X10843991Y-16266746D01*
X10843991Y-16266746D02*
X10834467Y-16285793D01*
X10834467Y-16285793D02*
X10834467Y-16323888D01*
X10834467Y-16323888D02*
X10843991Y-16342936D01*
X10843991Y-16342936D02*
X10853515Y-16352460D01*
X10853515Y-16352460D02*
X10872563Y-16361984D01*
X10872563Y-16361984D02*
X10910658Y-16361984D01*
X10910658Y-16361984D02*
X10929705Y-16352460D01*
X10929705Y-16352460D02*
X10939229Y-16342936D01*
X10939229Y-16342936D02*
X10948753Y-16323888D01*
X10948753Y-16323888D02*
X10948753Y-16285793D01*
X10948753Y-16285793D02*
X10939229Y-16266746D01*
X10939229Y-16266746D02*
X10929705Y-16257222D01*
X10929705Y-16257222D02*
X10910658Y-16247698D01*
X11072563Y-16161984D02*
X11091610Y-16161984D01*
X11091610Y-16161984D02*
X11110658Y-16171508D01*
X11110658Y-16171508D02*
X11120182Y-16181031D01*
X11120182Y-16181031D02*
X11129705Y-16200079D01*
X11129705Y-16200079D02*
X11139229Y-16238174D01*
X11139229Y-16238174D02*
X11139229Y-16285793D01*
X11139229Y-16285793D02*
X11129705Y-16323888D01*
X11129705Y-16323888D02*
X11120182Y-16342936D01*
X11120182Y-16342936D02*
X11110658Y-16352460D01*
X11110658Y-16352460D02*
X11091610Y-16361984D01*
X11091610Y-16361984D02*
X11072563Y-16361984D01*
X11072563Y-16361984D02*
X11053515Y-16352460D01*
X11053515Y-16352460D02*
X11043991Y-16342936D01*
X11043991Y-16342936D02*
X11034467Y-16323888D01*
X11034467Y-16323888D02*
X11024944Y-16285793D01*
X11024944Y-16285793D02*
X11024944Y-16238174D01*
X11024944Y-16238174D02*
X11034467Y-16200079D01*
X11034467Y-16200079D02*
X11043991Y-16181031D01*
X11043991Y-16181031D02*
X11053515Y-16171508D01*
X11053515Y-16171508D02*
X11072563Y-16161984D01*
X11263039Y-16161984D02*
X11282086Y-16161984D01*
X11282086Y-16161984D02*
X11301134Y-16171508D01*
X11301134Y-16171508D02*
X11310658Y-16181031D01*
X11310658Y-16181031D02*
X11320182Y-16200079D01*
X11320182Y-16200079D02*
X11329705Y-16238174D01*
X11329705Y-16238174D02*
X11329705Y-16285793D01*
X11329705Y-16285793D02*
X11320182Y-16323888D01*
X11320182Y-16323888D02*
X11310658Y-16342936D01*
X11310658Y-16342936D02*
X11301134Y-16352460D01*
X11301134Y-16352460D02*
X11282086Y-16361984D01*
X11282086Y-16361984D02*
X11263039Y-16361984D01*
X11263039Y-16361984D02*
X11243991Y-16352460D01*
X11243991Y-16352460D02*
X11234467Y-16342936D01*
X11234467Y-16342936D02*
X11224943Y-16323888D01*
X11224943Y-16323888D02*
X11215420Y-16285793D01*
X11215420Y-16285793D02*
X11215420Y-16238174D01*
X11215420Y-16238174D02*
X11224943Y-16200079D01*
X11224943Y-16200079D02*
X11234467Y-16181031D01*
X11234467Y-16181031D02*
X11243991Y-16171508D01*
X11243991Y-16171508D02*
X11263039Y-16161984D01*
X11415420Y-16361984D02*
X11415420Y-16228650D01*
X11415420Y-16247698D02*
X11424943Y-16238174D01*
X11424943Y-16238174D02*
X11443991Y-16228650D01*
X11443991Y-16228650D02*
X11472563Y-16228650D01*
X11472563Y-16228650D02*
X11491610Y-16238174D01*
X11491610Y-16238174D02*
X11501134Y-16257222D01*
X11501134Y-16257222D02*
X11501134Y-16361984D01*
X11501134Y-16257222D02*
X11510658Y-16238174D01*
X11510658Y-16238174D02*
X11529705Y-16228650D01*
X11529705Y-16228650D02*
X11558277Y-16228650D01*
X11558277Y-16228650D02*
X11577324Y-16238174D01*
X11577324Y-16238174D02*
X11586848Y-16257222D01*
X11586848Y-16257222D02*
X11586848Y-16361984D01*
X11682086Y-16361984D02*
X11682086Y-16228650D01*
X11682086Y-16247698D02*
X11691610Y-16238174D01*
X11691610Y-16238174D02*
X11710658Y-16228650D01*
X11710658Y-16228650D02*
X11739229Y-16228650D01*
X11739229Y-16228650D02*
X11758277Y-16238174D01*
X11758277Y-16238174D02*
X11767801Y-16257222D01*
X11767801Y-16257222D02*
X11767801Y-16361984D01*
X11767801Y-16257222D02*
X11777324Y-16238174D01*
X11777324Y-16238174D02*
X11796372Y-16228650D01*
X11796372Y-16228650D02*
X11824943Y-16228650D01*
X11824943Y-16228650D02*
X11843991Y-16238174D01*
X11843991Y-16238174D02*
X11853515Y-16257222D01*
X11853515Y-16257222D02*
X11853515Y-16361984D01*
X12243991Y-16152460D02*
X12072563Y-16409603D01*
X12501134Y-16161984D02*
X12520182Y-16161984D01*
X12520182Y-16161984D02*
X12539229Y-16171508D01*
X12539229Y-16171508D02*
X12548753Y-16181031D01*
X12548753Y-16181031D02*
X12558277Y-16200079D01*
X12558277Y-16200079D02*
X12567801Y-16238174D01*
X12567801Y-16238174D02*
X12567801Y-16285793D01*
X12567801Y-16285793D02*
X12558277Y-16323888D01*
X12558277Y-16323888D02*
X12548753Y-16342936D01*
X12548753Y-16342936D02*
X12539229Y-16352460D01*
X12539229Y-16352460D02*
X12520182Y-16361984D01*
X12520182Y-16361984D02*
X12501134Y-16361984D01*
X12501134Y-16361984D02*
X12482086Y-16352460D01*
X12482086Y-16352460D02*
X12472563Y-16342936D01*
X12472563Y-16342936D02*
X12463039Y-16323888D01*
X12463039Y-16323888D02*
X12453515Y-16285793D01*
X12453515Y-16285793D02*
X12453515Y-16238174D01*
X12453515Y-16238174D02*
X12463039Y-16200079D01*
X12463039Y-16200079D02*
X12472563Y-16181031D01*
X12472563Y-16181031D02*
X12482086Y-16171508D01*
X12482086Y-16171508D02*
X12501134Y-16161984D01*
X12653515Y-16342936D02*
X12663039Y-16352460D01*
X12663039Y-16352460D02*
X12653515Y-16361984D01*
X12653515Y-16361984D02*
X12643991Y-16352460D01*
X12643991Y-16352460D02*
X12653515Y-16342936D01*
X12653515Y-16342936D02*
X12653515Y-16361984D01*
X12786848Y-16161984D02*
X12805896Y-16161984D01*
X12805896Y-16161984D02*
X12824944Y-16171508D01*
X12824944Y-16171508D02*
X12834467Y-16181031D01*
X12834467Y-16181031D02*
X12843991Y-16200079D01*
X12843991Y-16200079D02*
X12853515Y-16238174D01*
X12853515Y-16238174D02*
X12853515Y-16285793D01*
X12853515Y-16285793D02*
X12843991Y-16323888D01*
X12843991Y-16323888D02*
X12834467Y-16342936D01*
X12834467Y-16342936D02*
X12824944Y-16352460D01*
X12824944Y-16352460D02*
X12805896Y-16361984D01*
X12805896Y-16361984D02*
X12786848Y-16361984D01*
X12786848Y-16361984D02*
X12767801Y-16352460D01*
X12767801Y-16352460D02*
X12758277Y-16342936D01*
X12758277Y-16342936D02*
X12748753Y-16323888D01*
X12748753Y-16323888D02*
X12739229Y-16285793D01*
X12739229Y-16285793D02*
X12739229Y-16238174D01*
X12739229Y-16238174D02*
X12748753Y-16200079D01*
X12748753Y-16200079D02*
X12758277Y-16181031D01*
X12758277Y-16181031D02*
X12767801Y-16171508D01*
X12767801Y-16171508D02*
X12786848Y-16161984D01*
X12920182Y-16161984D02*
X13043991Y-16161984D01*
X13043991Y-16161984D02*
X12977325Y-16238174D01*
X12977325Y-16238174D02*
X13005896Y-16238174D01*
X13005896Y-16238174D02*
X13024944Y-16247698D01*
X13024944Y-16247698D02*
X13034467Y-16257222D01*
X13034467Y-16257222D02*
X13043991Y-16276269D01*
X13043991Y-16276269D02*
X13043991Y-16323888D01*
X13043991Y-16323888D02*
X13034467Y-16342936D01*
X13034467Y-16342936D02*
X13024944Y-16352460D01*
X13024944Y-16352460D02*
X13005896Y-16361984D01*
X13005896Y-16361984D02*
X12948753Y-16361984D01*
X12948753Y-16361984D02*
X12929706Y-16352460D01*
X12929706Y-16352460D02*
X12920182Y-16342936D01*
X13234467Y-16361984D02*
X13120182Y-16361984D01*
X13177325Y-16361984D02*
X13177325Y-16161984D01*
X13177325Y-16161984D02*
X13158277Y-16190555D01*
X13158277Y-16190555D02*
X13139229Y-16209603D01*
X13139229Y-16209603D02*
X13120182Y-16219127D01*
X13415420Y-16161984D02*
X13320182Y-16161984D01*
X13320182Y-16161984D02*
X13310658Y-16257222D01*
X13310658Y-16257222D02*
X13320182Y-16247698D01*
X13320182Y-16247698D02*
X13339229Y-16238174D01*
X13339229Y-16238174D02*
X13386848Y-16238174D01*
X13386848Y-16238174D02*
X13405896Y-16247698D01*
X13405896Y-16247698D02*
X13415420Y-16257222D01*
X13415420Y-16257222D02*
X13424944Y-16276269D01*
X13424944Y-16276269D02*
X13424944Y-16323888D01*
X13424944Y-16323888D02*
X13415420Y-16342936D01*
X13415420Y-16342936D02*
X13405896Y-16352460D01*
X13405896Y-16352460D02*
X13386848Y-16361984D01*
X13386848Y-16361984D02*
X13339229Y-16361984D01*
X13339229Y-16361984D02*
X13320182Y-16352460D01*
X13320182Y-16352460D02*
X13310658Y-16342936D01*
X13501134Y-16161984D02*
X13501134Y-16200079D01*
X13577325Y-16161984D02*
X13577325Y-16200079D01*
X13872563Y-16438174D02*
X13863039Y-16428650D01*
X13863039Y-16428650D02*
X13843991Y-16400079D01*
X13843991Y-16400079D02*
X13834468Y-16381031D01*
X13834468Y-16381031D02*
X13824944Y-16352460D01*
X13824944Y-16352460D02*
X13815420Y-16304841D01*
X13815420Y-16304841D02*
X13815420Y-16266746D01*
X13815420Y-16266746D02*
X13824944Y-16219127D01*
X13824944Y-16219127D02*
X13834468Y-16190555D01*
X13834468Y-16190555D02*
X13843991Y-16171508D01*
X13843991Y-16171508D02*
X13863039Y-16142936D01*
X13863039Y-16142936D02*
X13872563Y-16133412D01*
X14034468Y-16228650D02*
X14034468Y-16361984D01*
X13986848Y-16152460D02*
X13939229Y-16295317D01*
X13939229Y-16295317D02*
X14063039Y-16295317D01*
X14167801Y-16247698D02*
X14148753Y-16238174D01*
X14148753Y-16238174D02*
X14139229Y-16228650D01*
X14139229Y-16228650D02*
X14129706Y-16209603D01*
X14129706Y-16209603D02*
X14129706Y-16200079D01*
X14129706Y-16200079D02*
X14139229Y-16181031D01*
X14139229Y-16181031D02*
X14148753Y-16171508D01*
X14148753Y-16171508D02*
X14167801Y-16161984D01*
X14167801Y-16161984D02*
X14205896Y-16161984D01*
X14205896Y-16161984D02*
X14224944Y-16171508D01*
X14224944Y-16171508D02*
X14234468Y-16181031D01*
X14234468Y-16181031D02*
X14243991Y-16200079D01*
X14243991Y-16200079D02*
X14243991Y-16209603D01*
X14243991Y-16209603D02*
X14234468Y-16228650D01*
X14234468Y-16228650D02*
X14224944Y-16238174D01*
X14224944Y-16238174D02*
X14205896Y-16247698D01*
X14205896Y-16247698D02*
X14167801Y-16247698D01*
X14167801Y-16247698D02*
X14148753Y-16257222D01*
X14148753Y-16257222D02*
X14139229Y-16266746D01*
X14139229Y-16266746D02*
X14129706Y-16285793D01*
X14129706Y-16285793D02*
X14129706Y-16323888D01*
X14129706Y-16323888D02*
X14139229Y-16342936D01*
X14139229Y-16342936D02*
X14148753Y-16352460D01*
X14148753Y-16352460D02*
X14167801Y-16361984D01*
X14167801Y-16361984D02*
X14205896Y-16361984D01*
X14205896Y-16361984D02*
X14224944Y-16352460D01*
X14224944Y-16352460D02*
X14234468Y-16342936D01*
X14234468Y-16342936D02*
X14243991Y-16323888D01*
X14243991Y-16323888D02*
X14243991Y-16285793D01*
X14243991Y-16285793D02*
X14234468Y-16266746D01*
X14234468Y-16266746D02*
X14224944Y-16257222D01*
X14224944Y-16257222D02*
X14205896Y-16247698D01*
X14482087Y-16361984D02*
X14482087Y-16161984D01*
X14567801Y-16361984D02*
X14567801Y-16257222D01*
X14567801Y-16257222D02*
X14558277Y-16238174D01*
X14558277Y-16238174D02*
X14539230Y-16228650D01*
X14539230Y-16228650D02*
X14510658Y-16228650D01*
X14510658Y-16228650D02*
X14491610Y-16238174D01*
X14491610Y-16238174D02*
X14482087Y-16247698D01*
X14691610Y-16361984D02*
X14672563Y-16352460D01*
X14672563Y-16352460D02*
X14663039Y-16342936D01*
X14663039Y-16342936D02*
X14653515Y-16323888D01*
X14653515Y-16323888D02*
X14653515Y-16266746D01*
X14653515Y-16266746D02*
X14663039Y-16247698D01*
X14663039Y-16247698D02*
X14672563Y-16238174D01*
X14672563Y-16238174D02*
X14691610Y-16228650D01*
X14691610Y-16228650D02*
X14720182Y-16228650D01*
X14720182Y-16228650D02*
X14739230Y-16238174D01*
X14739230Y-16238174D02*
X14748753Y-16247698D01*
X14748753Y-16247698D02*
X14758277Y-16266746D01*
X14758277Y-16266746D02*
X14758277Y-16323888D01*
X14758277Y-16323888D02*
X14748753Y-16342936D01*
X14748753Y-16342936D02*
X14739230Y-16352460D01*
X14739230Y-16352460D02*
X14720182Y-16361984D01*
X14720182Y-16361984D02*
X14691610Y-16361984D01*
X14872563Y-16361984D02*
X14853515Y-16352460D01*
X14853515Y-16352460D02*
X14843991Y-16333412D01*
X14843991Y-16333412D02*
X14843991Y-16161984D01*
X15024944Y-16352460D02*
X15005896Y-16361984D01*
X15005896Y-16361984D02*
X14967801Y-16361984D01*
X14967801Y-16361984D02*
X14948753Y-16352460D01*
X14948753Y-16352460D02*
X14939230Y-16333412D01*
X14939230Y-16333412D02*
X14939230Y-16257222D01*
X14939230Y-16257222D02*
X14948753Y-16238174D01*
X14948753Y-16238174D02*
X14967801Y-16228650D01*
X14967801Y-16228650D02*
X15005896Y-16228650D01*
X15005896Y-16228650D02*
X15024944Y-16238174D01*
X15024944Y-16238174D02*
X15034468Y-16257222D01*
X15034468Y-16257222D02*
X15034468Y-16276269D01*
X15034468Y-16276269D02*
X14939230Y-16295317D01*
X15110658Y-16352460D02*
X15129706Y-16361984D01*
X15129706Y-16361984D02*
X15167801Y-16361984D01*
X15167801Y-16361984D02*
X15186849Y-16352460D01*
X15186849Y-16352460D02*
X15196372Y-16333412D01*
X15196372Y-16333412D02*
X15196372Y-16323888D01*
X15196372Y-16323888D02*
X15186849Y-16304841D01*
X15186849Y-16304841D02*
X15167801Y-16295317D01*
X15167801Y-16295317D02*
X15139230Y-16295317D01*
X15139230Y-16295317D02*
X15120182Y-16285793D01*
X15120182Y-16285793D02*
X15110658Y-16266746D01*
X15110658Y-16266746D02*
X15110658Y-16257222D01*
X15110658Y-16257222D02*
X15120182Y-16238174D01*
X15120182Y-16238174D02*
X15139230Y-16228650D01*
X15139230Y-16228650D02*
X15167801Y-16228650D01*
X15167801Y-16228650D02*
X15186849Y-16238174D01*
X15263039Y-16438174D02*
X15272563Y-16428650D01*
X15272563Y-16428650D02*
X15291611Y-16400079D01*
X15291611Y-16400079D02*
X15301134Y-16381031D01*
X15301134Y-16381031D02*
X15310658Y-16352460D01*
X15310658Y-16352460D02*
X15320182Y-16304841D01*
X15320182Y-16304841D02*
X15320182Y-16266746D01*
X15320182Y-16266746D02*
X15310658Y-16219127D01*
X15310658Y-16219127D02*
X15301134Y-16190555D01*
X15301134Y-16190555D02*
X15291611Y-16171508D01*
X15291611Y-16171508D02*
X15272563Y-16142936D01*
X15272563Y-16142936D02*
X15263039Y-16133412D01*
D12*
X10284320Y-16566320D02*
X10284320Y-16502680D01*
X10220680Y-16502680D01*
X10220680Y-16566320D01*
X10284320Y-16566320D01*
D11*
X10596372Y-16425984D02*
X10615420Y-16425984D01*
X10615420Y-16425984D02*
X10634467Y-16435508D01*
X10634467Y-16435508D02*
X10643991Y-16445031D01*
X10643991Y-16445031D02*
X10653515Y-16464079D01*
X10653515Y-16464079D02*
X10663039Y-16502174D01*
X10663039Y-16502174D02*
X10663039Y-16549793D01*
X10663039Y-16549793D02*
X10653515Y-16587888D01*
X10653515Y-16587888D02*
X10643991Y-16606936D01*
X10643991Y-16606936D02*
X10634467Y-16616460D01*
X10634467Y-16616460D02*
X10615420Y-16625984D01*
X10615420Y-16625984D02*
X10596372Y-16625984D01*
X10596372Y-16625984D02*
X10577324Y-16616460D01*
X10577324Y-16616460D02*
X10567801Y-16606936D01*
X10567801Y-16606936D02*
X10558277Y-16587888D01*
X10558277Y-16587888D02*
X10548753Y-16549793D01*
X10548753Y-16549793D02*
X10548753Y-16502174D01*
X10548753Y-16502174D02*
X10558277Y-16464079D01*
X10558277Y-16464079D02*
X10567801Y-16445031D01*
X10567801Y-16445031D02*
X10577324Y-16435508D01*
X10577324Y-16435508D02*
X10596372Y-16425984D01*
X10748753Y-16606936D02*
X10758277Y-16616460D01*
X10758277Y-16616460D02*
X10748753Y-16625984D01*
X10748753Y-16625984D02*
X10739229Y-16616460D01*
X10739229Y-16616460D02*
X10748753Y-16606936D01*
X10748753Y-16606936D02*
X10748753Y-16625984D01*
X10853515Y-16625984D02*
X10891610Y-16625984D01*
X10891610Y-16625984D02*
X10910658Y-16616460D01*
X10910658Y-16616460D02*
X10920182Y-16606936D01*
X10920182Y-16606936D02*
X10939229Y-16578365D01*
X10939229Y-16578365D02*
X10948753Y-16540269D01*
X10948753Y-16540269D02*
X10948753Y-16464079D01*
X10948753Y-16464079D02*
X10939229Y-16445031D01*
X10939229Y-16445031D02*
X10929705Y-16435508D01*
X10929705Y-16435508D02*
X10910658Y-16425984D01*
X10910658Y-16425984D02*
X10872563Y-16425984D01*
X10872563Y-16425984D02*
X10853515Y-16435508D01*
X10853515Y-16435508D02*
X10843991Y-16445031D01*
X10843991Y-16445031D02*
X10834467Y-16464079D01*
X10834467Y-16464079D02*
X10834467Y-16511698D01*
X10834467Y-16511698D02*
X10843991Y-16530746D01*
X10843991Y-16530746D02*
X10853515Y-16540269D01*
X10853515Y-16540269D02*
X10872563Y-16549793D01*
X10872563Y-16549793D02*
X10910658Y-16549793D01*
X10910658Y-16549793D02*
X10929705Y-16540269D01*
X10929705Y-16540269D02*
X10939229Y-16530746D01*
X10939229Y-16530746D02*
X10948753Y-16511698D01*
X11072563Y-16425984D02*
X11091610Y-16425984D01*
X11091610Y-16425984D02*
X11110658Y-16435508D01*
X11110658Y-16435508D02*
X11120182Y-16445031D01*
X11120182Y-16445031D02*
X11129705Y-16464079D01*
X11129705Y-16464079D02*
X11139229Y-16502174D01*
X11139229Y-16502174D02*
X11139229Y-16549793D01*
X11139229Y-16549793D02*
X11129705Y-16587888D01*
X11129705Y-16587888D02*
X11120182Y-16606936D01*
X11120182Y-16606936D02*
X11110658Y-16616460D01*
X11110658Y-16616460D02*
X11091610Y-16625984D01*
X11091610Y-16625984D02*
X11072563Y-16625984D01*
X11072563Y-16625984D02*
X11053515Y-16616460D01*
X11053515Y-16616460D02*
X11043991Y-16606936D01*
X11043991Y-16606936D02*
X11034467Y-16587888D01*
X11034467Y-16587888D02*
X11024944Y-16549793D01*
X11024944Y-16549793D02*
X11024944Y-16502174D01*
X11024944Y-16502174D02*
X11034467Y-16464079D01*
X11034467Y-16464079D02*
X11043991Y-16445031D01*
X11043991Y-16445031D02*
X11053515Y-16435508D01*
X11053515Y-16435508D02*
X11072563Y-16425984D01*
X11263039Y-16425984D02*
X11282086Y-16425984D01*
X11282086Y-16425984D02*
X11301134Y-16435508D01*
X11301134Y-16435508D02*
X11310658Y-16445031D01*
X11310658Y-16445031D02*
X11320182Y-16464079D01*
X11320182Y-16464079D02*
X11329705Y-16502174D01*
X11329705Y-16502174D02*
X11329705Y-16549793D01*
X11329705Y-16549793D02*
X11320182Y-16587888D01*
X11320182Y-16587888D02*
X11310658Y-16606936D01*
X11310658Y-16606936D02*
X11301134Y-16616460D01*
X11301134Y-16616460D02*
X11282086Y-16625984D01*
X11282086Y-16625984D02*
X11263039Y-16625984D01*
X11263039Y-16625984D02*
X11243991Y-16616460D01*
X11243991Y-16616460D02*
X11234467Y-16606936D01*
X11234467Y-16606936D02*
X11224943Y-16587888D01*
X11224943Y-16587888D02*
X11215420Y-16549793D01*
X11215420Y-16549793D02*
X11215420Y-16502174D01*
X11215420Y-16502174D02*
X11224943Y-16464079D01*
X11224943Y-16464079D02*
X11234467Y-16445031D01*
X11234467Y-16445031D02*
X11243991Y-16435508D01*
X11243991Y-16435508D02*
X11263039Y-16425984D01*
X11415420Y-16625984D02*
X11415420Y-16492650D01*
X11415420Y-16511698D02*
X11424943Y-16502174D01*
X11424943Y-16502174D02*
X11443991Y-16492650D01*
X11443991Y-16492650D02*
X11472563Y-16492650D01*
X11472563Y-16492650D02*
X11491610Y-16502174D01*
X11491610Y-16502174D02*
X11501134Y-16521222D01*
X11501134Y-16521222D02*
X11501134Y-16625984D01*
X11501134Y-16521222D02*
X11510658Y-16502174D01*
X11510658Y-16502174D02*
X11529705Y-16492650D01*
X11529705Y-16492650D02*
X11558277Y-16492650D01*
X11558277Y-16492650D02*
X11577324Y-16502174D01*
X11577324Y-16502174D02*
X11586848Y-16521222D01*
X11586848Y-16521222D02*
X11586848Y-16625984D01*
X11682086Y-16625984D02*
X11682086Y-16492650D01*
X11682086Y-16511698D02*
X11691610Y-16502174D01*
X11691610Y-16502174D02*
X11710658Y-16492650D01*
X11710658Y-16492650D02*
X11739229Y-16492650D01*
X11739229Y-16492650D02*
X11758277Y-16502174D01*
X11758277Y-16502174D02*
X11767801Y-16521222D01*
X11767801Y-16521222D02*
X11767801Y-16625984D01*
X11767801Y-16521222D02*
X11777324Y-16502174D01*
X11777324Y-16502174D02*
X11796372Y-16492650D01*
X11796372Y-16492650D02*
X11824943Y-16492650D01*
X11824943Y-16492650D02*
X11843991Y-16502174D01*
X11843991Y-16502174D02*
X11853515Y-16521222D01*
X11853515Y-16521222D02*
X11853515Y-16625984D01*
X12243991Y-16416460D02*
X12072563Y-16673603D01*
X12501134Y-16425984D02*
X12520182Y-16425984D01*
X12520182Y-16425984D02*
X12539229Y-16435508D01*
X12539229Y-16435508D02*
X12548753Y-16445031D01*
X12548753Y-16445031D02*
X12558277Y-16464079D01*
X12558277Y-16464079D02*
X12567801Y-16502174D01*
X12567801Y-16502174D02*
X12567801Y-16549793D01*
X12567801Y-16549793D02*
X12558277Y-16587888D01*
X12558277Y-16587888D02*
X12548753Y-16606936D01*
X12548753Y-16606936D02*
X12539229Y-16616460D01*
X12539229Y-16616460D02*
X12520182Y-16625984D01*
X12520182Y-16625984D02*
X12501134Y-16625984D01*
X12501134Y-16625984D02*
X12482086Y-16616460D01*
X12482086Y-16616460D02*
X12472563Y-16606936D01*
X12472563Y-16606936D02*
X12463039Y-16587888D01*
X12463039Y-16587888D02*
X12453515Y-16549793D01*
X12453515Y-16549793D02*
X12453515Y-16502174D01*
X12453515Y-16502174D02*
X12463039Y-16464079D01*
X12463039Y-16464079D02*
X12472563Y-16445031D01*
X12472563Y-16445031D02*
X12482086Y-16435508D01*
X12482086Y-16435508D02*
X12501134Y-16425984D01*
X12653515Y-16606936D02*
X12663039Y-16616460D01*
X12663039Y-16616460D02*
X12653515Y-16625984D01*
X12653515Y-16625984D02*
X12643991Y-16616460D01*
X12643991Y-16616460D02*
X12653515Y-16606936D01*
X12653515Y-16606936D02*
X12653515Y-16625984D01*
X12786848Y-16425984D02*
X12805896Y-16425984D01*
X12805896Y-16425984D02*
X12824944Y-16435508D01*
X12824944Y-16435508D02*
X12834467Y-16445031D01*
X12834467Y-16445031D02*
X12843991Y-16464079D01*
X12843991Y-16464079D02*
X12853515Y-16502174D01*
X12853515Y-16502174D02*
X12853515Y-16549793D01*
X12853515Y-16549793D02*
X12843991Y-16587888D01*
X12843991Y-16587888D02*
X12834467Y-16606936D01*
X12834467Y-16606936D02*
X12824944Y-16616460D01*
X12824944Y-16616460D02*
X12805896Y-16625984D01*
X12805896Y-16625984D02*
X12786848Y-16625984D01*
X12786848Y-16625984D02*
X12767801Y-16616460D01*
X12767801Y-16616460D02*
X12758277Y-16606936D01*
X12758277Y-16606936D02*
X12748753Y-16587888D01*
X12748753Y-16587888D02*
X12739229Y-16549793D01*
X12739229Y-16549793D02*
X12739229Y-16502174D01*
X12739229Y-16502174D02*
X12748753Y-16464079D01*
X12748753Y-16464079D02*
X12758277Y-16445031D01*
X12758277Y-16445031D02*
X12767801Y-16435508D01*
X12767801Y-16435508D02*
X12786848Y-16425984D01*
X12920182Y-16425984D02*
X13043991Y-16425984D01*
X13043991Y-16425984D02*
X12977325Y-16502174D01*
X12977325Y-16502174D02*
X13005896Y-16502174D01*
X13005896Y-16502174D02*
X13024944Y-16511698D01*
X13024944Y-16511698D02*
X13034467Y-16521222D01*
X13034467Y-16521222D02*
X13043991Y-16540269D01*
X13043991Y-16540269D02*
X13043991Y-16587888D01*
X13043991Y-16587888D02*
X13034467Y-16606936D01*
X13034467Y-16606936D02*
X13024944Y-16616460D01*
X13024944Y-16616460D02*
X13005896Y-16625984D01*
X13005896Y-16625984D02*
X12948753Y-16625984D01*
X12948753Y-16625984D02*
X12929706Y-16616460D01*
X12929706Y-16616460D02*
X12920182Y-16606936D01*
X13224944Y-16425984D02*
X13129706Y-16425984D01*
X13129706Y-16425984D02*
X13120182Y-16521222D01*
X13120182Y-16521222D02*
X13129706Y-16511698D01*
X13129706Y-16511698D02*
X13148753Y-16502174D01*
X13148753Y-16502174D02*
X13196372Y-16502174D01*
X13196372Y-16502174D02*
X13215420Y-16511698D01*
X13215420Y-16511698D02*
X13224944Y-16521222D01*
X13224944Y-16521222D02*
X13234467Y-16540269D01*
X13234467Y-16540269D02*
X13234467Y-16587888D01*
X13234467Y-16587888D02*
X13224944Y-16606936D01*
X13224944Y-16606936D02*
X13215420Y-16616460D01*
X13215420Y-16616460D02*
X13196372Y-16625984D01*
X13196372Y-16625984D02*
X13148753Y-16625984D01*
X13148753Y-16625984D02*
X13129706Y-16616460D01*
X13129706Y-16616460D02*
X13120182Y-16606936D01*
X13405896Y-16492650D02*
X13405896Y-16625984D01*
X13358277Y-16416460D02*
X13310658Y-16559317D01*
X13310658Y-16559317D02*
X13434467Y-16559317D01*
X13501134Y-16425984D02*
X13501134Y-16464079D01*
X13577325Y-16425984D02*
X13577325Y-16464079D01*
X13872563Y-16702174D02*
X13863039Y-16692650D01*
X13863039Y-16692650D02*
X13843991Y-16664079D01*
X13843991Y-16664079D02*
X13834468Y-16645031D01*
X13834468Y-16645031D02*
X13824944Y-16616460D01*
X13824944Y-16616460D02*
X13815420Y-16568841D01*
X13815420Y-16568841D02*
X13815420Y-16530746D01*
X13815420Y-16530746D02*
X13824944Y-16483127D01*
X13824944Y-16483127D02*
X13834468Y-16454555D01*
X13834468Y-16454555D02*
X13843991Y-16435508D01*
X13843991Y-16435508D02*
X13863039Y-16406936D01*
X13863039Y-16406936D02*
X13872563Y-16397412D01*
X14053515Y-16625984D02*
X13939229Y-16625984D01*
X13996372Y-16625984D02*
X13996372Y-16425984D01*
X13996372Y-16425984D02*
X13977325Y-16454555D01*
X13977325Y-16454555D02*
X13958277Y-16473603D01*
X13958277Y-16473603D02*
X13939229Y-16483127D01*
X14177325Y-16425984D02*
X14196372Y-16425984D01*
X14196372Y-16425984D02*
X14215420Y-16435508D01*
X14215420Y-16435508D02*
X14224944Y-16445031D01*
X14224944Y-16445031D02*
X14234468Y-16464079D01*
X14234468Y-16464079D02*
X14243991Y-16502174D01*
X14243991Y-16502174D02*
X14243991Y-16549793D01*
X14243991Y-16549793D02*
X14234468Y-16587888D01*
X14234468Y-16587888D02*
X14224944Y-16606936D01*
X14224944Y-16606936D02*
X14215420Y-16616460D01*
X14215420Y-16616460D02*
X14196372Y-16625984D01*
X14196372Y-16625984D02*
X14177325Y-16625984D01*
X14177325Y-16625984D02*
X14158277Y-16616460D01*
X14158277Y-16616460D02*
X14148753Y-16606936D01*
X14148753Y-16606936D02*
X14139229Y-16587888D01*
X14139229Y-16587888D02*
X14129706Y-16549793D01*
X14129706Y-16549793D02*
X14129706Y-16502174D01*
X14129706Y-16502174D02*
X14139229Y-16464079D01*
X14139229Y-16464079D02*
X14148753Y-16445031D01*
X14148753Y-16445031D02*
X14158277Y-16435508D01*
X14158277Y-16435508D02*
X14177325Y-16425984D01*
X14482087Y-16625984D02*
X14482087Y-16425984D01*
X14567801Y-16625984D02*
X14567801Y-16521222D01*
X14567801Y-16521222D02*
X14558277Y-16502174D01*
X14558277Y-16502174D02*
X14539230Y-16492650D01*
X14539230Y-16492650D02*
X14510658Y-16492650D01*
X14510658Y-16492650D02*
X14491610Y-16502174D01*
X14491610Y-16502174D02*
X14482087Y-16511698D01*
X14691610Y-16625984D02*
X14672563Y-16616460D01*
X14672563Y-16616460D02*
X14663039Y-16606936D01*
X14663039Y-16606936D02*
X14653515Y-16587888D01*
X14653515Y-16587888D02*
X14653515Y-16530746D01*
X14653515Y-16530746D02*
X14663039Y-16511698D01*
X14663039Y-16511698D02*
X14672563Y-16502174D01*
X14672563Y-16502174D02*
X14691610Y-16492650D01*
X14691610Y-16492650D02*
X14720182Y-16492650D01*
X14720182Y-16492650D02*
X14739230Y-16502174D01*
X14739230Y-16502174D02*
X14748753Y-16511698D01*
X14748753Y-16511698D02*
X14758277Y-16530746D01*
X14758277Y-16530746D02*
X14758277Y-16587888D01*
X14758277Y-16587888D02*
X14748753Y-16606936D01*
X14748753Y-16606936D02*
X14739230Y-16616460D01*
X14739230Y-16616460D02*
X14720182Y-16625984D01*
X14720182Y-16625984D02*
X14691610Y-16625984D01*
X14872563Y-16625984D02*
X14853515Y-16616460D01*
X14853515Y-16616460D02*
X14843991Y-16597412D01*
X14843991Y-16597412D02*
X14843991Y-16425984D01*
X15024944Y-16616460D02*
X15005896Y-16625984D01*
X15005896Y-16625984D02*
X14967801Y-16625984D01*
X14967801Y-16625984D02*
X14948753Y-16616460D01*
X14948753Y-16616460D02*
X14939230Y-16597412D01*
X14939230Y-16597412D02*
X14939230Y-16521222D01*
X14939230Y-16521222D02*
X14948753Y-16502174D01*
X14948753Y-16502174D02*
X14967801Y-16492650D01*
X14967801Y-16492650D02*
X15005896Y-16492650D01*
X15005896Y-16492650D02*
X15024944Y-16502174D01*
X15024944Y-16502174D02*
X15034468Y-16521222D01*
X15034468Y-16521222D02*
X15034468Y-16540269D01*
X15034468Y-16540269D02*
X14939230Y-16559317D01*
X15110658Y-16616460D02*
X15129706Y-16625984D01*
X15129706Y-16625984D02*
X15167801Y-16625984D01*
X15167801Y-16625984D02*
X15186849Y-16616460D01*
X15186849Y-16616460D02*
X15196372Y-16597412D01*
X15196372Y-16597412D02*
X15196372Y-16587888D01*
X15196372Y-16587888D02*
X15186849Y-16568841D01*
X15186849Y-16568841D02*
X15167801Y-16559317D01*
X15167801Y-16559317D02*
X15139230Y-16559317D01*
X15139230Y-16559317D02*
X15120182Y-16549793D01*
X15120182Y-16549793D02*
X15110658Y-16530746D01*
X15110658Y-16530746D02*
X15110658Y-16521222D01*
X15110658Y-16521222D02*
X15120182Y-16502174D01*
X15120182Y-16502174D02*
X15139230Y-16492650D01*
X15139230Y-16492650D02*
X15167801Y-16492650D01*
X15167801Y-16492650D02*
X15186849Y-16502174D01*
X15263039Y-16702174D02*
X15272563Y-16692650D01*
X15272563Y-16692650D02*
X15291611Y-16664079D01*
X15291611Y-16664079D02*
X15301134Y-16645031D01*
X15301134Y-16645031D02*
X15310658Y-16616460D01*
X15310658Y-16616460D02*
X15320182Y-16568841D01*
X15320182Y-16568841D02*
X15320182Y-16530746D01*
X15320182Y-16530746D02*
X15310658Y-16483127D01*
X15310658Y-16483127D02*
X15301134Y-16454555D01*
X15301134Y-16454555D02*
X15291611Y-16435508D01*
X15291611Y-16435508D02*
X15272563Y-16406936D01*
X15272563Y-16406936D02*
X15263039Y-16397412D01*
D12*
X10247500Y-16848500D02*
X10297500Y-16798500D01*
X10247500Y-16748500D01*
X10197500Y-16798500D01*
X10247500Y-16848500D01*
D11*
X10663039Y-16889984D02*
X10548753Y-16889984D01*
X10605896Y-16889984D02*
X10605896Y-16689984D01*
X10605896Y-16689984D02*
X10586848Y-16718555D01*
X10586848Y-16718555D02*
X10567801Y-16737603D01*
X10567801Y-16737603D02*
X10548753Y-16747127D01*
X10748753Y-16870936D02*
X10758277Y-16880460D01*
X10758277Y-16880460D02*
X10748753Y-16889984D01*
X10748753Y-16889984D02*
X10739229Y-16880460D01*
X10739229Y-16880460D02*
X10748753Y-16870936D01*
X10748753Y-16870936D02*
X10748753Y-16889984D01*
X10882086Y-16689984D02*
X10901134Y-16689984D01*
X10901134Y-16689984D02*
X10920182Y-16699508D01*
X10920182Y-16699508D02*
X10929705Y-16709031D01*
X10929705Y-16709031D02*
X10939229Y-16728079D01*
X10939229Y-16728079D02*
X10948753Y-16766174D01*
X10948753Y-16766174D02*
X10948753Y-16813793D01*
X10948753Y-16813793D02*
X10939229Y-16851889D01*
X10939229Y-16851889D02*
X10929705Y-16870936D01*
X10929705Y-16870936D02*
X10920182Y-16880460D01*
X10920182Y-16880460D02*
X10901134Y-16889984D01*
X10901134Y-16889984D02*
X10882086Y-16889984D01*
X10882086Y-16889984D02*
X10863039Y-16880460D01*
X10863039Y-16880460D02*
X10853515Y-16870936D01*
X10853515Y-16870936D02*
X10843991Y-16851889D01*
X10843991Y-16851889D02*
X10834467Y-16813793D01*
X10834467Y-16813793D02*
X10834467Y-16766174D01*
X10834467Y-16766174D02*
X10843991Y-16728079D01*
X10843991Y-16728079D02*
X10853515Y-16709031D01*
X10853515Y-16709031D02*
X10863039Y-16699508D01*
X10863039Y-16699508D02*
X10882086Y-16689984D01*
X11072563Y-16689984D02*
X11091610Y-16689984D01*
X11091610Y-16689984D02*
X11110658Y-16699508D01*
X11110658Y-16699508D02*
X11120182Y-16709031D01*
X11120182Y-16709031D02*
X11129705Y-16728079D01*
X11129705Y-16728079D02*
X11139229Y-16766174D01*
X11139229Y-16766174D02*
X11139229Y-16813793D01*
X11139229Y-16813793D02*
X11129705Y-16851889D01*
X11129705Y-16851889D02*
X11120182Y-16870936D01*
X11120182Y-16870936D02*
X11110658Y-16880460D01*
X11110658Y-16880460D02*
X11091610Y-16889984D01*
X11091610Y-16889984D02*
X11072563Y-16889984D01*
X11072563Y-16889984D02*
X11053515Y-16880460D01*
X11053515Y-16880460D02*
X11043991Y-16870936D01*
X11043991Y-16870936D02*
X11034467Y-16851889D01*
X11034467Y-16851889D02*
X11024944Y-16813793D01*
X11024944Y-16813793D02*
X11024944Y-16766174D01*
X11024944Y-16766174D02*
X11034467Y-16728079D01*
X11034467Y-16728079D02*
X11043991Y-16709031D01*
X11043991Y-16709031D02*
X11053515Y-16699508D01*
X11053515Y-16699508D02*
X11072563Y-16689984D01*
X11263039Y-16689984D02*
X11282086Y-16689984D01*
X11282086Y-16689984D02*
X11301134Y-16699508D01*
X11301134Y-16699508D02*
X11310658Y-16709031D01*
X11310658Y-16709031D02*
X11320182Y-16728079D01*
X11320182Y-16728079D02*
X11329705Y-16766174D01*
X11329705Y-16766174D02*
X11329705Y-16813793D01*
X11329705Y-16813793D02*
X11320182Y-16851889D01*
X11320182Y-16851889D02*
X11310658Y-16870936D01*
X11310658Y-16870936D02*
X11301134Y-16880460D01*
X11301134Y-16880460D02*
X11282086Y-16889984D01*
X11282086Y-16889984D02*
X11263039Y-16889984D01*
X11263039Y-16889984D02*
X11243991Y-16880460D01*
X11243991Y-16880460D02*
X11234467Y-16870936D01*
X11234467Y-16870936D02*
X11224943Y-16851889D01*
X11224943Y-16851889D02*
X11215420Y-16813793D01*
X11215420Y-16813793D02*
X11215420Y-16766174D01*
X11215420Y-16766174D02*
X11224943Y-16728079D01*
X11224943Y-16728079D02*
X11234467Y-16709031D01*
X11234467Y-16709031D02*
X11243991Y-16699508D01*
X11243991Y-16699508D02*
X11263039Y-16689984D01*
X11415420Y-16889984D02*
X11415420Y-16756650D01*
X11415420Y-16775698D02*
X11424943Y-16766174D01*
X11424943Y-16766174D02*
X11443991Y-16756650D01*
X11443991Y-16756650D02*
X11472563Y-16756650D01*
X11472563Y-16756650D02*
X11491610Y-16766174D01*
X11491610Y-16766174D02*
X11501134Y-16785222D01*
X11501134Y-16785222D02*
X11501134Y-16889984D01*
X11501134Y-16785222D02*
X11510658Y-16766174D01*
X11510658Y-16766174D02*
X11529705Y-16756650D01*
X11529705Y-16756650D02*
X11558277Y-16756650D01*
X11558277Y-16756650D02*
X11577324Y-16766174D01*
X11577324Y-16766174D02*
X11586848Y-16785222D01*
X11586848Y-16785222D02*
X11586848Y-16889984D01*
X11682086Y-16889984D02*
X11682086Y-16756650D01*
X11682086Y-16775698D02*
X11691610Y-16766174D01*
X11691610Y-16766174D02*
X11710658Y-16756650D01*
X11710658Y-16756650D02*
X11739229Y-16756650D01*
X11739229Y-16756650D02*
X11758277Y-16766174D01*
X11758277Y-16766174D02*
X11767801Y-16785222D01*
X11767801Y-16785222D02*
X11767801Y-16889984D01*
X11767801Y-16785222D02*
X11777324Y-16766174D01*
X11777324Y-16766174D02*
X11796372Y-16756650D01*
X11796372Y-16756650D02*
X11824943Y-16756650D01*
X11824943Y-16756650D02*
X11843991Y-16766174D01*
X11843991Y-16766174D02*
X11853515Y-16785222D01*
X11853515Y-16785222D02*
X11853515Y-16889984D01*
X12243991Y-16680460D02*
X12072563Y-16937603D01*
X12501134Y-16689984D02*
X12520182Y-16689984D01*
X12520182Y-16689984D02*
X12539229Y-16699508D01*
X12539229Y-16699508D02*
X12548753Y-16709031D01*
X12548753Y-16709031D02*
X12558277Y-16728079D01*
X12558277Y-16728079D02*
X12567801Y-16766174D01*
X12567801Y-16766174D02*
X12567801Y-16813793D01*
X12567801Y-16813793D02*
X12558277Y-16851889D01*
X12558277Y-16851889D02*
X12548753Y-16870936D01*
X12548753Y-16870936D02*
X12539229Y-16880460D01*
X12539229Y-16880460D02*
X12520182Y-16889984D01*
X12520182Y-16889984D02*
X12501134Y-16889984D01*
X12501134Y-16889984D02*
X12482086Y-16880460D01*
X12482086Y-16880460D02*
X12472563Y-16870936D01*
X12472563Y-16870936D02*
X12463039Y-16851889D01*
X12463039Y-16851889D02*
X12453515Y-16813793D01*
X12453515Y-16813793D02*
X12453515Y-16766174D01*
X12453515Y-16766174D02*
X12463039Y-16728079D01*
X12463039Y-16728079D02*
X12472563Y-16709031D01*
X12472563Y-16709031D02*
X12482086Y-16699508D01*
X12482086Y-16699508D02*
X12501134Y-16689984D01*
X12653515Y-16870936D02*
X12663039Y-16880460D01*
X12663039Y-16880460D02*
X12653515Y-16889984D01*
X12653515Y-16889984D02*
X12643991Y-16880460D01*
X12643991Y-16880460D02*
X12653515Y-16870936D01*
X12653515Y-16870936D02*
X12653515Y-16889984D01*
X12786848Y-16689984D02*
X12805896Y-16689984D01*
X12805896Y-16689984D02*
X12824944Y-16699508D01*
X12824944Y-16699508D02*
X12834467Y-16709031D01*
X12834467Y-16709031D02*
X12843991Y-16728079D01*
X12843991Y-16728079D02*
X12853515Y-16766174D01*
X12853515Y-16766174D02*
X12853515Y-16813793D01*
X12853515Y-16813793D02*
X12843991Y-16851889D01*
X12843991Y-16851889D02*
X12834467Y-16870936D01*
X12834467Y-16870936D02*
X12824944Y-16880460D01*
X12824944Y-16880460D02*
X12805896Y-16889984D01*
X12805896Y-16889984D02*
X12786848Y-16889984D01*
X12786848Y-16889984D02*
X12767801Y-16880460D01*
X12767801Y-16880460D02*
X12758277Y-16870936D01*
X12758277Y-16870936D02*
X12748753Y-16851889D01*
X12748753Y-16851889D02*
X12739229Y-16813793D01*
X12739229Y-16813793D02*
X12739229Y-16766174D01*
X12739229Y-16766174D02*
X12748753Y-16728079D01*
X12748753Y-16728079D02*
X12758277Y-16709031D01*
X12758277Y-16709031D02*
X12767801Y-16699508D01*
X12767801Y-16699508D02*
X12786848Y-16689984D01*
X12920182Y-16689984D02*
X13043991Y-16689984D01*
X13043991Y-16689984D02*
X12977325Y-16766174D01*
X12977325Y-16766174D02*
X13005896Y-16766174D01*
X13005896Y-16766174D02*
X13024944Y-16775698D01*
X13024944Y-16775698D02*
X13034467Y-16785222D01*
X13034467Y-16785222D02*
X13043991Y-16804270D01*
X13043991Y-16804270D02*
X13043991Y-16851889D01*
X13043991Y-16851889D02*
X13034467Y-16870936D01*
X13034467Y-16870936D02*
X13024944Y-16880460D01*
X13024944Y-16880460D02*
X13005896Y-16889984D01*
X13005896Y-16889984D02*
X12948753Y-16889984D01*
X12948753Y-16889984D02*
X12929706Y-16880460D01*
X12929706Y-16880460D02*
X12920182Y-16870936D01*
X13139229Y-16889984D02*
X13177325Y-16889984D01*
X13177325Y-16889984D02*
X13196372Y-16880460D01*
X13196372Y-16880460D02*
X13205896Y-16870936D01*
X13205896Y-16870936D02*
X13224944Y-16842365D01*
X13224944Y-16842365D02*
X13234467Y-16804270D01*
X13234467Y-16804270D02*
X13234467Y-16728079D01*
X13234467Y-16728079D02*
X13224944Y-16709031D01*
X13224944Y-16709031D02*
X13215420Y-16699508D01*
X13215420Y-16699508D02*
X13196372Y-16689984D01*
X13196372Y-16689984D02*
X13158277Y-16689984D01*
X13158277Y-16689984D02*
X13139229Y-16699508D01*
X13139229Y-16699508D02*
X13129706Y-16709031D01*
X13129706Y-16709031D02*
X13120182Y-16728079D01*
X13120182Y-16728079D02*
X13120182Y-16775698D01*
X13120182Y-16775698D02*
X13129706Y-16794746D01*
X13129706Y-16794746D02*
X13139229Y-16804270D01*
X13139229Y-16804270D02*
X13158277Y-16813793D01*
X13158277Y-16813793D02*
X13196372Y-16813793D01*
X13196372Y-16813793D02*
X13215420Y-16804270D01*
X13215420Y-16804270D02*
X13224944Y-16794746D01*
X13224944Y-16794746D02*
X13234467Y-16775698D01*
X13405896Y-16756650D02*
X13405896Y-16889984D01*
X13358277Y-16680460D02*
X13310658Y-16823317D01*
X13310658Y-16823317D02*
X13434467Y-16823317D01*
X13501134Y-16689984D02*
X13501134Y-16728079D01*
X13577325Y-16689984D02*
X13577325Y-16728079D01*
X13872563Y-16966174D02*
X13863039Y-16956650D01*
X13863039Y-16956650D02*
X13843991Y-16928079D01*
X13843991Y-16928079D02*
X13834468Y-16909031D01*
X13834468Y-16909031D02*
X13824944Y-16880460D01*
X13824944Y-16880460D02*
X13815420Y-16832841D01*
X13815420Y-16832841D02*
X13815420Y-16794746D01*
X13815420Y-16794746D02*
X13824944Y-16747127D01*
X13824944Y-16747127D02*
X13834468Y-16718555D01*
X13834468Y-16718555D02*
X13843991Y-16699508D01*
X13843991Y-16699508D02*
X13863039Y-16670936D01*
X13863039Y-16670936D02*
X13872563Y-16661412D01*
X14053515Y-16889984D02*
X13939229Y-16889984D01*
X13996372Y-16889984D02*
X13996372Y-16689984D01*
X13996372Y-16689984D02*
X13977325Y-16718555D01*
X13977325Y-16718555D02*
X13958277Y-16737603D01*
X13958277Y-16737603D02*
X13939229Y-16747127D01*
X14234468Y-16689984D02*
X14139229Y-16689984D01*
X14139229Y-16689984D02*
X14129706Y-16785222D01*
X14129706Y-16785222D02*
X14139229Y-16775698D01*
X14139229Y-16775698D02*
X14158277Y-16766174D01*
X14158277Y-16766174D02*
X14205896Y-16766174D01*
X14205896Y-16766174D02*
X14224944Y-16775698D01*
X14224944Y-16775698D02*
X14234468Y-16785222D01*
X14234468Y-16785222D02*
X14243991Y-16804270D01*
X14243991Y-16804270D02*
X14243991Y-16851889D01*
X14243991Y-16851889D02*
X14234468Y-16870936D01*
X14234468Y-16870936D02*
X14224944Y-16880460D01*
X14224944Y-16880460D02*
X14205896Y-16889984D01*
X14205896Y-16889984D02*
X14158277Y-16889984D01*
X14158277Y-16889984D02*
X14139229Y-16880460D01*
X14139229Y-16880460D02*
X14129706Y-16870936D01*
X14310658Y-16689984D02*
X14434468Y-16689984D01*
X14434468Y-16689984D02*
X14367801Y-16766174D01*
X14367801Y-16766174D02*
X14396372Y-16766174D01*
X14396372Y-16766174D02*
X14415420Y-16775698D01*
X14415420Y-16775698D02*
X14424944Y-16785222D01*
X14424944Y-16785222D02*
X14434468Y-16804270D01*
X14434468Y-16804270D02*
X14434468Y-16851889D01*
X14434468Y-16851889D02*
X14424944Y-16870936D01*
X14424944Y-16870936D02*
X14415420Y-16880460D01*
X14415420Y-16880460D02*
X14396372Y-16889984D01*
X14396372Y-16889984D02*
X14339229Y-16889984D01*
X14339229Y-16889984D02*
X14320182Y-16880460D01*
X14320182Y-16880460D02*
X14310658Y-16870936D01*
X14672563Y-16889984D02*
X14672563Y-16689984D01*
X14758277Y-16889984D02*
X14758277Y-16785222D01*
X14758277Y-16785222D02*
X14748753Y-16766174D01*
X14748753Y-16766174D02*
X14729706Y-16756650D01*
X14729706Y-16756650D02*
X14701134Y-16756650D01*
X14701134Y-16756650D02*
X14682087Y-16766174D01*
X14682087Y-16766174D02*
X14672563Y-16775698D01*
X14882087Y-16889984D02*
X14863039Y-16880460D01*
X14863039Y-16880460D02*
X14853515Y-16870936D01*
X14853515Y-16870936D02*
X14843991Y-16851889D01*
X14843991Y-16851889D02*
X14843991Y-16794746D01*
X14843991Y-16794746D02*
X14853515Y-16775698D01*
X14853515Y-16775698D02*
X14863039Y-16766174D01*
X14863039Y-16766174D02*
X14882087Y-16756650D01*
X14882087Y-16756650D02*
X14910658Y-16756650D01*
X14910658Y-16756650D02*
X14929706Y-16766174D01*
X14929706Y-16766174D02*
X14939230Y-16775698D01*
X14939230Y-16775698D02*
X14948753Y-16794746D01*
X14948753Y-16794746D02*
X14948753Y-16851889D01*
X14948753Y-16851889D02*
X14939230Y-16870936D01*
X14939230Y-16870936D02*
X14929706Y-16880460D01*
X14929706Y-16880460D02*
X14910658Y-16889984D01*
X14910658Y-16889984D02*
X14882087Y-16889984D01*
X15063039Y-16889984D02*
X15043991Y-16880460D01*
X15043991Y-16880460D02*
X15034468Y-16861412D01*
X15034468Y-16861412D02*
X15034468Y-16689984D01*
X15215420Y-16880460D02*
X15196372Y-16889984D01*
X15196372Y-16889984D02*
X15158277Y-16889984D01*
X15158277Y-16889984D02*
X15139230Y-16880460D01*
X15139230Y-16880460D02*
X15129706Y-16861412D01*
X15129706Y-16861412D02*
X15129706Y-16785222D01*
X15129706Y-16785222D02*
X15139230Y-16766174D01*
X15139230Y-16766174D02*
X15158277Y-16756650D01*
X15158277Y-16756650D02*
X15196372Y-16756650D01*
X15196372Y-16756650D02*
X15215420Y-16766174D01*
X15215420Y-16766174D02*
X15224944Y-16785222D01*
X15224944Y-16785222D02*
X15224944Y-16804270D01*
X15224944Y-16804270D02*
X15129706Y-16823317D01*
X15301134Y-16880460D02*
X15320182Y-16889984D01*
X15320182Y-16889984D02*
X15358277Y-16889984D01*
X15358277Y-16889984D02*
X15377325Y-16880460D01*
X15377325Y-16880460D02*
X15386849Y-16861412D01*
X15386849Y-16861412D02*
X15386849Y-16851889D01*
X15386849Y-16851889D02*
X15377325Y-16832841D01*
X15377325Y-16832841D02*
X15358277Y-16823317D01*
X15358277Y-16823317D02*
X15329706Y-16823317D01*
X15329706Y-16823317D02*
X15310658Y-16813793D01*
X15310658Y-16813793D02*
X15301134Y-16794746D01*
X15301134Y-16794746D02*
X15301134Y-16785222D01*
X15301134Y-16785222D02*
X15310658Y-16766174D01*
X15310658Y-16766174D02*
X15329706Y-16756650D01*
X15329706Y-16756650D02*
X15358277Y-16756650D01*
X15358277Y-16756650D02*
X15377325Y-16766174D01*
X15453515Y-16966174D02*
X15463039Y-16956650D01*
X15463039Y-16956650D02*
X15482087Y-16928079D01*
X15482087Y-16928079D02*
X15491611Y-16909031D01*
X15491611Y-16909031D02*
X15501134Y-16880460D01*
X15501134Y-16880460D02*
X15510658Y-16832841D01*
X15510658Y-16832841D02*
X15510658Y-16794746D01*
X15510658Y-16794746D02*
X15501134Y-16747127D01*
X15501134Y-16747127D02*
X15491611Y-16718555D01*
X15491611Y-16718555D02*
X15482087Y-16699508D01*
X15482087Y-16699508D02*
X15463039Y-16670936D01*
X15463039Y-16670936D02*
X15453515Y-16661412D01*
D13*
X10195500Y-17011500D02*
X10297500Y-17113500D01*
X10297500Y-17011500D02*
X10195500Y-17113500D01*
X10297500Y-17062500D02*
G75*
G02*
X10195500Y-17062500I-51000J0D01*
G01*
X10195500Y-17062500D02*
G75*
G02*
X10297500Y-17062500I51000J0D01*
G01*
D11*
X10663039Y-17153984D02*
X10548753Y-17153984D01*
X10605896Y-17153984D02*
X10605896Y-16953984D01*
X10605896Y-16953984D02*
X10586848Y-16982555D01*
X10586848Y-16982555D02*
X10567801Y-17001603D01*
X10567801Y-17001603D02*
X10548753Y-17011127D01*
X10748753Y-17134936D02*
X10758277Y-17144460D01*
X10758277Y-17144460D02*
X10748753Y-17153984D01*
X10748753Y-17153984D02*
X10739229Y-17144460D01*
X10739229Y-17144460D02*
X10748753Y-17134936D01*
X10748753Y-17134936D02*
X10748753Y-17153984D01*
X10882086Y-16953984D02*
X10901134Y-16953984D01*
X10901134Y-16953984D02*
X10920182Y-16963508D01*
X10920182Y-16963508D02*
X10929705Y-16973031D01*
X10929705Y-16973031D02*
X10939229Y-16992079D01*
X10939229Y-16992079D02*
X10948753Y-17030174D01*
X10948753Y-17030174D02*
X10948753Y-17077793D01*
X10948753Y-17077793D02*
X10939229Y-17115889D01*
X10939229Y-17115889D02*
X10929705Y-17134936D01*
X10929705Y-17134936D02*
X10920182Y-17144460D01*
X10920182Y-17144460D02*
X10901134Y-17153984D01*
X10901134Y-17153984D02*
X10882086Y-17153984D01*
X10882086Y-17153984D02*
X10863039Y-17144460D01*
X10863039Y-17144460D02*
X10853515Y-17134936D01*
X10853515Y-17134936D02*
X10843991Y-17115889D01*
X10843991Y-17115889D02*
X10834467Y-17077793D01*
X10834467Y-17077793D02*
X10834467Y-17030174D01*
X10834467Y-17030174D02*
X10843991Y-16992079D01*
X10843991Y-16992079D02*
X10853515Y-16973031D01*
X10853515Y-16973031D02*
X10863039Y-16963508D01*
X10863039Y-16963508D02*
X10882086Y-16953984D01*
X11024944Y-16973031D02*
X11034467Y-16963508D01*
X11034467Y-16963508D02*
X11053515Y-16953984D01*
X11053515Y-16953984D02*
X11101134Y-16953984D01*
X11101134Y-16953984D02*
X11120182Y-16963508D01*
X11120182Y-16963508D02*
X11129705Y-16973031D01*
X11129705Y-16973031D02*
X11139229Y-16992079D01*
X11139229Y-16992079D02*
X11139229Y-17011127D01*
X11139229Y-17011127D02*
X11129705Y-17039698D01*
X11129705Y-17039698D02*
X11015420Y-17153984D01*
X11015420Y-17153984D02*
X11139229Y-17153984D01*
X11263039Y-16953984D02*
X11282086Y-16953984D01*
X11282086Y-16953984D02*
X11301134Y-16963508D01*
X11301134Y-16963508D02*
X11310658Y-16973031D01*
X11310658Y-16973031D02*
X11320182Y-16992079D01*
X11320182Y-16992079D02*
X11329705Y-17030174D01*
X11329705Y-17030174D02*
X11329705Y-17077793D01*
X11329705Y-17077793D02*
X11320182Y-17115889D01*
X11320182Y-17115889D02*
X11310658Y-17134936D01*
X11310658Y-17134936D02*
X11301134Y-17144460D01*
X11301134Y-17144460D02*
X11282086Y-17153984D01*
X11282086Y-17153984D02*
X11263039Y-17153984D01*
X11263039Y-17153984D02*
X11243991Y-17144460D01*
X11243991Y-17144460D02*
X11234467Y-17134936D01*
X11234467Y-17134936D02*
X11224943Y-17115889D01*
X11224943Y-17115889D02*
X11215420Y-17077793D01*
X11215420Y-17077793D02*
X11215420Y-17030174D01*
X11215420Y-17030174D02*
X11224943Y-16992079D01*
X11224943Y-16992079D02*
X11234467Y-16973031D01*
X11234467Y-16973031D02*
X11243991Y-16963508D01*
X11243991Y-16963508D02*
X11263039Y-16953984D01*
X11415420Y-17153984D02*
X11415420Y-17020650D01*
X11415420Y-17039698D02*
X11424943Y-17030174D01*
X11424943Y-17030174D02*
X11443991Y-17020650D01*
X11443991Y-17020650D02*
X11472563Y-17020650D01*
X11472563Y-17020650D02*
X11491610Y-17030174D01*
X11491610Y-17030174D02*
X11501134Y-17049222D01*
X11501134Y-17049222D02*
X11501134Y-17153984D01*
X11501134Y-17049222D02*
X11510658Y-17030174D01*
X11510658Y-17030174D02*
X11529705Y-17020650D01*
X11529705Y-17020650D02*
X11558277Y-17020650D01*
X11558277Y-17020650D02*
X11577324Y-17030174D01*
X11577324Y-17030174D02*
X11586848Y-17049222D01*
X11586848Y-17049222D02*
X11586848Y-17153984D01*
X11682086Y-17153984D02*
X11682086Y-17020650D01*
X11682086Y-17039698D02*
X11691610Y-17030174D01*
X11691610Y-17030174D02*
X11710658Y-17020650D01*
X11710658Y-17020650D02*
X11739229Y-17020650D01*
X11739229Y-17020650D02*
X11758277Y-17030174D01*
X11758277Y-17030174D02*
X11767801Y-17049222D01*
X11767801Y-17049222D02*
X11767801Y-17153984D01*
X11767801Y-17049222D02*
X11777324Y-17030174D01*
X11777324Y-17030174D02*
X11796372Y-17020650D01*
X11796372Y-17020650D02*
X11824943Y-17020650D01*
X11824943Y-17020650D02*
X11843991Y-17030174D01*
X11843991Y-17030174D02*
X11853515Y-17049222D01*
X11853515Y-17049222D02*
X11853515Y-17153984D01*
X12243991Y-16944460D02*
X12072563Y-17201603D01*
X12501134Y-16953984D02*
X12520182Y-16953984D01*
X12520182Y-16953984D02*
X12539229Y-16963508D01*
X12539229Y-16963508D02*
X12548753Y-16973031D01*
X12548753Y-16973031D02*
X12558277Y-16992079D01*
X12558277Y-16992079D02*
X12567801Y-17030174D01*
X12567801Y-17030174D02*
X12567801Y-17077793D01*
X12567801Y-17077793D02*
X12558277Y-17115889D01*
X12558277Y-17115889D02*
X12548753Y-17134936D01*
X12548753Y-17134936D02*
X12539229Y-17144460D01*
X12539229Y-17144460D02*
X12520182Y-17153984D01*
X12520182Y-17153984D02*
X12501134Y-17153984D01*
X12501134Y-17153984D02*
X12482086Y-17144460D01*
X12482086Y-17144460D02*
X12472563Y-17134936D01*
X12472563Y-17134936D02*
X12463039Y-17115889D01*
X12463039Y-17115889D02*
X12453515Y-17077793D01*
X12453515Y-17077793D02*
X12453515Y-17030174D01*
X12453515Y-17030174D02*
X12463039Y-16992079D01*
X12463039Y-16992079D02*
X12472563Y-16973031D01*
X12472563Y-16973031D02*
X12482086Y-16963508D01*
X12482086Y-16963508D02*
X12501134Y-16953984D01*
X12653515Y-17134936D02*
X12663039Y-17144460D01*
X12663039Y-17144460D02*
X12653515Y-17153984D01*
X12653515Y-17153984D02*
X12643991Y-17144460D01*
X12643991Y-17144460D02*
X12653515Y-17134936D01*
X12653515Y-17134936D02*
X12653515Y-17153984D01*
X12786848Y-16953984D02*
X12805896Y-16953984D01*
X12805896Y-16953984D02*
X12824944Y-16963508D01*
X12824944Y-16963508D02*
X12834467Y-16973031D01*
X12834467Y-16973031D02*
X12843991Y-16992079D01*
X12843991Y-16992079D02*
X12853515Y-17030174D01*
X12853515Y-17030174D02*
X12853515Y-17077793D01*
X12853515Y-17077793D02*
X12843991Y-17115889D01*
X12843991Y-17115889D02*
X12834467Y-17134936D01*
X12834467Y-17134936D02*
X12824944Y-17144460D01*
X12824944Y-17144460D02*
X12805896Y-17153984D01*
X12805896Y-17153984D02*
X12786848Y-17153984D01*
X12786848Y-17153984D02*
X12767801Y-17144460D01*
X12767801Y-17144460D02*
X12758277Y-17134936D01*
X12758277Y-17134936D02*
X12748753Y-17115889D01*
X12748753Y-17115889D02*
X12739229Y-17077793D01*
X12739229Y-17077793D02*
X12739229Y-17030174D01*
X12739229Y-17030174D02*
X12748753Y-16992079D01*
X12748753Y-16992079D02*
X12758277Y-16973031D01*
X12758277Y-16973031D02*
X12767801Y-16963508D01*
X12767801Y-16963508D02*
X12786848Y-16953984D01*
X13024944Y-17020650D02*
X13024944Y-17153984D01*
X12977325Y-16944460D02*
X12929706Y-17087317D01*
X12929706Y-17087317D02*
X13053515Y-17087317D01*
X13167801Y-16953984D02*
X13186848Y-16953984D01*
X13186848Y-16953984D02*
X13205896Y-16963508D01*
X13205896Y-16963508D02*
X13215420Y-16973031D01*
X13215420Y-16973031D02*
X13224944Y-16992079D01*
X13224944Y-16992079D02*
X13234467Y-17030174D01*
X13234467Y-17030174D02*
X13234467Y-17077793D01*
X13234467Y-17077793D02*
X13224944Y-17115889D01*
X13224944Y-17115889D02*
X13215420Y-17134936D01*
X13215420Y-17134936D02*
X13205896Y-17144460D01*
X13205896Y-17144460D02*
X13186848Y-17153984D01*
X13186848Y-17153984D02*
X13167801Y-17153984D01*
X13167801Y-17153984D02*
X13148753Y-17144460D01*
X13148753Y-17144460D02*
X13139229Y-17134936D01*
X13139229Y-17134936D02*
X13129706Y-17115889D01*
X13129706Y-17115889D02*
X13120182Y-17077793D01*
X13120182Y-17077793D02*
X13120182Y-17030174D01*
X13120182Y-17030174D02*
X13129706Y-16992079D01*
X13129706Y-16992079D02*
X13139229Y-16973031D01*
X13139229Y-16973031D02*
X13148753Y-16963508D01*
X13148753Y-16963508D02*
X13167801Y-16953984D01*
X13310658Y-16973031D02*
X13320182Y-16963508D01*
X13320182Y-16963508D02*
X13339229Y-16953984D01*
X13339229Y-16953984D02*
X13386848Y-16953984D01*
X13386848Y-16953984D02*
X13405896Y-16963508D01*
X13405896Y-16963508D02*
X13415420Y-16973031D01*
X13415420Y-16973031D02*
X13424944Y-16992079D01*
X13424944Y-16992079D02*
X13424944Y-17011127D01*
X13424944Y-17011127D02*
X13415420Y-17039698D01*
X13415420Y-17039698D02*
X13301134Y-17153984D01*
X13301134Y-17153984D02*
X13424944Y-17153984D01*
X13501134Y-16953984D02*
X13501134Y-16992079D01*
X13577325Y-16953984D02*
X13577325Y-16992079D01*
X13872563Y-17230174D02*
X13863039Y-17220650D01*
X13863039Y-17220650D02*
X13843991Y-17192079D01*
X13843991Y-17192079D02*
X13834468Y-17173031D01*
X13834468Y-17173031D02*
X13824944Y-17144460D01*
X13824944Y-17144460D02*
X13815420Y-17096841D01*
X13815420Y-17096841D02*
X13815420Y-17058746D01*
X13815420Y-17058746D02*
X13824944Y-17011127D01*
X13824944Y-17011127D02*
X13834468Y-16982555D01*
X13834468Y-16982555D02*
X13843991Y-16963508D01*
X13843991Y-16963508D02*
X13863039Y-16934936D01*
X13863039Y-16934936D02*
X13872563Y-16925412D01*
X13929706Y-16953984D02*
X14053515Y-16953984D01*
X14053515Y-16953984D02*
X13986848Y-17030174D01*
X13986848Y-17030174D02*
X14015420Y-17030174D01*
X14015420Y-17030174D02*
X14034468Y-17039698D01*
X14034468Y-17039698D02*
X14043991Y-17049222D01*
X14043991Y-17049222D02*
X14053515Y-17068270D01*
X14053515Y-17068270D02*
X14053515Y-17115889D01*
X14053515Y-17115889D02*
X14043991Y-17134936D01*
X14043991Y-17134936D02*
X14034468Y-17144460D01*
X14034468Y-17144460D02*
X14015420Y-17153984D01*
X14015420Y-17153984D02*
X13958277Y-17153984D01*
X13958277Y-17153984D02*
X13939229Y-17144460D01*
X13939229Y-17144460D02*
X13929706Y-17134936D01*
X14177325Y-16953984D02*
X14196372Y-16953984D01*
X14196372Y-16953984D02*
X14215420Y-16963508D01*
X14215420Y-16963508D02*
X14224944Y-16973031D01*
X14224944Y-16973031D02*
X14234468Y-16992079D01*
X14234468Y-16992079D02*
X14243991Y-17030174D01*
X14243991Y-17030174D02*
X14243991Y-17077793D01*
X14243991Y-17077793D02*
X14234468Y-17115889D01*
X14234468Y-17115889D02*
X14224944Y-17134936D01*
X14224944Y-17134936D02*
X14215420Y-17144460D01*
X14215420Y-17144460D02*
X14196372Y-17153984D01*
X14196372Y-17153984D02*
X14177325Y-17153984D01*
X14177325Y-17153984D02*
X14158277Y-17144460D01*
X14158277Y-17144460D02*
X14148753Y-17134936D01*
X14148753Y-17134936D02*
X14139229Y-17115889D01*
X14139229Y-17115889D02*
X14129706Y-17077793D01*
X14129706Y-17077793D02*
X14129706Y-17030174D01*
X14129706Y-17030174D02*
X14139229Y-16992079D01*
X14139229Y-16992079D02*
X14148753Y-16973031D01*
X14148753Y-16973031D02*
X14158277Y-16963508D01*
X14158277Y-16963508D02*
X14177325Y-16953984D01*
X14482087Y-17153984D02*
X14482087Y-16953984D01*
X14567801Y-17153984D02*
X14567801Y-17049222D01*
X14567801Y-17049222D02*
X14558277Y-17030174D01*
X14558277Y-17030174D02*
X14539230Y-17020650D01*
X14539230Y-17020650D02*
X14510658Y-17020650D01*
X14510658Y-17020650D02*
X14491610Y-17030174D01*
X14491610Y-17030174D02*
X14482087Y-17039698D01*
X14691610Y-17153984D02*
X14672563Y-17144460D01*
X14672563Y-17144460D02*
X14663039Y-17134936D01*
X14663039Y-17134936D02*
X14653515Y-17115889D01*
X14653515Y-17115889D02*
X14653515Y-17058746D01*
X14653515Y-17058746D02*
X14663039Y-17039698D01*
X14663039Y-17039698D02*
X14672563Y-17030174D01*
X14672563Y-17030174D02*
X14691610Y-17020650D01*
X14691610Y-17020650D02*
X14720182Y-17020650D01*
X14720182Y-17020650D02*
X14739230Y-17030174D01*
X14739230Y-17030174D02*
X14748753Y-17039698D01*
X14748753Y-17039698D02*
X14758277Y-17058746D01*
X14758277Y-17058746D02*
X14758277Y-17115889D01*
X14758277Y-17115889D02*
X14748753Y-17134936D01*
X14748753Y-17134936D02*
X14739230Y-17144460D01*
X14739230Y-17144460D02*
X14720182Y-17153984D01*
X14720182Y-17153984D02*
X14691610Y-17153984D01*
X14872563Y-17153984D02*
X14853515Y-17144460D01*
X14853515Y-17144460D02*
X14843991Y-17125412D01*
X14843991Y-17125412D02*
X14843991Y-16953984D01*
X15024944Y-17144460D02*
X15005896Y-17153984D01*
X15005896Y-17153984D02*
X14967801Y-17153984D01*
X14967801Y-17153984D02*
X14948753Y-17144460D01*
X14948753Y-17144460D02*
X14939230Y-17125412D01*
X14939230Y-17125412D02*
X14939230Y-17049222D01*
X14939230Y-17049222D02*
X14948753Y-17030174D01*
X14948753Y-17030174D02*
X14967801Y-17020650D01*
X14967801Y-17020650D02*
X15005896Y-17020650D01*
X15005896Y-17020650D02*
X15024944Y-17030174D01*
X15024944Y-17030174D02*
X15034468Y-17049222D01*
X15034468Y-17049222D02*
X15034468Y-17068270D01*
X15034468Y-17068270D02*
X14939230Y-17087317D01*
X15110658Y-17144460D02*
X15129706Y-17153984D01*
X15129706Y-17153984D02*
X15167801Y-17153984D01*
X15167801Y-17153984D02*
X15186849Y-17144460D01*
X15186849Y-17144460D02*
X15196372Y-17125412D01*
X15196372Y-17125412D02*
X15196372Y-17115889D01*
X15196372Y-17115889D02*
X15186849Y-17096841D01*
X15186849Y-17096841D02*
X15167801Y-17087317D01*
X15167801Y-17087317D02*
X15139230Y-17087317D01*
X15139230Y-17087317D02*
X15120182Y-17077793D01*
X15120182Y-17077793D02*
X15110658Y-17058746D01*
X15110658Y-17058746D02*
X15110658Y-17049222D01*
X15110658Y-17049222D02*
X15120182Y-17030174D01*
X15120182Y-17030174D02*
X15139230Y-17020650D01*
X15139230Y-17020650D02*
X15167801Y-17020650D01*
X15167801Y-17020650D02*
X15186849Y-17030174D01*
X15263039Y-17230174D02*
X15272563Y-17220650D01*
X15272563Y-17220650D02*
X15291611Y-17192079D01*
X15291611Y-17192079D02*
X15301134Y-17173031D01*
X15301134Y-17173031D02*
X15310658Y-17144460D01*
X15310658Y-17144460D02*
X15320182Y-17096841D01*
X15320182Y-17096841D02*
X15320182Y-17058746D01*
X15320182Y-17058746D02*
X15310658Y-17011127D01*
X15310658Y-17011127D02*
X15301134Y-16982555D01*
X15301134Y-16982555D02*
X15291611Y-16963508D01*
X15291611Y-16963508D02*
X15272563Y-16934936D01*
X15272563Y-16934936D02*
X15263039Y-16925412D01*
D14*
X10187500Y-17271500D02*
X10297500Y-17381500D01*
X10297500Y-17271500D02*
X10187500Y-17381500D01*
X10242500Y-17271500D02*
X10242500Y-17381500D01*
X10187500Y-17326500D02*
X10297500Y-17326500D01*
D11*
X10663039Y-17417984D02*
X10548753Y-17417984D01*
X10605896Y-17417984D02*
X10605896Y-17217984D01*
X10605896Y-17217984D02*
X10586848Y-17246555D01*
X10586848Y-17246555D02*
X10567801Y-17265603D01*
X10567801Y-17265603D02*
X10548753Y-17275127D01*
X10748753Y-17398936D02*
X10758277Y-17408460D01*
X10758277Y-17408460D02*
X10748753Y-17417984D01*
X10748753Y-17417984D02*
X10739229Y-17408460D01*
X10739229Y-17408460D02*
X10748753Y-17398936D01*
X10748753Y-17398936D02*
X10748753Y-17417984D01*
X10948753Y-17417984D02*
X10834467Y-17417984D01*
X10891610Y-17417984D02*
X10891610Y-17217984D01*
X10891610Y-17217984D02*
X10872563Y-17246555D01*
X10872563Y-17246555D02*
X10853515Y-17265603D01*
X10853515Y-17265603D02*
X10834467Y-17275127D01*
X11072563Y-17217984D02*
X11091610Y-17217984D01*
X11091610Y-17217984D02*
X11110658Y-17227508D01*
X11110658Y-17227508D02*
X11120182Y-17237031D01*
X11120182Y-17237031D02*
X11129705Y-17256079D01*
X11129705Y-17256079D02*
X11139229Y-17294174D01*
X11139229Y-17294174D02*
X11139229Y-17341793D01*
X11139229Y-17341793D02*
X11129705Y-17379889D01*
X11129705Y-17379889D02*
X11120182Y-17398936D01*
X11120182Y-17398936D02*
X11110658Y-17408460D01*
X11110658Y-17408460D02*
X11091610Y-17417984D01*
X11091610Y-17417984D02*
X11072563Y-17417984D01*
X11072563Y-17417984D02*
X11053515Y-17408460D01*
X11053515Y-17408460D02*
X11043991Y-17398936D01*
X11043991Y-17398936D02*
X11034467Y-17379889D01*
X11034467Y-17379889D02*
X11024944Y-17341793D01*
X11024944Y-17341793D02*
X11024944Y-17294174D01*
X11024944Y-17294174D02*
X11034467Y-17256079D01*
X11034467Y-17256079D02*
X11043991Y-17237031D01*
X11043991Y-17237031D02*
X11053515Y-17227508D01*
X11053515Y-17227508D02*
X11072563Y-17217984D01*
X11263039Y-17217984D02*
X11282086Y-17217984D01*
X11282086Y-17217984D02*
X11301134Y-17227508D01*
X11301134Y-17227508D02*
X11310658Y-17237031D01*
X11310658Y-17237031D02*
X11320182Y-17256079D01*
X11320182Y-17256079D02*
X11329705Y-17294174D01*
X11329705Y-17294174D02*
X11329705Y-17341793D01*
X11329705Y-17341793D02*
X11320182Y-17379889D01*
X11320182Y-17379889D02*
X11310658Y-17398936D01*
X11310658Y-17398936D02*
X11301134Y-17408460D01*
X11301134Y-17408460D02*
X11282086Y-17417984D01*
X11282086Y-17417984D02*
X11263039Y-17417984D01*
X11263039Y-17417984D02*
X11243991Y-17408460D01*
X11243991Y-17408460D02*
X11234467Y-17398936D01*
X11234467Y-17398936D02*
X11224943Y-17379889D01*
X11224943Y-17379889D02*
X11215420Y-17341793D01*
X11215420Y-17341793D02*
X11215420Y-17294174D01*
X11215420Y-17294174D02*
X11224943Y-17256079D01*
X11224943Y-17256079D02*
X11234467Y-17237031D01*
X11234467Y-17237031D02*
X11243991Y-17227508D01*
X11243991Y-17227508D02*
X11263039Y-17217984D01*
X11415420Y-17417984D02*
X11415420Y-17284650D01*
X11415420Y-17303698D02*
X11424943Y-17294174D01*
X11424943Y-17294174D02*
X11443991Y-17284650D01*
X11443991Y-17284650D02*
X11472563Y-17284650D01*
X11472563Y-17284650D02*
X11491610Y-17294174D01*
X11491610Y-17294174D02*
X11501134Y-17313222D01*
X11501134Y-17313222D02*
X11501134Y-17417984D01*
X11501134Y-17313222D02*
X11510658Y-17294174D01*
X11510658Y-17294174D02*
X11529705Y-17284650D01*
X11529705Y-17284650D02*
X11558277Y-17284650D01*
X11558277Y-17284650D02*
X11577324Y-17294174D01*
X11577324Y-17294174D02*
X11586848Y-17313222D01*
X11586848Y-17313222D02*
X11586848Y-17417984D01*
X11682086Y-17417984D02*
X11682086Y-17284650D01*
X11682086Y-17303698D02*
X11691610Y-17294174D01*
X11691610Y-17294174D02*
X11710658Y-17284650D01*
X11710658Y-17284650D02*
X11739229Y-17284650D01*
X11739229Y-17284650D02*
X11758277Y-17294174D01*
X11758277Y-17294174D02*
X11767801Y-17313222D01*
X11767801Y-17313222D02*
X11767801Y-17417984D01*
X11767801Y-17313222D02*
X11777324Y-17294174D01*
X11777324Y-17294174D02*
X11796372Y-17284650D01*
X11796372Y-17284650D02*
X11824943Y-17284650D01*
X11824943Y-17284650D02*
X11843991Y-17294174D01*
X11843991Y-17294174D02*
X11853515Y-17313222D01*
X11853515Y-17313222D02*
X11853515Y-17417984D01*
X12243991Y-17208460D02*
X12072563Y-17465603D01*
X12501134Y-17217984D02*
X12520182Y-17217984D01*
X12520182Y-17217984D02*
X12539229Y-17227508D01*
X12539229Y-17227508D02*
X12548753Y-17237031D01*
X12548753Y-17237031D02*
X12558277Y-17256079D01*
X12558277Y-17256079D02*
X12567801Y-17294174D01*
X12567801Y-17294174D02*
X12567801Y-17341793D01*
X12567801Y-17341793D02*
X12558277Y-17379889D01*
X12558277Y-17379889D02*
X12548753Y-17398936D01*
X12548753Y-17398936D02*
X12539229Y-17408460D01*
X12539229Y-17408460D02*
X12520182Y-17417984D01*
X12520182Y-17417984D02*
X12501134Y-17417984D01*
X12501134Y-17417984D02*
X12482086Y-17408460D01*
X12482086Y-17408460D02*
X12472563Y-17398936D01*
X12472563Y-17398936D02*
X12463039Y-17379889D01*
X12463039Y-17379889D02*
X12453515Y-17341793D01*
X12453515Y-17341793D02*
X12453515Y-17294174D01*
X12453515Y-17294174D02*
X12463039Y-17256079D01*
X12463039Y-17256079D02*
X12472563Y-17237031D01*
X12472563Y-17237031D02*
X12482086Y-17227508D01*
X12482086Y-17227508D02*
X12501134Y-17217984D01*
X12653515Y-17398936D02*
X12663039Y-17408460D01*
X12663039Y-17408460D02*
X12653515Y-17417984D01*
X12653515Y-17417984D02*
X12643991Y-17408460D01*
X12643991Y-17408460D02*
X12653515Y-17398936D01*
X12653515Y-17398936D02*
X12653515Y-17417984D01*
X12786848Y-17217984D02*
X12805896Y-17217984D01*
X12805896Y-17217984D02*
X12824944Y-17227508D01*
X12824944Y-17227508D02*
X12834467Y-17237031D01*
X12834467Y-17237031D02*
X12843991Y-17256079D01*
X12843991Y-17256079D02*
X12853515Y-17294174D01*
X12853515Y-17294174D02*
X12853515Y-17341793D01*
X12853515Y-17341793D02*
X12843991Y-17379889D01*
X12843991Y-17379889D02*
X12834467Y-17398936D01*
X12834467Y-17398936D02*
X12824944Y-17408460D01*
X12824944Y-17408460D02*
X12805896Y-17417984D01*
X12805896Y-17417984D02*
X12786848Y-17417984D01*
X12786848Y-17417984D02*
X12767801Y-17408460D01*
X12767801Y-17408460D02*
X12758277Y-17398936D01*
X12758277Y-17398936D02*
X12748753Y-17379889D01*
X12748753Y-17379889D02*
X12739229Y-17341793D01*
X12739229Y-17341793D02*
X12739229Y-17294174D01*
X12739229Y-17294174D02*
X12748753Y-17256079D01*
X12748753Y-17256079D02*
X12758277Y-17237031D01*
X12758277Y-17237031D02*
X12767801Y-17227508D01*
X12767801Y-17227508D02*
X12786848Y-17217984D01*
X13024944Y-17284650D02*
X13024944Y-17417984D01*
X12977325Y-17208460D02*
X12929706Y-17351317D01*
X12929706Y-17351317D02*
X13053515Y-17351317D01*
X13110658Y-17217984D02*
X13234467Y-17217984D01*
X13234467Y-17217984D02*
X13167801Y-17294174D01*
X13167801Y-17294174D02*
X13196372Y-17294174D01*
X13196372Y-17294174D02*
X13215420Y-17303698D01*
X13215420Y-17303698D02*
X13224944Y-17313222D01*
X13224944Y-17313222D02*
X13234467Y-17332270D01*
X13234467Y-17332270D02*
X13234467Y-17379889D01*
X13234467Y-17379889D02*
X13224944Y-17398936D01*
X13224944Y-17398936D02*
X13215420Y-17408460D01*
X13215420Y-17408460D02*
X13196372Y-17417984D01*
X13196372Y-17417984D02*
X13139229Y-17417984D01*
X13139229Y-17417984D02*
X13120182Y-17408460D01*
X13120182Y-17408460D02*
X13110658Y-17398936D01*
X13301134Y-17217984D02*
X13424944Y-17217984D01*
X13424944Y-17217984D02*
X13358277Y-17294174D01*
X13358277Y-17294174D02*
X13386848Y-17294174D01*
X13386848Y-17294174D02*
X13405896Y-17303698D01*
X13405896Y-17303698D02*
X13415420Y-17313222D01*
X13415420Y-17313222D02*
X13424944Y-17332270D01*
X13424944Y-17332270D02*
X13424944Y-17379889D01*
X13424944Y-17379889D02*
X13415420Y-17398936D01*
X13415420Y-17398936D02*
X13405896Y-17408460D01*
X13405896Y-17408460D02*
X13386848Y-17417984D01*
X13386848Y-17417984D02*
X13329706Y-17417984D01*
X13329706Y-17417984D02*
X13310658Y-17408460D01*
X13310658Y-17408460D02*
X13301134Y-17398936D01*
X13501134Y-17217984D02*
X13501134Y-17256079D01*
X13577325Y-17217984D02*
X13577325Y-17256079D01*
X13872563Y-17494174D02*
X13863039Y-17484650D01*
X13863039Y-17484650D02*
X13843991Y-17456079D01*
X13843991Y-17456079D02*
X13834468Y-17437031D01*
X13834468Y-17437031D02*
X13824944Y-17408460D01*
X13824944Y-17408460D02*
X13815420Y-17360841D01*
X13815420Y-17360841D02*
X13815420Y-17322746D01*
X13815420Y-17322746D02*
X13824944Y-17275127D01*
X13824944Y-17275127D02*
X13834468Y-17246555D01*
X13834468Y-17246555D02*
X13843991Y-17227508D01*
X13843991Y-17227508D02*
X13863039Y-17198936D01*
X13863039Y-17198936D02*
X13872563Y-17189412D01*
X14053515Y-17417984D02*
X13939229Y-17417984D01*
X13996372Y-17417984D02*
X13996372Y-17217984D01*
X13996372Y-17217984D02*
X13977325Y-17246555D01*
X13977325Y-17246555D02*
X13958277Y-17265603D01*
X13958277Y-17265603D02*
X13939229Y-17275127D01*
X14234468Y-17217984D02*
X14139229Y-17217984D01*
X14139229Y-17217984D02*
X14129706Y-17313222D01*
X14129706Y-17313222D02*
X14139229Y-17303698D01*
X14139229Y-17303698D02*
X14158277Y-17294174D01*
X14158277Y-17294174D02*
X14205896Y-17294174D01*
X14205896Y-17294174D02*
X14224944Y-17303698D01*
X14224944Y-17303698D02*
X14234468Y-17313222D01*
X14234468Y-17313222D02*
X14243991Y-17332270D01*
X14243991Y-17332270D02*
X14243991Y-17379889D01*
X14243991Y-17379889D02*
X14234468Y-17398936D01*
X14234468Y-17398936D02*
X14224944Y-17408460D01*
X14224944Y-17408460D02*
X14205896Y-17417984D01*
X14205896Y-17417984D02*
X14158277Y-17417984D01*
X14158277Y-17417984D02*
X14139229Y-17408460D01*
X14139229Y-17408460D02*
X14129706Y-17398936D01*
X14482087Y-17417984D02*
X14482087Y-17217984D01*
X14567801Y-17417984D02*
X14567801Y-17313222D01*
X14567801Y-17313222D02*
X14558277Y-17294174D01*
X14558277Y-17294174D02*
X14539230Y-17284650D01*
X14539230Y-17284650D02*
X14510658Y-17284650D01*
X14510658Y-17284650D02*
X14491610Y-17294174D01*
X14491610Y-17294174D02*
X14482087Y-17303698D01*
X14691610Y-17417984D02*
X14672563Y-17408460D01*
X14672563Y-17408460D02*
X14663039Y-17398936D01*
X14663039Y-17398936D02*
X14653515Y-17379889D01*
X14653515Y-17379889D02*
X14653515Y-17322746D01*
X14653515Y-17322746D02*
X14663039Y-17303698D01*
X14663039Y-17303698D02*
X14672563Y-17294174D01*
X14672563Y-17294174D02*
X14691610Y-17284650D01*
X14691610Y-17284650D02*
X14720182Y-17284650D01*
X14720182Y-17284650D02*
X14739230Y-17294174D01*
X14739230Y-17294174D02*
X14748753Y-17303698D01*
X14748753Y-17303698D02*
X14758277Y-17322746D01*
X14758277Y-17322746D02*
X14758277Y-17379889D01*
X14758277Y-17379889D02*
X14748753Y-17398936D01*
X14748753Y-17398936D02*
X14739230Y-17408460D01*
X14739230Y-17408460D02*
X14720182Y-17417984D01*
X14720182Y-17417984D02*
X14691610Y-17417984D01*
X14872563Y-17417984D02*
X14853515Y-17408460D01*
X14853515Y-17408460D02*
X14843991Y-17389412D01*
X14843991Y-17389412D02*
X14843991Y-17217984D01*
X15024944Y-17408460D02*
X15005896Y-17417984D01*
X15005896Y-17417984D02*
X14967801Y-17417984D01*
X14967801Y-17417984D02*
X14948753Y-17408460D01*
X14948753Y-17408460D02*
X14939230Y-17389412D01*
X14939230Y-17389412D02*
X14939230Y-17313222D01*
X14939230Y-17313222D02*
X14948753Y-17294174D01*
X14948753Y-17294174D02*
X14967801Y-17284650D01*
X14967801Y-17284650D02*
X15005896Y-17284650D01*
X15005896Y-17284650D02*
X15024944Y-17294174D01*
X15024944Y-17294174D02*
X15034468Y-17313222D01*
X15034468Y-17313222D02*
X15034468Y-17332270D01*
X15034468Y-17332270D02*
X14939230Y-17351317D01*
X15110658Y-17408460D02*
X15129706Y-17417984D01*
X15129706Y-17417984D02*
X15167801Y-17417984D01*
X15167801Y-17417984D02*
X15186849Y-17408460D01*
X15186849Y-17408460D02*
X15196372Y-17389412D01*
X15196372Y-17389412D02*
X15196372Y-17379889D01*
X15196372Y-17379889D02*
X15186849Y-17360841D01*
X15186849Y-17360841D02*
X15167801Y-17351317D01*
X15167801Y-17351317D02*
X15139230Y-17351317D01*
X15139230Y-17351317D02*
X15120182Y-17341793D01*
X15120182Y-17341793D02*
X15110658Y-17322746D01*
X15110658Y-17322746D02*
X15110658Y-17313222D01*
X15110658Y-17313222D02*
X15120182Y-17294174D01*
X15120182Y-17294174D02*
X15139230Y-17284650D01*
X15139230Y-17284650D02*
X15167801Y-17284650D01*
X15167801Y-17284650D02*
X15186849Y-17294174D01*
X15263039Y-17494174D02*
X15272563Y-17484650D01*
X15272563Y-17484650D02*
X15291611Y-17456079D01*
X15291611Y-17456079D02*
X15301134Y-17437031D01*
X15301134Y-17437031D02*
X15310658Y-17408460D01*
X15310658Y-17408460D02*
X15320182Y-17360841D01*
X15320182Y-17360841D02*
X15320182Y-17322746D01*
X15320182Y-17322746D02*
X15310658Y-17275127D01*
X15310658Y-17275127D02*
X15301134Y-17246555D01*
X15301134Y-17246555D02*
X15291611Y-17227508D01*
X15291611Y-17227508D02*
X15272563Y-17198936D01*
X15272563Y-17198936D02*
X15263039Y-17189412D01*
D15*
X10177500Y-17530500D02*
X10297500Y-17650500D01*
X10297500Y-17530500D02*
X10177500Y-17650500D01*
X10279927Y-17632927D02*
X10279927Y-17548073D01*
X10195073Y-17548073D01*
X10195073Y-17632927D01*
X10279927Y-17632927D01*
D11*
X10663039Y-17681984D02*
X10548753Y-17681984D01*
X10605896Y-17681984D02*
X10605896Y-17481984D01*
X10605896Y-17481984D02*
X10586848Y-17510555D01*
X10586848Y-17510555D02*
X10567801Y-17529603D01*
X10567801Y-17529603D02*
X10548753Y-17539127D01*
X10748753Y-17662936D02*
X10758277Y-17672460D01*
X10758277Y-17672460D02*
X10748753Y-17681984D01*
X10748753Y-17681984D02*
X10739229Y-17672460D01*
X10739229Y-17672460D02*
X10748753Y-17662936D01*
X10748753Y-17662936D02*
X10748753Y-17681984D01*
X10834467Y-17501031D02*
X10843991Y-17491508D01*
X10843991Y-17491508D02*
X10863039Y-17481984D01*
X10863039Y-17481984D02*
X10910658Y-17481984D01*
X10910658Y-17481984D02*
X10929705Y-17491508D01*
X10929705Y-17491508D02*
X10939229Y-17501031D01*
X10939229Y-17501031D02*
X10948753Y-17520079D01*
X10948753Y-17520079D02*
X10948753Y-17539127D01*
X10948753Y-17539127D02*
X10939229Y-17567698D01*
X10939229Y-17567698D02*
X10824944Y-17681984D01*
X10824944Y-17681984D02*
X10948753Y-17681984D01*
X11072563Y-17481984D02*
X11091610Y-17481984D01*
X11091610Y-17481984D02*
X11110658Y-17491508D01*
X11110658Y-17491508D02*
X11120182Y-17501031D01*
X11120182Y-17501031D02*
X11129705Y-17520079D01*
X11129705Y-17520079D02*
X11139229Y-17558174D01*
X11139229Y-17558174D02*
X11139229Y-17605793D01*
X11139229Y-17605793D02*
X11129705Y-17643889D01*
X11129705Y-17643889D02*
X11120182Y-17662936D01*
X11120182Y-17662936D02*
X11110658Y-17672460D01*
X11110658Y-17672460D02*
X11091610Y-17681984D01*
X11091610Y-17681984D02*
X11072563Y-17681984D01*
X11072563Y-17681984D02*
X11053515Y-17672460D01*
X11053515Y-17672460D02*
X11043991Y-17662936D01*
X11043991Y-17662936D02*
X11034467Y-17643889D01*
X11034467Y-17643889D02*
X11024944Y-17605793D01*
X11024944Y-17605793D02*
X11024944Y-17558174D01*
X11024944Y-17558174D02*
X11034467Y-17520079D01*
X11034467Y-17520079D02*
X11043991Y-17501031D01*
X11043991Y-17501031D02*
X11053515Y-17491508D01*
X11053515Y-17491508D02*
X11072563Y-17481984D01*
X11263039Y-17481984D02*
X11282086Y-17481984D01*
X11282086Y-17481984D02*
X11301134Y-17491508D01*
X11301134Y-17491508D02*
X11310658Y-17501031D01*
X11310658Y-17501031D02*
X11320182Y-17520079D01*
X11320182Y-17520079D02*
X11329705Y-17558174D01*
X11329705Y-17558174D02*
X11329705Y-17605793D01*
X11329705Y-17605793D02*
X11320182Y-17643889D01*
X11320182Y-17643889D02*
X11310658Y-17662936D01*
X11310658Y-17662936D02*
X11301134Y-17672460D01*
X11301134Y-17672460D02*
X11282086Y-17681984D01*
X11282086Y-17681984D02*
X11263039Y-17681984D01*
X11263039Y-17681984D02*
X11243991Y-17672460D01*
X11243991Y-17672460D02*
X11234467Y-17662936D01*
X11234467Y-17662936D02*
X11224943Y-17643889D01*
X11224943Y-17643889D02*
X11215420Y-17605793D01*
X11215420Y-17605793D02*
X11215420Y-17558174D01*
X11215420Y-17558174D02*
X11224943Y-17520079D01*
X11224943Y-17520079D02*
X11234467Y-17501031D01*
X11234467Y-17501031D02*
X11243991Y-17491508D01*
X11243991Y-17491508D02*
X11263039Y-17481984D01*
X11415420Y-17681984D02*
X11415420Y-17548650D01*
X11415420Y-17567698D02*
X11424943Y-17558174D01*
X11424943Y-17558174D02*
X11443991Y-17548650D01*
X11443991Y-17548650D02*
X11472563Y-17548650D01*
X11472563Y-17548650D02*
X11491610Y-17558174D01*
X11491610Y-17558174D02*
X11501134Y-17577222D01*
X11501134Y-17577222D02*
X11501134Y-17681984D01*
X11501134Y-17577222D02*
X11510658Y-17558174D01*
X11510658Y-17558174D02*
X11529705Y-17548650D01*
X11529705Y-17548650D02*
X11558277Y-17548650D01*
X11558277Y-17548650D02*
X11577324Y-17558174D01*
X11577324Y-17558174D02*
X11586848Y-17577222D01*
X11586848Y-17577222D02*
X11586848Y-17681984D01*
X11682086Y-17681984D02*
X11682086Y-17548650D01*
X11682086Y-17567698D02*
X11691610Y-17558174D01*
X11691610Y-17558174D02*
X11710658Y-17548650D01*
X11710658Y-17548650D02*
X11739229Y-17548650D01*
X11739229Y-17548650D02*
X11758277Y-17558174D01*
X11758277Y-17558174D02*
X11767801Y-17577222D01*
X11767801Y-17577222D02*
X11767801Y-17681984D01*
X11767801Y-17577222D02*
X11777324Y-17558174D01*
X11777324Y-17558174D02*
X11796372Y-17548650D01*
X11796372Y-17548650D02*
X11824943Y-17548650D01*
X11824943Y-17548650D02*
X11843991Y-17558174D01*
X11843991Y-17558174D02*
X11853515Y-17577222D01*
X11853515Y-17577222D02*
X11853515Y-17681984D01*
X12243991Y-17472460D02*
X12072563Y-17729603D01*
X12501134Y-17481984D02*
X12520182Y-17481984D01*
X12520182Y-17481984D02*
X12539229Y-17491508D01*
X12539229Y-17491508D02*
X12548753Y-17501031D01*
X12548753Y-17501031D02*
X12558277Y-17520079D01*
X12558277Y-17520079D02*
X12567801Y-17558174D01*
X12567801Y-17558174D02*
X12567801Y-17605793D01*
X12567801Y-17605793D02*
X12558277Y-17643889D01*
X12558277Y-17643889D02*
X12548753Y-17662936D01*
X12548753Y-17662936D02*
X12539229Y-17672460D01*
X12539229Y-17672460D02*
X12520182Y-17681984D01*
X12520182Y-17681984D02*
X12501134Y-17681984D01*
X12501134Y-17681984D02*
X12482086Y-17672460D01*
X12482086Y-17672460D02*
X12472563Y-17662936D01*
X12472563Y-17662936D02*
X12463039Y-17643889D01*
X12463039Y-17643889D02*
X12453515Y-17605793D01*
X12453515Y-17605793D02*
X12453515Y-17558174D01*
X12453515Y-17558174D02*
X12463039Y-17520079D01*
X12463039Y-17520079D02*
X12472563Y-17501031D01*
X12472563Y-17501031D02*
X12482086Y-17491508D01*
X12482086Y-17491508D02*
X12501134Y-17481984D01*
X12653515Y-17662936D02*
X12663039Y-17672460D01*
X12663039Y-17672460D02*
X12653515Y-17681984D01*
X12653515Y-17681984D02*
X12643991Y-17672460D01*
X12643991Y-17672460D02*
X12653515Y-17662936D01*
X12653515Y-17662936D02*
X12653515Y-17681984D01*
X12786848Y-17481984D02*
X12805896Y-17481984D01*
X12805896Y-17481984D02*
X12824944Y-17491508D01*
X12824944Y-17491508D02*
X12834467Y-17501031D01*
X12834467Y-17501031D02*
X12843991Y-17520079D01*
X12843991Y-17520079D02*
X12853515Y-17558174D01*
X12853515Y-17558174D02*
X12853515Y-17605793D01*
X12853515Y-17605793D02*
X12843991Y-17643889D01*
X12843991Y-17643889D02*
X12834467Y-17662936D01*
X12834467Y-17662936D02*
X12824944Y-17672460D01*
X12824944Y-17672460D02*
X12805896Y-17681984D01*
X12805896Y-17681984D02*
X12786848Y-17681984D01*
X12786848Y-17681984D02*
X12767801Y-17672460D01*
X12767801Y-17672460D02*
X12758277Y-17662936D01*
X12758277Y-17662936D02*
X12748753Y-17643889D01*
X12748753Y-17643889D02*
X12739229Y-17605793D01*
X12739229Y-17605793D02*
X12739229Y-17558174D01*
X12739229Y-17558174D02*
X12748753Y-17520079D01*
X12748753Y-17520079D02*
X12758277Y-17501031D01*
X12758277Y-17501031D02*
X12767801Y-17491508D01*
X12767801Y-17491508D02*
X12786848Y-17481984D01*
X13024944Y-17548650D02*
X13024944Y-17681984D01*
X12977325Y-17472460D02*
X12929706Y-17615317D01*
X12929706Y-17615317D02*
X13053515Y-17615317D01*
X13110658Y-17481984D02*
X13243991Y-17481984D01*
X13243991Y-17481984D02*
X13158277Y-17681984D01*
X13310658Y-17501031D02*
X13320182Y-17491508D01*
X13320182Y-17491508D02*
X13339229Y-17481984D01*
X13339229Y-17481984D02*
X13386848Y-17481984D01*
X13386848Y-17481984D02*
X13405896Y-17491508D01*
X13405896Y-17491508D02*
X13415420Y-17501031D01*
X13415420Y-17501031D02*
X13424944Y-17520079D01*
X13424944Y-17520079D02*
X13424944Y-17539127D01*
X13424944Y-17539127D02*
X13415420Y-17567698D01*
X13415420Y-17567698D02*
X13301134Y-17681984D01*
X13301134Y-17681984D02*
X13424944Y-17681984D01*
X13501134Y-17481984D02*
X13501134Y-17520079D01*
X13577325Y-17481984D02*
X13577325Y-17520079D01*
X13872563Y-17758174D02*
X13863039Y-17748650D01*
X13863039Y-17748650D02*
X13843991Y-17720079D01*
X13843991Y-17720079D02*
X13834468Y-17701031D01*
X13834468Y-17701031D02*
X13824944Y-17672460D01*
X13824944Y-17672460D02*
X13815420Y-17624841D01*
X13815420Y-17624841D02*
X13815420Y-17586746D01*
X13815420Y-17586746D02*
X13824944Y-17539127D01*
X13824944Y-17539127D02*
X13834468Y-17510555D01*
X13834468Y-17510555D02*
X13843991Y-17491508D01*
X13843991Y-17491508D02*
X13863039Y-17462936D01*
X13863039Y-17462936D02*
X13872563Y-17453412D01*
X13929706Y-17481984D02*
X14053515Y-17481984D01*
X14053515Y-17481984D02*
X13986848Y-17558174D01*
X13986848Y-17558174D02*
X14015420Y-17558174D01*
X14015420Y-17558174D02*
X14034468Y-17567698D01*
X14034468Y-17567698D02*
X14043991Y-17577222D01*
X14043991Y-17577222D02*
X14053515Y-17596270D01*
X14053515Y-17596270D02*
X14053515Y-17643889D01*
X14053515Y-17643889D02*
X14043991Y-17662936D01*
X14043991Y-17662936D02*
X14034468Y-17672460D01*
X14034468Y-17672460D02*
X14015420Y-17681984D01*
X14015420Y-17681984D02*
X13958277Y-17681984D01*
X13958277Y-17681984D02*
X13939229Y-17672460D01*
X13939229Y-17672460D02*
X13929706Y-17662936D01*
X14291610Y-17681984D02*
X14291610Y-17481984D01*
X14377325Y-17681984D02*
X14377325Y-17577222D01*
X14377325Y-17577222D02*
X14367801Y-17558174D01*
X14367801Y-17558174D02*
X14348753Y-17548650D01*
X14348753Y-17548650D02*
X14320182Y-17548650D01*
X14320182Y-17548650D02*
X14301134Y-17558174D01*
X14301134Y-17558174D02*
X14291610Y-17567698D01*
X14501134Y-17681984D02*
X14482087Y-17672460D01*
X14482087Y-17672460D02*
X14472563Y-17662936D01*
X14472563Y-17662936D02*
X14463039Y-17643889D01*
X14463039Y-17643889D02*
X14463039Y-17586746D01*
X14463039Y-17586746D02*
X14472563Y-17567698D01*
X14472563Y-17567698D02*
X14482087Y-17558174D01*
X14482087Y-17558174D02*
X14501134Y-17548650D01*
X14501134Y-17548650D02*
X14529706Y-17548650D01*
X14529706Y-17548650D02*
X14548753Y-17558174D01*
X14548753Y-17558174D02*
X14558277Y-17567698D01*
X14558277Y-17567698D02*
X14567801Y-17586746D01*
X14567801Y-17586746D02*
X14567801Y-17643889D01*
X14567801Y-17643889D02*
X14558277Y-17662936D01*
X14558277Y-17662936D02*
X14548753Y-17672460D01*
X14548753Y-17672460D02*
X14529706Y-17681984D01*
X14529706Y-17681984D02*
X14501134Y-17681984D01*
X14682087Y-17681984D02*
X14663039Y-17672460D01*
X14663039Y-17672460D02*
X14653515Y-17653412D01*
X14653515Y-17653412D02*
X14653515Y-17481984D01*
X14834468Y-17672460D02*
X14815420Y-17681984D01*
X14815420Y-17681984D02*
X14777325Y-17681984D01*
X14777325Y-17681984D02*
X14758277Y-17672460D01*
X14758277Y-17672460D02*
X14748753Y-17653412D01*
X14748753Y-17653412D02*
X14748753Y-17577222D01*
X14748753Y-17577222D02*
X14758277Y-17558174D01*
X14758277Y-17558174D02*
X14777325Y-17548650D01*
X14777325Y-17548650D02*
X14815420Y-17548650D01*
X14815420Y-17548650D02*
X14834468Y-17558174D01*
X14834468Y-17558174D02*
X14843991Y-17577222D01*
X14843991Y-17577222D02*
X14843991Y-17596270D01*
X14843991Y-17596270D02*
X14748753Y-17615317D01*
X14920182Y-17672460D02*
X14939230Y-17681984D01*
X14939230Y-17681984D02*
X14977325Y-17681984D01*
X14977325Y-17681984D02*
X14996372Y-17672460D01*
X14996372Y-17672460D02*
X15005896Y-17653412D01*
X15005896Y-17653412D02*
X15005896Y-17643889D01*
X15005896Y-17643889D02*
X14996372Y-17624841D01*
X14996372Y-17624841D02*
X14977325Y-17615317D01*
X14977325Y-17615317D02*
X14948753Y-17615317D01*
X14948753Y-17615317D02*
X14929706Y-17605793D01*
X14929706Y-17605793D02*
X14920182Y-17586746D01*
X14920182Y-17586746D02*
X14920182Y-17577222D01*
X14920182Y-17577222D02*
X14929706Y-17558174D01*
X14929706Y-17558174D02*
X14948753Y-17548650D01*
X14948753Y-17548650D02*
X14977325Y-17548650D01*
X14977325Y-17548650D02*
X14996372Y-17558174D01*
X15072563Y-17758174D02*
X15082087Y-17748650D01*
X15082087Y-17748650D02*
X15101134Y-17720079D01*
X15101134Y-17720079D02*
X15110658Y-17701031D01*
X15110658Y-17701031D02*
X15120182Y-17672460D01*
X15120182Y-17672460D02*
X15129706Y-17624841D01*
X15129706Y-17624841D02*
X15129706Y-17586746D01*
X15129706Y-17586746D02*
X15120182Y-17539127D01*
X15120182Y-17539127D02*
X15110658Y-17510555D01*
X15110658Y-17510555D02*
X15101134Y-17491508D01*
X15101134Y-17491508D02*
X15082087Y-17462936D01*
X15082087Y-17462936D02*
X15072563Y-17453412D01*
D16*
X10167500Y-17789500D02*
X10297500Y-17919500D01*
X10297500Y-17789500D02*
X10167500Y-17919500D01*
X10232500Y-17919500D02*
X10297500Y-17854500D01*
X10232500Y-17789500D01*
X10167500Y-17854500D01*
X10232500Y-17919500D01*
D11*
X10663039Y-17945984D02*
X10548753Y-17945984D01*
X10605896Y-17945984D02*
X10605896Y-17745984D01*
X10605896Y-17745984D02*
X10586848Y-17774555D01*
X10586848Y-17774555D02*
X10567801Y-17793603D01*
X10567801Y-17793603D02*
X10548753Y-17803127D01*
X10748753Y-17926936D02*
X10758277Y-17936460D01*
X10758277Y-17936460D02*
X10748753Y-17945984D01*
X10748753Y-17945984D02*
X10739229Y-17936460D01*
X10739229Y-17936460D02*
X10748753Y-17926936D01*
X10748753Y-17926936D02*
X10748753Y-17945984D01*
X10824944Y-17745984D02*
X10948753Y-17745984D01*
X10948753Y-17745984D02*
X10882086Y-17822174D01*
X10882086Y-17822174D02*
X10910658Y-17822174D01*
X10910658Y-17822174D02*
X10929705Y-17831698D01*
X10929705Y-17831698D02*
X10939229Y-17841222D01*
X10939229Y-17841222D02*
X10948753Y-17860270D01*
X10948753Y-17860270D02*
X10948753Y-17907889D01*
X10948753Y-17907889D02*
X10939229Y-17926936D01*
X10939229Y-17926936D02*
X10929705Y-17936460D01*
X10929705Y-17936460D02*
X10910658Y-17945984D01*
X10910658Y-17945984D02*
X10853515Y-17945984D01*
X10853515Y-17945984D02*
X10834467Y-17936460D01*
X10834467Y-17936460D02*
X10824944Y-17926936D01*
X11072563Y-17745984D02*
X11091610Y-17745984D01*
X11091610Y-17745984D02*
X11110658Y-17755508D01*
X11110658Y-17755508D02*
X11120182Y-17765031D01*
X11120182Y-17765031D02*
X11129705Y-17784079D01*
X11129705Y-17784079D02*
X11139229Y-17822174D01*
X11139229Y-17822174D02*
X11139229Y-17869793D01*
X11139229Y-17869793D02*
X11129705Y-17907889D01*
X11129705Y-17907889D02*
X11120182Y-17926936D01*
X11120182Y-17926936D02*
X11110658Y-17936460D01*
X11110658Y-17936460D02*
X11091610Y-17945984D01*
X11091610Y-17945984D02*
X11072563Y-17945984D01*
X11072563Y-17945984D02*
X11053515Y-17936460D01*
X11053515Y-17936460D02*
X11043991Y-17926936D01*
X11043991Y-17926936D02*
X11034467Y-17907889D01*
X11034467Y-17907889D02*
X11024944Y-17869793D01*
X11024944Y-17869793D02*
X11024944Y-17822174D01*
X11024944Y-17822174D02*
X11034467Y-17784079D01*
X11034467Y-17784079D02*
X11043991Y-17765031D01*
X11043991Y-17765031D02*
X11053515Y-17755508D01*
X11053515Y-17755508D02*
X11072563Y-17745984D01*
X11263039Y-17745984D02*
X11282086Y-17745984D01*
X11282086Y-17745984D02*
X11301134Y-17755508D01*
X11301134Y-17755508D02*
X11310658Y-17765031D01*
X11310658Y-17765031D02*
X11320182Y-17784079D01*
X11320182Y-17784079D02*
X11329705Y-17822174D01*
X11329705Y-17822174D02*
X11329705Y-17869793D01*
X11329705Y-17869793D02*
X11320182Y-17907889D01*
X11320182Y-17907889D02*
X11310658Y-17926936D01*
X11310658Y-17926936D02*
X11301134Y-17936460D01*
X11301134Y-17936460D02*
X11282086Y-17945984D01*
X11282086Y-17945984D02*
X11263039Y-17945984D01*
X11263039Y-17945984D02*
X11243991Y-17936460D01*
X11243991Y-17936460D02*
X11234467Y-17926936D01*
X11234467Y-17926936D02*
X11224943Y-17907889D01*
X11224943Y-17907889D02*
X11215420Y-17869793D01*
X11215420Y-17869793D02*
X11215420Y-17822174D01*
X11215420Y-17822174D02*
X11224943Y-17784079D01*
X11224943Y-17784079D02*
X11234467Y-17765031D01*
X11234467Y-17765031D02*
X11243991Y-17755508D01*
X11243991Y-17755508D02*
X11263039Y-17745984D01*
X11415420Y-17945984D02*
X11415420Y-17812650D01*
X11415420Y-17831698D02*
X11424943Y-17822174D01*
X11424943Y-17822174D02*
X11443991Y-17812650D01*
X11443991Y-17812650D02*
X11472563Y-17812650D01*
X11472563Y-17812650D02*
X11491610Y-17822174D01*
X11491610Y-17822174D02*
X11501134Y-17841222D01*
X11501134Y-17841222D02*
X11501134Y-17945984D01*
X11501134Y-17841222D02*
X11510658Y-17822174D01*
X11510658Y-17822174D02*
X11529705Y-17812650D01*
X11529705Y-17812650D02*
X11558277Y-17812650D01*
X11558277Y-17812650D02*
X11577324Y-17822174D01*
X11577324Y-17822174D02*
X11586848Y-17841222D01*
X11586848Y-17841222D02*
X11586848Y-17945984D01*
X11682086Y-17945984D02*
X11682086Y-17812650D01*
X11682086Y-17831698D02*
X11691610Y-17822174D01*
X11691610Y-17822174D02*
X11710658Y-17812650D01*
X11710658Y-17812650D02*
X11739229Y-17812650D01*
X11739229Y-17812650D02*
X11758277Y-17822174D01*
X11758277Y-17822174D02*
X11767801Y-17841222D01*
X11767801Y-17841222D02*
X11767801Y-17945984D01*
X11767801Y-17841222D02*
X11777324Y-17822174D01*
X11777324Y-17822174D02*
X11796372Y-17812650D01*
X11796372Y-17812650D02*
X11824943Y-17812650D01*
X11824943Y-17812650D02*
X11843991Y-17822174D01*
X11843991Y-17822174D02*
X11853515Y-17841222D01*
X11853515Y-17841222D02*
X11853515Y-17945984D01*
X12243991Y-17736460D02*
X12072563Y-17993603D01*
X12501134Y-17745984D02*
X12520182Y-17745984D01*
X12520182Y-17745984D02*
X12539229Y-17755508D01*
X12539229Y-17755508D02*
X12548753Y-17765031D01*
X12548753Y-17765031D02*
X12558277Y-17784079D01*
X12558277Y-17784079D02*
X12567801Y-17822174D01*
X12567801Y-17822174D02*
X12567801Y-17869793D01*
X12567801Y-17869793D02*
X12558277Y-17907889D01*
X12558277Y-17907889D02*
X12548753Y-17926936D01*
X12548753Y-17926936D02*
X12539229Y-17936460D01*
X12539229Y-17936460D02*
X12520182Y-17945984D01*
X12520182Y-17945984D02*
X12501134Y-17945984D01*
X12501134Y-17945984D02*
X12482086Y-17936460D01*
X12482086Y-17936460D02*
X12472563Y-17926936D01*
X12472563Y-17926936D02*
X12463039Y-17907889D01*
X12463039Y-17907889D02*
X12453515Y-17869793D01*
X12453515Y-17869793D02*
X12453515Y-17822174D01*
X12453515Y-17822174D02*
X12463039Y-17784079D01*
X12463039Y-17784079D02*
X12472563Y-17765031D01*
X12472563Y-17765031D02*
X12482086Y-17755508D01*
X12482086Y-17755508D02*
X12501134Y-17745984D01*
X12653515Y-17926936D02*
X12663039Y-17936460D01*
X12663039Y-17936460D02*
X12653515Y-17945984D01*
X12653515Y-17945984D02*
X12643991Y-17936460D01*
X12643991Y-17936460D02*
X12653515Y-17926936D01*
X12653515Y-17926936D02*
X12653515Y-17945984D01*
X12786848Y-17745984D02*
X12805896Y-17745984D01*
X12805896Y-17745984D02*
X12824944Y-17755508D01*
X12824944Y-17755508D02*
X12834467Y-17765031D01*
X12834467Y-17765031D02*
X12843991Y-17784079D01*
X12843991Y-17784079D02*
X12853515Y-17822174D01*
X12853515Y-17822174D02*
X12853515Y-17869793D01*
X12853515Y-17869793D02*
X12843991Y-17907889D01*
X12843991Y-17907889D02*
X12834467Y-17926936D01*
X12834467Y-17926936D02*
X12824944Y-17936460D01*
X12824944Y-17936460D02*
X12805896Y-17945984D01*
X12805896Y-17945984D02*
X12786848Y-17945984D01*
X12786848Y-17945984D02*
X12767801Y-17936460D01*
X12767801Y-17936460D02*
X12758277Y-17926936D01*
X12758277Y-17926936D02*
X12748753Y-17907889D01*
X12748753Y-17907889D02*
X12739229Y-17869793D01*
X12739229Y-17869793D02*
X12739229Y-17822174D01*
X12739229Y-17822174D02*
X12748753Y-17784079D01*
X12748753Y-17784079D02*
X12758277Y-17765031D01*
X12758277Y-17765031D02*
X12767801Y-17755508D01*
X12767801Y-17755508D02*
X12786848Y-17745984D01*
X13034467Y-17745984D02*
X12939229Y-17745984D01*
X12939229Y-17745984D02*
X12929706Y-17841222D01*
X12929706Y-17841222D02*
X12939229Y-17831698D01*
X12939229Y-17831698D02*
X12958277Y-17822174D01*
X12958277Y-17822174D02*
X13005896Y-17822174D01*
X13005896Y-17822174D02*
X13024944Y-17831698D01*
X13024944Y-17831698D02*
X13034467Y-17841222D01*
X13034467Y-17841222D02*
X13043991Y-17860270D01*
X13043991Y-17860270D02*
X13043991Y-17907889D01*
X13043991Y-17907889D02*
X13034467Y-17926936D01*
X13034467Y-17926936D02*
X13024944Y-17936460D01*
X13024944Y-17936460D02*
X13005896Y-17945984D01*
X13005896Y-17945984D02*
X12958277Y-17945984D01*
X12958277Y-17945984D02*
X12939229Y-17936460D01*
X12939229Y-17936460D02*
X12929706Y-17926936D01*
X13234467Y-17945984D02*
X13120182Y-17945984D01*
X13177325Y-17945984D02*
X13177325Y-17745984D01*
X13177325Y-17745984D02*
X13158277Y-17774555D01*
X13158277Y-17774555D02*
X13139229Y-17793603D01*
X13139229Y-17793603D02*
X13120182Y-17803127D01*
X13310658Y-17765031D02*
X13320182Y-17755508D01*
X13320182Y-17755508D02*
X13339229Y-17745984D01*
X13339229Y-17745984D02*
X13386848Y-17745984D01*
X13386848Y-17745984D02*
X13405896Y-17755508D01*
X13405896Y-17755508D02*
X13415420Y-17765031D01*
X13415420Y-17765031D02*
X13424944Y-17784079D01*
X13424944Y-17784079D02*
X13424944Y-17803127D01*
X13424944Y-17803127D02*
X13415420Y-17831698D01*
X13415420Y-17831698D02*
X13301134Y-17945984D01*
X13301134Y-17945984D02*
X13424944Y-17945984D01*
X13501134Y-17745984D02*
X13501134Y-17784079D01*
X13577325Y-17745984D02*
X13577325Y-17784079D01*
X13872563Y-18022174D02*
X13863039Y-18012650D01*
X13863039Y-18012650D02*
X13843991Y-17984079D01*
X13843991Y-17984079D02*
X13834468Y-17965031D01*
X13834468Y-17965031D02*
X13824944Y-17936460D01*
X13824944Y-17936460D02*
X13815420Y-17888841D01*
X13815420Y-17888841D02*
X13815420Y-17850746D01*
X13815420Y-17850746D02*
X13824944Y-17803127D01*
X13824944Y-17803127D02*
X13834468Y-17774555D01*
X13834468Y-17774555D02*
X13843991Y-17755508D01*
X13843991Y-17755508D02*
X13863039Y-17726936D01*
X13863039Y-17726936D02*
X13872563Y-17717412D01*
X14043991Y-17745984D02*
X13948753Y-17745984D01*
X13948753Y-17745984D02*
X13939229Y-17841222D01*
X13939229Y-17841222D02*
X13948753Y-17831698D01*
X13948753Y-17831698D02*
X13967801Y-17822174D01*
X13967801Y-17822174D02*
X14015420Y-17822174D01*
X14015420Y-17822174D02*
X14034468Y-17831698D01*
X14034468Y-17831698D02*
X14043991Y-17841222D01*
X14043991Y-17841222D02*
X14053515Y-17860270D01*
X14053515Y-17860270D02*
X14053515Y-17907889D01*
X14053515Y-17907889D02*
X14043991Y-17926936D01*
X14043991Y-17926936D02*
X14034468Y-17936460D01*
X14034468Y-17936460D02*
X14015420Y-17945984D01*
X14015420Y-17945984D02*
X13967801Y-17945984D01*
X13967801Y-17945984D02*
X13948753Y-17936460D01*
X13948753Y-17936460D02*
X13939229Y-17926936D01*
X14291610Y-17945984D02*
X14291610Y-17745984D01*
X14377325Y-17945984D02*
X14377325Y-17841222D01*
X14377325Y-17841222D02*
X14367801Y-17822174D01*
X14367801Y-17822174D02*
X14348753Y-17812650D01*
X14348753Y-17812650D02*
X14320182Y-17812650D01*
X14320182Y-17812650D02*
X14301134Y-17822174D01*
X14301134Y-17822174D02*
X14291610Y-17831698D01*
X14501134Y-17945984D02*
X14482087Y-17936460D01*
X14482087Y-17936460D02*
X14472563Y-17926936D01*
X14472563Y-17926936D02*
X14463039Y-17907889D01*
X14463039Y-17907889D02*
X14463039Y-17850746D01*
X14463039Y-17850746D02*
X14472563Y-17831698D01*
X14472563Y-17831698D02*
X14482087Y-17822174D01*
X14482087Y-17822174D02*
X14501134Y-17812650D01*
X14501134Y-17812650D02*
X14529706Y-17812650D01*
X14529706Y-17812650D02*
X14548753Y-17822174D01*
X14548753Y-17822174D02*
X14558277Y-17831698D01*
X14558277Y-17831698D02*
X14567801Y-17850746D01*
X14567801Y-17850746D02*
X14567801Y-17907889D01*
X14567801Y-17907889D02*
X14558277Y-17926936D01*
X14558277Y-17926936D02*
X14548753Y-17936460D01*
X14548753Y-17936460D02*
X14529706Y-17945984D01*
X14529706Y-17945984D02*
X14501134Y-17945984D01*
X14682087Y-17945984D02*
X14663039Y-17936460D01*
X14663039Y-17936460D02*
X14653515Y-17917412D01*
X14653515Y-17917412D02*
X14653515Y-17745984D01*
X14834468Y-17936460D02*
X14815420Y-17945984D01*
X14815420Y-17945984D02*
X14777325Y-17945984D01*
X14777325Y-17945984D02*
X14758277Y-17936460D01*
X14758277Y-17936460D02*
X14748753Y-17917412D01*
X14748753Y-17917412D02*
X14748753Y-17841222D01*
X14748753Y-17841222D02*
X14758277Y-17822174D01*
X14758277Y-17822174D02*
X14777325Y-17812650D01*
X14777325Y-17812650D02*
X14815420Y-17812650D01*
X14815420Y-17812650D02*
X14834468Y-17822174D01*
X14834468Y-17822174D02*
X14843991Y-17841222D01*
X14843991Y-17841222D02*
X14843991Y-17860270D01*
X14843991Y-17860270D02*
X14748753Y-17879317D01*
X14920182Y-17936460D02*
X14939230Y-17945984D01*
X14939230Y-17945984D02*
X14977325Y-17945984D01*
X14977325Y-17945984D02*
X14996372Y-17936460D01*
X14996372Y-17936460D02*
X15005896Y-17917412D01*
X15005896Y-17917412D02*
X15005896Y-17907889D01*
X15005896Y-17907889D02*
X14996372Y-17888841D01*
X14996372Y-17888841D02*
X14977325Y-17879317D01*
X14977325Y-17879317D02*
X14948753Y-17879317D01*
X14948753Y-17879317D02*
X14929706Y-17869793D01*
X14929706Y-17869793D02*
X14920182Y-17850746D01*
X14920182Y-17850746D02*
X14920182Y-17841222D01*
X14920182Y-17841222D02*
X14929706Y-17822174D01*
X14929706Y-17822174D02*
X14948753Y-17812650D01*
X14948753Y-17812650D02*
X14977325Y-17812650D01*
X14977325Y-17812650D02*
X14996372Y-17822174D01*
X15072563Y-18022174D02*
X15082087Y-18012650D01*
X15082087Y-18012650D02*
X15101134Y-17984079D01*
X15101134Y-17984079D02*
X15110658Y-17965031D01*
X15110658Y-17965031D02*
X15120182Y-17936460D01*
X15120182Y-17936460D02*
X15129706Y-17888841D01*
X15129706Y-17888841D02*
X15129706Y-17850746D01*
X15129706Y-17850746D02*
X15120182Y-17803127D01*
X15120182Y-17803127D02*
X15110658Y-17774555D01*
X15110658Y-17774555D02*
X15101134Y-17755508D01*
X15101134Y-17755508D02*
X15082087Y-17726936D01*
X15082087Y-17726936D02*
X15072563Y-17717412D01*
X10197500Y-18018500D02*
X10197500Y-18218500D01*
X10097500Y-18118500D02*
X10297500Y-18118500D01*
X10297500Y-18118500D02*
G75*
G02*
X10097500Y-18118500I-100000J0D01*
G01*
X10097500Y-18118500D02*
G75*
G02*
X10297500Y-18118500I100000J0D01*
G01*
X10539229Y-18009984D02*
X10663039Y-18009984D01*
X10663039Y-18009984D02*
X10596372Y-18086174D01*
X10596372Y-18086174D02*
X10624944Y-18086174D01*
X10624944Y-18086174D02*
X10643991Y-18095698D01*
X10643991Y-18095698D02*
X10653515Y-18105222D01*
X10653515Y-18105222D02*
X10663039Y-18124270D01*
X10663039Y-18124270D02*
X10663039Y-18171889D01*
X10663039Y-18171889D02*
X10653515Y-18190936D01*
X10653515Y-18190936D02*
X10643991Y-18200460D01*
X10643991Y-18200460D02*
X10624944Y-18209984D01*
X10624944Y-18209984D02*
X10567801Y-18209984D01*
X10567801Y-18209984D02*
X10548753Y-18200460D01*
X10548753Y-18200460D02*
X10539229Y-18190936D01*
X10748753Y-18190936D02*
X10758277Y-18200460D01*
X10758277Y-18200460D02*
X10748753Y-18209984D01*
X10748753Y-18209984D02*
X10739229Y-18200460D01*
X10739229Y-18200460D02*
X10748753Y-18190936D01*
X10748753Y-18190936D02*
X10748753Y-18209984D01*
X10882086Y-18009984D02*
X10901134Y-18009984D01*
X10901134Y-18009984D02*
X10920182Y-18019508D01*
X10920182Y-18019508D02*
X10929705Y-18029031D01*
X10929705Y-18029031D02*
X10939229Y-18048079D01*
X10939229Y-18048079D02*
X10948753Y-18086174D01*
X10948753Y-18086174D02*
X10948753Y-18133793D01*
X10948753Y-18133793D02*
X10939229Y-18171889D01*
X10939229Y-18171889D02*
X10929705Y-18190936D01*
X10929705Y-18190936D02*
X10920182Y-18200460D01*
X10920182Y-18200460D02*
X10901134Y-18209984D01*
X10901134Y-18209984D02*
X10882086Y-18209984D01*
X10882086Y-18209984D02*
X10863039Y-18200460D01*
X10863039Y-18200460D02*
X10853515Y-18190936D01*
X10853515Y-18190936D02*
X10843991Y-18171889D01*
X10843991Y-18171889D02*
X10834467Y-18133793D01*
X10834467Y-18133793D02*
X10834467Y-18086174D01*
X10834467Y-18086174D02*
X10843991Y-18048079D01*
X10843991Y-18048079D02*
X10853515Y-18029031D01*
X10853515Y-18029031D02*
X10863039Y-18019508D01*
X10863039Y-18019508D02*
X10882086Y-18009984D01*
X11072563Y-18009984D02*
X11091610Y-18009984D01*
X11091610Y-18009984D02*
X11110658Y-18019508D01*
X11110658Y-18019508D02*
X11120182Y-18029031D01*
X11120182Y-18029031D02*
X11129705Y-18048079D01*
X11129705Y-18048079D02*
X11139229Y-18086174D01*
X11139229Y-18086174D02*
X11139229Y-18133793D01*
X11139229Y-18133793D02*
X11129705Y-18171889D01*
X11129705Y-18171889D02*
X11120182Y-18190936D01*
X11120182Y-18190936D02*
X11110658Y-18200460D01*
X11110658Y-18200460D02*
X11091610Y-18209984D01*
X11091610Y-18209984D02*
X11072563Y-18209984D01*
X11072563Y-18209984D02*
X11053515Y-18200460D01*
X11053515Y-18200460D02*
X11043991Y-18190936D01*
X11043991Y-18190936D02*
X11034467Y-18171889D01*
X11034467Y-18171889D02*
X11024944Y-18133793D01*
X11024944Y-18133793D02*
X11024944Y-18086174D01*
X11024944Y-18086174D02*
X11034467Y-18048079D01*
X11034467Y-18048079D02*
X11043991Y-18029031D01*
X11043991Y-18029031D02*
X11053515Y-18019508D01*
X11053515Y-18019508D02*
X11072563Y-18009984D01*
X11263039Y-18009984D02*
X11282086Y-18009984D01*
X11282086Y-18009984D02*
X11301134Y-18019508D01*
X11301134Y-18019508D02*
X11310658Y-18029031D01*
X11310658Y-18029031D02*
X11320182Y-18048079D01*
X11320182Y-18048079D02*
X11329705Y-18086174D01*
X11329705Y-18086174D02*
X11329705Y-18133793D01*
X11329705Y-18133793D02*
X11320182Y-18171889D01*
X11320182Y-18171889D02*
X11310658Y-18190936D01*
X11310658Y-18190936D02*
X11301134Y-18200460D01*
X11301134Y-18200460D02*
X11282086Y-18209984D01*
X11282086Y-18209984D02*
X11263039Y-18209984D01*
X11263039Y-18209984D02*
X11243991Y-18200460D01*
X11243991Y-18200460D02*
X11234467Y-18190936D01*
X11234467Y-18190936D02*
X11224943Y-18171889D01*
X11224943Y-18171889D02*
X11215420Y-18133793D01*
X11215420Y-18133793D02*
X11215420Y-18086174D01*
X11215420Y-18086174D02*
X11224943Y-18048079D01*
X11224943Y-18048079D02*
X11234467Y-18029031D01*
X11234467Y-18029031D02*
X11243991Y-18019508D01*
X11243991Y-18019508D02*
X11263039Y-18009984D01*
X11415420Y-18209984D02*
X11415420Y-18076650D01*
X11415420Y-18095698D02*
X11424943Y-18086174D01*
X11424943Y-18086174D02*
X11443991Y-18076650D01*
X11443991Y-18076650D02*
X11472563Y-18076650D01*
X11472563Y-18076650D02*
X11491610Y-18086174D01*
X11491610Y-18086174D02*
X11501134Y-18105222D01*
X11501134Y-18105222D02*
X11501134Y-18209984D01*
X11501134Y-18105222D02*
X11510658Y-18086174D01*
X11510658Y-18086174D02*
X11529705Y-18076650D01*
X11529705Y-18076650D02*
X11558277Y-18076650D01*
X11558277Y-18076650D02*
X11577324Y-18086174D01*
X11577324Y-18086174D02*
X11586848Y-18105222D01*
X11586848Y-18105222D02*
X11586848Y-18209984D01*
X11682086Y-18209984D02*
X11682086Y-18076650D01*
X11682086Y-18095698D02*
X11691610Y-18086174D01*
X11691610Y-18086174D02*
X11710658Y-18076650D01*
X11710658Y-18076650D02*
X11739229Y-18076650D01*
X11739229Y-18076650D02*
X11758277Y-18086174D01*
X11758277Y-18086174D02*
X11767801Y-18105222D01*
X11767801Y-18105222D02*
X11767801Y-18209984D01*
X11767801Y-18105222D02*
X11777324Y-18086174D01*
X11777324Y-18086174D02*
X11796372Y-18076650D01*
X11796372Y-18076650D02*
X11824943Y-18076650D01*
X11824943Y-18076650D02*
X11843991Y-18086174D01*
X11843991Y-18086174D02*
X11853515Y-18105222D01*
X11853515Y-18105222D02*
X11853515Y-18209984D01*
X12243991Y-18000460D02*
X12072563Y-18257603D01*
X12501134Y-18009984D02*
X12520182Y-18009984D01*
X12520182Y-18009984D02*
X12539229Y-18019508D01*
X12539229Y-18019508D02*
X12548753Y-18029031D01*
X12548753Y-18029031D02*
X12558277Y-18048079D01*
X12558277Y-18048079D02*
X12567801Y-18086174D01*
X12567801Y-18086174D02*
X12567801Y-18133793D01*
X12567801Y-18133793D02*
X12558277Y-18171889D01*
X12558277Y-18171889D02*
X12548753Y-18190936D01*
X12548753Y-18190936D02*
X12539229Y-18200460D01*
X12539229Y-18200460D02*
X12520182Y-18209984D01*
X12520182Y-18209984D02*
X12501134Y-18209984D01*
X12501134Y-18209984D02*
X12482086Y-18200460D01*
X12482086Y-18200460D02*
X12472563Y-18190936D01*
X12472563Y-18190936D02*
X12463039Y-18171889D01*
X12463039Y-18171889D02*
X12453515Y-18133793D01*
X12453515Y-18133793D02*
X12453515Y-18086174D01*
X12453515Y-18086174D02*
X12463039Y-18048079D01*
X12463039Y-18048079D02*
X12472563Y-18029031D01*
X12472563Y-18029031D02*
X12482086Y-18019508D01*
X12482086Y-18019508D02*
X12501134Y-18009984D01*
X12653515Y-18190936D02*
X12663039Y-18200460D01*
X12663039Y-18200460D02*
X12653515Y-18209984D01*
X12653515Y-18209984D02*
X12643991Y-18200460D01*
X12643991Y-18200460D02*
X12653515Y-18190936D01*
X12653515Y-18190936D02*
X12653515Y-18209984D01*
X12853515Y-18209984D02*
X12739229Y-18209984D01*
X12796372Y-18209984D02*
X12796372Y-18009984D01*
X12796372Y-18009984D02*
X12777325Y-18038555D01*
X12777325Y-18038555D02*
X12758277Y-18057603D01*
X12758277Y-18057603D02*
X12739229Y-18067127D01*
X13043991Y-18209984D02*
X12929706Y-18209984D01*
X12986848Y-18209984D02*
X12986848Y-18009984D01*
X12986848Y-18009984D02*
X12967801Y-18038555D01*
X12967801Y-18038555D02*
X12948753Y-18057603D01*
X12948753Y-18057603D02*
X12929706Y-18067127D01*
X13158277Y-18095698D02*
X13139229Y-18086174D01*
X13139229Y-18086174D02*
X13129706Y-18076650D01*
X13129706Y-18076650D02*
X13120182Y-18057603D01*
X13120182Y-18057603D02*
X13120182Y-18048079D01*
X13120182Y-18048079D02*
X13129706Y-18029031D01*
X13129706Y-18029031D02*
X13139229Y-18019508D01*
X13139229Y-18019508D02*
X13158277Y-18009984D01*
X13158277Y-18009984D02*
X13196372Y-18009984D01*
X13196372Y-18009984D02*
X13215420Y-18019508D01*
X13215420Y-18019508D02*
X13224944Y-18029031D01*
X13224944Y-18029031D02*
X13234467Y-18048079D01*
X13234467Y-18048079D02*
X13234467Y-18057603D01*
X13234467Y-18057603D02*
X13224944Y-18076650D01*
X13224944Y-18076650D02*
X13215420Y-18086174D01*
X13215420Y-18086174D02*
X13196372Y-18095698D01*
X13196372Y-18095698D02*
X13158277Y-18095698D01*
X13158277Y-18095698D02*
X13139229Y-18105222D01*
X13139229Y-18105222D02*
X13129706Y-18114746D01*
X13129706Y-18114746D02*
X13120182Y-18133793D01*
X13120182Y-18133793D02*
X13120182Y-18171889D01*
X13120182Y-18171889D02*
X13129706Y-18190936D01*
X13129706Y-18190936D02*
X13139229Y-18200460D01*
X13139229Y-18200460D02*
X13158277Y-18209984D01*
X13158277Y-18209984D02*
X13196372Y-18209984D01*
X13196372Y-18209984D02*
X13215420Y-18200460D01*
X13215420Y-18200460D02*
X13224944Y-18190936D01*
X13224944Y-18190936D02*
X13234467Y-18171889D01*
X13234467Y-18171889D02*
X13234467Y-18133793D01*
X13234467Y-18133793D02*
X13224944Y-18114746D01*
X13224944Y-18114746D02*
X13215420Y-18105222D01*
X13215420Y-18105222D02*
X13196372Y-18095698D01*
X13424944Y-18209984D02*
X13310658Y-18209984D01*
X13367801Y-18209984D02*
X13367801Y-18009984D01*
X13367801Y-18009984D02*
X13348753Y-18038555D01*
X13348753Y-18038555D02*
X13329706Y-18057603D01*
X13329706Y-18057603D02*
X13310658Y-18067127D01*
X13501134Y-18009984D02*
X13501134Y-18048079D01*
X13577325Y-18009984D02*
X13577325Y-18048079D01*
X13872563Y-18286174D02*
X13863039Y-18276650D01*
X13863039Y-18276650D02*
X13843991Y-18248079D01*
X13843991Y-18248079D02*
X13834468Y-18229031D01*
X13834468Y-18229031D02*
X13824944Y-18200460D01*
X13824944Y-18200460D02*
X13815420Y-18152841D01*
X13815420Y-18152841D02*
X13815420Y-18114746D01*
X13815420Y-18114746D02*
X13824944Y-18067127D01*
X13824944Y-18067127D02*
X13834468Y-18038555D01*
X13834468Y-18038555D02*
X13843991Y-18019508D01*
X13843991Y-18019508D02*
X13863039Y-17990936D01*
X13863039Y-17990936D02*
X13872563Y-17981412D01*
X14034468Y-18076650D02*
X14034468Y-18209984D01*
X13986848Y-18000460D02*
X13939229Y-18143317D01*
X13939229Y-18143317D02*
X14063039Y-18143317D01*
X14291610Y-18209984D02*
X14291610Y-18009984D01*
X14377325Y-18209984D02*
X14377325Y-18105222D01*
X14377325Y-18105222D02*
X14367801Y-18086174D01*
X14367801Y-18086174D02*
X14348753Y-18076650D01*
X14348753Y-18076650D02*
X14320182Y-18076650D01*
X14320182Y-18076650D02*
X14301134Y-18086174D01*
X14301134Y-18086174D02*
X14291610Y-18095698D01*
X14501134Y-18209984D02*
X14482087Y-18200460D01*
X14482087Y-18200460D02*
X14472563Y-18190936D01*
X14472563Y-18190936D02*
X14463039Y-18171889D01*
X14463039Y-18171889D02*
X14463039Y-18114746D01*
X14463039Y-18114746D02*
X14472563Y-18095698D01*
X14472563Y-18095698D02*
X14482087Y-18086174D01*
X14482087Y-18086174D02*
X14501134Y-18076650D01*
X14501134Y-18076650D02*
X14529706Y-18076650D01*
X14529706Y-18076650D02*
X14548753Y-18086174D01*
X14548753Y-18086174D02*
X14558277Y-18095698D01*
X14558277Y-18095698D02*
X14567801Y-18114746D01*
X14567801Y-18114746D02*
X14567801Y-18171889D01*
X14567801Y-18171889D02*
X14558277Y-18190936D01*
X14558277Y-18190936D02*
X14548753Y-18200460D01*
X14548753Y-18200460D02*
X14529706Y-18209984D01*
X14529706Y-18209984D02*
X14501134Y-18209984D01*
X14682087Y-18209984D02*
X14663039Y-18200460D01*
X14663039Y-18200460D02*
X14653515Y-18181412D01*
X14653515Y-18181412D02*
X14653515Y-18009984D01*
X14834468Y-18200460D02*
X14815420Y-18209984D01*
X14815420Y-18209984D02*
X14777325Y-18209984D01*
X14777325Y-18209984D02*
X14758277Y-18200460D01*
X14758277Y-18200460D02*
X14748753Y-18181412D01*
X14748753Y-18181412D02*
X14748753Y-18105222D01*
X14748753Y-18105222D02*
X14758277Y-18086174D01*
X14758277Y-18086174D02*
X14777325Y-18076650D01*
X14777325Y-18076650D02*
X14815420Y-18076650D01*
X14815420Y-18076650D02*
X14834468Y-18086174D01*
X14834468Y-18086174D02*
X14843991Y-18105222D01*
X14843991Y-18105222D02*
X14843991Y-18124270D01*
X14843991Y-18124270D02*
X14748753Y-18143317D01*
X14920182Y-18200460D02*
X14939230Y-18209984D01*
X14939230Y-18209984D02*
X14977325Y-18209984D01*
X14977325Y-18209984D02*
X14996372Y-18200460D01*
X14996372Y-18200460D02*
X15005896Y-18181412D01*
X15005896Y-18181412D02*
X15005896Y-18171889D01*
X15005896Y-18171889D02*
X14996372Y-18152841D01*
X14996372Y-18152841D02*
X14977325Y-18143317D01*
X14977325Y-18143317D02*
X14948753Y-18143317D01*
X14948753Y-18143317D02*
X14929706Y-18133793D01*
X14929706Y-18133793D02*
X14920182Y-18114746D01*
X14920182Y-18114746D02*
X14920182Y-18105222D01*
X14920182Y-18105222D02*
X14929706Y-18086174D01*
X14929706Y-18086174D02*
X14948753Y-18076650D01*
X14948753Y-18076650D02*
X14977325Y-18076650D01*
X14977325Y-18076650D02*
X14996372Y-18086174D01*
X15072563Y-18286174D02*
X15082087Y-18276650D01*
X15082087Y-18276650D02*
X15101134Y-18248079D01*
X15101134Y-18248079D02*
X15110658Y-18229031D01*
X15110658Y-18229031D02*
X15120182Y-18200460D01*
X15120182Y-18200460D02*
X15129706Y-18152841D01*
X15129706Y-18152841D02*
X15129706Y-18114746D01*
X15129706Y-18114746D02*
X15120182Y-18067127D01*
X15120182Y-18067127D02*
X15110658Y-18038555D01*
X15110658Y-18038555D02*
X15101134Y-18019508D01*
X15101134Y-18019508D02*
X15082087Y-17990936D01*
X15082087Y-17990936D02*
X15072563Y-17981412D01*
M02*
